<?xml version="1.0" encoding="UTF-8" standalone="no"?>
<svg
   xmlns:dc="http://purl.org/dc/elements/1.1/"
   xmlns:cc="http://creativecommons.org/ns#"
   xmlns:rdf="http://www.w3.org/1999/02/22-rdf-syntax-ns#"
   xmlns:svg="http://www.w3.org/2000/svg"
   xmlns="http://www.w3.org/2000/svg"
   xmlns:sodipodi="http://sodipodi.sourceforge.net/DTD/sodipodi-0.dtd"
   xmlns:inkscape="http://www.inkscape.org/namespaces/inkscape"
   height="135px"
   version="1.1"
   width="90px"
   id="svg24208"
   sodipodi:docname="01-red.svg"
   inkscape:version="0.92.2 (5c3e80d, 2017-08-06)">
  <metadata
     id="metadata24212">
    <rdf:RDF>
      <cc:Work
         rdf:about="">
        <dc:format>image/svg+xml</dc:format>
        <dc:type
           rdf:resource="http://purl.org/dc/dcmitype/StillImage" />
        <dc:title />
      </cc:Work>
    </rdf:RDF>
  </metadata>
  <sodipodi:namedview
     pagecolor="#ffffff"
     bordercolor="#666666"
     borderopacity="1"
     objecttolerance="10"
     gridtolerance="10"
     guidetolerance="10"
     inkscape:pageopacity="0"
     inkscape:pageshadow="2"
     inkscape:window-width="1920"
     inkscape:window-height="1025"
     id="namedview24210"
     showgrid="false"
     inkscape:zoom="1.7481481"
     inkscape:cx="371.99231"
     inkscape:cy="-96.389403"
     inkscape:window-x="-8"
     inkscape:window-y="-8"
     inkscape:window-maximized="1"
     inkscape:current-layer="svg24208" />
  <defs
     id="defs2" />
  <g
     id="g4497">
    <rect
       id="rect532"
       y="3"
       x="15"
       width="1"
       height="1"
       style="fill:#eba0a1" />
    <rect
       id="rect694"
       y="4"
       x="8"
       width="1"
       height="1"
       style="fill:#da5152" />
    <rect
       id="rect708"
       y="4"
       x="15"
       width="1"
       height="1"
       style="fill:#e79091" />
    <rect
       id="rect872"
       y="5"
       x="8"
       width="1"
       height="1"
       style="fill:#eba0a1" />
    <rect
       id="rect1052"
       y="6"
       x="8"
       width="1"
       height="1"
       style="fill:#da5152" />
    <rect
       id="rect1066"
       y="6"
       x="15"
       width="1"
       height="1"
       style="fill:#e79091" />
    <rect
       id="rect1236"
       y="7"
       x="10"
       width="1"
       height="1"
       style="fill:#cc1214" />
    <rect
       id="rect1246"
       y="7"
       x="15"
       width="1"
       height="1"
       style="fill:#d33133" />
    <rect
       id="rect1410"
       y="8"
       x="7"
       width="1"
       height="1"
       style="fill:#e79091" />
    <rect
       id="rect1416"
       y="8"
       x="10"
       width="1"
       height="1"
       style="fill:#e79091" />
    <rect
       id="rect1590"
       y="9"
       x="7"
       width="1"
       height="1"
       style="fill:#d33133" />
    <rect
       id="rect1594"
       y="9"
       x="9"
       width="1"
       height="1"
       style="fill:#da5152" />
    <rect
       id="rect1608"
       y="9"
       x="16"
       width="1"
       height="1"
       style="fill:#e79091" />
    <rect
       id="rect1768"
       y="10"
       x="6"
       width="1"
       height="1"
       style="fill:#f5d0d0" />
    <rect
       id="rect1774"
       y="10"
       x="9"
       width="1"
       height="1"
       style="fill:#eeb0b1" />
    <rect
       id="rect1778"
       y="10"
       x="11"
       width="1"
       height="1"
       style="fill:#d33133" />
    <rect
       id="rect1788"
       y="10"
       x="16"
       width="1"
       height="1"
       style="fill:#d33133" />
    <rect
       id="rect1948"
       y="11"
       x="6"
       width="1"
       height="1"
       style="fill:#e17172" />
    <rect
       id="rect1958"
       y="11"
       x="11"
       width="1"
       height="1"
       style="fill:#e79091" />
    <rect
       id="rect2128"
       y="12"
       x="6"
       width="1"
       height="1"
       style="fill:#d02223" />
    <rect
       id="rect2136"
       y="12"
       x="10"
       width="1"
       height="1"
       style="fill:#cc1214" />
    <rect
       id="rect2138"
       y="12"
       x="11"
       width="1"
       height="1"
       style="fill:#da5152" />
    <rect
       id="rect2150"
       y="12"
       x="17"
       width="1"
       height="1"
       style="fill:#e79091" />
    <rect
       id="rect2314"
       y="13"
       x="9"
       width="1"
       height="1"
       style="fill:#d02223" />
    <rect
       id="rect2330"
       y="13"
       x="17"
       width="1"
       height="1"
       style="fill:#d33133" />
    <rect
       id="rect2486"
       y="14"
       x="5"
       width="1"
       height="1"
       style="fill:#dd6162" />
    <rect
       id="rect2490"
       y="14"
       x="7"
       width="1"
       height="1"
       style="fill:#d02223" />
    <rect
       id="rect2496"
       y="14"
       x="10"
       width="1"
       height="1"
       style="fill:#f5d0d0" />
    <rect
       id="rect2498"
       y="14"
       x="11"
       width="1"
       height="1"
       style="fill:#da5152" />
    <rect
       id="rect2666"
       y="15"
       x="5"
       width="1"
       height="1"
       style="fill:#cc1214" />
    <rect
       id="rect2692"
       y="15"
       x="18"
       width="1"
       height="1"
       style="fill:#e79091" />
    <rect
       id="rect2844"
       y="16"
       x="4"
       width="1"
       height="1"
       style="fill:#eba0a1" />
    <rect
       id="rect2850"
       y="16"
       x="7"
       width="1"
       height="1"
       style="fill:#f5d0d0" />
    <rect
       id="rect2862"
       y="16"
       x="13"
       width="1"
       height="1"
       style="fill:#d33133" />
    <rect
       id="rect2872"
       y="16"
       x="18"
       width="1"
       height="1"
       style="fill:#d33133" />
    <rect
       id="rect3024"
       y="17"
       x="4"
       width="1"
       height="1"
       style="fill:#d02223" />
    <rect
       id="rect3042"
       y="17"
       x="13"
       width="1"
       height="1"
       style="fill:#e17172" />
    <rect
       id="rect3200"
       y="18"
       x="2"
       width="1"
       height="1"
       style="fill:#f5d0d0" />
    <rect
       id="rect3210"
       y="18"
       x="7"
       width="1"
       height="1"
       style="fill:#eba0a1" />
    <rect
       id="rect3222"
       y="18"
       x="13"
       width="1"
       height="1"
       style="fill:#d02223" />
    <rect
       id="rect3234"
       y="18"
       x="19"
       width="1"
       height="1"
       style="fill:#d33133" />
    <rect
       id="rect3380"
       y="19"
       x="2"
       width="1"
       height="1"
       style="fill:#eba0a1" />
    <rect
       id="rect3400"
       y="19"
       x="12"
       width="1"
       height="1"
       style="fill:#e17172" />
    <rect
       id="rect3416"
       y="19"
       x="20"
       width="1"
       height="1"
       style="fill:#e17172" />
    <rect
       id="rect20614"
       y="114"
       x="69"
       width="1"
       height="1"
       style="fill:#eba0a1" />
    <rect
       id="rect20794"
       y="115"
       x="69"
       width="1"
       height="1"
       style="fill:#e79091" />
    <rect
       id="rect20796"
       y="115"
       x="70"
       width="1"
       height="1"
       style="fill:#cc1214" />
    <rect
       id="rect20808"
       y="115"
       x="76"
       width="1"
       height="1"
       style="fill:#d02223" />
    <rect
       id="rect20820"
       y="115"
       x="82"
       width="1"
       height="1"
       style="fill:#da5152" />
    <rect
       id="rect20828"
       y="115"
       x="86"
       width="1"
       height="1"
       style="fill:#d02223" />
    <rect
       id="rect20830"
       y="115"
       x="87"
       width="1"
       height="1"
       style="fill:#f5d0d0" />
    <rect
       id="rect20988"
       y="116"
       x="76"
       width="1"
       height="1"
       style="fill:#eba0a1" />
    <rect
       id="rect21156"
       y="117"
       x="70"
       width="1"
       height="1"
       style="fill:#fcefef" />
    <rect
       id="rect21168"
       y="117"
       x="76"
       width="1"
       height="1"
       style="fill:#e17172" />
    <rect
       id="rect21180"
       y="117"
       x="82"
       width="1"
       height="1"
       style="fill:#eeb0b1" />
    <rect
       id="rect21338"
       y="118"
       x="71"
       width="1"
       height="1"
       style="fill:#da5152" />
    <rect
       id="rect21348"
       y="118"
       x="76"
       width="1"
       height="1"
       style="fill:#cc1214" />
    <rect
       id="rect21350"
       y="118"
       x="77"
       width="1"
       height="1"
       style="fill:#f5d0d0" />
    <rect
       id="rect21360"
       y="118"
       x="82"
       width="1"
       height="1"
       style="fill:#dd6162" />
    <rect
       id="rect21364"
       y="118"
       x="84"
       width="1"
       height="1"
       style="fill:#d02223" />
    <rect
       id="rect21518"
       y="119"
       x="71"
       width="1"
       height="1"
       style="fill:#eba0a1" />
    <rect
       id="rect21530"
       y="119"
       x="77"
       width="1"
       height="1"
       style="fill:#cc1214" />
    <rect
       id="rect21532"
       y="119"
       x="78"
       width="1"
       height="1"
       style="fill:#e79091" />
    <rect
       id="rect21540"
       y="119"
       x="82"
       width="1"
       height="1"
       style="fill:#cc1214" />
    <rect
       id="rect21698"
       y="120"
       x="71"
       width="1"
       height="1"
       style="fill:#fcefef" />
    <rect
       id="rect21714"
       y="120"
       x="79"
       width="1"
       height="1"
       style="fill:#cc1214" />
    <rect
       id="rect21716"
       y="120"
       x="80"
       width="1"
       height="1"
       style="fill:#da5152" />
    <rect
       id="rect21718"
       y="120"
       x="81"
       width="1"
       height="1"
       style="fill:#dd6162" />
    <path
       id="path4366"
       d="m 15,5 c 0,0.3333333 0,0.6666667 0,1 0.333333,0 0.666667,0 1,0 0,-0.3333333 0,-0.6666667 0,-1 -0.333333,0 -0.666667,0 -1,0 z"
       style="fill:#f8dfe0" />
    <path
       id="path4364"
       d="M 7,7 C 7,7.3333333 7,7.6666667 7,8 7.3333333,8 7.6666667,8 8,8 8,7.6666667 8,7.3333333 8,7 7.6666667,7 7.3333333,7 7,7 Z"
       style="fill:#f8dfe0" />
    <path
       id="path4362"
       d="m 16,8 c 0,0.3333333 0,0.6666667 0,1 0.333333,0 0.666667,0 1,0 0,-0.3333333 0,-0.6666667 0,-1 -0.333333,0 -0.666667,0 -1,0 z"
       style="fill:#f8dfe0" />
    <path
       id="path4360"
       d="m 10,9 c 0,0.3333333 0,0.6666667 0,1 0.333333,0 0.666667,0 1,0 0,-0.3333333 0,-0.6666667 0,-1 -0.333333,0 -0.666667,0 -1,0 z"
       style="fill:#f8dfe0" />
    <path
       id="path4358"
       d="m 17,11 c 0,0.333333 0,0.666667 0,1 0.333333,0 0.666667,0 1,0 0,-0.333333 0,-0.666667 0,-1 -0.333333,0 -0.666667,0 -1,0 z"
       style="fill:#f8dfe0" />
    <path
       id="path4356"
       d="m 18,14 c 0,0.333333 0,0.666667 0,1 0.333333,0 0.666667,0 1,0 0,-0.333333 0,-0.666667 0,-1 -0.333333,0 -0.666667,0 -1,0 z"
       style="fill:#f8dfe0" />
    <path
       id="path4354"
       d="m 81,114 c 0,0.66667 0,1.33333 0,2 0.333333,0 0.666667,0 1,0 0,-0.66667 0,-1.33333 0,-2 -0.333333,0 -0.666667,0 -1,0 z"
       style="fill:#f8dfe0" />
    <path
       id="path4352"
       d="m 82,116 c 0,0.33333 0,0.66667 0,1 0.333333,0 0.666667,0 1,0 0,-0.33333 0,-0.66667 0,-1 -0.333333,0 -0.666667,0 -1,0 z"
       style="fill:#f8dfe0" />
    <path
       id="rect21724"
       d="m 84,120 c 0,0.33333 0,0.66667 0,1 0.333333,0 0.666667,0 1,0 0,-0.33333 0,-0.66667 0,-1 -0.333333,0 -0.666667,0 -1,0 z"
       style="fill:#f8dfe0" />
    <rect
       id="rect21880"
       y="121"
       x="72"
       width="1"
       height="1"
       style="fill:#da5152" />
    <rect
       id="rect21892"
       y="121"
       x="78"
       width="1"
       height="1"
       style="fill:#d02223" />
    <rect
       id="rect21902"
       y="121"
       x="83"
       width="1"
       height="1"
       style="fill:#d33133" />
    <rect
       id="rect22060"
       y="122"
       x="72"
       width="1"
       height="1"
       style="fill:#eba0a1" />
    <path
       id="path4335"
       d="m 9,11 c 0,0.333333 0,0.666667 0,1 0.3333333,0 0.6666667,0 1,0 0,-0.333333 0,-0.666667 0,-1 -0.3333333,0 -0.6666667,0 -1,0 z"
       style="fill:#f1c0c0" />
    <path
       id="path4333"
       d="m 5,13 c 0,0.333333 0,0.666667 0,1 0.3333333,0 0.6666667,0 1,0 0,-0.333333 0,-0.666667 0,-1 -0.3333333,0 -0.6666667,0 -1,0 z"
       style="fill:#f1c0c0" />
    <path
       id="path4331"
       d="m 19,17 c 0,0.333333 0,0.666667 0,1 0.333333,0 0.666667,0 1,0 0,-0.333333 0,-0.666667 0,-1 -0.333333,0 -0.666667,0 -1,0 z"
       style="fill:#f1c0c0" />
    <path
       id="path4329"
       d="m 20,18 c 0,0.333333 0,0.666667 0,1 0.333333,0 0.666667,0 1,0 0,-0.333333 0,-0.666667 0,-1 -0.333333,0 -0.666667,0 -1,0 z"
       style="fill:#f1c0c0" />
    <path
       id="path4327"
       d="m 12,18 c 0,0.333333 0,0.666667 0,1 0.333333,0 0.666667,0 1,0 0,-0.333333 0,-0.666667 0,-1 -0.333333,0 -0.666667,0 -1,0 z"
       style="fill:#f1c0c0" />
    <path
       id="path4325"
       d="m 77,114 c 0,0.66667 0,1.33333 0,2 0.333333,0 0.666667,0 1,0 0,-0.66667 0,-1.33333 0,-2 -0.333333,0 -0.666667,0 -1,0 z"
       style="fill:#f1c0c0" />
    <path
       id="path4323"
       d="m 87,114 c 0,0.33333 0,0.66667 0,1 0.333333,0 0.666667,0 1,0 0,-0.33333 0,-0.66667 0,-1 -0.333333,0 -0.666667,0 -1,0 z"
       style="fill:#f1c0c0" />
    <path
       id="path4321"
       d="m 85,117 c 0,0.33333 0,0.66667 0,1 0.333333,0 0.666667,0 1,0 0,-0.33333 0,-0.66667 0,-1 -0.333333,0 -0.666667,0 -1,0 z"
       style="fill:#f1c0c0" />
    <path
       id="rect22072"
       d="m 78,122 c 0,0.33333 0,0.66667 0,1 0.333333,0 0.666667,0 1,0 0,-0.33333 0,-0.66667 0,-1 -0.333333,0 -0.666667,0 -1,0 z"
       style="fill:#f1c0c0" />
    <rect
       id="rect22074"
       y="122"
       x="79"
       width="1"
       height="1"
       style="fill:#f5d0d0" />
    <path
       id="path4270"
       d="m 8,3 c 0,0.3333333 0,0.6666667 0,1 2.333333,0 4.666667,0 7,0 0,-0.3333333 0,-0.6666667 0,-1 -2.333333,0 -4.666667,0 -7,0 z"
       style="fill:#e48182" />
    <path
       id="path4268"
       d="m 7,15 c 0,0.333333 0,0.666667 0,1 0.3333333,0 0.6666667,0 1,0 0,-0.333333 0,-0.666667 0,-1 -0.3333333,0 -0.6666667,0 -1,0 z"
       style="fill:#e48182" />
    <path
       id="path4266"
       d="m 12,15 c 0,0.333333 0,0.666667 0,1 0.333333,0 0.666667,0 1,0 0,-0.333333 0,-0.666667 0,-1 -0.333333,0 -0.666667,0 -1,0 z"
       style="fill:#e48182" />
    <path
       id="path4264"
       d="m 70,114 c 0,0.33333 0,0.66667 0,1 2.333333,0 4.666667,0 7,0 0,-0.33333 0,-0.66667 0,-1 -2.333333,0 -4.666667,0 -7,0 z"
       style="fill:#e48182" />
    <path
       id="path4262"
       d="m 82,114 c 0,0.33333 0,0.66667 0,1 1.666667,0 3.333333,0 5,0 0,-0.33333 0,-0.66667 0,-1 -1.666667,0 -3.333333,0 -5,0 z"
       style="fill:#e48182" />
    <path
       id="path4260"
       d="m 70,116 c 0,0.33333 0,0.66667 0,1 0.333333,0 0.666667,0 1,0 0,-0.33333 0,-0.66667 0,-1 -0.333333,0 -0.666667,0 -1,0 z"
       style="fill:#e48182" />
    <path
       id="path4258"
       d="m 84,119 c 0,0.33333 0,0.66667 0,1 0.333333,0 0.666667,0 1,0 0,-0.33333 0,-0.66667 0,-1 -0.333333,0 -0.666667,0 -1,0 z"
       style="fill:#e48182" />
    <path
       id="rect22076"
       d="m 80,122 c 0,0.33333 0,0.66667 0,1 0.333333,0 0.666667,0 1,0 0,-0.33333 0,-0.66667 0,-1 -0.333333,0 -0.666667,0 -1,0 z"
       style="fill:#e48182" />
    <rect
       id="rect22082"
       y="122"
       x="83"
       width="1"
       height="1"
       style="fill:#eba0a1" />
    <rect
       id="rect22240"
       y="123"
       x="72"
       width="1"
       height="1"
       style="fill:#fcefef" />
    <rect
       id="rect22252"
       y="123"
       x="78"
       width="1"
       height="1"
       style="fill:#e17172" />
    <rect
       id="rect22256"
       y="123"
       x="80"
       width="1"
       height="1"
       style="fill:#e79091" />
    <rect
       id="rect22262"
       y="123"
       x="83"
       width="1"
       height="1"
       style="fill:#fcefef" />
    <rect
       id="rect22422"
       y="124"
       x="73"
       width="1"
       height="1"
       style="fill:#da5152" />
    <rect
       id="rect22432"
       y="124"
       x="78"
       width="1"
       height="1"
       style="fill:#d02223" />
    <rect
       id="rect22436"
       y="124"
       x="80"
       width="1"
       height="1"
       style="fill:#d33133" />
    <rect
       id="rect22440"
       y="124"
       x="82"
       width="1"
       height="1"
       style="fill:#da5152" />
    <rect
       id="rect22602"
       y="125"
       x="73"
       width="1"
       height="1"
       style="fill:#eba0a1" />
    <rect
       id="rect22614"
       y="125"
       x="79"
       width="1"
       height="1"
       style="fill:#eeb0b1" />
    <rect
       id="rect22620"
       y="125"
       x="82"
       width="1"
       height="1"
       style="fill:#eeb0b1" />
    <rect
       id="rect22782"
       y="126"
       x="73"
       width="1"
       height="1"
       style="fill:#fcefef" />
    <rect
       id="rect22794"
       y="126"
       x="79"
       width="1"
       height="1"
       style="fill:#cc1214" />
    <rect
       id="rect22798"
       y="126"
       x="81"
       width="1"
       height="1"
       style="fill:#cc1214" />
    <rect
       id="rect22964"
       y="127"
       x="74"
       width="1"
       height="1"
       style="fill:#da5152" />
    <rect
       id="rect22978"
       y="127"
       x="81"
       width="1"
       height="1"
       style="fill:#dd6162" />
    <rect
       id="rect23144"
       y="128"
       x="74"
       width="1"
       height="1"
       style="fill:#eba0a1" />
    <rect
       id="rect23158"
       y="128"
       x="81"
       width="1"
       height="1"
       style="fill:#f5d0d0" />
    <rect
       id="rect23324"
       y="129"
       x="74"
       width="1"
       height="1"
       style="fill:#e79091" />
    <path
       id="path4227"
       d="M 9,4 C 9,5 9,6 9,7 8.6666667,7 8.3333333,7 8,7 c 0,1 0,2 0,3 -0.3333333,0 -0.6666667,0 -1,0 0,1 0,2 0,3 -0.3333333,0 -0.6666667,0 -1,0 0,1 0,2 0,3 -0.3333333,0 -0.6666667,0 -1,0 0,0.666667 0,1.333333 0,2 -0.3333333,0 -0.6666667,0 -1,0 0,0.333333 0,0.666667 0,1 1,0 2,0 3,0 0,-1.666667 0,-3.333333 0,-5 0.3333333,0 0.6666667,0 1,0 0,-0.333333 0,-0.666667 0,-1 0.6666667,0 1.3333333,0 2,0 0,-0.333333 0,-0.666667 0,-1 -0.3333333,0 -0.6666667,0 -1,0 0,-1 0,-2 0,-3 0.3333333,0 0.6666667,0 1,0 0,-0.6666667 0,-1.3333333 0,-2 0.333333,0 0.666667,0 1,0 0,1 0,2 0,3 0.333333,0 0.666667,0 1,0 0,1 0,2 0,3 -0.666667,0 -1.333333,0 -2,0 0,0.333333 0,0.666667 0,1 0.666667,0 1.333333,0 2,0 0,0.333333 0,0.666667 0,1 0.333333,0 0.666667,0 1,0 0,0.333333 0,0.666667 0,1 0.333333,0 0.666667,0 1,0 0,1 0,2 0,3 1.666667,0 3.333333,0 5,0 0,-0.666667 0,-1.333333 0,-2 -0.333333,0 -0.666667,0 -1,0 0,-1 0,-2 0,-3 -0.333333,0 -0.666667,0 -1,0 0,-1 0,-2 0,-3 -0.333333,0 -0.666667,0 -1,0 0,-1 0,-2 0,-3 -0.333333,0 -0.666667,0 -1,0 0,-1.3333333 0,-2.6666667 0,-4 -2,0 -4,0 -6,0 z"
       style="fill:#c90305" />
    <path
       id="rect23336"
       d="m 71,115 c 0,1 0,2 0,3 0.333333,0 0.666667,0 1,0 0,1 0,2 0,3 0.333333,0 0.666667,0 1,0 0,1 0,2 0,3 0.333333,0 0.666667,0 1,0 0,1 0,2 0,3 0.333333,0 0.666667,0 1,0 0,1 0,2 0,3 2,0 4,0 6,0 0,-1.33333 0,-2.66667 0,-4 0.333333,0 0.666667,0 1,0 0,-0.66667 0,-1.33333 0,-2 0.333333,0 0.666667,0 1,0 0,-1 0,-2 0,-3 0.333333,0 0.666667,0 1,0 0,-1 0,-2 0,-3 0.333333,0 0.666667,0 1,0 0,-0.66667 0,-1.33333 0,-2 0.333333,0 0.666667,0 1,0 0,-0.33333 0,-0.66667 0,-1 -1,0 -2,0 -3,0 0,1.66667 0,3.33333 0,5 -0.333333,0 -0.666667,0 -1,0 0,0.33333 0,0.66667 0,1 -1,0 -2,0 -3,0 0,0.33333 0,0.66667 0,1 0.666667,0 1.333333,0 2,0 0,1 0,2 0,3 -0.333333,0 -0.666667,0 -1,0 0,0.66667 0,1.33333 0,2 -0.333333,0 -0.666667,0 -1,0 0,-0.66667 0,-1.33333 0,-2 -0.333333,0 -0.666667,0 -1,0 0,-1.33333 0,-2.66667 0,-4 0.333333,0 0.666667,0 1,0 0,-0.33333 0,-0.66667 0,-1 -0.666667,0 -1.333333,0 -2,0 0,-0.33333 0,-0.66667 0,-1 -0.333333,0 -0.666667,0 -1,0 0,-1.33333 0,-2.66667 0,-4 -1.666667,0 -3.333333,0 -5,0 z"
       style="fill:#c90305" />
    <rect
       id="rect23338"
       y="129"
       x="81"
       width="1"
       height="1"
       style="fill:#eba0a1" />
    <rect
       id="rect23502"
       y="130"
       x="74"
       width="1"
       height="1"
       style="fill:#e17172" />
    <path
       id="path4304"
       d="m 8,13 c 0,0.333333 0,0.666667 0,1 0.3333333,0 0.6666667,0 1,0 0,-0.333333 0,-0.666667 0,-1 -0.3333333,0 -0.6666667,0 -1,0 z"
       style="fill:#d64143" />
    <path
       id="path4302"
       d="m 3,18 c 0,0.666667 0,1.333333 0,2 1.6666667,0 3.3333333,0 5,0 0,-0.333333 0,-0.666667 0,-1 -1.3333333,0 -2.6666667,0 -4,0 0,-0.333333 0,-0.666667 0,-1 -0.3333333,0 -0.6666667,0 -1,0 z"
       style="fill:#d64143" />
    <path
       id="path4300"
       d="m 13,19 c 0,0.333333 0,0.666667 0,1 2.333333,0 4.666667,0 7,0 0,-0.333333 0,-0.666667 0,-1 -2.333333,0 -4.666667,0 -7,0 z"
       style="fill:#d64143" />
    <path
       id="path4298"
       d="m 85,116 c 0,0.33333 0,0.66667 0,1 0.333333,0 0.666667,0 1,0 0,-0.33333 0,-0.66667 0,-1 -0.333333,0 -0.666667,0 -1,0 z"
       style="fill:#d64143" />
    <path
       id="rect23514"
       d="m 75,130 c 0,0.33333 0,0.66667 0,1 2,0 4,0 6,0 0,-0.33333 0,-0.66667 0,-1 -2,0 -4,0 -6,0 z"
       style="fill:#d64143" />
    <rect
       id="rect23516"
       y="130"
       x="81"
       width="1"
       height="1"
       style="fill:#e17172" />
  </g>
</svg>
