<?xml version="1.0" encoding="UTF-8" standalone="no"?>
<svg
   xmlns:dc="http://purl.org/dc/elements/1.1/"
   xmlns:cc="http://creativecommons.org/ns#"
   xmlns:rdf="http://www.w3.org/1999/02/22-rdf-syntax-ns#"
   xmlns:svg="http://www.w3.org/2000/svg"
   xmlns="http://www.w3.org/2000/svg"
   xmlns:sodipodi="http://sodipodi.sourceforge.net/DTD/sodipodi-0.dtd"
   xmlns:inkscape="http://www.inkscape.org/namespaces/inkscape"
   height="135px"
   version="1.1"
   width="90px"
   id="svg24208"
   sodipodi:docname="02-red.svg"
   inkscape:version="0.92.2 (5c3e80d, 2017-08-06)">
  <metadata
     id="metadata24212">
    <rdf:RDF>
      <cc:Work
         rdf:about="">
        <dc:format>image/svg+xml</dc:format>
        <dc:type
           rdf:resource="http://purl.org/dc/dcmitype/StillImage" />
        <dc:title />
      </cc:Work>
    </rdf:RDF>
  </metadata>
  <sodipodi:namedview
     pagecolor="#ffffff"
     bordercolor="#666666"
     borderopacity="1"
     objecttolerance="10"
     gridtolerance="10"
     guidetolerance="10"
     inkscape:pageopacity="0"
     inkscape:pageshadow="2"
     inkscape:window-width="1920"
     inkscape:window-height="1025"
     id="namedview24210"
     showgrid="false"
     inkscape:zoom="19.778038"
     inkscape:cx="74.731103"
     inkscape:cy="10.041765"
     inkscape:window-x="-8"
     inkscape:window-y="-8"
     inkscape:window-maximized="1"
     inkscape:current-layer="svg24208" />
  <defs
     id="defs2" />
  <g
     id="g2999">
    <rect
       id="rect530"
       y="3"
       x="14"
       width="1"
       height="1"
       style="fill:#e79091" />
    <rect
       id="rect532"
       y="3"
       x="15"
       width="1"
       height="1"
       style="fill:#f8dfe0" />
    <rect
       id="rect686"
       y="4"
       x="4"
       width="1"
       height="1"
       style="fill:#fcefef" />
    <rect
       id="rect708"
       y="4"
       x="15"
       width="1"
       height="1"
       style="fill:#cc1214" />
    <rect
       id="rect710"
       y="4"
       x="16"
       width="1"
       height="1"
       style="fill:#eba0a1" />
    <rect
       id="rect864"
       y="5"
       x="4"
       width="1"
       height="1"
       style="fill:#e79091" />
    <rect
       id="rect872"
       y="5"
       x="8"
       width="1"
       height="1"
       style="fill:#d33133" />
    <rect
       id="rect876"
       y="5"
       x="10"
       width="1"
       height="1"
       style="fill:#da5152" />
    <rect
       id="rect890"
       y="5"
       x="17"
       width="1"
       height="1"
       style="fill:#eeb0b1" />
    <rect
       id="rect1044"
       y="6"
       x="4"
       width="1"
       height="1"
       style="fill:#f8dfe0" />
    <rect
       id="rect1050"
       y="6"
       x="7"
       width="1"
       height="1"
       style="fill:#dd6162" />
    <rect
       id="rect1058"
       y="6"
       x="11"
       width="1"
       height="1"
       style="fill:#f8dfe0" />
    <rect
       id="rect1240"
       y="7"
       x="12"
       width="1"
       height="1"
       style="fill:#da5152" />
    <rect
       id="rect1406"
       y="8"
       x="5"
       width="1"
       height="1"
       style="fill:#e17172" />
    <rect
       id="rect1420"
       y="8"
       x="12"
       width="1"
       height="1"
       style="fill:#e79091" />
    <rect
       id="rect1586"
       y="9"
       x="5"
       width="1"
       height="1"
       style="fill:#f5d0d0" />
    <rect
       id="rect1588"
       y="9"
       x="6"
       width="1"
       height="1"
       style="fill:#f8dfe0" />
    <rect
       id="rect1610"
       y="9"
       x="17"
       width="1"
       height="1"
       style="fill:#da5152" />
    <rect
       id="rect1780"
       y="10"
       x="12"
       width="1"
       height="1"
       style="fill:#d33133" />
    <rect
       id="rect1790"
       y="10"
       x="17"
       width="1"
       height="1"
       style="fill:#eba0a1" />
    <rect
       id="rect2138"
       y="12"
       x="11"
       width="1"
       height="1"
       style="fill:#d33133" />
    <rect
       id="rect2146"
       y="12"
       x="15"
       width="1"
       height="1"
       style="fill:#d33133" />
    <rect
       id="rect2148"
       y="12"
       x="16"
       width="1"
       height="1"
       style="fill:#fcefef" />
    <rect
       id="rect2316"
       y="13"
       x="10"
       width="1"
       height="1"
       style="fill:#e17172" />
    <rect
       id="rect2324"
       y="13"
       x="14"
       width="1"
       height="1"
       style="fill:#d33133" />
    <rect
       id="rect2326"
       y="13"
       x="15"
       width="1"
       height="1"
       style="fill:#fcefef" />
    <rect
       id="rect2494"
       y="14"
       x="9"
       width="1"
       height="1"
       style="fill:#eba0a1" />
    <rect
       id="rect2502"
       y="14"
       x="13"
       width="1"
       height="1"
       style="fill:#d33133" />
    <rect
       id="rect2504"
       y="14"
       x="14"
       width="1"
       height="1"
       style="fill:#fcefef" />
    <rect
       id="rect2510"
       y="14"
       x="17"
       width="1"
       height="1"
       style="fill:#fcefef" />
    <rect
       id="rect2512"
       y="14"
       x="18"
       width="1"
       height="1"
       style="fill:#f5d0d0" />
    <rect
       id="rect2672"
       y="15"
       x="8"
       width="1"
       height="1"
       style="fill:#eeb0b1" />
    <rect
       id="rect2680"
       y="15"
       x="12"
       width="1"
       height="1"
       style="fill:#dd6162" />
    <rect
       id="rect2690"
       y="15"
       x="17"
       width="1"
       height="1"
       style="fill:#da5152" />
    <rect
       id="rect2692"
       y="15"
       x="18"
       width="1"
       height="1"
       style="fill:#dd6162" />
    <rect
       id="rect2850"
       y="16"
       x="7"
       width="1"
       height="1"
       style="fill:#eba0a1" />
    <rect
       id="rect2852"
       y="16"
       x="8"
       width="1"
       height="1"
       style="fill:#cc1214" />
    <rect
       id="rect3028"
       y="17"
       x="6"
       width="1"
       height="1"
       style="fill:#eba0a1" />
    <rect
       id="rect3206"
       y="18"
       x="5"
       width="1"
       height="1"
       style="fill:#dd6162" />
    <rect
       id="rect3230"
       y="18"
       x="17"
       width="1"
       height="1"
       style="fill:#e79091" />
    <rect
       id="rect3384"
       y="19"
       x="4"
       width="1"
       height="1"
       style="fill:#e17172" />
    <rect
       id="rect3408"
       y="19"
       x="16"
       width="1"
       height="1"
       style="fill:#cc1214" />
    <rect
       id="rect3410"
       y="19"
       x="17"
       width="1"
       height="1"
       style="fill:#fcefef" />
    <rect
       id="rect3588"
       y="20"
       x="16"
       width="1"
       height="1"
       style="fill:#fcefef" />
    <rect
       id="rect20620"
       y="114"
       x="72"
       width="1"
       height="1"
       style="fill:#f8dfe0" />
    <rect
       id="rect20646"
       y="114"
       x="85"
       width="1"
       height="1"
       style="fill:#eeb0b1" />
    <rect
       id="rect20800"
       y="115"
       x="72"
       width="1"
       height="1"
       style="fill:#e17172" />
    <rect
       id="rect20824"
       y="115"
       x="84"
       width="1"
       height="1"
       style="fill:#dd6162" />
    <rect
       id="rect20826"
       y="115"
       x="85"
       width="1"
       height="1"
       style="fill:#fcefef" />
    <rect
       id="rect20980"
       y="116"
       x="72"
       width="1"
       height="1"
       style="fill:#cc1214" />
    <rect
       id="rect21002"
       y="116"
       x="83"
       width="1"
       height="1"
       style="fill:#eba0a1" />
    <rect
       id="rect21158"
       y="117"
       x="71"
       width="1"
       height="1"
       style="fill:#eba0a1" />
    <rect
       id="rect21178"
       y="117"
       x="81"
       width="1"
       height="1"
       style="fill:#cc1214" />
    <rect
       id="rect21180"
       y="117"
       x="82"
       width="1"
       height="1"
       style="fill:#eba0a1" />
    <rect
       id="rect21340"
       y="118"
       x="72"
       width="1"
       height="1"
       style="fill:#da5152" />
    <rect
       id="rect21342"
       y="118"
       x="73"
       width="1"
       height="1"
       style="fill:#eeb0b1" />
    <rect
       id="rect21350"
       y="118"
       x="77"
       width="1"
       height="1"
       style="fill:#d33133" />
    <rect
       id="rect21358"
       y="118"
       x="81"
       width="1"
       height="1"
       style="fill:#f5d0d0" />
    <rect
       id="rect21518"
       y="119"
       x="71"
       width="1"
       height="1"
       style="fill:#e79091" />
    <rect
       id="rect21520"
       y="119"
       x="72"
       width="1"
       height="1"
       style="fill:#fcefef" />
    <rect
       id="rect21526"
       y="119"
       x="75"
       width="1"
       height="1"
       style="fill:#fcefef" />
    <rect
       id="rect21528"
       y="119"
       x="76"
       width="1"
       height="1"
       style="fill:#d33133" />
    <rect
       id="rect21536"
       y="119"
       x="80"
       width="1"
       height="1"
       style="fill:#eba0a1" />
    <rect
       id="rect21704"
       y="120"
       x="74"
       width="1"
       height="1"
       style="fill:#fcefef" />
    <rect
       id="rect21706"
       y="120"
       x="75"
       width="1"
       height="1"
       style="fill:#d33133" />
    <rect
       id="rect21882"
       y="121"
       x="73"
       width="1"
       height="1"
       style="fill:#fcefef" />
    <rect
       id="rect21884"
       y="121"
       x="74"
       width="1"
       height="1"
       style="fill:#d33133" />
    <rect
       id="rect22062"
       y="122"
       x="73"
       width="1"
       height="1"
       style="fill:#d33133" />
    <rect
       id="rect22072"
       y="122"
       x="78"
       width="1"
       height="1"
       style="fill:#f5d0d0" />
    <path
       id="path2786"
       d="M 8,3 C 8,3.3333333 8,3.6666667 8,4 8.3333333,4 8.6666667,4 9,4 9,3.6666667 9,3.3333333 9,3 8.6666667,3 8.3333333,3 8,3 Z"
       style="fill:#e48182" />
    <path
       id="path2784"
       d="M 5,4 C 5,4.3333333 5,4.6666667 5,5 5.3333333,5 5.6666667,5 6,5 6,4.6666667 6,4.3333333 6,4 5.6666667,4 5.3333333,4 5,4 Z"
       style="fill:#e48182" />
    <path
       id="path2782"
       d="M 9,5 C 9,5.3333333 9,5.6666667 9,6 9.3333333,6 9.6666667,6 10,6 10,5.6666667 10,5.3333333 10,5 9.6666667,5 9.3333333,5 9,5 Z"
       style="fill:#e48182" />
    <path
       id="path2780"
       d="M 6,8 C 6,8.3333333 6,8.6666667 6,9 6.3333333,9 6.6666667,9 7,9 7,8.6666667 7,8.3333333 7,8 6.6666667,8 6.3333333,8 6,8 Z"
       style="fill:#e48182" />
    <path
       id="path2778"
       d="m 12,9 c 0,0.3333333 0,0.6666667 0,1 0.333333,0 0.666667,0 1,0 0,-0.3333333 0,-0.6666667 0,-1 -0.333333,0 -0.666667,0 -1,0 z"
       style="fill:#e48182" />
    <path
       id="path2776"
       d="m 74,114 c 0,0.33333 0,0.66667 0,1 3.666667,0 7.333333,0 11,0 0,-0.33333 0,-0.66667 0,-1 -3.666667,0 -7.333333,0 -11,0 z"
       style="fill:#e48182" />
    <path
       id="path2774"
       d="m 79,120 c 0,0.33333 0,0.66667 0,1 0.333333,0 0.666667,0 1,0 0,-0.33333 0,-0.66667 0,-1 -0.333333,0 -0.666667,0 -1,0 z"
       style="fill:#e48182" />
    <path
       id="rect22240"
       d="m 72,123 c 0,0.33333 0,0.66667 0,1 0.333333,0 0.666667,0 1,0 0,-0.33333 0,-0.66667 0,-1 -0.333333,0 -0.666667,0 -1,0 z"
       style="fill:#e48182" />
    <rect
       id="rect22250"
       y="123"
       x="77"
       width="1"
       height="1"
       style="fill:#da5152" />
    <rect
       id="rect22430"
       y="124"
       x="77"
       width="1"
       height="1"
       style="fill:#eba0a1" />
    <rect
       id="rect22442"
       y="124"
       x="83"
       width="1"
       height="1"
       style="fill:#f8dfe0" />
    <rect
       id="rect22444"
       y="124"
       x="84"
       width="1"
       height="1"
       style="fill:#fcefef" />
    <rect
       id="rect22598"
       y="125"
       x="71"
       width="1"
       height="1"
       style="fill:#fcefef" />
    <path
       id="path2809"
       d="M 7,3 C 7,3.3333333 7,3.6666667 7,4 7.3333333,4 7.6666667,4 8,4 8,3.6666667 8,3.3333333 8,3 7.6666667,3 7.3333333,3 7,3 Z"
       style="fill:#f1c0c0" />
    <path
       id="path2807"
       d="m 11,11 c 0,0.333333 0,0.666667 0,1 0.333333,0 0.666667,0 1,0 0,-0.333333 0,-0.666667 0,-1 -0.333333,0 -0.666667,0 -1,0 z"
       style="fill:#f1c0c0" />
    <path
       id="path2805"
       d="m 16,15 c 0,0.333333 0,0.666667 0,1 0.333333,0 0.666667,0 1,0 0,-0.333333 0,-0.666667 0,-1 -0.333333,0 -0.666667,0 -1,0 z"
       style="fill:#f1c0c0" />
    <path
       id="path2803"
       d="m 18,16 c 0,0.333333 0,0.666667 0,1 0.333333,0 0.666667,0 1,0 0,-0.333333 0,-0.666667 0,-1 -0.333333,0 -0.666667,0 -1,0 z"
       style="fill:#f1c0c0" />
    <path
       id="path2801"
       d="m 74,118 c 0,0.33333 0,0.66667 0,1 1,0 2,0 3,0 0,-0.33333 0,-0.66667 0,-1 -1,0 -2,0 -3,0 z"
       style="fill:#f1c0c0" />
    <path
       id="rect22610"
       d="m 77,125 c 0,0.33333 0,0.66667 0,1 0.333333,0 0.666667,0 1,0 0,-0.33333 0,-0.66667 0,-1 -0.333333,0 -0.666667,0 -1,0 z"
       style="fill:#f1c0c0" />
    <rect
       id="rect22622"
       y="125"
       x="83"
       width="1"
       height="1"
       style="fill:#da5152" />
    <rect
       id="rect22624"
       y="125"
       x="84"
       width="1"
       height="1"
       style="fill:#eba0a1" />
    <rect
       id="rect22778"
       y="126"
       x="71"
       width="1"
       height="1"
       style="fill:#f5d0d0" />
    <rect
       id="rect22790"
       y="126"
       x="77"
       width="1"
       height="1"
       style="fill:#e79091" />
    <rect
       id="rect22802"
       y="126"
       x="83"
       width="1"
       height="1"
       style="fill:#cc1214" />
    <rect
       id="rect22804"
       y="126"
       x="84"
       width="1"
       height="1"
       style="fill:#dd6162" />
    <rect
       id="rect22970"
       y="127"
       x="77"
       width="1"
       height="1"
       style="fill:#d33133" />
    <rect
       id="rect22980"
       y="127"
       x="82"
       width="1"
       height="1"
       style="fill:#dd6162" />
    <rect
       id="rect22984"
       y="127"
       x="84"
       width="1"
       height="1"
       style="fill:#cc1214" />
    <rect
       id="rect23140"
       y="128"
       x="72"
       width="1"
       height="1"
       style="fill:#e17172" />
    <path
       id="path2869"
       d="M 6,4 C 6,4.3333333 6,4.6666667 6,5 6.3333333,5 6.6666667,5 7,5 7,4.6666667 7,4.3333333 7,4 6.6666667,4 6.3333333,4 6,4 Z"
       style="fill:#d02223" />
    <path
       id="path2867"
       d="M 5,7 C 5,7.3333333 5,7.6666667 5,8 5.6666667,8 6.3333333,8 7,8 7,7.6666667 7,7.3333333 7,7 6.3333333,7 5.6666667,7 5,7 Z"
       style="fill:#d02223" />
    <path
       id="path2865"
       d="m 17,17 c 0,0.333333 0,0.666667 0,1 0.333333,0 0.666667,0 1,0 0,-0.333333 0,-0.666667 0,-1 -0.333333,0 -0.666667,0 -1,0 z"
       style="fill:#d02223" />
    <path
       id="path2863"
       d="m 73,114 c 0,0.33333 0,0.66667 0,1 0.333333,0 0.666667,0 1,0 0,-0.33333 0,-0.66667 0,-1 -0.333333,0 -0.666667,0 -1,0 z"
       style="fill:#d02223" />
    <path
       id="path2861"
       d="m 72,124 c 0,0.33333 0,0.66667 0,1 0.333333,0 0.666667,0 1,0 0,-0.33333 0,-0.66667 0,-1 -0.333333,0 -0.666667,0 -1,0 z"
       style="fill:#d02223" />
    <path
       id="rect23152"
       d="m 78,128 c 0,0.33333 0,0.66667 0,1 0.333333,0 0.666667,0 1,0 0,-0.33333 0,-0.66667 0,-1 -0.333333,0 -0.666667,0 -1,0 z"
       style="fill:#d02223" />
    <rect
       id="rect23154"
       y="128"
       x="79"
       width="1"
       height="1"
       style="fill:#e79091" />
    <rect
       id="rect23156"
       y="128"
       x="80"
       width="1"
       height="1"
       style="fill:#eba0a1" />
    <path
       id="path2847"
       d="m 9,3 c 0,0.3333333 0,0.6666667 0,1 1.666667,0 3.333333,0 5,0 0,-0.3333333 0,-0.6666667 0,-1 -1.666667,0 -3.333333,0 -5,0 z"
       style="fill:#d64143" />
    <path
       id="path2845"
       d="m 17,6 c 0,0.3333333 0,0.6666667 0,1 0.333333,0 0.666667,0 1,0 0,-0.3333333 0,-0.6666667 0,-1 -0.333333,0 -0.666667,0 -1,0 z"
       style="fill:#d64143" />
    <path
       id="path2843"
       d="m 16,11 c 0,0.333333 0,0.666667 0,1 0.333333,0 0.666667,0 1,0 0,-0.333333 0,-0.666667 0,-1 -0.333333,0 -0.666667,0 -1,0 z"
       style="fill:#d64143" />
    <path
       id="path2841"
       d="m 5,19 c 0,0.333333 0,0.666667 0,1 3.6666667,0 7.333333,0 11,0 0,-0.333333 0,-0.666667 0,-1 -3.666667,0 -7.3333333,0 -11,0 z"
       style="fill:#d64143" />
    <path
       id="path2839"
       d="m 71,118 c 0,0.33333 0,0.66667 0,1 0.333333,0 0.666667,0 1,0 0,-0.33333 0,-0.66667 0,-1 -0.333333,0 -0.666667,0 -1,0 z"
       style="fill:#d64143" />
    <path
       id="path2837"
       d="m 78,121 c 0,0.33333 0,0.66667 0,1 0.333333,0 0.666667,0 1,0 0,-0.33333 0,-0.66667 0,-1 -0.333333,0 -0.666667,0 -1,0 z"
       style="fill:#d64143" />
    <path
       id="rect23158"
       d="m 81,128 c 0,0.33333 0,0.66667 0,1 0.333333,0 0.666667,0 1,0 0,-0.33333 0,-0.66667 0,-1 -0.333333,0 -0.666667,0 -1,0 z"
       style="fill:#d64143" />
    <rect
       id="rect23166"
       y="128"
       x="85"
       width="1"
       height="1"
       style="fill:#f5d0d0" />
    <rect
       id="rect23320"
       y="129"
       x="72"
       width="1"
       height="1"
       style="fill:#fcefef" />
    <rect
       id="rect23322"
       y="129"
       x="73"
       width="1"
       height="1"
       style="fill:#da5152" />
    <rect
       id="rect23342"
       y="129"
       x="83"
       width="1"
       height="1"
       style="fill:#cc1214" />
    <rect
       id="rect23344"
       y="129"
       x="84"
       width="1"
       height="1"
       style="fill:#dd6162" />
    <rect
       id="rect23346"
       y="129"
       x="85"
       width="1"
       height="1"
       style="fill:#fcefef" />
    <rect
       id="rect23502"
       y="130"
       x="74"
       width="1"
       height="1"
       style="fill:#eba0a1" />
    <rect
       id="rect23504"
       y="130"
       x="75"
       width="1"
       height="1"
       style="fill:#da5152" />
    <rect
       id="rect23506"
       y="130"
       x="76"
       width="1"
       height="1"
       style="fill:#cc1214" />
    <path
       id="path2749"
       d="M 7,4 C 7,4.3333333 7,4.6666667 7,5 6.3333333,5 5.6666667,5 5,5 5,5.6666667 5,6.3333333 5,7 5.6666667,7 6.3333333,7 7,7 7,6.6666667 7,6.3333333 7,6 7.3333333,6 7.6666667,6 8,6 8,5.6666667 8,5.3333333 8,5 c 1,0 2,0 3,0 0,0.3333333 0,0.6666667 0,1 0.333333,0 0.666667,0 1,0 0,0.3333333 0,0.6666667 0,1 0.333333,0 0.666667,0 1,0 0,1.3333333 0,2.6666667 0,4 -0.333333,0 -0.666667,0 -1,0 0,0.666667 0,1.333333 0,2 -0.333333,0 -0.666667,0 -1,0 0,0.333333 0,0.666667 0,1 -0.333333,0 -0.666667,0 -1,0 0,0.333333 0,0.666667 0,1 -0.3333333,0 -0.6666667,0 -1,0 0,0.666667 0,1.333333 0,2 -0.6666667,0 -1.3333333,0 -2,0 0,0.333333 0,0.666667 0,1 -0.3333333,0 -0.6666667,0 -1,0 0,0.333333 0,0.666667 0,1 3.6666667,0 7.333333,0 11,0 0,-0.666667 0,-1.333333 0,-2 0.333333,0 0.666667,0 1,0 0,-0.333333 0,-0.666667 0,-1 -2,0 -4,0 -6,0 0,-0.333333 0,-0.666667 0,-1 0.333333,0 0.666667,0 1,0 0,-0.333333 0,-0.666667 0,-1 0.333333,0 0.666667,0 1,0 0,-0.333333 0,-0.666667 0,-1 0.333333,0 0.666667,0 1,0 0,-0.333333 0,-0.666667 0,-1 0.333333,0 0.666667,0 1,0 0,-0.333333 0,-0.666667 0,-1 0.333333,0 0.666667,0 1,0 0,-0.666667 0,-1.3333333 0,-2 0.333333,0 0.666667,0 1,0 0,-0.6666667 0,-1.3333333 0,-2 -0.333333,0 -0.666667,0 -1,0 0,-0.6666667 0,-1.3333333 0,-2 -0.666667,0 -1.333333,0 -2,0 0,-0.3333333 0,-0.6666667 0,-1 -2.666667,0 -5.3333333,0 -8,0 z"
       style="fill:#c90305" />
    <path
       id="rect23512"
       d="m 73,115 c 0,0.66667 0,1.33333 0,2 -0.333333,0 -0.666667,0 -1,0 0,0.33333 0,0.66667 0,1 2,0 4,0 6,0 0,0.33333 0,0.66667 0,1 -0.333333,0 -0.666667,0 -1,0 0,0.33333 0,0.66667 0,1 -0.333333,0 -0.666667,0 -1,0 0,0.33333 0,0.66667 0,1 -0.333333,0 -0.666667,0 -1,0 0,0.33333 0,0.66667 0,1 -0.333333,0 -0.666667,0 -1,0 0,0.33333 0,0.66667 0,1 -0.333333,0 -0.666667,0 -1,0 0,0.66667 0,1.33333 0,2 -0.333333,0 -0.666667,0 -1,0 0,1 0,2 0,3 0.333333,0 0.666667,0 1,0 0,0.33333 0,0.66667 0,1 0.333333,0 0.666667,0 1,0 0,0.33333 0,0.66667 0,1 1,0 2,0 3,0 0,0.33333 0,0.66667 0,1 1,0 2,0 3,0 0,-0.33333 0,-0.66667 0,-1 1,0 2,0 3,0 0,-0.33333 0,-0.66667 0,-1 0.666667,0 1.333333,0 2,0 0,-0.33333 0,-0.66667 0,-1 -0.333333,0 -0.666667,0 -1,0 0,-0.33333 0,-0.66667 0,-1 -0.333333,0 -0.666667,0 -1,0 0,0.33333 0,0.66667 0,1 -0.333333,0 -0.666667,0 -1,0 0,0.33333 0,0.66667 0,1 -1.333333,0 -2.666667,0 -4,0 0,-0.33333 0,-0.66667 0,-1 -0.333333,0 -0.666667,0 -1,0 0,-1.66667 0,-3.33333 0,-5 0.333333,0 0.666667,0 1,0 0,-0.66667 0,-1.33333 0,-2 0.333333,0 0.666667,0 1,0 0,-0.33333 0,-0.66667 0,-1 0.333333,0 0.666667,0 1,0 0,-0.33333 0,-0.66667 0,-1 0.333333,0 0.666667,0 1,0 0,-0.66667 0,-1.33333 0,-2 0.666667,0 1.333333,0 2,0 0,-0.33333 0,-0.66667 0,-1 0.333333,0 0.666667,0 1,0 0,-0.33333 0,-0.66667 0,-1 -3.666667,0 -7.333333,0 -11,0 z"
       style="fill:#c90305" />
    <rect
       id="rect23514"
       y="130"
       x="80"
       width="1"
       height="1"
       style="fill:#d33133" />
    <rect
       id="rect23516"
       y="130"
       x="81"
       width="1"
       height="1"
       style="fill:#dd6162" />
    <rect
       id="rect23518"
       y="130"
       x="82"
       width="1"
       height="1"
       style="fill:#eba0a1" />
    <rect
       id="rect23520"
       y="130"
       x="83"
       width="1"
       height="1"
       style="fill:#fcefef" />
  </g>
</svg>
