<?xml version="1.0" encoding="UTF-8" standalone="no"?>
<svg
   xmlns:dc="http://purl.org/dc/elements/1.1/"
   xmlns:cc="http://creativecommons.org/ns#"
   xmlns:rdf="http://www.w3.org/1999/02/22-rdf-syntax-ns#"
   xmlns:svg="http://www.w3.org/2000/svg"
   xmlns="http://www.w3.org/2000/svg"
   xmlns:sodipodi="http://sodipodi.sourceforge.net/DTD/sodipodi-0.dtd"
   xmlns:inkscape="http://www.inkscape.org/namespaces/inkscape"
   height="135px"
   version="1.1"
   width="90px"
   id="svg24208"
   sodipodi:docname="03-black.svg"
   inkscape:version="0.92.2 (5c3e80d, 2017-08-06)">
  <metadata
     id="metadata24212">
    <rdf:RDF>
      <cc:Work
         rdf:about="">
        <dc:format>image/svg+xml</dc:format>
        <dc:type
           rdf:resource="http://purl.org/dc/dcmitype/StillImage" />
        <dc:title />
      </cc:Work>
    </rdf:RDF>
  </metadata>
  <sodipodi:namedview
     pagecolor="#ffffff"
     bordercolor="#666666"
     borderopacity="1"
     objecttolerance="10"
     gridtolerance="10"
     guidetolerance="10"
     inkscape:pageopacity="0"
     inkscape:pageshadow="2"
     inkscape:window-width="1920"
     inkscape:window-height="1025"
     id="namedview24210"
     showgrid="false"
     inkscape:zoom="27.97037"
     inkscape:cx="23.297317"
     inkscape:cy="123.70268"
     inkscape:window-x="-8"
     inkscape:window-y="-8"
     inkscape:window-maximized="1"
     inkscape:current-layer="svg24208" />
  <defs
     id="defs2" />
  <g
     id="g3930">
    <rect
       id="rect690"
       y="4"
       x="6"
       width="1"
       height="1"
       style="fill:#d0cfcf" />
    <rect
       id="rect712"
       y="4"
       x="17"
       width="1"
       height="1"
       style="fill:#b1afaf" />
    <rect
       id="rect868"
       y="5"
       x="6"
       width="1"
       height="1"
       style="fill:#726f70" />
    <rect
       id="rect890"
       y="5"
       x="17"
       width="1"
       height="1"
       style="fill:#726f70" />
    <rect
       id="rect1048"
       y="6"
       x="6"
       width="1"
       height="1"
       style="fill:#231f20" />
    <rect
       id="rect1068"
       y="6"
       x="16"
       width="1"
       height="1"
       style="fill:#726f70" />
    <rect
       id="rect1226"
       y="7"
       x="5"
       width="1"
       height="1"
       style="fill:#d0cfcf" />
    <rect
       id="rect1228"
       y="7"
       x="6"
       width="1"
       height="1"
       style="fill:#231f20" />
    <rect
       id="rect1230"
       y="7"
       x="7"
       width="1"
       height="1"
       style="fill:#e0dfdf" />
    <rect
       id="rect1238"
       y="7"
       x="11"
       width="1"
       height="1"
       style="fill:#efefef" />
    <rect
       id="rect1244"
       y="7"
       x="14"
       width="1"
       height="1"
       style="fill:#140f10" />
    <rect
       id="rect1246"
       y="7"
       x="15"
       width="1"
       height="1"
       style="fill:#b1afaf" />
    <rect
       id="rect1416"
       y="8"
       x="10"
       width="1"
       height="1"
       style="fill:#e0dfdf" />
    <rect
       id="rect1418"
       y="8"
       x="11"
       width="1"
       height="1"
       style="fill:#332f30" />
    <rect
       id="rect1422"
       y="8"
       x="13"
       width="1"
       height="1"
       style="fill:#140f10" />
    <rect
       id="rect1424"
       y="8"
       x="14"
       width="1"
       height="1"
       style="fill:#b1afaf" />
    <rect
       id="rect1594"
       y="9"
       x="9"
       width="1"
       height="1"
       style="fill:#d0cfcf" />
    <rect
       id="rect1596"
       y="9"
       x="10"
       width="1"
       height="1"
       style="fill:#140f10" />
    <rect
       id="rect1608"
       y="9"
       x="16"
       width="1"
       height="1"
       style="fill:#c0bfbf" />
    <rect
       id="rect1772"
       y="10"
       x="8"
       width="1"
       height="1"
       style="fill:#a19f9f" />
    <rect
       id="rect1774"
       y="10"
       x="9"
       width="1"
       height="1"
       style="fill:#140f10" />
    <rect
       id="rect1790"
       y="10"
       x="17"
       width="1"
       height="1"
       style="fill:#a19f9f" />
    <rect
       id="rect1950"
       y="11"
       x="7"
       width="1"
       height="1"
       style="fill:#918f8f" />
    <rect
       id="rect1956"
       y="11"
       x="10"
       width="1"
       height="1"
       style="fill:#332f30" />
    <rect
       id="rect1970"
       y="11"
       x="17"
       width="1"
       height="1"
       style="fill:#140f10" />
    <rect
       id="rect1972"
       y="11"
       x="18"
       width="1"
       height="1"
       style="fill:#efefef" />
    <rect
       id="rect2138"
       y="12"
       x="11"
       width="1"
       height="1"
       style="fill:#e0dfdf" />
    <rect
       id="rect2140"
       y="12"
       x="12"
       width="1"
       height="1"
       style="fill:#524f50" />
    <rect
       id="rect2152"
       y="12"
       x="18"
       width="1"
       height="1"
       style="fill:#a19f9f" />
    <rect
       id="rect2320"
       y="13"
       x="12"
       width="1"
       height="1"
       style="fill:#efefef" />
    <rect
       id="rect2322"
       y="13"
       x="13"
       width="1"
       height="1"
       style="fill:#140f10" />
    <rect
       id="rect2488"
       y="14"
       x="6"
       width="1"
       height="1"
       style="fill:#231f20" />
    <rect
       id="rect2666"
       y="15"
       x="5"
       width="1"
       height="1"
       style="fill:#a19f9f" />
    <rect
       id="rect2670"
       y="15"
       x="7"
       width="1"
       height="1"
       style="fill:#e0dfdf" />
    <rect
       id="rect2692"
       y="15"
       x="18"
       width="1"
       height="1"
       style="fill:#b1afaf" />
    <rect
       id="rect2846"
       y="16"
       x="5"
       width="1"
       height="1"
       style="fill:#231f20" />
    <rect
       id="rect2850"
       y="16"
       x="7"
       width="1"
       height="1"
       style="fill:#625f60" />
    <rect
       id="rect2860"
       y="16"
       x="12"
       width="1"
       height="1"
       style="fill:#efefef" />
    <rect
       id="rect2862"
       y="16"
       x="13"
       width="1"
       height="1"
       style="fill:#140f10" />
    <rect
       id="rect2870"
       y="16"
       x="17"
       width="1"
       height="1"
       style="fill:#140f10" />
    <rect
       id="rect2872"
       y="16"
       x="18"
       width="1"
       height="1"
       style="fill:#efefef" />
    <rect
       id="rect3024"
       y="17"
       x="4"
       width="1"
       height="1"
       style="fill:#a19f9f" />
    <rect
       id="rect3030"
       y="17"
       x="7"
       width="1"
       height="1"
       style="fill:#140f10" />
    <rect
       id="rect3032"
       y="17"
       x="8"
       width="1"
       height="1"
       style="fill:#918f8f" />
    <rect
       id="rect3034"
       y="17"
       x="9"
       width="1"
       height="1"
       style="fill:#e0dfdf" />
    <rect
       id="rect3038"
       y="17"
       x="11"
       width="1"
       height="1"
       style="fill:#b1afaf" />
    <rect
       id="rect3050"
       y="17"
       x="17"
       width="1"
       height="1"
       style="fill:#b1afaf" />
    <rect
       id="rect3204"
       y="18"
       x="4"
       width="1"
       height="1"
       style="fill:#d0cfcf" />
    <rect
       id="rect3206"
       y="18"
       x="5"
       width="1"
       height="1"
       style="fill:#231f20" />
    <rect
       id="rect3226"
       y="18"
       x="15"
       width="1"
       height="1"
       style="fill:#140f10" />
    <rect
       id="rect3228"
       y="18"
       x="16"
       width="1"
       height="1"
       style="fill:#b1afaf" />
    <rect
       id="rect3388"
       y="19"
       x="6"
       width="1"
       height="1"
       style="fill:#b1afaf" />
    <rect
       id="rect3390"
       y="19"
       x="7"
       width="1"
       height="1"
       style="fill:#625f60" />
    <rect
       id="rect3392"
       y="19"
       x="8"
       width="1"
       height="1"
       style="fill:#231f20" />
    <rect
       id="rect3404"
       y="19"
       x="14"
       width="1"
       height="1"
       style="fill:#918f8f" />
    <rect
       id="rect3406"
       y="19"
       x="15"
       width="1"
       height="1"
       style="fill:#efefef" />
    <rect
       id="rect20626"
       y="114"
       x="75"
       width="1"
       height="1"
       style="fill:#a19f9f" />
    <rect
       id="rect20628"
       y="114"
       x="76"
       width="1"
       height="1"
       style="fill:#524f50" />
    <rect
       id="rect20634"
       y="114"
       x="79"
       width="1"
       height="1"
       style="fill:#140f10" />
    <rect
       id="rect20638"
       y="114"
       x="81"
       width="1"
       height="1"
       style="fill:#524f50" />
    <rect
       id="rect20640"
       y="114"
       x="82"
       width="1"
       height="1"
       style="fill:#918f8f" />
    <rect
       id="rect20642"
       y="114"
       x="83"
       width="1"
       height="1"
       style="fill:#efefef" />
    <rect
       id="rect20802"
       y="115"
       x="73"
       width="1"
       height="1"
       style="fill:#c0bfbf" />
    <rect
       id="rect20804"
       y="115"
       x="74"
       width="1"
       height="1"
       style="fill:#231f20" />
    <rect
       id="rect20824"
       y="115"
       x="84"
       width="1"
       height="1"
       style="fill:#625f60" />
    <rect
       id="rect20826"
       y="115"
       x="85"
       width="1"
       height="1"
       style="fill:#efefef" />
    <rect
       id="rect20980"
       y="116"
       x="72"
       width="1"
       height="1"
       style="fill:#a19f9f" />
    <rect
       id="rect20990"
       y="116"
       x="77"
       width="1"
       height="1"
       style="fill:#332f30" />
    <rect
       id="rect20992"
       y="116"
       x="78"
       width="1"
       height="1"
       style="fill:#a19f9f" />
    <rect
       id="rect20994"
       y="116"
       x="79"
       width="1"
       height="1"
       style="fill:#c0bfbf" />
    <rect
       id="rect20996"
       y="116"
       x="80"
       width="1"
       height="1"
       style="fill:#b1afaf" />
    <rect
       id="rect20998"
       y="116"
       x="81"
       width="1"
       height="1"
       style="fill:#524f50" />
    <rect
       id="rect21006"
       y="116"
       x="85"
       width="1"
       height="1"
       style="fill:#c0bfbf" />
    <rect
       id="rect21158"
       y="117"
       x="71"
       width="1"
       height="1"
       style="fill:#efefef" />
    <rect
       id="rect21160"
       y="117"
       x="72"
       width="1"
       height="1"
       style="fill:#140f10" />
    <rect
       id="rect21168"
       y="117"
       x="76"
       width="1"
       height="1"
       style="fill:#231f20" />
    <rect
       id="rect21180"
       y="117"
       x="82"
       width="1"
       height="1"
       style="fill:#231f20" />
    <rect
       id="rect21338"
       y="118"
       x="71"
       width="1"
       height="1"
       style="fill:#918f8f" />
    <rect
       id="rect21348"
       y="118"
       x="76"
       width="1"
       height="1"
       style="fill:#a19f9f" />
    <rect
       id="rect21360"
       y="118"
       x="82"
       width="1"
       height="1"
       style="fill:#a19f9f" />
    <rect
       id="rect21364"
       y="118"
       x="84"
       width="1"
       height="1"
       style="fill:#c0bfbf" />
    <rect
       id="rect21518"
       y="119"
       x="71"
       width="1"
       height="1"
       style="fill:#524f50" />
    <rect
       id="rect21528"
       y="119"
       x="76"
       width="1"
       height="1"
       style="fill:#c0bfbf" />
    <rect
       id="rect21540"
       y="119"
       x="82"
       width="1"
       height="1"
       style="fill:#c0bfbf" />
    <rect
       id="rect21542"
       y="119"
       x="83"
       width="1"
       height="1"
       style="fill:#231f20" />
    <rect
       id="rect21722"
       y="120"
       x="83"
       width="1"
       height="1"
       style="fill:#e0dfdf" />
    <rect
       id="rect21878"
       y="121"
       x="71"
       width="1"
       height="1"
       style="fill:#726f70" />
    <rect
       id="rect21890"
       y="121"
       x="77"
       width="1"
       height="1"
       style="fill:#918f8f" />
    <rect
       id="rect22058"
       y="122"
       x="71"
       width="1"
       height="1"
       style="fill:#c0bfbf" />
    <rect
       id="rect22072"
       y="122"
       x="78"
       width="1"
       height="1"
       style="fill:#231f20" />
    <rect
       id="rect22074"
       y="122"
       x="79"
       width="1"
       height="1"
       style="fill:#524f50" />
    <rect
       id="rect22078"
       y="122"
       x="81"
       width="1"
       height="1"
       style="fill:#524f50" />
    <rect
       id="rect22080"
       y="122"
       x="82"
       width="1"
       height="1"
       style="fill:#d0cfcf" />
    <rect
       id="rect22240"
       y="123"
       x="72"
       width="1"
       height="1"
       style="fill:#625f60" />
    <rect
       id="rect22258"
       y="123"
       x="81"
       width="1"
       height="1"
       style="fill:#a19f9f" />
    <rect
       id="rect22424"
       y="124"
       x="74"
       width="1"
       height="1"
       style="fill:#140f10" />
    <rect
       id="rect22434"
       y="124"
       x="79"
       width="1"
       height="1"
       style="fill:#140f10" />
    <rect
       id="rect22436"
       y="124"
       x="80"
       width="1"
       height="1"
       style="fill:#d0cfcf" />
    <rect
       id="rect22604"
       y="125"
       x="74"
       width="1"
       height="1"
       style="fill:#efefef" />
    <rect
       id="rect22612"
       y="125"
       x="78"
       width="1"
       height="1"
       style="fill:#332f30" />
    <rect
       id="rect22614"
       y="125"
       x="79"
       width="1"
       height="1"
       style="fill:#d0cfcf" />
    <rect
       id="rect22784"
       y="126"
       x="74"
       width="1"
       height="1"
       style="fill:#b1afaf" />
    <rect
       id="rect22786"
       y="126"
       x="75"
       width="1"
       height="1"
       style="fill:#140f10" />
    <rect
       id="rect22792"
       y="126"
       x="78"
       width="1"
       height="1"
       style="fill:#efefef" />
    <rect
       id="rect22800"
       y="126"
       x="82"
       width="1"
       height="1"
       style="fill:#efefef" />
    <rect
       id="rect22802"
       y="126"
       x="83"
       width="1"
       height="1"
       style="fill:#231f20" />
    <path
       style="fill:#827f80"
       d="m 8,3 c 0,0.3333333 0,0.6666667 0,1 3,0 6,0 9,0 0,-0.3333333 0,-0.6666667 0,-1 -3,0 -6,0 -9,0 z"
       id="path3964" />
    <path
       style="fill:#827f80"
       d="m 18,13 c 0,0.666667 0,1.333333 0,2 0.333333,0 0.666667,0 1,0 0,-0.666667 0,-1.333333 0,-2 -0.333333,0 -0.666667,0 -1,0 z"
       id="path3962" />
    <path
       style="fill:#827f80"
       d="m 13,14 c 0,0.666667 0,1.333333 0,2 0.333333,0 0.666667,0 1,0 0,-0.666667 0,-1.333333 0,-2 -0.333333,0 -0.666667,0 -1,0 z"
       id="path3960" />
    <path
       style="fill:#827f80"
       d="m 80,122 c 0,0.33333 0,0.66667 0,1 0.333333,0 0.666667,0 1,0 0,-0.33333 0,-0.66667 0,-1 -0.333333,0 -0.666667,0 -1,0 z"
       id="path3958" />
    <path
       style="fill:#827f80"
       d="m 73,124 c 0,0.33333 0,0.66667 0,1 0.333333,0 0.666667,0 1,0 0,-0.33333 0,-0.66667 0,-1 -0.333333,0 -0.666667,0 -1,0 z"
       id="path3956" />
    <path
       style="fill:#827f80"
       d="m 75,125 c 0,0.33333 0,0.66667 0,1 0.333333,0 0.666667,0 1,0 0,-0.33333 0,-0.66667 0,-1 -0.333333,0 -0.666667,0 -1,0 z"
       id="path3954" />
    <path
       style="fill:#827f80"
       d="m 73,127 c 0,0.33333 0,0.66667 0,1 0.333333,0 0.666667,0 1,0 0,-0.33333 0,-0.66667 0,-1 -0.333333,0 -0.666667,0 -1,0 z"
       id="rect22962" />
    <rect
       id="rect22982"
       y="127"
       x="83"
       width="1"
       height="1"
       style="fill:#332f30" />
    <rect
       id="rect23140"
       y="128"
       x="72"
       width="1"
       height="1"
       style="fill:#726f70" />
    <rect
       id="rect23162"
       y="128"
       x="83"
       width="1"
       height="1"
       style="fill:#a19f9f" />
    <rect
       id="rect23320"
       y="129"
       x="72"
       width="1"
       height="1"
       style="fill:#726f70" />
    <path
       style="fill:#050001"
       d="m 7,4 c 0,1 0,2 0,3 2,0 4,0 6,0 0,0.3333333 0,0.6666667 0,1 0.333333,0 0.666667,0 1,0 0,-0.3333333 0,-0.6666667 0,-1 0.666667,0 1.333333,0 2,0 0,-0.3333333 0,-0.6666667 0,-1 0.333333,0 0.666667,0 1,0 0,-0.6666667 0,-1.3333333 0,-2 -3.333333,0 -6.666667,0 -10,0 z m 6,4 c -0.333333,0 -0.666667,0 -1,0 0,0.3333333 0,0.6666667 0,1 -0.333333,0 -0.666667,0 -1,0 0,0.3333333 0,0.6666667 0,1 -0.333333,0 -0.666667,0 -1,0 0,0.333333 0,0.666667 0,1 0.333333,0 0.666667,0 1,0 0,0.333333 0,0.666667 0,1 0.666667,0 1.333333,0 2,0 0,0.333333 0,0.666667 0,1 0.333333,0 0.666667,0 1,0 0,1.333333 0,2.666667 0,4 -0.333333,0 -0.666667,0 -1,0 0,0.333333 0,0.666667 0,1 -2,0 -4,0 -6,0 0,-1 0,-2 0,-3 -0.3333333,0 -0.6666667,0 -1,0 0,0.666667 0,1.333333 0,2 -0.3333333,0 -0.6666667,0 -1,0 0,0.333333 0,0.666667 0,1 0.3333333,0 0.6666667,0 1,0 0,0.333333 0,0.666667 0,1 1,0 2,0 3,0 0,0.333333 0,0.666667 0,1 1.333333,0 2.666667,0 4,0 0,-0.333333 0,-0.666667 0,-1 0.666667,0 1.333333,0 2,0 0,-0.333333 0,-0.666667 0,-1 0.666667,0 1.333333,0 2,0 0,-0.666667 0,-1.333333 0,-2 0.333333,0 0.666667,0 1,0 0,-1.333333 0,-2.666667 0,-4 -0.333333,0 -0.666667,0 -1,0 0,-0.666667 0,-1.333333 0,-2 -0.666667,0 -1.333333,0 -2,0 0,-0.3333333 0,-0.6666667 0,-1 -0.666667,0 -1.333333,0 -2,0 0,-0.3333333 0,-0.6666667 0,-1 z m 65,106 c 0,0.33333 0,0.66667 0,1 -1,0 -2,0 -3,0 0,0.33333 0,0.66667 0,1 -0.666667,0 -1.333333,0 -2,0 0,0.66667 0,1.33333 0,2 -0.333333,0 -0.666667,0 -1,0 0,1.66667 0,3.33333 0,5 0.333333,0 0.666667,0 1,0 0,0.33333 0,0.66667 0,1 0.666667,0 1.333333,0 2,0 0,0.33333 0,0.66667 0,1 0.333333,0 0.666667,0 1,0 0,0.66667 0,1.33333 0,2 -0.666667,0 -1.333333,0 -2,0 0,0.33333 0,0.66667 0,1 -0.333333,0 -0.666667,0 -1,0 0,0.66667 0,1.33333 0,2 3.333333,0 6.666667,0 10,0 0,-1 0,-2 0,-3 -0.333333,0 -0.666667,0 -1,0 0,0.33333 0,0.66667 0,1 -1.666667,0 -3.333333,0 -5,0 0,-0.66667 0,-1.33333 0,-2 0.333333,0 0.666667,0 1,0 0,-0.33333 0,-0.66667 0,-1 0.333333,0 0.666667,0 1,0 0,-0.33333 0,-0.66667 0,-1 0.666667,0 1.333333,0 2,0 0,-0.33333 0,-0.66667 0,-1 -1,0 -2,0 -3,0 0,-0.33333 0,-0.66667 0,-1 -0.333333,0 -0.666667,0 -1,0 0,-0.33333 0,-0.66667 0,-1 -0.333333,0 -0.666667,0 -1,0 0,-1.33333 0,-2.66667 0,-4 0.333333,0 0.666667,0 1,0 0,-0.33333 0,-0.66667 0,-1 1.666667,0 3.333333,0 5,0 0,0.33333 0,0.66667 0,1 0.333333,0 0.666667,0 1,0 0,0.66667 0,1.33333 0,2 0.333333,0 0.666667,0 1,0 0,-0.66667 0,-1.33333 0,-2 0.333333,0 0.666667,0 1,0 0,-0.33333 0,-0.66667 0,-1 -0.333333,0 -0.666667,0 -1,0 0,-0.33333 0,-0.66667 0,-1 -1.666667,0 -3.333333,0 -5,0 0,-0.33333 0,-0.66667 0,-1 -0.333333,0 -0.666667,0 -1,0 z"
       id="rect23340"
       inkscape:connector-curvature="0" />
    <rect
       id="rect23342"
       y="129"
       x="83"
       width="1"
       height="1"
       style="fill:#efefef" />
    <rect
       id="rect23498"
       y="130"
       x="72"
       width="1"
       height="1"
       style="fill:#e0dfdf" />
    <path
       style="fill:#433f40"
       d="M 7,3 C 7,3.3333333 7,3.6666667 7,4 7.3333333,4 7.6666667,4 8,4 8,3.6666667 8,3.3333333 8,3 7.6666667,3 7.3333333,3 7,3 Z"
       id="path4196" />
    <path
       style="fill:#433f40"
       d="m 12,7 c 0,0.3333333 0,0.6666667 0,1 0.333333,0 0.666667,0 1,0 0,-0.3333333 0,-0.6666667 0,-1 -0.333333,0 -0.666667,0 -1,0 z"
       id="path4194" />
    <path
       style="fill:#433f40"
       d="m 15,9 c 0,0.3333333 0,0.6666667 0,1 0.333333,0 0.666667,0 1,0 0,-0.3333333 0,-0.6666667 0,-1 -0.333333,0 -0.666667,0 -1,0 z"
       id="path4192" />
    <path
       style="fill:#433f40"
       d="m 8,11 c 0,0.333333 0,0.666667 0,1 0.6666667,0 1.3333333,0 2,0 0,-0.333333 0,-0.666667 0,-1 -0.6666667,0 -1.3333333,0 -2,0 z"
       id="path4190" />
    <path
       style="fill:#433f40"
       d="m 12,17 c 0,0.333333 0,0.666667 0,1 0.333333,0 0.666667,0 1,0 0,-0.333333 0,-0.666667 0,-1 -0.333333,0 -0.666667,0 -1,0 z"
       id="path4188" />
    <path
       style="fill:#433f40"
       d="m 13,19 c 0,0.333333 0,0.666667 0,1 0.333333,0 0.666667,0 1,0 0,-0.333333 0,-0.666667 0,-1 -0.333333,0 -0.666667,0 -1,0 z"
       id="path4186" />
    <path
       style="fill:#433f40"
       d="m 77,114 c 0,0.33333 0,0.66667 0,1 0.333333,0 0.666667,0 1,0 0,-0.33333 0,-0.66667 0,-1 -0.333333,0 -0.666667,0 -1,0 z"
       id="path4184" />
    <path
       style="fill:#433f40"
       d="m 80,114 c 0,0.33333 0,0.66667 0,1 0.333333,0 0.666667,0 1,0 0,-0.33333 0,-0.66667 0,-1 -0.333333,0 -0.666667,0 -1,0 z"
       id="path4182" />
    <path
       style="fill:#433f40"
       d="m 84,117 c 0,0.33333 0,0.66667 0,1 0.333333,0 0.666667,0 1,0 0,-0.33333 0,-0.66667 0,-1 -0.333333,0 -0.666667,0 -1,0 z"
       id="path4180" />
    <path
       style="fill:#433f40"
       d="m 71,120 c 0,0.33333 0,0.66667 0,1 0.333333,0 0.666667,0 1,0 0,-0.33333 0,-0.66667 0,-1 -0.333333,0 -0.666667,0 -1,0 z"
       id="path4178" />
    <path
       style="fill:#433f40"
       d="m 76,120 c 0,0.33333 0,0.66667 0,1 0.333333,0 0.666667,0 1,0 0,-0.33333 0,-0.66667 0,-1 -0.333333,0 -0.666667,0 -1,0 z"
       id="path4176" />
    <path
       style="fill:#433f40"
       d="m 77,126 c 0,0.66667 0,1.33333 0,2 1.666667,0 3.333333,0 5,0 0,-0.33333 0,-0.66667 0,-1 -1.333333,0 -2.666667,0 -4,0 0,-0.33333 0,-0.66667 0,-1 -0.333333,0 -0.666667,0 -1,0 z"
       id="path4174" />
    <path
       style="fill:#433f40"
       d="m 73,130 c 0,0.33333 0,0.66667 0,1 3,0 6,0 9,0 0,-0.33333 0,-0.66667 0,-1 -3,0 -6,0 -9,0 z"
       id="rect23516" />
    <rect
       id="rect23518"
       y="130"
       x="82"
       width="1"
       height="1"
       style="fill:#524f50" />
  </g>
</svg>
