<?xml version="1.0" encoding="UTF-8" standalone="no"?>
<svg
   xmlns:dc="http://purl.org/dc/elements/1.1/"
   xmlns:cc="http://creativecommons.org/ns#"
   xmlns:rdf="http://www.w3.org/1999/02/22-rdf-syntax-ns#"
   xmlns:svg="http://www.w3.org/2000/svg"
   xmlns="http://www.w3.org/2000/svg"
   xmlns:sodipodi="http://sodipodi.sourceforge.net/DTD/sodipodi-0.dtd"
   xmlns:inkscape="http://www.inkscape.org/namespaces/inkscape"
   height="135px"
   version="1.1"
   width="90px"
   id="svg24208"
   sodipodi:docname="4-black.svg"
   inkscape:version="0.92.2 (5c3e80d, 2017-08-06)">
  <metadata
     id="metadata24212">
    <rdf:RDF>
      <cc:Work
         rdf:about="">
        <dc:format>image/svg+xml</dc:format>
        <dc:type
           rdf:resource="http://purl.org/dc/dcmitype/StillImage" />
        <dc:title />
      </cc:Work>
    </rdf:RDF>
  </metadata>
  <sodipodi:namedview
     pagecolor="#ffffff"
     bordercolor="#666666"
     borderopacity="1"
     objecttolerance="10"
     gridtolerance="10"
     guidetolerance="10"
     inkscape:pageopacity="0"
     inkscape:pageshadow="2"
     inkscape:window-width="1920"
     inkscape:window-height="1025"
     id="namedview24210"
     showgrid="false"
     inkscape:zoom="1.7481481"
     inkscape:cx="188.20054"
     inkscape:cy="-60.746063"
     inkscape:window-x="-8"
     inkscape:window-y="-8"
     inkscape:window-maximized="1"
     inkscape:current-layer="svg24208" />
  <defs
     id="defs2" />
  <g
     id="g9199">
    <rect
       style="fill:#918f8f"
       id="rect180"
       y="1"
       x="11"
       width="1"
       height="1" />
    <rect
       style="fill:#332f30"
       id="rect348"
       y="2"
       x="10"
       width="1"
       height="1" />
    <rect
       style="fill:#140f10"
       id="rect350"
       y="2"
       x="11"
       width="1"
       height="1" />
    <rect
       style="fill:#332f30"
       id="rect520"
       y="3"
       x="9"
       width="1"
       height="1" />
    <rect
       style="fill:#140f10"
       id="rect694"
       y="4"
       x="8"
       width="1"
       height="1" />
    <rect
       style="fill:#918f8f"
       id="rect710"
       y="4"
       x="16"
       width="1"
       height="1" />
    <rect
       style="fill:#332f30"
       id="rect878"
       y="5"
       x="11"
       width="1"
       height="1" />
    <rect
       style="fill:#918f8f"
       id="rect1058"
       y="6"
       x="11"
       width="1"
       height="1" />
    <rect
       style="fill:#140f10"
       id="rect1064"
       y="6"
       x="14"
       width="1"
       height="1" />
    <rect
       style="fill:#140f10"
       id="rect1236"
       y="7"
       x="10"
       width="1"
       height="1" />
    <rect
       style="fill:#918f8f"
       id="rect1416"
       y="8"
       x="10"
       width="1"
       height="1" />
    <rect
       style="fill:#e0dfdf"
       id="rect1588"
       y="9"
       x="6"
       width="1"
       height="1" />
    <rect
       style="fill:#332f30"
       id="rect1594"
       y="9"
       x="9"
       width="1"
       height="1" />
    <rect
       style="fill:#524f50"
       id="rect1768"
       y="10"
       x="6"
       width="1"
       height="1" />
    <rect
       style="fill:#140f10"
       id="rect1772"
       y="10"
       x="8"
       width="1"
       height="1" />
    <rect
       style="fill:#231f20"
       id="rect2126"
       y="12"
       x="5"
       width="1"
       height="1" />
    <rect
       style="fill:#e0dfdf"
       id="rect2152"
       y="12"
       x="18"
       width="1"
       height="1" />
    <rect
       style="fill:#918f8f"
       id="rect2304"
       y="13"
       x="4"
       width="1"
       height="1" />
    <rect
       style="fill:#231f20"
       id="rect2318"
       y="13"
       x="11"
       width="1"
       height="1" />
    <rect
       style="fill:#524f50"
       id="rect2330"
       y="13"
       x="17"
       width="1"
       height="1" />
    <rect
       style="fill:#332f30"
       id="rect2484"
       y="14"
       x="4"
       width="1"
       height="1" />
    <rect
       style="fill:#140f10"
       id="rect2512"
       y="14"
       x="18"
       width="1"
       height="1" />
    <rect
       style="fill:#332f30"
       id="rect2664"
       y="15"
       x="4"
       width="1"
       height="1" />
    <rect
       style="fill:#140f10"
       id="rect2678"
       y="15"
       x="11"
       width="1"
       height="1" />
    <rect
       style="fill:#332f30"
       id="rect2688"
       y="15"
       x="16"
       width="1"
       height="1" />
    <rect
       style="fill:#231f20"
       id="rect2690"
       y="15"
       x="17"
       width="1"
       height="1" />
    <rect
       style="fill:#524f50"
       id="rect2692"
       y="15"
       x="18"
       width="1"
       height="1" />
    <rect
       style="fill:#332f30"
       id="rect3038"
       y="17"
       x="11"
       width="1"
       height="1" />
    <rect
       style="fill:#b1afaf"
       id="rect3048"
       y="17"
       x="16"
       width="1"
       height="1" />
    <rect
       style="fill:#231f20"
       id="rect3228"
       y="18"
       x="16"
       width="1"
       height="1" />
    <rect
       style="fill:#332f30"
       id="rect21338"
       y="118"
       x="71"
       width="1"
       height="1" />
    <rect
       style="fill:#524f50"
       id="rect21546"
       y="119"
       x="85"
       width="1"
       height="1" />
    <rect
       style="fill:#332f30"
       id="rect21700"
       y="120"
       x="72"
       width="1"
       height="1" />
    <rect
       style="fill:#231f20"
       id="rect21702"
       y="120"
       x="73"
       width="1"
       height="1" />
    <rect
       style="fill:#231f20"
       id="rect21712"
       y="120"
       x="78"
       width="1"
       height="1" />
    <rect
       style="fill:#332f30"
       id="rect21720"
       y="120"
       x="82"
       width="1"
       height="1" />
    <rect
       style="fill:#524f50"
       id="rect21900"
       y="121"
       x="82"
       width="1"
       height="1" />
    <rect
       style="fill:#332f30"
       id="rect21904"
       y="121"
       x="84"
       width="1"
       height="1" />
    <rect
       style="fill:#918f8f"
       id="rect22078"
       y="122"
       x="81"
       width="1"
       height="1" />
    <rect
       style="fill:#231f20"
       id="rect22436"
       y="124"
       x="80"
       width="1"
       height="1" />
    <rect
       style="fill:#140f10"
       id="rect22440"
       y="124"
       x="82"
       width="1"
       height="1" />
    <rect
       style="fill:#b1afaf"
       id="rect22792"
       y="126"
       x="78"
       width="1"
       height="1" />
    <rect
       style="fill:#e0dfdf"
       id="rect22800"
       y="126"
       x="82"
       width="1"
       height="1" />
    <rect
       style="fill:#140f10"
       id="rect22966"
       y="127"
       x="75"
       width="1"
       height="1" />
    <path
       id="path6774"
       d="M 7,8 C 7,8.3333333 7,8.6666667 7,9 7.3333333,9 7.6666667,9 8,9 8,8.6666667 8,8.3333333 8,8 7.6666667,8 7.3333333,8 7,8 Z"
       style="fill:#625f60"
       inkscape:connector-curvature="0" />
    <path
       id="path6772"
       d="m 7,12 c 0,0.333333 0,0.666667 0,1 0.3333333,0 0.6666667,0 1,0 0,-0.333333 0,-0.666667 0,-1 -0.3333333,0 -0.6666667,0 -1,0 z"
       style="fill:#625f60"
       inkscape:connector-curvature="0" />
    <path
       id="path6768"
       d="m 16,13 c 0,0.333333 0,0.666667 0,1 0.333333,0 0.666667,0 1,0 0,-0.333333 0,-0.666667 0,-1 -0.333333,0 -0.666667,0 -1,0 z"
       style="fill:#625f60"
       inkscape:connector-curvature="0" />
    <path
       id="path6764"
       d="m 10,18 c 0,0.333333 0,0.666667 0,1 0.333333,0 0.666667,0 1,0 0,-0.333333 0,-0.666667 0,-1 -0.333333,0 -0.666667,0 -1,0 z"
       style="fill:#625f60"
       inkscape:connector-curvature="0" />
    <path
       id="path6750"
       d="m 78,116 c 0,0.33333 0,0.66667 0,1 0.333333,0 0.666667,0 1,0 0,-0.33333 0,-0.66667 0,-1 -0.333333,0 -0.666667,0 -1,0 z"
       style="fill:#625f60"
       inkscape:connector-curvature="0" />
    <path
       id="path6748"
       d="m 72,118 c 0,0.33333 0,0.66667 0,1 0.333333,0 0.666667,0 1,0 0,-0.33333 0,-0.66667 0,-1 -0.333333,0 -0.666667,0 -1,0 z"
       style="fill:#625f60"
       inkscape:connector-curvature="0" />
    <path
       id="path6736"
       d="m 77,126 c 0,0.33333 0,0.66667 0,1 0.333333,0 0.666667,0 1,0 0,-0.33333 0,-0.66667 0,-1 -0.333333,0 -0.666667,0 -1,0 z"
       style="fill:#625f60"
       inkscape:connector-curvature="0" />
    <path
       id="rect22972"
       d="m 78,127 c 0,0.33333 0,0.66667 0,1 0.333333,0 0.666667,0 1,0 0,-0.33333 0,-0.66667 0,-1 -0.333333,0 -0.666667,0 -1,0 z"
       style="fill:#625f60"
       inkscape:connector-curvature="0" />
    <rect
       style="fill:#231f20"
       id="rect22978"
       y="127"
       x="81"
       width="1"
       height="1" />
    <rect
       style="fill:#140f10"
       id="rect23144"
       y="128"
       x="74"
       width="1"
       height="1" />
    <rect
       style="fill:#140f10"
       id="rect23152"
       y="128"
       x="78"
       width="1"
       height="1" />
    <rect
       style="fill:#231f20"
       id="rect23158"
       y="128"
       x="81"
       width="1"
       height="1" />
    <path
       id="path6264"
       d="m 11,8 c 0,1.6666667 0,3.333333 0,5 0.333333,0 0.666667,0 1,0 0,-1.666667 0,-3.3333333 0,-5 -0.333333,0 -0.666667,0 -1,0 z"
       style="fill:#433f40"
       inkscape:connector-curvature="0" />
    <path
       id="path6260"
       d="m 5,15 c 0,0.333333 0,0.666667 0,1 2,0 4,0 6,0 0,-0.333333 0,-0.666667 0,-1 -2,0 -4,0 -6,0 z"
       style="fill:#433f40"
       inkscape:connector-curvature="0" />
    <path
       id="path6258"
       d="m 11,16 c 0,0.333333 0,0.666667 0,1 0.333333,0 0.666667,0 1,0 0,-0.333333 0,-0.666667 0,-1 -0.333333,0 -0.666667,0 -1,0 z"
       style="fill:#433f40"
       inkscape:connector-curvature="0" />
    <path
       id="path6256"
       d="m 10,19 c 0,0.333333 0,0.666667 0,1 2.333333,0 4.666667,0 7,0 0,-0.333333 0,-0.666667 0,-1 -2.333333,0 -4.666667,0 -7,0 z"
       style="fill:#433f40"
       inkscape:connector-curvature="0" />
    <path
       id="path6240"
       d="m 73,118 c 0,0.33333 0,0.66667 0,1 0.333333,0 0.666667,0 1,0 0,-0.33333 0,-0.66667 0,-1 -0.333333,0 -0.666667,0 -1,0 z"
       style="fill:#433f40"
       inkscape:connector-curvature="0" />
    <path
       id="path6238"
       d="m 78,118 c 0,0.33333 0,0.66667 0,1 0.333333,0 0.666667,0 1,0 0,-0.33333 0,-0.66667 0,-1 -0.333333,0 -0.666667,0 -1,0 z"
       style="fill:#433f40"
       inkscape:connector-curvature="0" />
    <path
       id="path6234"
       d="m 79,120 c 0,0.33333 0,0.66667 0,1 1,0 2,0 3,0 0,-0.33333 0,-0.66667 0,-1 -1,0 -2,0 -3,0 z"
       style="fill:#433f40"
       inkscape:connector-curvature="0" />
    <path
       id="path6612"
       d="m 15,4 c 0,0.3333333 0,0.6666667 0,1 0.333333,0 0.666667,0 1,0 0,-0.3333333 0,-0.6666667 0,-1 -0.333333,0 -0.666667,0 -1,0 z"
       style="fill:#827f80"
       inkscape:connector-curvature="0" />
    <path
       id="path6606"
       d="m 8,13 c 0,0.333333 0,0.666667 0,1 1,0 2,0 3,0 0,-0.333333 0,-0.666667 0,-1 -1,0 -2,0 -3,0 z"
       style="fill:#827f80"
       inkscape:connector-curvature="0" />
    <path
       id="path6596"
       d="m 73,114 c 0,0.33333 0,0.66667 0,1 2,0 4,0 6,0 0,-0.33333 0,-0.66667 0,-1 -2,0 -4,0 -6,0 z"
       style="fill:#827f80"
       inkscape:connector-curvature="0" />
    <path
       id="path6594"
       d="m 73,115 c -0.333333,0 -0.666667,0 -1,0 0,0.33333 0,0.66667 0,1 0.333333,0 0.666667,0 1,0 0,-0.33333 0,-0.66667 0,-1 z"
       style="fill:#827f80"
       inkscape:connector-curvature="0" />
    <path
       id="path6592"
       d="m 73,117 c 0,0.33333 0,0.66667 0,1 0.333333,0 0.666667,0 1,0 0,-0.33333 0,-0.66667 0,-1 -0.333333,0 -0.666667,0 -1,0 z"
       style="fill:#827f80"
       inkscape:connector-curvature="0" />
    <path
       id="path6590"
       d="m 78,117 c 0,0.33333 0,0.66667 0,1 0.333333,0 0.666667,0 1,0 0,-0.33333 0,-0.66667 0,-1 -0.333333,0 -0.666667,0 -1,0 z"
       style="fill:#827f80"
       inkscape:connector-curvature="0" />
    <path
       id="path6588"
       d="m 79,118 c 0,0.33333 0,0.66667 0,1 2.333333,0 4.666667,0 7,0 0,-0.33333 0,-0.66667 0,-1 -2.333333,0 -4.666667,0 -7,0 z"
       style="fill:#827f80"
       inkscape:connector-curvature="0" />
    <path
       id="path6586"
       d="m 73,121 c 0,3 0,6 0,9 0.333333,0 0.666667,0 1,0 0,-3 0,-6 0,-9 -0.333333,0 -0.666667,0 -1,0 z"
       style="fill:#827f80"
       inkscape:connector-curvature="0" />
    <path
       id="path6584"
       d="m 78,121 c 0,1.66667 0,3.33333 0,5 0.666667,0 1.333333,0 2,0 0,-0.33333 0,-0.66667 0,-1 -0.333333,0 -0.666667,0 -1,0 0,-1.33333 0,-2.66667 0,-4 -0.333333,0 -0.666667,0 -1,0 z"
       style="fill:#827f80"
       inkscape:connector-curvature="0" />
    <path
       id="rect23322"
       d="m 82,125 c 0,0.33333 0,0.66667 0,1 0.333333,0 0.666667,0 1,0 0,-0.33333 0,-0.66667 0,-1 -0.333333,0 -0.666667,0 -1,0 z"
       style="fill:#827f80"
       inkscape:connector-curvature="0" />
    <rect
       style="fill:#918f8f"
       id="rect23324"
       y="129"
       x="74"
       width="1"
       height="1" />
    <rect
       style="fill:#140f10"
       id="rect23338"
       y="129"
       x="81"
       width="1"
       height="1" />
    <path
       id="path6695"
       d="m 8,11 c 0,0.333333 0,0.666667 0,1 0.3333333,0 0.6666667,0 1,0 0,-0.333333 0,-0.666667 0,-1 -0.3333333,0 -0.6666667,0 -1,0 z"
       style="fill:#a19f9f"
       inkscape:connector-curvature="0" />
    <path
       id="path6691"
       d="m 17,19 c 0,0.333333 0,0.666667 0,1 0.333333,0 0.666667,0 1,0 0,-0.333333 0,-0.666667 0,-1 -0.333333,0 -0.666667,0 -1,0 z"
       style="fill:#a19f9f"
       inkscape:connector-curvature="0" />
    <path
       id="path6663"
       d="m 72,114 c 0,0.33333 0,0.66667 0,1 0.333333,0 0.666667,0 1,0 0,-0.33333 0,-0.66667 0,-1 -0.333333,0 -0.666667,0 -1,0 z"
       style="fill:#a19f9f"
       inkscape:connector-curvature="0" />
    <path
       id="path6661"
       d="m 79,114 c 0,0.33333 0,0.66667 0,1 0.333333,0 0.666667,0 1,0 0,-0.33333 0,-0.66667 0,-1 -0.333333,0 -0.666667,0 -1,0 z"
       style="fill:#a19f9f"
       inkscape:connector-curvature="0" />
    <path
       id="path6659"
       d="m 70,120 c 0,0.33333 0,0.66667 0,1 0.333333,0 0.666667,0 1,0 0,-0.33333 0,-0.66667 0,-1 -0.333333,0 -0.666667,0 -1,0 z"
       style="fill:#a19f9f"
       inkscape:connector-curvature="0" />
    <path
       id="path6657"
       d="m 85,120 c 0,0.33333 0,0.66667 0,1 0.333333,0 0.666667,0 1,0 0,-0.33333 0,-0.66667 0,-1 -0.333333,0 -0.666667,0 -1,0 z"
       style="fill:#a19f9f"
       inkscape:connector-curvature="0" />
    <path
       id="path6311"
       d="m 12,7 c 0,0.3333333 0,0.6666667 0,1 0.333333,0 0.666667,0 1,0 0,-0.3333333 0,-0.6666667 0,-1 -0.333333,0 -0.666667,0 -1,0 z"
       style="fill:#726f70"
       inkscape:connector-curvature="0" />
    <path
       id="path6307"
       d="m 7,13 c 0,0.333333 0,0.666667 0,1 0.3333333,0 0.6666667,0 1,0 0,-0.333333 0,-0.666667 0,-1 -0.3333333,0 -0.6666667,0 -1,0 z"
       style="fill:#726f70"
       inkscape:connector-curvature="0" />
    <path
       id="path6299"
       d="m 79,115 c 0,0.33333 0,0.66667 0,1 0.333333,0 0.666667,0 1,0 0,-0.33333 0,-0.66667 0,-1 -0.333333,0 -0.666667,0 -1,0 z"
       style="fill:#726f70"
       inkscape:connector-curvature="0" />
    <path
       id="path6297"
       d="m 73,116 c 0,0.33333 0,0.66667 0,1 0.333333,0 0.666667,0 1,0 0,-0.33333 0,-0.66667 0,-1 -0.333333,0 -0.666667,0 -1,0 z"
       style="fill:#726f70"
       inkscape:connector-curvature="0" />
    <path
       id="path6291"
       d="m 83,123 c 0,0.33333 0,0.66667 0,1 0.333333,0 0.666667,0 1,0 0,-0.33333 0,-0.66667 0,-1 -0.333333,0 -0.666667,0 -1,0 z"
       style="fill:#726f70"
       inkscape:connector-curvature="0" />
    <path
       id="rect23500"
       d="m 73,130 c 0,0.33333 0,0.66667 0,1 0.333333,0 0.666667,0 1,0 0,-0.33333 0,-0.66667 0,-1 -0.333333,0 -0.666667,0 -1,0 z"
       style="fill:#726f70"
       inkscape:connector-curvature="0" />
    <path
       id="path6468"
       d="m 16,3 c 0,0.3333333 0,0.6666667 0,1 0.333333,0 0.666667,0 1,0 0,-0.3333333 0,-0.6666667 0,-1 -0.333333,0 -0.666667,0 -1,0 z"
       style="fill:#c0bfbf"
       inkscape:connector-curvature="0" />
    <path
       id="path6466"
       d="m 16,5 c 0,2.6666667 0,5.333333 0,8 0.333333,0 0.666667,0 1,0 0,-2.666667 0,-5.3333333 0,-8 -0.333333,0 -0.666667,0 -1,0 z"
       style="fill:#c0bfbf"
       inkscape:connector-curvature="0" />
    <path
       id="path6464"
       d="M 7,7 C 7,7.3333333 7,7.6666667 7,8 7.3333333,8 7.6666667,8 8,8 8,7.6666667 8,7.3333333 8,7 7.6666667,7 7.3333333,7 7,7 Z"
       style="fill:#c0bfbf"
       inkscape:connector-curvature="0" />
    <path
       id="path6462"
       d="m 5,11 c 0,0.333333 0,0.666667 0,1 0.3333333,0 0.6666667,0 1,0 0,-0.333333 0,-0.666667 0,-1 -0.3333333,0 -0.6666667,0 -1,0 z"
       style="fill:#c0bfbf"
       inkscape:connector-curvature="0" />
    <path
       id="path6458"
       d="m 16,16 c 0,0.333333 0,0.666667 0,1 0.333333,0 0.666667,0 1,0 0,-0.333333 0,-0.666667 0,-1 -0.333333,0 -0.666667,0 -1,0 z"
       style="fill:#c0bfbf"
       inkscape:connector-curvature="0" />
    <path
       id="path6456"
       d="m 18,16 c 0,0.333333 0,0.666667 0,1 0.333333,0 0.666667,0 1,0 0,-0.333333 0,-0.666667 0,-1 -0.333333,0 -0.666667,0 -1,0 z"
       style="fill:#c0bfbf"
       inkscape:connector-curvature="0" />
    <path
       id="path6454"
       d="m 17,18 c 0,0.333333 0,0.666667 0,1 0.333333,0 0.666667,0 1,0 0,-0.333333 0,-0.666667 0,-1 -0.333333,0 -0.666667,0 -1,0 z"
       style="fill:#c0bfbf"
       inkscape:connector-curvature="0" />
    <path
       id="path6446"
       d="m 70,121 c 0,0.33333 0,0.66667 0,1 0.666667,0 1.333333,0 2,0 0,-0.33333 0,-0.66667 0,-1 -0.666667,0 -1.333333,0 -2,0 z"
       style="fill:#c0bfbf"
       inkscape:connector-curvature="0" />
    <path
       id="path6442"
       d="m 84,122 c 0,0.33333 0,0.66667 0,1 0.333333,0 0.666667,0 1,0 0,-0.33333 0,-0.66667 0,-1 -0.333333,0 -0.666667,0 -1,0 z"
       style="fill:#c0bfbf"
       inkscape:connector-curvature="0" />
    <path
       id="rect23508"
       d="m 77,130 c 0,0.33333 0,0.66667 0,1 0.333333,0 0.666667,0 1,0 0,-0.33333 0,-0.66667 0,-1 -0.333333,0 -0.666667,0 -1,0 z"
       style="fill:#c0bfbf"
       inkscape:connector-curvature="0" />
    <rect
       style="fill:#332f30"
       id="rect23514"
       y="130"
       x="80"
       width="1"
       height="1" />
    <path
       id="path6535"
       d="M 7,4 C 7,4.6666667 7,5.3333333 7,6 7.3333333,6 7.6666667,6 8,6 8,5.3333333 8,4.6666667 8,4 7.6666667,4 7.3333333,4 7,4 Z"
       style="fill:#d0cfcf"
       inkscape:connector-curvature="0" />
    <path
       id="path6533"
       d="m 14,5 c 0,0.3333333 0,0.6666667 0,1 0.333333,0 0.666667,0 1,0 0,-0.3333333 0,-0.6666667 0,-1 -0.333333,0 -0.666667,0 -1,0 z"
       style="fill:#d0cfcf"
       inkscape:connector-curvature="0" />
    <path
       id="path6531"
       d="m 14,6 c -0.333333,0 -0.666667,0 -1,0 0,0.3333333 0,0.6666667 0,1 0.333333,0 0.666667,0 1,0 0,-0.3333333 0,-0.6666667 0,-1 z"
       style="fill:#d0cfcf"
       inkscape:connector-curvature="0" />
    <path
       id="path6529"
       d="m 11,7 c 0,0.3333333 0,0.6666667 0,1 0.333333,0 0.666667,0 1,0 0,-0.3333333 0,-0.6666667 0,-1 -0.333333,0 -0.666667,0 -1,0 z"
       style="fill:#d0cfcf"
       inkscape:connector-curvature="0" />
    <path
       id="path6525"
       d="m 9,10 c 0,0.333333 0,0.666667 0,1 0.3333333,0 0.6666667,0 1,0 0,-0.333333 0,-0.666667 0,-1 -0.3333333,0 -0.6666667,0 -1,0 z"
       style="fill:#d0cfcf"
       inkscape:connector-curvature="0" />
    <path
       id="path6523"
       d="m 19,13 c 0,0.333333 0,0.666667 0,1 0.333333,0 0.666667,0 1,0 0,-0.333333 0,-0.666667 0,-1 -0.333333,0 -0.666667,0 -1,0 z"
       style="fill:#d0cfcf"
       inkscape:connector-curvature="0" />
    <path
       id="path6517"
       d="m 71,117 c 0,0.33333 0,0.66667 0,1 0.333333,0 0.666667,0 1,0 0,-0.33333 0,-0.66667 0,-1 -0.333333,0 -0.666667,0 -1,0 z"
       style="fill:#d0cfcf"
       inkscape:connector-curvature="0" />
    <path
       id="path6509"
       d="m 80,123 c 0,0.33333 0,0.66667 0,1 0.333333,0 0.666667,0 1,0 0,-0.33333 0,-0.66667 0,-1 -0.333333,0 -0.666667,0 -1,0 z"
       style="fill:#d0cfcf"
       inkscape:connector-curvature="0" />
    <path
       id="path6503"
       d="m 76,127 c 0,0.33333 0,0.66667 0,1 0.333333,0 0.666667,0 1,0 0,-0.33333 0,-0.66667 0,-1 -0.333333,0 -0.666667,0 -1,0 z"
       style="fill:#d0cfcf"
       inkscape:connector-curvature="0" />
    <path
       id="path6501"
       d="m 76,128 c -0.333333,0 -0.666667,0 -1,0 0,0.33333 0,0.66667 0,1 0.333333,0 0.666667,0 1,0 0,-0.33333 0,-0.66667 0,-1 z"
       style="fill:#d0cfcf"
       inkscape:connector-curvature="0" />
    <path
       id="path6499"
       d="m 77,129 c 0,0.33333 0,0.66667 0,1 0.333333,0 0.666667,0 1,0 0,-0.33333 0,-0.66667 0,-1 -0.333333,0 -0.666667,0 -1,0 z"
       style="fill:#d0cfcf"
       inkscape:connector-curvature="0" />
    <path
       id="path6497"
       d="m 82,129 c 0,0.33333 0,0.66667 0,1 0.333333,0 0.666667,0 1,0 0,-0.33333 0,-0.66667 0,-1 -0.333333,0 -0.666667,0 -1,0 z"
       style="fill:#d0cfcf"
       inkscape:connector-curvature="0" />
    <path
       id="rect23684"
       d="m 77,131 c 0,0.33333 0,0.66667 0,1 0.333333,0 0.666667,0 1,0 0,-0.33333 0,-0.66667 0,-1 -0.333333,0 -0.666667,0 -1,0 z"
       style="fill:#d0cfcf"
       inkscape:connector-curvature="0" />
    <path
       id="path6162"
       d="m 10,3 c 0,0.3333333 0,0.6666667 0,1 C 9.6666667,4 9.3333333,4 9,4 9,4.3333333 9,4.6666667 9,5 8.6666667,5 8.3333333,5 8,5 8,6.3333333 8,7.6666667 8,9 7.6666667,9 7.3333333,9 7,9 c 0,0.6666667 0,1.333333 0,2 -0.3333333,0 -0.6666667,0 -1,0 0,0.666667 0,1.333333 0,2 -0.3333333,0 -0.6666667,0 -1,0 0,0.666667 0,1.333333 0,2 2.3333333,0 4.6666667,0 7,0 0,1 0,2 0,3 -0.333333,0 -0.666667,0 -1,0 0,0.333333 0,0.666667 0,1 1.666667,0 3.333333,0 5,0 0,-1.333333 0,-2.666667 0,-4 0.666667,0 1.333333,0 2,0 0,-0.333333 0,-0.666667 0,-1 -0.666667,0 -1.333333,0 -2,0 0,-3 0,-6 0,-9 -0.333333,0 -0.666667,0 -1,0 0,0.6666667 0,1.3333333 0,2 -0.666667,0 -1.333333,0 -2,0 0,0.3333333 0,0.6666667 0,1 -0.333333,0 -0.666667,0 -1,0 0,2 0,4 0,6 -1.666667,0 -3.3333333,0 -5,0 0,-0.666667 0,-1.333333 0,-2 0.3333333,0 0.6666667,0 1,0 0,-0.666667 0,-1.333333 0,-2 0.3333333,0 0.6666667,0 1,0 0,-0.3333333 0,-0.6666667 0,-1 0.3333333,0 0.6666667,0 1,0 0,-0.6666667 0,-1.3333333 0,-2 0.333333,0 0.666667,0 1,0 0,-0.6666667 0,-1.3333333 0,-2 0.333333,0 0.666667,0 1,0 0,-0.6666667 0,-1.3333333 0,-2 -0.666667,0 -1.333333,0 -2,0 z"
       style="fill:#050001"
       inkscape:connector-curvature="0" />
    <path
       id="path6160"
       d="m 18,14 c 0.333333,0 0.666667,0 1,0 0,-0.333333 0,-0.666667 0,-1 -0.333333,0 -0.666667,0 -1,0 0,0.333333 0,0.666667 0,1 z"
       style="fill:#050001"
       inkscape:connector-curvature="0" />
    <path
       id="path6146"
       d="m 73,115 c 0,0.33333 0,0.66667 0,1 0.333333,0 0.666667,0 1,0 0,1 0,2 0,3 -1,0 -2,0 -3,0 0,0.66667 0,1.33333 0,2 0.333333,0 0.666667,0 1,0 0,-0.33333 0,-0.66667 0,-1 0.666667,0 1.333333,0 2,0 0,2.66667 0,5.33333 0,8 0.333333,0 0.666667,0 1,0 0,-0.33333 0,-0.66667 0,-1 0.666667,0 1.333333,0 2,0 0,-0.33333 0,-0.66667 0,-1 0.333333,0 0.666667,0 1,0 0,-2 0,-4 0,-6 1.666667,0 3.333333,0 5,0 0,0.66667 0,1.33333 0,2 -0.333333,0 -0.666667,0 -1,0 0,0.33333 0,0.66667 0,1 -0.333333,0 -0.666667,0 -1,0 0,0.66667 0,1.33333 0,2 -0.333333,0 -0.666667,0 -1,0 0,0.33333 0,0.66667 0,1 -0.333333,0 -0.666667,0 -1,0 0,1 0,2 0,3 -0.333333,0 -0.666667,0 -1,0 0,1 0,2 0,3 0.333333,0 0.666667,0 1,0 0,-0.33333 0,-0.66667 0,-1 0.333333,0 0.666667,0 1,0 0,-0.33333 0,-0.66667 0,-1 0.333333,0 0.666667,0 1,0 0,-1 0,-2 0,-3 0.333333,0 0.666667,0 1,0 0,-1 0,-2 0,-3 0.333333,0 0.666667,0 1,0 0,-0.33333 0,-0.66667 0,-1 0.333333,0 0.666667,0 1,0 0,-0.66667 0,-1.33333 0,-2 0.333333,0 0.666667,0 1,0 0,-0.66667 0,-1.33333 0,-2 -2.333333,0 -4.666667,0 -7,0 0,-1 0,-2 0,-3 0.333333,0 0.666667,0 1,0 0,-0.33333 0,-0.66667 0,-1 -2,0 -4,0 -6,0 z"
       style="fill:#050001"
       inkscape:connector-curvature="0" />
    <rect
       style="fill:#332f30"
       id="rect23688"
       y="131"
       x="79"
       width="1"
       height="1" />
    <rect
       style="fill:#524f50"
       id="rect23860"
       y="132"
       x="78"
       width="1"
       height="1" />
    <path
       id="path6406"
       d="m 10,1 c 0,0.3333333 0,0.6666667 0,1 0.333333,0 0.666667,0 1,0 0,-0.3333333 0,-0.6666667 0,-1 -0.333333,0 -0.666667,0 -1,0 z"
       style="fill:#efefef"
       inkscape:connector-curvature="0" />
    <path
       id="path6404"
       d="M 10,2 C 9.6666667,2 9.3333333,2 9,2 9,2.3333333 9,2.6666667 9,3 9.3333333,3 9.6666667,3 10,3 10,2.6666667 10,2.3333333 10,2 Z"
       style="fill:#efefef"
       inkscape:connector-curvature="0" />
    <path
       id="path6402"
       d="M 9,3 C 8.6666667,3 8.3333333,3 8,3 8,3.3333333 8,3.6666667 8,4 8.3333333,4 8.6666667,4 9,4 9,3.6666667 9,3.3333333 9,3 Z"
       style="fill:#efefef"
       inkscape:connector-curvature="0" />
    <path
       id="path6400"
       d="m 15,3 c 0,0.3333333 0,0.6666667 0,1 0.333333,0 0.666667,0 1,0 0,-0.3333333 0,-0.6666667 0,-1 -0.333333,0 -0.666667,0 -1,0 z"
       style="fill:#efefef"
       inkscape:connector-curvature="0" />
    <path
       id="path6394"
       d="m 4,12 c 0,0.333333 0,0.666667 0,1 0.3333333,0 0.6666667,0 1,0 0,-0.333333 0,-0.666667 0,-1 -0.3333333,0 -0.6666667,0 -1,0 z"
       style="fill:#efefef"
       inkscape:connector-curvature="0" />
    <path
       id="path6392"
       d="m 19,12 c 0,0.333333 0,0.666667 0,1 0.333333,0 0.666667,0 1,0 0,-0.333333 0,-0.666667 0,-1 -0.333333,0 -0.666667,0 -1,0 z"
       style="fill:#efefef"
       inkscape:connector-curvature="0" />
    <path
       id="path6388"
       d="m 17,16 c 0,0.333333 0,0.666667 0,1 0.333333,0 0.666667,0 1,0 0,-0.333333 0,-0.666667 0,-1 -0.333333,0 -0.666667,0 -1,0 z"
       style="fill:#efefef"
       inkscape:connector-curvature="0" />
    <path
       id="path6368"
       d="m 70,119 c 0,0.33333 0,0.66667 0,1 0.333333,0 0.666667,0 1,0 0,-0.33333 0,-0.66667 0,-1 -0.333333,0 -0.666667,0 -1,0 z"
       style="fill:#efefef"
       inkscape:connector-curvature="0" />
    <path
       id="path6364"
       d="m 79,124 c 0,0.33333 0,0.66667 0,1 0.333333,0 0.666667,0 1,0 0,-0.33333 0,-0.66667 0,-1 -0.333333,0 -0.666667,0 -1,0 z"
       style="fill:#efefef"
       inkscape:connector-curvature="0" />
    <path
       id="path6362"
       d="m 83,124 c 0,0.33333 0,0.66667 0,1 0.333333,0 0.666667,0 1,0 0,-0.33333 0,-0.66667 0,-1 -0.333333,0 -0.666667,0 -1,0 z"
       style="fill:#efefef"
       inkscape:connector-curvature="0" />
    <path
       id="path6360"
       d="m 82,128 c 0,0.33333 0,0.66667 0,1 0.333333,0 0.666667,0 1,0 0,-0.33333 0,-0.66667 0,-1 -0.333333,0 -0.666667,0 -1,0 z"
       style="fill:#efefef"
       inkscape:connector-curvature="0" />
    <path
       id="path6354"
       d="m 81,130 c 0,0.33333 0,0.66667 0,1 0.333333,0 0.666667,0 1,0 0,-0.33333 0,-0.66667 0,-1 -0.333333,0 -0.666667,0 -1,0 z"
       style="fill:#efefef"
       inkscape:connector-curvature="0" />
    <path
       id="path6352"
       d="m 81,131 c -0.333333,0 -0.666667,0 -1,0 0,0.33333 0,0.66667 0,1 0.333333,0 0.666667,0 1,0 0,-0.33333 0,-0.66667 0,-1 z"
       style="fill:#efefef"
       inkscape:connector-curvature="0" />
    <path
       id="rect23862"
       d="m 80,132 c -0.333333,0 -0.666667,0 -1,0 0,0.33333 0,0.66667 0,1 0.333333,0 0.666667,0 1,0 0,-0.33333 0,-0.66667 0,-1 z"
       style="fill:#efefef"
       inkscape:connector-curvature="0" />
  </g>
</svg>
