<?xml version="1.0" encoding="UTF-8" standalone="no"?>
<svg
   xmlns:dc="http://purl.org/dc/elements/1.1/"
   xmlns:cc="http://creativecommons.org/ns#"
   xmlns:rdf="http://www.w3.org/1999/02/22-rdf-syntax-ns#"
   xmlns:svg="http://www.w3.org/2000/svg"
   xmlns="http://www.w3.org/2000/svg"
   xmlns:sodipodi="http://sodipodi.sourceforge.net/DTD/sodipodi-0.dtd"
   xmlns:inkscape="http://www.inkscape.org/namespaces/inkscape"
   height="135px"
   version="1.1"
   width="90px"
   id="svg24208"
   sodipodi:docname="red4.svg"
   inkscape:version="0.92.2 (5c3e80d, 2017-08-06)">
  <metadata
     id="metadata24212">
    <rdf:RDF>
      <cc:Work
         rdf:about="">
        <dc:format>image/svg+xml</dc:format>
        <dc:type
           rdf:resource="http://purl.org/dc/dcmitype/StillImage" />
        <dc:title></dc:title>
      </cc:Work>
    </rdf:RDF>
  </metadata>
  <sodipodi:namedview
     pagecolor="#ffffff"
     bordercolor="#666666"
     borderopacity="1"
     objecttolerance="10"
     gridtolerance="10"
     guidetolerance="10"
     inkscape:pageopacity="0"
     inkscape:pageshadow="2"
     inkscape:window-width="1920"
     inkscape:window-height="1025"
     id="namedview24210"
     showgrid="false"
     inkscape:zoom="6.9925925"
     inkscape:cx="69.816602"
     inkscape:cy="101.07233"
     inkscape:window-x="-8"
     inkscape:window-y="-8"
     inkscape:window-maximized="1"
     inkscape:current-layer="svg24208" />
  <defs
     id="defs2" />
  <g
     id="g3711">
    <rect
       id="rect180"
       y="1"
       x="11"
       width="1"
       height="1"
       style="fill:#e79091" />
    <rect
       id="rect350"
       y="2"
       x="11"
       width="1"
       height="1"
       style="fill:#cc1214" />
    <rect
       id="rect694"
       y="4"
       x="8"
       width="1"
       height="1"
       style="fill:#cc1214" />
    <rect
       id="rect710"
       y="4"
       x="16"
       width="1"
       height="1"
       style="fill:#e79091" />
    <rect
       id="rect1058"
       y="6"
       x="11"
       width="1"
       height="1"
       style="fill:#e79091" />
    <rect
       id="rect1064"
       y="6"
       x="14"
       width="1"
       height="1"
       style="fill:#cc1214" />
    <rect
       id="rect1236"
       y="7"
       x="10"
       width="1"
       height="1"
       style="fill:#cc1214" />
    <rect
       id="rect1240"
       y="7"
       x="12"
       width="1"
       height="1"
       style="fill:#e17172" />
    <rect
       id="rect1410"
       y="8"
       x="7"
       width="1"
       height="1"
       style="fill:#dd6162" />
    <rect
       id="rect1416"
       y="8"
       x="10"
       width="1"
       height="1"
       style="fill:#e79091" />
    <rect
       id="rect1588"
       y="9"
       x="6"
       width="1"
       height="1"
       style="fill:#f8dfe0" />
    <rect
       id="rect1768"
       y="10"
       x="6"
       width="1"
       height="1"
       style="fill:#da5152" />
    <rect
       id="rect1772"
       y="10"
       x="8"
       width="1"
       height="1"
       style="fill:#cc1214" />
    <rect
       id="rect1952"
       y="11"
       x="8"
       width="1"
       height="1"
       style="fill:#eba0a1" />
    <rect
       id="rect2130"
       y="12"
       x="7"
       width="1"
       height="1"
       style="fill:#dd6162" />
    <rect
       id="rect2152"
       y="12"
       x="18"
       width="1"
       height="1"
       style="fill:#f8dfe0" />
    <rect
       id="rect2304"
       y="13"
       x="4"
       width="1"
       height="1"
       style="fill:#e79091" />
    <rect
       id="rect2310"
       y="13"
       x="7"
       width="1"
       height="1"
       style="fill:#e17172" />
    <rect
       id="rect2328"
       y="13"
       x="16"
       width="1"
       height="1"
       style="fill:#dd6162" />
    <rect
       id="rect2330"
       y="13"
       x="17"
       width="1"
       height="1"
       style="fill:#da5152" />
    <rect
       id="rect2512"
       y="14"
       x="18"
       width="1"
       height="1"
       style="fill:#cc1214" />
    <rect
       id="rect2678"
       y="15"
       x="11"
       width="1"
       height="1"
       style="fill:#cc1214" />
    <rect
       id="rect2692"
       y="15"
       x="18"
       width="1"
       height="1"
       style="fill:#da5152" />
    <rect
       id="rect3048"
       y="17"
       x="16"
       width="1"
       height="1"
       style="fill:#eeb0b1" />
    <rect
       id="rect3216"
       y="18"
       x="10"
       width="1"
       height="1"
       style="fill:#dd6162" />
    <rect
       id="rect3410"
       y="19"
       x="17"
       width="1"
       height="1"
       style="fill:#eba0a1" />
    <rect
       id="rect20620"
       y="114"
       x="72"
       width="1"
       height="1"
       style="fill:#eba0a1" />
    <rect
       id="rect20634"
       y="114"
       x="79"
       width="1"
       height="1"
       style="fill:#eba0a1" />
    <rect
       id="rect20814"
       y="115"
       x="79"
       width="1"
       height="1"
       style="fill:#e17172" />
    <rect
       id="rect20982"
       y="116"
       x="73"
       width="1"
       height="1"
       style="fill:#e17172" />
    <rect
       id="rect20992"
       y="116"
       x="78"
       width="1"
       height="1"
       style="fill:#dd6162" />
    <rect
       id="rect21340"
       y="118"
       x="72"
       width="1"
       height="1"
       style="fill:#dd6162" />
    <rect
       id="rect21546"
       y="119"
       x="85"
       width="1"
       height="1"
       style="fill:#da5152" />
    <rect
       id="rect21696"
       y="120"
       x="70"
       width="1"
       height="1"
       style="fill:#eba0a1" />
    <path
       id="path3451"
       d="m 11,8 c 0,1.6666667 0,3.333333 0,5 0.333333,0 0.666667,0 1,0 0,-1.666667 0,-3.3333333 0,-5 -0.333333,0 -0.666667,0 -1,0 z"
       style="fill:#d64143" />
    <path
       id="path3449"
       d="m 5,15 c 0,0.333333 0,0.666667 0,1 2,0 4,0 6,0 0,-0.333333 0,-0.666667 0,-1 -2,0 -4,0 -6,0 z"
       style="fill:#d64143" />
    <path
       id="path3447"
       d="m 11,16 c 0,0.333333 0,0.666667 0,1 0.333333,0 0.666667,0 1,0 0,-0.333333 0,-0.666667 0,-1 -0.333333,0 -0.666667,0 -1,0 z"
       style="fill:#d64143" />
    <path
       id="path3445"
       d="m 10,19 c 0,0.333333 0,0.666667 0,1 2.333333,0 4.666667,0 7,0 0,-0.333333 0,-0.666667 0,-1 -2.333333,0 -4.666667,0 -7,0 z"
       style="fill:#d64143" />
    <path
       id="path3443"
       d="m 73,118 c 0,0.33333 0,0.66667 0,1 0.333333,0 0.666667,0 1,0 0,-0.33333 0,-0.66667 0,-1 -0.333333,0 -0.666667,0 -1,0 z"
       style="fill:#d64143" />
    <path
       id="path3441"
       d="m 78,118 c 0,0.33333 0,0.66667 0,1 0.333333,0 0.666667,0 1,0 0,-0.33333 0,-0.66667 0,-1 -0.333333,0 -0.666667,0 -1,0 z"
       style="fill:#d64143" />
    <path
       id="rect21718"
       d="m 79,120 c 0,0.33333 0,0.66667 0,1 1,0 2,0 3,0 0,-0.33333 0,-0.66667 0,-1 -1,0 -2,0 -3,0 z"
       style="fill:#d64143" />
    <rect
       id="rect21726"
       y="120"
       x="85"
       width="1"
       height="1"
       style="fill:#eba0a1" />
    <rect
       id="rect21900"
       y="121"
       x="82"
       width="1"
       height="1"
       style="fill:#da5152" />
    <rect
       id="rect22078"
       y="122"
       x="81"
       width="1"
       height="1"
       style="fill:#e79091" />
    <rect
       id="rect22262"
       y="123"
       x="83"
       width="1"
       height="1"
       style="fill:#e17172" />
    <rect
       id="rect22440"
       y="124"
       x="82"
       width="1"
       height="1"
       style="fill:#cc1214" />
    <rect
       id="rect22790"
       y="126"
       x="77"
       width="1"
       height="1"
       style="fill:#dd6162" />
    <rect
       id="rect22792"
       y="126"
       x="78"
       width="1"
       height="1"
       style="fill:#eeb0b1" />
    <rect
       id="rect22800"
       y="126"
       x="82"
       width="1"
       height="1"
       style="fill:#f8dfe0" />
    <rect
       id="rect22966"
       y="127"
       x="75"
       width="1"
       height="1"
       style="fill:#cc1214" />
    <rect
       id="rect22972"
       y="127"
       x="78"
       width="1"
       height="1"
       style="fill:#dd6162" />
    <rect
       id="rect23144"
       y="128"
       x="74"
       width="1"
       height="1"
       style="fill:#cc1214" />
    <rect
       id="rect23152"
       y="128"
       x="78"
       width="1"
       height="1"
       style="fill:#cc1214" />
    <path
       id="path3581"
       d="m 5,12 c 0,0.333333 0,0.666667 0,1 0.3333333,0 0.6666667,0 1,0 0,-0.333333 0,-0.666667 0,-1 -0.3333333,0 -0.6666667,0 -1,0 z"
       style="fill:#d02223" />
    <path
       id="path3579"
       d="m 11,13 c 0,0.333333 0,0.666667 0,1 0.333333,0 0.666667,0 1,0 0,-0.333333 0,-0.666667 0,-1 -0.333333,0 -0.666667,0 -1,0 z"
       style="fill:#d02223" />
    <path
       id="path3577"
       d="m 17,15 c 0,0.333333 0,0.666667 0,1 0.333333,0 0.666667,0 1,0 0,-0.333333 0,-0.666667 0,-1 -0.333333,0 -0.666667,0 -1,0 z"
       style="fill:#d02223" />
    <path
       id="path3575"
       d="m 16,18 c 0,0.333333 0,0.666667 0,1 0.333333,0 0.666667,0 1,0 0,-0.333333 0,-0.666667 0,-1 -0.333333,0 -0.666667,0 -1,0 z"
       style="fill:#d02223" />
    <path
       id="path3573"
       d="m 73,120 c 0,0.33333 0,0.66667 0,1 0.333333,0 0.666667,0 1,0 0,-0.33333 0,-0.66667 0,-1 -0.333333,0 -0.666667,0 -1,0 z"
       style="fill:#d02223" />
    <path
       id="path3571"
       d="m 78,120 c 0,0.33333 0,0.66667 0,1 0.333333,0 0.666667,0 1,0 0,-0.33333 0,-0.66667 0,-1 -0.333333,0 -0.666667,0 -1,0 z"
       style="fill:#d02223" />
    <path
       id="path3569"
       d="m 80,124 c 0,0.33333 0,0.66667 0,1 0.333333,0 0.666667,0 1,0 0,-0.33333 0,-0.66667 0,-1 -0.333333,0 -0.666667,0 -1,0 z"
       style="fill:#d02223" />
    <path
       id="rect23158"
       d="m 81,127 c 0,0.66667 0,1.33333 0,2 0.333333,0 0.666667,0 1,0 0,-0.66667 0,-1.33333 0,-2 -0.333333,0 -0.666667,0 -1,0 z"
       style="fill:#d02223" />
    <path
       id="path3510"
       d="m 15,4 c 0,0.3333333 0,0.6666667 0,1 0.333333,0 0.666667,0 1,0 0,-0.3333333 0,-0.6666667 0,-1 -0.333333,0 -0.666667,0 -1,0 z"
       style="fill:#e48182" />
    <path
       id="path3508"
       d="m 8,13 c 0,0.333333 0,0.666667 0,1 1,0 2,0 3,0 0,-0.333333 0,-0.666667 0,-1 -1,0 -2,0 -3,0 z"
       style="fill:#e48182" />
    <path
       id="path3506"
       d="m 73,114 c 0,0.33333 0,0.66667 0,1 2,0 4,0 6,0 0,-0.33333 0,-0.66667 0,-1 -2,0 -4,0 -6,0 z"
       style="fill:#e48182" />
    <path
       id="path3504"
       d="m 73,115 c -0.333333,0 -0.666667,0 -1,0 0,0.33333 0,0.66667 0,1 0.333333,0 0.666667,0 1,0 0,-0.33333 0,-0.66667 0,-1 z"
       style="fill:#e48182" />
    <path
       id="path3502"
       d="m 73,117 c 0,0.33333 0,0.66667 0,1 0.333333,0 0.666667,0 1,0 0,-0.33333 0,-0.66667 0,-1 -0.333333,0 -0.666667,0 -1,0 z"
       style="fill:#e48182" />
    <path
       id="path3500"
       d="m 78,117 c 0,0.33333 0,0.66667 0,1 0.333333,0 0.666667,0 1,0 0,-0.33333 0,-0.66667 0,-1 -0.333333,0 -0.666667,0 -1,0 z"
       style="fill:#e48182" />
    <path
       id="path3498"
       d="m 79,118 c 0,0.33333 0,0.66667 0,1 2.333333,0 4.666667,0 7,0 0,-0.33333 0,-0.66667 0,-1 -2.333333,0 -4.666667,0 -7,0 z"
       style="fill:#e48182" />
    <path
       id="path3496"
       d="m 73,121 c 0,3 0,6 0,9 0.333333,0 0.666667,0 1,0 0,-3 0,-6 0,-9 -0.333333,0 -0.666667,0 -1,0 z"
       style="fill:#e48182" />
    <path
       id="path3494"
       d="m 78,121 c 0,1.66667 0,3.33333 0,5 0.666667,0 1.333333,0 2,0 0,-0.33333 0,-0.66667 0,-1 -0.333333,0 -0.666667,0 -1,0 0,-1.33333 0,-2.66667 0,-4 -0.333333,0 -0.666667,0 -1,0 z"
       style="fill:#e48182" />
    <path
       id="rect23322"
       d="m 82,125 c 0,0.33333 0,0.66667 0,1 0.333333,0 0.666667,0 1,0 0,-0.33333 0,-0.66667 0,-1 -0.333333,0 -0.666667,0 -1,0 z"
       style="fill:#e48182" />
    <rect
       id="rect23324"
       y="129"
       x="74"
       width="1"
       height="1"
       style="fill:#e79091" />
    <rect
       id="rect23338"
       y="129"
       x="81"
       width="1"
       height="1"
       style="fill:#cc1214" />
    <rect
       id="rect23500"
       y="130"
       x="73"
       width="1"
       height="1"
       style="fill:#e17172" />
    <path
       id="path3364"
       d="m 16,3 c 0,0.3333333 0,0.6666667 0,1 0.333333,0 0.666667,0 1,0 0,-0.3333333 0,-0.6666667 0,-1 -0.333333,0 -0.666667,0 -1,0 z"
       style="fill:#f1c0c0" />
    <path
       id="path3362"
       d="m 16,5 c 0,2.6666667 0,5.333333 0,8 0.333333,0 0.666667,0 1,0 0,-2.666667 0,-5.3333333 0,-8 -0.333333,0 -0.666667,0 -1,0 z"
       style="fill:#f1c0c0" />
    <path
       id="path3360"
       d="M 7,7 C 7,7.3333333 7,7.6666667 7,8 7.3333333,8 7.6666667,8 8,8 8,7.6666667 8,7.3333333 8,7 7.6666667,7 7.3333333,7 7,7 Z"
       style="fill:#f1c0c0" />
    <path
       id="path3358"
       d="m 5,11 c 0,0.333333 0,0.666667 0,1 0.3333333,0 0.6666667,0 1,0 0,-0.333333 0,-0.666667 0,-1 -0.3333333,0 -0.6666667,0 -1,0 z"
       style="fill:#f1c0c0" />
    <path
       id="path3356"
       d="m 16,16 c 0,0.333333 0,0.666667 0,1 0.333333,0 0.666667,0 1,0 0,-0.333333 0,-0.666667 0,-1 -0.333333,0 -0.666667,0 -1,0 z"
       style="fill:#f1c0c0" />
    <path
       id="path3354"
       d="m 18,16 c 0,0.333333 0,0.666667 0,1 0.333333,0 0.666667,0 1,0 0,-0.333333 0,-0.666667 0,-1 -0.333333,0 -0.666667,0 -1,0 z"
       style="fill:#f1c0c0" />
    <path
       id="path3352"
       d="m 17,18 c 0,0.333333 0,0.666667 0,1 0.333333,0 0.666667,0 1,0 0,-0.333333 0,-0.666667 0,-1 -0.333333,0 -0.666667,0 -1,0 z"
       style="fill:#f1c0c0" />
    <path
       id="path3350"
       d="m 70,121 c 0,0.33333 0,0.66667 0,1 0.666667,0 1.333333,0 2,0 0,-0.33333 0,-0.66667 0,-1 -0.666667,0 -1.333333,0 -2,0 z"
       style="fill:#f1c0c0" />
    <path
       id="path3348"
       d="m 84,122 c 0,0.33333 0,0.66667 0,1 0.333333,0 0.666667,0 1,0 0,-0.33333 0,-0.66667 0,-1 -0.333333,0 -0.666667,0 -1,0 z"
       style="fill:#f1c0c0" />
    <path
       id="rect23508"
       d="m 77,130 c 0,0.33333 0,0.66667 0,1 0.333333,0 0.666667,0 1,0 0,-0.33333 0,-0.66667 0,-1 -0.333333,0 -0.666667,0 -1,0 z"
       style="fill:#f1c0c0" />
    <path
       id="path3323"
       d="M 7,4 C 7,4.6666667 7,5.3333333 7,6 7.3333333,6 7.6666667,6 8,6 8,5.3333333 8,4.6666667 8,4 7.6666667,4 7.3333333,4 7,4 Z"
       style="fill:#f5d0d0" />
    <path
       id="path3321"
       d="m 14,5 c 0,0.3333333 0,0.6666667 0,1 0.333333,0 0.666667,0 1,0 0,-0.3333333 0,-0.6666667 0,-1 -0.333333,0 -0.666667,0 -1,0 z"
       style="fill:#f5d0d0" />
    <path
       id="path3319"
       d="m 14,6 c -0.333333,0 -0.666667,0 -1,0 0,0.3333333 0,0.6666667 0,1 0.333333,0 0.666667,0 1,0 0,-0.3333333 0,-0.6666667 0,-1 z"
       style="fill:#f5d0d0" />
    <path
       id="path3317"
       d="m 11,7 c 0,0.3333333 0,0.6666667 0,1 0.333333,0 0.666667,0 1,0 0,-0.3333333 0,-0.6666667 0,-1 -0.333333,0 -0.666667,0 -1,0 z"
       style="fill:#f5d0d0" />
    <path
       id="path3315"
       d="m 9,10 c 0,0.333333 0,0.666667 0,1 0.3333333,0 0.6666667,0 1,0 0,-0.333333 0,-0.666667 0,-1 -0.3333333,0 -0.6666667,0 -1,0 z"
       style="fill:#f5d0d0" />
    <path
       id="path3313"
       d="m 19,13 c 0,0.333333 0,0.666667 0,1 0.333333,0 0.666667,0 1,0 0,-0.333333 0,-0.666667 0,-1 -0.333333,0 -0.666667,0 -1,0 z"
       style="fill:#f5d0d0" />
    <path
       id="path3311"
       d="m 71,117 c 0,0.33333 0,0.66667 0,1 0.333333,0 0.666667,0 1,0 0,-0.33333 0,-0.66667 0,-1 -0.333333,0 -0.666667,0 -1,0 z"
       style="fill:#f5d0d0" />
    <path
       id="path3309"
       d="m 80,123 c 0,0.33333 0,0.66667 0,1 0.333333,0 0.666667,0 1,0 0,-0.33333 0,-0.66667 0,-1 -0.333333,0 -0.666667,0 -1,0 z"
       style="fill:#f5d0d0" />
    <path
       id="path3307"
       d="m 76,127 c 0,0.33333 0,0.66667 0,1 0.333333,0 0.666667,0 1,0 0,-0.33333 0,-0.66667 0,-1 -0.333333,0 -0.666667,0 -1,0 z"
       style="fill:#f5d0d0" />
    <path
       id="path3305"
       d="m 76,128 c -0.333333,0 -0.666667,0 -1,0 0,0.33333 0,0.66667 0,1 0.333333,0 0.666667,0 1,0 0,-0.33333 0,-0.66667 0,-1 z"
       style="fill:#f5d0d0" />
    <path
       id="path3303"
       d="m 77,129 c 0,0.33333 0,0.66667 0,1 0.333333,0 0.666667,0 1,0 0,-0.33333 0,-0.66667 0,-1 -0.333333,0 -0.666667,0 -1,0 z"
       style="fill:#f5d0d0" />
    <path
       id="path3301"
       d="m 82,129 c 0,0.33333 0,0.66667 0,1 0.333333,0 0.666667,0 1,0 0,-0.33333 0,-0.66667 0,-1 -0.333333,0 -0.666667,0 -1,0 z"
       style="fill:#f5d0d0" />
    <path
       id="rect23684"
       d="m 77,131 c 0,0.33333 0,0.66667 0,1 0.333333,0 0.666667,0 1,0 0,-0.33333 0,-0.66667 0,-1 -0.333333,0 -0.666667,0 -1,0 z"
       style="fill:#f5d0d0" />
    <path
       id="path3280"
       d="m 10,3 c 0,0.3333333 0,0.6666667 0,1 C 9.6666667,4 9.3333333,4 9,4 9,4.3333333 9,4.6666667 9,5 8.6666667,5 8.3333333,5 8,5 8,6.3333333 8,7.6666667 8,9 7.6666667,9 7.3333333,9 7,9 c 0,0.6666667 0,1.333333 0,2 -0.3333333,0 -0.6666667,0 -1,0 0,0.666667 0,1.333333 0,2 -0.3333333,0 -0.6666667,0 -1,0 0,0.666667 0,1.333333 0,2 2.3333333,0 4.6666667,0 7,0 0,1 0,2 0,3 -0.333333,0 -0.666667,0 -1,0 0,0.333333 0,0.666667 0,1 1.666667,0 3.333333,0 5,0 0,-1.333333 0,-2.666667 0,-4 0.666667,0 1.333333,0 2,0 0,-0.333333 0,-0.666667 0,-1 -0.666667,0 -1.333333,0 -2,0 0,-3 0,-6 0,-9 -0.333333,0 -0.666667,0 -1,0 0,0.6666667 0,1.3333333 0,2 -0.666667,0 -1.333333,0 -2,0 0,0.3333333 0,0.6666667 0,1 -0.333333,0 -0.666667,0 -1,0 0,2 0,4 0,6 -1.666667,0 -3.3333333,0 -5,0 0,-0.666667 0,-1.333333 0,-2 0.3333333,0 0.6666667,0 1,0 0,-0.666667 0,-1.333333 0,-2 0.3333333,0 0.6666667,0 1,0 0,-0.3333333 0,-0.6666667 0,-1 0.3333333,0 0.6666667,0 1,0 0,-0.6666667 0,-1.3333333 0,-2 0.333333,0 0.666667,0 1,0 0,-0.6666667 0,-1.3333333 0,-2 0.333333,0 0.666667,0 1,0 0,-0.6666667 0,-1.3333333 0,-2 -0.666667,0 -1.333333,0 -2,0 z"
       style="fill:#c90305" />
    <path
       id="path3278"
       d="m 18,14 c 0.333333,0 0.666667,0 1,0 0,-0.333333 0,-0.666667 0,-1 -0.333333,0 -0.666667,0 -1,0 0,0.333333 0,0.666667 0,1 z"
       style="fill:#c90305" />
    <path
       id="rect23686"
       d="m 73,115 c 0,0.33333 0,0.66667 0,1 0.333333,0 0.666667,0 1,0 0,1 0,2 0,3 -1,0 -2,0 -3,0 0,0.66667 0,1.33333 0,2 0.333333,0 0.666667,0 1,0 0,-0.33333 0,-0.66667 0,-1 0.666667,0 1.333333,0 2,0 0,2.66667 0,5.33333 0,8 0.333333,0 0.666667,0 1,0 0,-0.33333 0,-0.66667 0,-1 0.666667,0 1.333333,0 2,0 0,-0.33333 0,-0.66667 0,-1 0.333333,0 0.666667,0 1,0 0,-2 0,-4 0,-6 1.666667,0 3.333333,0 5,0 0,0.66667 0,1.33333 0,2 -0.333333,0 -0.666667,0 -1,0 0,0.33333 0,0.66667 0,1 -0.333333,0 -0.666667,0 -1,0 0,0.66667 0,1.33333 0,2 -0.333333,0 -0.666667,0 -1,0 0,0.33333 0,0.66667 0,1 -0.333333,0 -0.666667,0 -1,0 0,1 0,2 0,3 -0.333333,0 -0.666667,0 -1,0 0,1 0,2 0,3 0.333333,0 0.666667,0 1,0 0,-0.33333 0,-0.66667 0,-1 0.333333,0 0.666667,0 1,0 0,-0.33333 0,-0.66667 0,-1 0.333333,0 0.666667,0 1,0 0,-1 0,-2 0,-3 0.333333,0 0.666667,0 1,0 0,-1 0,-2 0,-3 0.333333,0 0.666667,0 1,0 0,-0.33333 0,-0.66667 0,-1 0.333333,0 0.666667,0 1,0 0,-0.66667 0,-1.33333 0,-2 0.333333,0 0.666667,0 1,0 0,-0.66667 0,-1.33333 0,-2 -2.333333,0 -4.666667,0 -7,0 0,-1 0,-2 0,-3 0.333333,0 0.666667,0 1,0 0,-0.33333 0,-0.66667 0,-1 -2,0 -4,0 -6,0 z"
       style="fill:#c90305" />
    <path
       id="path3553"
       d="m 10,2 c 0,0.3333333 0,0.6666667 0,1 0.333333,0 0.666667,0 1,0 0,-0.3333333 0,-0.6666667 0,-1 -0.333333,0 -0.666667,0 -1,0 z"
       style="fill:#d33133" />
    <path
       id="path3551"
       d="M 10,3 C 9.6666667,3 9.3333333,3 9,3 9,3.3333333 9,3.6666667 9,4 9.3333333,4 9.6666667,4 10,4 10,3.6666667 10,3.3333333 10,3 Z"
       style="fill:#d33133" />
    <path
       id="path3549"
       d="m 11,5 c 0,0.3333333 0,0.6666667 0,1 0.333333,0 0.666667,0 1,0 0,-0.3333333 0,-0.6666667 0,-1 -0.333333,0 -0.666667,0 -1,0 z"
       style="fill:#d33133" />
    <path
       id="path3547"
       d="m 9,9 c 0,0.3333333 0,0.6666667 0,1 0.3333333,0 0.6666667,0 1,0 C 10,9.6666667 10,9.3333333 10,9 9.6666667,9 9.3333333,9 9,9 Z"
       style="fill:#d33133" />
    <path
       id="path3545"
       d="m 4,14 c 0,0.666667 0,1.333333 0,2 0.3333333,0 0.6666667,0 1,0 0,-0.666667 0,-1.333333 0,-2 -0.3333333,0 -0.6666667,0 -1,0 z"
       style="fill:#d33133" />
    <path
       id="path3543"
       d="m 16,15 c 0,0.333333 0,0.666667 0,1 0.333333,0 0.666667,0 1,0 0,-0.333333 0,-0.666667 0,-1 -0.333333,0 -0.666667,0 -1,0 z"
       style="fill:#d33133" />
    <path
       id="path3541"
       d="m 11,17 c 0,0.333333 0,0.666667 0,1 0.333333,0 0.666667,0 1,0 0,-0.333333 0,-0.666667 0,-1 -0.333333,0 -0.666667,0 -1,0 z"
       style="fill:#d33133" />
    <path
       id="path3539"
       d="m 71,118 c 0,0.33333 0,0.66667 0,1 0.333333,0 0.666667,0 1,0 0,-0.33333 0,-0.66667 0,-1 -0.333333,0 -0.666667,0 -1,0 z"
       style="fill:#d33133" />
    <path
       id="path3537"
       d="m 72,120 c 0,0.33333 0,0.66667 0,1 0.333333,0 0.666667,0 1,0 0,-0.33333 0,-0.66667 0,-1 -0.333333,0 -0.666667,0 -1,0 z"
       style="fill:#d33133" />
    <path
       id="path3535"
       d="m 82,120 c 0,0.33333 0,0.66667 0,1 0.333333,0 0.666667,0 1,0 0,-0.33333 0,-0.66667 0,-1 -0.333333,0 -0.666667,0 -1,0 z"
       style="fill:#d33133" />
    <path
       id="path3533"
       d="m 84,121 c 0,0.33333 0,0.66667 0,1 0.333333,0 0.666667,0 1,0 0,-0.33333 0,-0.66667 0,-1 -0.333333,0 -0.666667,0 -1,0 z"
       style="fill:#d33133" />
    <path
       id="path3531"
       d="m 80,130 c 0,0.33333 0,0.66667 0,1 0.333333,0 0.666667,0 1,0 0,-0.33333 0,-0.66667 0,-1 -0.333333,0 -0.666667,0 -1,0 z"
       style="fill:#d33133" />
    <path
       id="rect23688"
       d="m 80,131 c -0.333333,0 -0.666667,0 -1,0 0,0.33333 0,0.66667 0,1 0.333333,0 0.666667,0 1,0 0,-0.33333 0,-0.66667 0,-1 z"
       style="fill:#d33133" />
    <rect
       id="rect23860"
       y="132"
       x="78"
       width="1"
       height="1"
       style="fill:#da5152" />
    <path
       id="path3409"
       d="m 10,1 c 0,0.3333333 0,0.6666667 0,1 0.333333,0 0.666667,0 1,0 0,-0.3333333 0,-0.6666667 0,-1 -0.333333,0 -0.666667,0 -1,0 z"
       style="fill:#fcefef" />
    <path
       id="path3407"
       d="M 10,2 C 9.6666667,2 9.3333333,2 9,2 9,2.3333333 9,2.6666667 9,3 9.3333333,3 9.6666667,3 10,3 10,2.6666667 10,2.3333333 10,2 Z"
       style="fill:#fcefef" />
    <path
       id="path3405"
       d="M 9,3 C 8.6666667,3 8.3333333,3 8,3 8,3.3333333 8,3.6666667 8,4 8.3333333,4 8.6666667,4 9,4 9,3.6666667 9,3.3333333 9,3 Z"
       style="fill:#fcefef" />
    <path
       id="path3403"
       d="m 15,3 c 0,0.3333333 0,0.6666667 0,1 0.333333,0 0.666667,0 1,0 0,-0.3333333 0,-0.6666667 0,-1 -0.333333,0 -0.666667,0 -1,0 z"
       style="fill:#fcefef" />
    <path
       id="path3401"
       d="m 4,12 c 0,0.333333 0,0.666667 0,1 0.3333333,0 0.6666667,0 1,0 0,-0.333333 0,-0.666667 0,-1 -0.3333333,0 -0.6666667,0 -1,0 z"
       style="fill:#fcefef" />
    <path
       id="path3399"
       d="m 19,12 c 0,0.333333 0,0.666667 0,1 0.333333,0 0.666667,0 1,0 0,-0.333333 0,-0.666667 0,-1 -0.333333,0 -0.666667,0 -1,0 z"
       style="fill:#fcefef" />
    <path
       id="path3397"
       d="m 17,16 c 0,0.333333 0,0.666667 0,1 0.333333,0 0.666667,0 1,0 0,-0.333333 0,-0.666667 0,-1 -0.333333,0 -0.666667,0 -1,0 z"
       style="fill:#fcefef" />
    <path
       id="path3395"
       d="m 70,119 c 0,0.33333 0,0.66667 0,1 0.333333,0 0.666667,0 1,0 0,-0.33333 0,-0.66667 0,-1 -0.333333,0 -0.666667,0 -1,0 z"
       style="fill:#fcefef" />
    <path
       id="path3393"
       d="m 79,124 c 0,0.33333 0,0.66667 0,1 0.333333,0 0.666667,0 1,0 0,-0.33333 0,-0.66667 0,-1 -0.333333,0 -0.666667,0 -1,0 z"
       style="fill:#fcefef" />
    <path
       id="path3391"
       d="m 83,124 c 0,0.33333 0,0.66667 0,1 0.333333,0 0.666667,0 1,0 0,-0.33333 0,-0.66667 0,-1 -0.333333,0 -0.666667,0 -1,0 z"
       style="fill:#fcefef" />
    <path
       id="path3389"
       d="m 82,128 c 0,0.33333 0,0.66667 0,1 0.333333,0 0.666667,0 1,0 0,-0.33333 0,-0.66667 0,-1 -0.333333,0 -0.666667,0 -1,0 z"
       style="fill:#fcefef" />
    <path
       id="path3387"
       d="m 81,130 c 0,0.33333 0,0.66667 0,1 0.333333,0 0.666667,0 1,0 0,-0.33333 0,-0.66667 0,-1 -0.333333,0 -0.666667,0 -1,0 z"
       style="fill:#fcefef" />
    <path
       id="path3385"
       d="m 81,131 c -0.333333,0 -0.666667,0 -1,0 0,0.33333 0,0.66667 0,1 0.333333,0 0.666667,0 1,0 0,-0.33333 0,-0.66667 0,-1 z"
       style="fill:#fcefef" />
    <path
       id="rect23862"
       d="m 80,132 c -0.333333,0 -0.666667,0 -1,0 0,0.33333 0,0.66667 0,1 0.333333,0 0.666667,0 1,0 0,-0.33333 0,-0.66667 0,-1 z"
       style="fill:#fcefef" />
  </g>
</svg>
