<?xml version="1.0" encoding="UTF-8" standalone="no"?>
<svg
   xmlns:dc="http://purl.org/dc/elements/1.1/"
   xmlns:cc="http://creativecommons.org/ns#"
   xmlns:rdf="http://www.w3.org/1999/02/22-rdf-syntax-ns#"
   xmlns:svg="http://www.w3.org/2000/svg"
   xmlns="http://www.w3.org/2000/svg"
   xmlns:sodipodi="http://sodipodi.sourceforge.net/DTD/sodipodi-0.dtd"
   xmlns:inkscape="http://www.inkscape.org/namespaces/inkscape"
   height="135px"
   version="1.1"
   width="90px"
   id="svg24208"
   sodipodi:docname="05-black.svg"
   inkscape:version="0.92.2 (5c3e80d, 2017-08-06)">
  <metadata
     id="metadata24212">
    <rdf:RDF>
      <cc:Work
         rdf:about="">
        <dc:format>image/svg+xml</dc:format>
        <dc:type
           rdf:resource="http://purl.org/dc/dcmitype/StillImage" />
      </cc:Work>
    </rdf:RDF>
  </metadata>
  <sodipodi:namedview
     pagecolor="#ffffff"
     bordercolor="#666666"
     borderopacity="1"
     objecttolerance="10"
     gridtolerance="10"
     guidetolerance="10"
     inkscape:pageopacity="0"
     inkscape:pageshadow="2"
     inkscape:window-width="1920"
     inkscape:window-height="1025"
     id="namedview24210"
     showgrid="false"
     inkscape:zoom="27.97037"
     inkscape:cx="22.935977"
     inkscape:cy="118.96679"
     inkscape:window-x="-8"
     inkscape:window-y="-8"
     inkscape:window-maximized="1"
     inkscape:current-layer="svg24208" />
  <defs
     id="defs2" />
  <g
     id="g4393">
    <rect
       id="rect536"
       y="3"
       x="17"
       width="1"
       height="1"
       style="fill:#a19f9f" />
    <rect
       id="rect712"
       y="4"
       x="17"
       width="1"
       height="1"
       style="fill:#d0cfcf" />
    <rect
       id="rect888"
       y="5"
       x="16"
       width="1"
       height="1"
       style="fill:#140f10" />
    <rect
       id="rect1068"
       y="6"
       x="16"
       width="1"
       height="1"
       style="fill:#524f50" />
    <rect
       id="rect1408"
       y="8"
       x="6"
       width="1"
       height="1"
       style="fill:#e0dfdf" />
    <rect
       id="rect1412"
       y="8"
       x="8"
       width="1"
       height="1"
       style="fill:#140f10" />
    <rect
       id="rect1414"
       y="8"
       x="9"
       width="1"
       height="1"
       style="fill:#b1afaf" />
    <rect
       id="rect1588"
       y="9"
       x="6"
       width="1"
       height="1"
       style="fill:#b1afaf" />
    <rect
       id="rect1606"
       y="9"
       x="15"
       width="1"
       height="1"
       style="fill:#140f10" />
    <rect
       id="rect1768"
       y="10"
       x="6"
       width="1"
       height="1"
       style="fill:#726f70" />
    <rect
       id="rect1948"
       y="11"
       x="6"
       width="1"
       height="1"
       style="fill:#332f30" />
    <rect
       id="rect1972"
       y="11"
       x="18"
       width="1"
       height="1"
       style="fill:#a19f9f" />
    <rect
       id="rect2126"
       y="12"
       x="5"
       width="1"
       height="1"
       style="fill:#e0dfdf" />
    <rect
       id="rect2130"
       y="12"
       x="7"
       width="1"
       height="1"
       style="fill:#140f10" />
    <rect
       id="rect2132"
       y="12"
       x="8"
       width="1"
       height="1"
       style="fill:#524f50" />
    <rect
       id="rect2138"
       y="12"
       x="11"
       width="1"
       height="1"
       style="fill:#726f70" />
    <rect
       id="rect2140"
       y="12"
       x="12"
       width="1"
       height="1"
       style="fill:#231f20" />
    <rect
       id="rect2306"
       y="13"
       x="5"
       width="1"
       height="1"
       style="fill:#d0cfcf" />
    <rect
       id="rect2488"
       y="14"
       x="6"
       width="1"
       height="1"
       style="fill:#524f50" />
    <rect
       id="rect2490"
       y="14"
       x="7"
       width="1"
       height="1"
       style="fill:#d0cfcf" />
    <rect
       id="rect2502"
       y="14"
       x="13"
       width="1"
       height="1"
       style="fill:#d0cfcf" />
    <rect
       id="rect2670"
       y="15"
       x="7"
       width="1"
       height="1"
       style="fill:#b1afaf" />
    <rect
       id="rect2684"
       y="15"
       x="14"
       width="1"
       height="1"
       style="fill:#140f10" />
    <rect
       id="rect2692"
       y="15"
       x="18"
       width="1"
       height="1"
       style="fill:#625f60" />
    <rect
       id="rect3024"
       y="17"
       x="4"
       width="1"
       height="1"
       style="fill:#a19f9f" />
    <rect
       id="rect3032"
       y="17"
       x="8"
       width="1"
       height="1"
       style="fill:#726f70" />
    <rect
       id="rect3034"
       y="17"
       x="9"
       width="1"
       height="1"
       style="fill:#d0cfcf" />
    <rect
       id="rect3038"
       y="17"
       x="11"
       width="1"
       height="1"
       style="fill:#d0cfcf" />
    <rect
       id="rect3204"
       y="18"
       x="4"
       width="1"
       height="1"
       style="fill:#d0cfcf" />
    <rect
       id="rect3226"
       y="18"
       x="15"
       width="1"
       height="1"
       style="fill:#140f10" />
    <rect
       id="rect3228"
       y="18"
       x="16"
       width="1"
       height="1"
       style="fill:#918f8f" />
    <rect
       id="rect3388"
       y="19"
       x="6"
       width="1"
       height="1"
       style="fill:#d0cfcf" />
    <rect
       id="rect3390"
       y="19"
       x="7"
       width="1"
       height="1"
       style="fill:#726f70" />
    <rect
       id="rect3392"
       y="19"
       x="8"
       width="1"
       height="1"
       style="fill:#332f30" />
    <rect
       id="rect3402"
       y="19"
       x="13"
       width="1"
       height="1"
       style="fill:#332f30" />
    <rect
       id="rect3406"
       y="19"
       x="15"
       width="1"
       height="1"
       style="fill:#e0dfdf" />
    <rect
       id="rect20626"
       y="114"
       x="75"
       width="1"
       height="1"
       style="fill:#a19f9f" />
    <rect
       id="rect20628"
       y="114"
       x="76"
       width="1"
       height="1"
       style="fill:#524f50" />
    <rect
       id="rect20630"
       y="114"
       x="77"
       width="1"
       height="1"
       style="fill:#332f30" />
    <rect
       id="rect20638"
       y="114"
       x="81"
       width="1"
       height="1"
       style="fill:#625f60" />
    <rect
       id="rect20640"
       y="114"
       x="82"
       width="1"
       height="1"
       style="fill:#a19f9f" />
    <rect
       id="rect20802"
       y="115"
       x="73"
       width="1"
       height="1"
       style="fill:#a19f9f" />
    <rect
       id="rect20804"
       y="115"
       x="74"
       width="1"
       height="1"
       style="fill:#140f10" />
    <rect
       id="rect20822"
       y="115"
       x="83"
       width="1"
       height="1"
       style="fill:#140f10" />
    <rect
       id="rect20980"
       y="116"
       x="72"
       width="1"
       height="1"
       style="fill:#726f70" />
    <rect
       id="rect20990"
       y="116"
       x="77"
       width="1"
       height="1"
       style="fill:#625f60" />
    <rect
       id="rect20996"
       y="116"
       x="80"
       width="1"
       height="1"
       style="fill:#a19f9f" />
    <rect
       id="rect20998"
       y="116"
       x="81"
       width="1"
       height="1"
       style="fill:#332f30" />
    <rect
       id="rect21158"
       y="117"
       x="71"
       width="1"
       height="1"
       style="fill:#b1afaf" />
    <rect
       id="rect21180"
       y="117"
       x="82"
       width="1"
       height="1"
       style="fill:#140f10" />
    <rect
       id="rect21338"
       y="118"
       x="71"
       width="1"
       height="1"
       style="fill:#524f50" />
    <rect
       id="rect21346"
       y="118"
       x="75"
       width="1"
       height="1"
       style="fill:#140f10" />
    <rect
       id="rect21364"
       y="118"
       x="84"
       width="1"
       height="1"
       style="fill:#e0dfdf" />
    <rect
       id="rect21526"
       y="119"
       x="75"
       width="1"
       height="1"
       style="fill:#231f20" />
    <rect
       id="rect21540"
       y="119"
       x="82"
       width="1"
       height="1"
       style="fill:#918f8f" />
    <rect
       id="rect21542"
       y="119"
       x="83"
       width="1"
       height="1"
       style="fill:#726f70" />
    <rect
       id="rect21722"
       y="120"
       x="83"
       width="1"
       height="1"
       style="fill:#d0cfcf" />
    <rect
       id="rect21878"
       y="121"
       x="71"
       width="1"
       height="1"
       style="fill:#140f10" />
    <rect
       id="rect21890"
       y="121"
       x="77"
       width="1"
       height="1"
       style="fill:#625f60" />
    <rect
       id="rect21892"
       y="121"
       x="78"
       width="1"
       height="1"
       style="fill:#b1afaf" />
    <rect
       id="rect21896"
       y="121"
       x="80"
       width="1"
       height="1"
       style="fill:#a19f9f" />
    <rect
       id="rect21900"
       y="121"
       x="82"
       width="1"
       height="1"
       style="fill:#332f30" />
    <rect
       id="rect22058"
       y="122"
       x="71"
       width="1"
       height="1"
       style="fill:#625f60" />
    <rect
       id="rect22082"
       y="122"
       x="83"
       width="1"
       height="1"
       style="fill:#524f50" />
    <rect
       id="rect22238"
       y="123"
       x="71"
       width="1"
       height="1"
       style="fill:#e0dfdf" />
    <rect
       id="rect22240"
       y="123"
       x="72"
       width="1"
       height="1"
       style="fill:#140f10" />
    <rect
       id="rect22262"
       y="123"
       x="83"
       width="1"
       height="1"
       style="fill:#a19f9f" />
    <rect
       id="rect22420"
       y="124"
       x="72"
       width="1"
       height="1"
       style="fill:#d0cfcf" />
    <rect
       id="rect22442"
       y="124"
       x="83"
       width="1"
       height="1"
       style="fill:#d0cfcf" />
    <rect
       id="rect22604"
       y="125"
       x="74"
       width="1"
       height="1"
       style="fill:#d0cfcf" />
    <rect
       id="rect22608"
       y="125"
       x="76"
       width="1"
       height="1"
       style="fill:#625f60" />
    <rect
       id="rect22614"
       y="125"
       x="79"
       width="1"
       height="1"
       style="fill:#625f60" />
    <path
       style="fill:#827f80"
       d="m 8,3 c 0,0.3333333 0,0.6666667 0,1 2.666667,0 5.333333,0 8,0 0,-0.3333333 0,-0.6666667 0,-1 -2.666667,0 -5.333333,0 -8,0 z"
       id="path4484" />
    <path
       style="fill:#827f80"
       d="m 10,8 c 0,0.3333333 0,0.6666667 0,1 1.333333,0 2.666667,0 4,0 0,-0.3333333 0,-0.6666667 0,-1 -1.333333,0 -2.666667,0 -4,0 z"
       id="path4482" />
    <path
       style="fill:#827f80"
       d="m 16,9 c 0,0.3333333 0,0.6666667 0,1 0.333333,0 0.666667,0 1,0 0,-0.3333333 0,-0.6666667 0,-1 -0.333333,0 -0.666667,0 -1,0 z"
       id="path4480" />
    <path
       style="fill:#827f80"
       d="m 9,12 c 0,0.333333 0,0.666667 0,1 0.6666667,0 1.333333,0 2,0 0,-0.333333 0,-0.666667 0,-1 -0.666667,0 -1.3333333,0 -2,0 z"
       id="path4478" />
    <path
       style="fill:#827f80"
       d="m 13,16 c 0,0.333333 0,0.666667 0,1 0.333333,0 0.666667,0 1,0 0,-0.333333 0,-0.666667 0,-1 -0.333333,0 -0.666667,0 -1,0 z"
       id="path4476" />
    <path
       style="fill:#827f80"
       d="m 13,17 c -0.333333,0 -0.666667,0 -1,0 0,0.333333 0,0.666667 0,1 0.333333,0 0.666667,0 1,0 0,-0.333333 0,-0.666667 0,-1 z"
       id="path4474" />
    <path
       style="fill:#827f80"
       d="m 17,17 c 0,0.333333 0,0.666667 0,1 0.333333,0 0.666667,0 1,0 0,-0.333333 0,-0.666667 0,-1 -0.333333,0 -0.666667,0 -1,0 z"
       id="path4472" />
    <path
       style="fill:#827f80"
       d="m 14,19 c 0,0.333333 0,0.666667 0,1 0.333333,0 0.666667,0 1,0 0,-0.333333 0,-0.666667 0,-1 -0.333333,0 -0.666667,0 -1,0 z"
       id="path4470" />
    <path
       style="fill:#827f80"
       d="m 84,115 c 0,0.33333 0,0.66667 0,1 0.333333,0 0.666667,0 1,0 0,-0.33333 0,-0.66667 0,-1 -0.333333,0 -0.666667,0 -1,0 z"
       id="path4468" />
    <path
       style="fill:#827f80"
       d="m 76,117 c 0,0.33333 0,0.66667 0,1 0.333333,0 0.666667,0 1,0 0,-0.33333 0,-0.66667 0,-1 -0.333333,0 -0.666667,0 -1,0 z"
       id="path4466" />
    <path
       style="fill:#827f80"
       d="m 82,118 c 0,0.33333 0,0.66667 0,1 0.333333,0 0.666667,0 1,0 0,-0.33333 0,-0.66667 0,-1 -0.333333,0 -0.666667,0 -1,0 z"
       id="path4464" />
    <path
       style="fill:#827f80"
       d="m 76,120 c 0,0.33333 0,0.66667 0,1 0.333333,0 0.666667,0 1,0 0,-0.33333 0,-0.66667 0,-1 -0.333333,0 -0.666667,0 -1,0 z"
       id="path4462" />
    <path
       style="fill:#827f80"
       d="m 81,121 c 0,0.33333 0,0.66667 0,1 0.333333,0 0.666667,0 1,0 0,-0.33333 0,-0.66667 0,-1 -0.333333,0 -0.666667,0 -1,0 z"
       id="path4460" />
    <path
       style="fill:#827f80"
       d="m 75,125 c 0,0.33333 0,0.66667 0,1 0.333333,0 0.666667,0 1,0 0,-0.33333 0,-0.66667 0,-1 -0.333333,0 -0.666667,0 -1,0 z"
       id="path4458" />
    <path
       style="fill:#827f80"
       d="m 80,125 c 0,0.33333 0,0.66667 0,1 0.333333,0 0.666667,0 1,0 0,-0.33333 0,-0.66667 0,-1 -0.333333,0 -0.666667,0 -1,0 z"
       id="rect22616" />
    <rect
       id="rect22782"
       y="126"
       x="73"
       width="1"
       height="1"
       style="fill:#a19f9f" />
    <path
       style="fill:#c0bfbf"
       d="m 15,7 c 0,0.3333333 0,0.6666667 0,1 0.666667,0 1.333333,0 2,0 0,-0.3333333 0,-0.6666667 0,-1 -0.666667,0 -1.333333,0 -2,0 z"
       id="path4425" />
    <path
       style="fill:#c0bfbf"
       d="m 15,8 c -0.333333,0 -0.666667,0 -1,0 0,0.3333333 0,0.6666667 0,1 0.333333,0 0.666667,0 1,0 0,-0.3333333 0,-0.6666667 0,-1 z"
       id="path4423" />
    <path
       style="fill:#c0bfbf"
       d="m 6,13 c 0,0.333333 0,0.666667 0,1 0.3333333,0 0.6666667,0 1,0 0,-0.333333 0,-0.666667 0,-1 -0.3333333,0 -0.6666667,0 -1,0 z"
       id="path4421" />
    <path
       style="fill:#c0bfbf"
       d="m 5,15 c 0,0.333333 0,0.666667 0,1 0.3333333,0 0.6666667,0 1,0 0,-0.333333 0,-0.666667 0,-1 -0.3333333,0 -0.6666667,0 -1,0 z"
       id="path4419" />
    <path
       style="fill:#c0bfbf"
       d="m 18,16 c 0,0.333333 0,0.666667 0,1 0.333333,0 0.666667,0 1,0 0,-0.333333 0,-0.666667 0,-1 -0.333333,0 -0.666667,0 -1,0 z"
       id="path4417" />
    <path
       style="fill:#c0bfbf"
       d="m 78,116 c 0,0.33333 0,0.66667 0,1 0.666667,0 1.333333,0 2,0 0,-0.33333 0,-0.66667 0,-1 -0.666667,0 -1.333333,0 -2,0 z"
       id="path4415" />
    <path
       style="fill:#c0bfbf"
       d="m 85,116 c 0,0.33333 0,0.66667 0,1 0.333333,0 0.666667,0 1,0 0,-0.33333 0,-0.66667 0,-1 -0.333333,0 -0.666667,0 -1,0 z"
       id="path4413" />
    <path
       style="fill:#c0bfbf"
       d="m 79,121 c 0,0.33333 0,0.66667 0,1 0.333333,0 0.666667,0 1,0 0,-0.33333 0,-0.66667 0,-1 -0.333333,0 -0.666667,0 -1,0 z"
       id="path4411" />
    <path
       style="fill:#c0bfbf"
       d="m 80,126 c 0,0.33333 0,0.66667 0,1 0.333333,0 0.666667,0 1,0 0,-0.33333 0,-0.66667 0,-1 -0.333333,0 -0.666667,0 -1,0 z"
       id="rect22796" />
    <rect
       id="rect22800"
       y="126"
       x="82"
       width="1"
       height="1"
       style="fill:#332f30" />
    <rect
       id="rect22962"
       y="127"
       x="73"
       width="1"
       height="1"
       style="fill:#332f30" />
    <rect
       id="rect22964"
       y="127"
       x="74"
       width="1"
       height="1"
       style="fill:#231f20" />
    <rect
       id="rect22976"
       y="127"
       x="80"
       width="1"
       height="1"
       style="fill:#332f30" />
    <path
       id="path4244"
       d="m 13,15 c 0,0.333333 0,0.666667 0,1 0.333333,0 0.666667,0 1,0 0,-0.333333 0,-0.666667 0,-1 -0.333333,0 -0.666667,0 -1,0 z"
       style="fill:#efefef" />
    <path
       id="path4242"
       d="m 74,114 c 0,0.33333 0,0.66667 0,1 0.333333,0 0.666667,0 1,0 0,-0.33333 0,-0.66667 0,-1 -0.333333,0 -0.666667,0 -1,0 z"
       style="fill:#efefef" />
    <path
       id="path4240"
       d="m 83,114 c 0,0.33333 0,0.66667 0,1 0.333333,0 0.666667,0 1,0 0,-0.33333 0,-0.66667 0,-1 -0.333333,0 -0.666667,0 -1,0 z"
       style="fill:#efefef" />
    <path
       id="path4238"
       d="m 85,115 c 0,0.33333 0,0.66667 0,1 0.333333,0 0.666667,0 1,0 0,-0.33333 0,-0.66667 0,-1 -0.333333,0 -0.666667,0 -1,0 z"
       style="fill:#efefef" />
    <path
       id="path4236"
       d="m 81,117 c 0,0.33333 0,0.66667 0,1 0.333333,0 0.666667,0 1,0 0,-0.33333 0,-0.66667 0,-1 -0.333333,0 -0.666667,0 -1,0 z"
       style="fill:#efefef" />
    <path
       id="path4234"
       d="m 76,118 c 0,0.33333 0,0.66667 0,1 0.333333,0 0.666667,0 1,0 0,-0.33333 0,-0.66667 0,-1 -0.333333,0 -0.666667,0 -1,0 z"
       style="fill:#efefef" />
    <path
       id="path4232"
       d="m 84,120 c 0,0.66667 0,1.33333 0,2 0.333333,0 0.666667,0 1,0 0,-0.66667 0,-1.33333 0,-2 -0.333333,0 -0.666667,0 -1,0 z"
       style="fill:#efefef" />
    <path
       id="path4230"
       d="m 74,126 c 0,0.33333 0,0.66667 0,1 0.333333,0 0.666667,0 1,0 0,-0.33333 0,-0.66667 0,-1 -0.333333,0 -0.666667,0 -1,0 z"
       style="fill:#efefef" />
    <path
       id="rect23140"
       d="m 72,128 c 0,0.33333 0,0.66667 0,1 0.333333,0 0.666667,0 1,0 0,-0.33333 0,-0.66667 0,-1 -0.333333,0 -0.666667,0 -1,0 z"
       style="fill:#efefef" />
    <rect
       id="rect23320"
       y="129"
       x="72"
       width="1"
       height="1"
       style="fill:#b1afaf" />
    <path
       id="path4149"
       d="m 7,4 c 0,2.6666667 0,5.3333333 0,8 2,0 4,0 6,0 0,0.333333 0,0.666667 0,1 0.333333,0 0.666667,0 1,0 0,0.666667 0,1.333333 0,2 0.333333,0 0.666667,0 1,0 0,0.333333 0,0.666667 0,1 -0.333333,0 -0.666667,0 -1,0 0,0.333333 0,0.666667 0,1 -0.333333,0 -0.666667,0 -1,0 0,0.333333 0,0.666667 0,1 -1.666667,0 -3.3333333,0 -5,0 0,-0.333333 0,-0.666667 0,-1 -0.3333333,0 -0.6666667,0 -1,0 0,-0.666667 0,-1.333333 0,-2 -0.3333333,0 -0.6666667,0 -1,0 0,0.666667 0,1.333333 0,2 -0.3333333,0 -0.6666667,0 -1,0 0,0.333333 0,0.666667 0,1 0.3333333,0 0.6666667,0 1,0 0,0.333333 0,0.666667 0,1 1,0 2,0 3,0 0,0.333333 0,0.666667 0,1 1.333333,0 2.666667,0 4,0 0,-0.333333 0,-0.666667 0,-1 0.666667,0 1.333333,0 2,0 0,-0.333333 0,-0.666667 0,-1 0.666667,0 1.333333,0 2,0 0,-0.333333 0,-0.666667 0,-1 0.333333,0 0.666667,0 1,0 0,-2 0,-4 0,-6 -0.333333,0 -0.666667,0 -1,0 0,-0.333333 0,-0.666667 0,-1 -0.666667,0 -1.333333,0 -2,0 C 15,9.6666667 15,9.3333333 15,9 12.666667,9 10.333333,9 8,9 8,8.6666667 8,8.3333333 8,8 8.3333333,8 8.6666667,8 9,8 9,7.6666667 9,7.3333333 9,7 c 2.333333,0 4.666667,0 7,0 0,-0.6666667 0,-1.3333333 0,-2 0.333333,0 0.666667,0 1,0 0,-0.3333333 0,-0.6666667 0,-1 -3.333333,0 -6.666667,0 -10,0 z"
       style="fill:#050001" />
    <path
       id="path4147"
       d="m 7,12 c -0.3333333,0 -0.6666667,0 -1,0 0,0.333333 0,0.666667 0,1 0.3333333,0 0.6666667,0 1,0 0,-0.333333 0,-0.666667 0,-1 z"
       style="fill:#050001" />
    <path
       id="path4145"
       d="m 78,114 c 0,0.33333 0,0.66667 0,1 -1,0 -2,0 -3,0 0,0.33333 0,0.66667 0,1 -0.666667,0 -1.333333,0 -2,0 0,0.33333 0,0.66667 0,1 -0.333333,0 -0.666667,0 -1,0 0,0.66667 0,1.33333 0,2 -0.333333,0 -0.666667,0 -1,0 0,0.66667 0,1.33333 0,2 0.333333,0 0.666667,0 1,0 0,0.66667 0,1.33333 0,2 0.333333,0 0.666667,0 1,0 0,0.33333 0,0.66667 0,1 0.333333,0 0.666667,0 1,0 0,0.33333 0,0.66667 0,1 2.333333,0 4.666667,0 7,0 0,1 0,2 0,3 -2.666667,0 -5.333333,0 -8,0 0,0.66667 0,1.33333 0,2 3,0 6,0 9,0 0,-1.33333 0,-2.66667 0,-4 0.333333,0 0.666667,0 1,0 0,-1.33333 0,-2.66667 0,-4 -2,0 -4,0 -6,0 0,-0.33333 0,-0.66667 0,-1 -0.333333,0 -0.666667,0 -1,0 0,-0.33333 0,-0.66667 0,-1 -0.333333,0 -0.666667,0 -1,0 0,-0.66667 0,-1.33333 0,-2 0.333333,0 0.666667,0 1,0 0,-0.33333 0,-0.66667 0,-1 0.333333,0 0.666667,0 1,0 0,-0.33333 0,-0.66667 0,-1 1.666667,0 3.333333,0 5,0 0,0.33333 0,0.66667 0,1 0.333333,0 0.666667,0 1,0 0,0.66667 0,1.33333 0,2 0.333333,0 0.666667,0 1,0 0,-0.66667 0,-1.33333 0,-2 0.333333,0 0.666667,0 1,0 0,-0.33333 0,-0.66667 0,-1 -0.666667,0 -1.333333,0 -2,0 0,-0.33333 0,-0.66667 0,-1 -1,0 -2,0 -3,0 0,-0.33333 0,-0.66667 0,-1 -0.666667,0 -1.333333,0 -2,0 z"
       style="fill:#050001" />
    <path
       id="rect23338"
       d="m 83,122 c 0.333333,0 0.666667,0 1,0 0,-0.33333 0,-0.66667 0,-1 -0.333333,0 -0.666667,0 -1,0 0,0.33333 0,0.66667 0,1 z"
       style="fill:#050001" />
    <rect
       id="rect23498"
       y="130"
       x="72"
       width="1"
       height="1"
       style="fill:#726f70" />
    <rect
       id="rect23500"
       y="130"
       x="73"
       width="1"
       height="1"
       style="fill:#332f30" />
    <path
       id="path4213"
       d="M 7,3 C 7,3.3333333 7,3.6666667 7,4 7.3333333,4 7.6666667,4 8,4 8,3.6666667 8,3.3333333 8,3 7.6666667,3 7.3333333,3 7,3 Z"
       style="fill:#433f40" />
    <path
       id="path4211"
       d="m 16,3 c 0,0.3333333 0,0.6666667 0,1 0.333333,0 0.666667,0 1,0 0,-0.3333333 0,-0.6666667 0,-1 -0.333333,0 -0.666667,0 -1,0 z"
       style="fill:#433f40" />
    <path
       id="path4209"
       d="m 17,10 c 0,0.333333 0,0.666667 0,1 0.333333,0 0.666667,0 1,0 0,-0.333333 0,-0.666667 0,-1 -0.333333,0 -0.666667,0 -1,0 z"
       style="fill:#433f40" />
    <path
       id="path4207"
       d="m 18,12 c 0,1 0,2 0,3 0.333333,0 0.666667,0 1,0 0,-1 0,-2 0,-3 -0.333333,0 -0.666667,0 -1,0 z"
       style="fill:#433f40" />
    <path
       id="path4205"
       d="m 13,13 c 0,0.333333 0,0.666667 0,1 0.333333,0 0.666667,0 1,0 0,-0.333333 0,-0.666667 0,-1 -0.333333,0 -0.666667,0 -1,0 z"
       style="fill:#433f40" />
    <path
       id="path4203"
       d="m 5,16 c 0,0.333333 0,0.666667 0,1 0.3333333,0 0.6666667,0 1,0 0,-0.333333 0,-0.666667 0,-1 -0.3333333,0 -0.6666667,0 -1,0 z"
       style="fill:#433f40" />
    <path
       id="path4201"
       d="m 7,16 c 0,0.333333 0,0.666667 0,1 0.3333333,0 0.6666667,0 1,0 0,-0.333333 0,-0.666667 0,-1 -0.3333333,0 -0.6666667,0 -1,0 z"
       style="fill:#433f40" />
    <path
       id="path4199"
       d="m 5,18 c 0,0.333333 0,0.666667 0,1 0.3333333,0 0.6666667,0 1,0 0,-0.333333 0,-0.666667 0,-1 -0.3333333,0 -0.6666667,0 -1,0 z"
       style="fill:#433f40" />
    <path
       id="path4197"
       d="m 80,114 c 0,0.33333 0,0.66667 0,1 0.333333,0 0.666667,0 1,0 0,-0.33333 0,-0.66667 0,-1 -0.333333,0 -0.666667,0 -1,0 z"
       style="fill:#433f40" />
    <path
       id="path4195"
       d="m 84,117 c 0,0.33333 0,0.66667 0,1 0.333333,0 0.666667,0 1,0 0,-0.33333 0,-0.66667 0,-1 -0.333333,0 -0.666667,0 -1,0 z"
       style="fill:#433f40" />
    <path
       id="path4193"
       d="m 73,124 c 0,0.33333 0,0.66667 0,1 0.333333,0 0.666667,0 1,0 0,-0.33333 0,-0.66667 0,-1 -0.333333,0 -0.666667,0 -1,0 z"
       style="fill:#433f40" />
    <path
       id="path4191"
       d="m 77,125 c 0,0.33333 0,0.66667 0,1 0.666667,0 1.333333,0 2,0 0,-0.33333 0,-0.66667 0,-1 -0.666667,0 -1.333333,0 -2,0 z"
       style="fill:#433f40" />
    <path
       id="path4189"
       d="m 75,127 c 0,0.33333 0,0.66667 0,1 1.666667,0 3.333333,0 5,0 0,-0.33333 0,-0.66667 0,-1 -1.666667,0 -3.333333,0 -5,0 z"
       style="fill:#433f40" />
    <path
       id="path4187"
       d="m 82,127 c 0,1 0,2 0,3 0.333333,0 0.666667,0 1,0 0,-1 0,-2 0,-3 -0.333333,0 -0.666667,0 -1,0 z"
       style="fill:#433f40" />
    <path
       id="rect23516"
       d="m 82,130 c -2.666667,0 -5.333333,0 -8,0 0,0.33333 0,0.66667 0,1 2.666667,0 5.333333,0 8,0 0,-0.33333 0,-0.66667 0,-1 z"
       style="fill:#433f40" />
    <rect
       id="rect23518"
       y="130"
       x="82"
       width="1"
       height="1"
       style="fill:#524f50" />
    <rect
       id="rect23674"
       y="131"
       x="72"
       width="1"
       height="1"
       style="fill:#e0dfdf" />
  </g>
</svg>
