<?xml version="1.0" encoding="UTF-8" standalone="no"?>
<svg
   xmlns:dc="http://purl.org/dc/elements/1.1/"
   xmlns:cc="http://creativecommons.org/ns#"
   xmlns:rdf="http://www.w3.org/1999/02/22-rdf-syntax-ns#"
   xmlns:svg="http://www.w3.org/2000/svg"
   xmlns="http://www.w3.org/2000/svg"
   xmlns:sodipodi="http://sodipodi.sourceforge.net/DTD/sodipodi-0.dtd"
   xmlns:inkscape="http://www.inkscape.org/namespaces/inkscape"
   height="135px"
   version="1.1"
   width="90px"
   id="svg24208"
   sodipodi:docname="06-red.svg"
   inkscape:version="0.92.2 (5c3e80d, 2017-08-06)">
  <metadata
     id="metadata24212">
    <rdf:RDF>
      <cc:Work
         rdf:about="">
        <dc:format>image/svg+xml</dc:format>
        <dc:type
           rdf:resource="http://purl.org/dc/dcmitype/StillImage" />
        <dc:title />
      </cc:Work>
    </rdf:RDF>
  </metadata>
  <sodipodi:namedview
     pagecolor="#ffffff"
     bordercolor="#666666"
     borderopacity="1"
     objecttolerance="10"
     gridtolerance="10"
     guidetolerance="10"
     inkscape:pageopacity="0"
     inkscape:pageshadow="2"
     inkscape:window-width="1920"
     inkscape:window-height="1025"
     id="namedview24210"
     showgrid="false"
     inkscape:zoom="27.97037"
     inkscape:cx="22.798064"
     inkscape:cy="121.73211"
     inkscape:window-x="-8"
     inkscape:window-y="-8"
     inkscape:window-maximized="1"
     inkscape:current-layer="svg24208" />
  <defs
     id="defs2" />
  <g
     id="g4113">
    <rect
       id="rect520"
       y="3"
       x="9"
       width="1"
       height="1"
       style="fill:#f5d0d0" />
    <rect
       id="rect536"
       y="3"
       x="17"
       width="1"
       height="1"
       style="fill:#eeb0b1" />
    <rect
       id="rect692"
       y="4"
       x="7"
       width="1"
       height="1"
       style="fill:#f8dfe0" />
    <rect
       id="rect712"
       y="4"
       x="17"
       width="1"
       height="1"
       style="fill:#cc1214" />
    <rect
       id="rect868"
       y="5"
       x="6"
       width="1"
       height="1"
       style="fill:#f5d0d0" />
    <rect
       id="rect870"
       y="5"
       x="7"
       width="1"
       height="1"
       style="fill:#cc1214" />
    <rect
       id="rect878"
       y="5"
       x="11"
       width="1"
       height="1"
       style="fill:#cc1214" />
    <rect
       id="rect880"
       y="5"
       x="12"
       width="1"
       height="1"
       style="fill:#e17172" />
    <rect
       id="rect884"
       y="5"
       x="14"
       width="1"
       height="1"
       style="fill:#d33133" />
    <rect
       id="rect1046"
       y="6"
       x="5"
       width="1"
       height="1"
       style="fill:#f8dfe0" />
    <rect
       id="rect1048"
       y="6"
       x="6"
       width="1"
       height="1"
       style="fill:#cc1214" />
    <rect
       id="rect1056"
       y="6"
       x="10"
       width="1"
       height="1"
       style="fill:#d33133" />
    <rect
       id="rect1058"
       y="6"
       x="11"
       width="1"
       height="1"
       style="fill:#fcefef" />
    <rect
       id="rect1234"
       y="7"
       x="9"
       width="1"
       height="1"
       style="fill:#cc1214" />
    <rect
       id="rect1236"
       y="7"
       x="10"
       width="1"
       height="1"
       style="fill:#fcefef" />
    <rect
       id="rect1248"
       y="7"
       x="16"
       width="1"
       height="1"
       style="fill:#d02223" />
    <rect
       id="rect1250"
       y="7"
       x="17"
       width="1"
       height="1"
       style="fill:#eeb0b1" />
    <rect
       id="rect1404"
       y="8"
       x="4"
       width="1"
       height="1"
       style="fill:#f8dfe0" />
    <rect
       id="rect1414"
       y="8"
       x="9"
       width="1"
       height="1"
       style="fill:#e17172" />
    <rect
       id="rect1420"
       y="8"
       x="12"
       width="1"
       height="1"
       style="fill:#f8dfe0" />
    <rect
       id="rect1426"
       y="8"
       x="15"
       width="1"
       height="1"
       style="fill:#fcefef" />
    <rect
       id="rect1428"
       y="8"
       x="16"
       width="1"
       height="1"
       style="fill:#f8dfe0" />
    <rect
       id="rect1430"
       y="8"
       x="17"
       width="1"
       height="1"
       style="fill:#f8dfe0" />
    <rect
       id="rect1584"
       y="9"
       x="4"
       width="1"
       height="1"
       style="fill:#e79091" />
    <rect
       id="rect1594"
       y="9"
       x="9"
       width="1"
       height="1"
       style="fill:#eeb0b1" />
    <rect
       id="rect1596"
       y="9"
       x="10"
       width="1"
       height="1"
       style="fill:#e17172" />
    <rect
       id="rect1598"
       y="9"
       x="11"
       width="1"
       height="1"
       style="fill:#cc1214" />
    <rect
       id="rect1608"
       y="9"
       x="16"
       width="1"
       height="1"
       style="fill:#dd6162" />
    <rect
       id="rect1610"
       y="9"
       x="17"
       width="1"
       height="1"
       style="fill:#f8dfe0" />
    <rect
       id="rect1774"
       y="10"
       x="9"
       width="1"
       height="1"
       style="fill:#cc1214" />
    <rect
       id="rect1790"
       y="10"
       x="17"
       width="1"
       height="1"
       style="fill:#cc1214" />
    <rect
       id="rect1792"
       y="10"
       x="18"
       width="1"
       height="1"
       style="fill:#f5d0d0" />
    <rect
       id="rect1944"
       y="11"
       x="4"
       width="1"
       height="1"
       style="fill:#da5152" />
    <rect
       id="rect1956"
       y="11"
       x="10"
       width="1"
       height="1"
       style="fill:#d02223" />
    <rect
       id="rect1958"
       y="11"
       x="11"
       width="1"
       height="1"
       style="fill:#eba0a1" />
    <rect
       id="rect1960"
       y="11"
       x="12"
       width="1"
       height="1"
       style="fill:#eba0a1" />
    <rect
       id="rect1962"
       y="11"
       x="13"
       width="1"
       height="1"
       style="fill:#d02223" />
    <rect
       id="rect2124"
       y="12"
       x="4"
       width="1"
       height="1"
       style="fill:#e17172" />
    <rect
       id="rect2134"
       y="12"
       x="9"
       width="1"
       height="1"
       style="fill:#cc1214" />
    <rect
       id="rect2136"
       y="12"
       x="10"
       width="1"
       height="1"
       style="fill:#fcefef" />
    <rect
       id="rect2142"
       y="12"
       x="13"
       width="1"
       height="1"
       style="fill:#fcefef" />
    <rect
       id="rect2144"
       y="12"
       x="14"
       width="1"
       height="1"
       style="fill:#cc1214" />
    <rect
       id="rect2154"
       y="12"
       x="19"
       width="1"
       height="1"
       style="fill:#f8dfe0" />
    <rect
       id="rect2324"
       y="13"
       x="14"
       width="1"
       height="1"
       style="fill:#da5152" />
    <rect
       id="rect2484"
       y="14"
       x="4"
       width="1"
       height="1"
       style="fill:#eeb0b1" />
    <rect
       id="rect2664"
       y="15"
       x="4"
       width="1"
       height="1"
       style="fill:#fcefef" />
    <rect
       id="rect2666"
       y="15"
       x="5"
       width="1"
       height="1"
       style="fill:#cc1214" />
    <rect
       id="rect2684"
       y="15"
       x="14"
       width="1"
       height="1"
       style="fill:#da5152" />
    <rect
       id="rect2694"
       y="15"
       x="19"
       width="1"
       height="1"
       style="fill:#f5d0d0" />
    <rect
       id="rect2856"
       y="16"
       x="10"
       width="1"
       height="1"
       style="fill:#f8dfe0" />
    <rect
       id="rect2862"
       y="16"
       x="13"
       width="1"
       height="1"
       style="fill:#fcefef" />
    <rect
       id="rect2864"
       y="16"
       x="14"
       width="1"
       height="1"
       style="fill:#cc1214" />
    <rect
       id="rect3028"
       y="17"
       x="6"
       width="1"
       height="1"
       style="fill:#d33133" />
    <rect
       id="rect3036"
       y="17"
       x="10"
       width="1"
       height="1"
       style="fill:#cc1214" />
    <rect
       id="rect3038"
       y="17"
       x="11"
       width="1"
       height="1"
       style="fill:#e79091" />
    <rect
       id="rect3040"
       y="17"
       x="12"
       width="1"
       height="1"
       style="fill:#eba0a1" />
    <rect
       id="rect3042"
       y="17"
       x="13"
       width="1"
       height="1"
       style="fill:#cc1214" />
    <rect
       id="rect3050"
       y="17"
       x="17"
       width="1"
       height="1"
       style="fill:#cc1214" />
    <rect
       id="rect3052"
       y="17"
       x="18"
       width="1"
       height="1"
       style="fill:#f5d0d0" />
    <rect
       id="rect3208"
       y="18"
       x="6"
       width="1"
       height="1"
       style="fill:#fcefef" />
    <rect
       id="rect3210"
       y="18"
       x="7"
       width="1"
       height="1"
       style="fill:#da5152" />
    <rect
       id="rect3228"
       y="18"
       x="16"
       width="1"
       height="1"
       style="fill:#cc1214" />
    <rect
       id="rect3230"
       y="18"
       x="17"
       width="1"
       height="1"
       style="fill:#f5d0d0" />
    <rect
       id="rect3394"
       y="19"
       x="9"
       width="1"
       height="1"
       style="fill:#da5152" />
    <rect
       id="rect3396"
       y="19"
       x="10"
       width="1"
       height="1"
       style="fill:#cc1214" />
    <rect
       id="rect3406"
       y="19"
       x="15"
       width="1"
       height="1"
       style="fill:#e79091" />
    <rect
       id="rect3408"
       y="19"
       x="16"
       width="1"
       height="1"
       style="fill:#fcefef" />
    <rect
       id="rect20624"
       y="114"
       x="74"
       width="1"
       height="1"
       style="fill:#eba0a1" />
    <rect
       id="rect20626"
       y="114"
       x="75"
       width="1"
       height="1"
       style="fill:#da5152" />
    <rect
       id="rect20636"
       y="114"
       x="80"
       width="1"
       height="1"
       style="fill:#e79091" />
    <rect
       id="rect20638"
       y="114"
       x="81"
       width="1"
       height="1"
       style="fill:#fcefef" />
    <rect
       id="rect20800"
       y="115"
       x="72"
       width="1"
       height="1"
       style="fill:#f5d0d0" />
    <rect
       id="rect20802"
       y="115"
       x="73"
       width="1"
       height="1"
       style="fill:#d02223" />
    <rect
       id="rect20818"
       y="115"
       x="81"
       width="1"
       height="1"
       style="fill:#cc1214" />
    <rect
       id="rect20820"
       y="115"
       x="82"
       width="1"
       height="1"
       style="fill:#eba0a1" />
    <rect
       id="rect20988"
       y="116"
       x="76"
       width="1"
       height="1"
       style="fill:#cc1214" />
    <rect
       id="rect21002"
       y="116"
       x="83"
       width="1"
       height="1"
       style="fill:#eba0a1" />
    <rect
       id="rect21158"
       y="117"
       x="71"
       width="1"
       height="1"
       style="fill:#d02223" />
    <rect
       id="rect21166"
       y="117"
       x="75"
       width="1"
       height="1"
       style="fill:#d02223" />
    <rect
       id="rect21168"
       y="117"
       x="76"
       width="1"
       height="1"
       style="fill:#fcefef" />
    <rect
       id="rect21174"
       y="117"
       x="79"
       width="1"
       height="1"
       style="fill:#e79091" />
    <rect
       id="rect21336"
       y="118"
       x="70"
       width="1"
       height="1"
       style="fill:#eeb0b1" />
    <rect
       id="rect21346"
       y="118"
       x="75"
       width="1"
       height="1"
       style="fill:#e17172" />
    <rect
       id="rect21356"
       y="118"
       x="80"
       width="1"
       height="1"
       style="fill:#cc1214" />
    <rect
       id="rect21546"
       y="119"
       x="85"
       width="1"
       height="1"
       style="fill:#f8dfe0" />
    <rect
       id="rect21716"
       y="120"
       x="80"
       width="1"
       height="1"
       style="fill:#d33133" />
    <rect
       id="rect21876"
       y="121"
       x="70"
       width="1"
       height="1"
       style="fill:#eba0a1" />
    <rect
       id="rect21894"
       y="121"
       x="79"
       width="1"
       height="1"
       style="fill:#f8dfe0" />
    <rect
       id="rect22056"
       y="122"
       x="70"
       width="1"
       height="1"
       style="fill:#fcefef" />
    <rect
       id="rect22058"
       y="122"
       x="71"
       width="1"
       height="1"
       style="fill:#cc1214" />
    <rect
       id="rect22068"
       y="122"
       x="76"
       width="1"
       height="1"
       style="fill:#da5152" />
    <rect
       id="rect22070"
       y="122"
       x="77"
       width="1"
       height="1"
       style="fill:#f8dfe0" />
    <rect
       id="rect22072"
       y="122"
       x="78"
       width="1"
       height="1"
       style="fill:#eeb0b1" />
    <rect
       id="rect22074"
       y="122"
       x="79"
       width="1"
       height="1"
       style="fill:#d02223" />
    <rect
       id="rect22238"
       y="123"
       x="71"
       width="1"
       height="1"
       style="fill:#eba0a1" />
    <rect
       id="rect22256"
       y="123"
       x="80"
       width="1"
       height="1"
       style="fill:#cc1214" />
    <rect
       id="rect22266"
       y="123"
       x="85"
       width="1"
       height="1"
       style="fill:#e79091" />
    <rect
       id="rect22420"
       y="124"
       x="72"
       width="1"
       height="1"
       style="fill:#eeb0b1" />
    <rect
       id="rect22422"
       y="124"
       x="73"
       width="1"
       height="1"
       style="fill:#cc1214" />
    <rect
       id="rect22434"
       y="124"
       x="79"
       width="1"
       height="1"
       style="fill:#e17172" />
    <rect
       id="rect22436"
       y="124"
       x="80"
       width="1"
       height="1"
       style="fill:#e79091" />
    <rect
       id="rect22600"
       y="125"
       x="72"
       width="1"
       height="1"
       style="fill:#fcefef" />
    <rect
       id="rect22602"
       y="125"
       x="73"
       width="1"
       height="1"
       style="fill:#fcefef" />
    <rect
       id="rect22608"
       y="125"
       x="76"
       width="1"
       height="1"
       style="fill:#e79091" />
    <rect
       id="rect22612"
       y="125"
       x="78"
       width="1"
       height="1"
       style="fill:#fcefef" />
    <rect
       id="rect22616"
       y="125"
       x="80"
       width="1"
       height="1"
       style="fill:#dd6162" />
    <rect
       id="rect22624"
       y="125"
       x="84"
       width="1"
       height="1"
       style="fill:#cc1214" />
    <rect
       id="rect22782"
       y="126"
       x="73"
       width="1"
       height="1"
       style="fill:#dd6162" />
    <rect
       id="rect22794"
       y="126"
       x="79"
       width="1"
       height="1"
       style="fill:#f8dfe0" />
    <rect
       id="rect22796"
       y="126"
       x="80"
       width="1"
       height="1"
       style="fill:#cc1214" />
    <rect
       id="rect22804"
       y="126"
       x="84"
       width="1"
       height="1"
       style="fill:#dd6162" />
    <rect
       id="rect22960"
       y="127"
       x="72"
       width="1"
       height="1"
       style="fill:#da5152" />
    <rect
       id="rect22962"
       y="127"
       x="73"
       width="1"
       height="1"
       style="fill:#cc1214" />
    <rect
       id="rect22964"
       y="127"
       x="74"
       width="1"
       height="1"
       style="fill:#fcefef" />
    <rect
       id="rect22972"
       y="127"
       x="78"
       width="1"
       height="1"
       style="fill:#fcefef" />
    <rect
       id="rect22974"
       y="127"
       x="79"
       width="1"
       height="1"
       style="fill:#d33133" />
    <rect
       id="rect22982"
       y="127"
       x="83"
       width="1"
       height="1"
       style="fill:#cc1214" />
    <rect
       id="rect22984"
       y="127"
       x="84"
       width="1"
       height="1"
       style="fill:#fcefef" />
    <rect
       id="rect23140"
       y="128"
       x="72"
       width="1"
       height="1"
       style="fill:#d02223" />
    <rect
       id="rect23144"
       y="128"
       x="74"
       width="1"
       height="1"
       style="fill:#d02223" />
    <rect
       id="rect23146"
       y="128"
       x="75"
       width="1"
       height="1"
       style="fill:#e17172" />
    <path
       style="fill:#f1c0c0"
       d="m 15,6 c 0,0.3333333 0,0.6666667 0,1 0.333333,0 0.666667,0 1,0 0,-0.3333333 0,-0.6666667 0,-1 -0.333333,0 -0.666667,0 -1,0 z"
       id="path4483" />
    <path
       style="fill:#f1c0c0"
       d="m 13,8 c 0,0.3333333 0,0.6666667 0,1 0.666667,0 1.333333,0 2,0 0,-0.3333333 0,-0.6666667 0,-1 -0.666667,0 -1.333333,0 -2,0 z"
       id="path4481" />
    <path
       style="fill:#f1c0c0"
       d="m 19,13 c 0,0.666667 0,1.333333 0,2 0.333333,0 0.666667,0 1,0 0,-0.666667 0,-1.333333 0,-2 -0.333333,0 -0.666667,0 -1,0 z"
       id="path4479" />
    <path
       style="fill:#f1c0c0"
       d="m 8,19 c 0,0.333333 0,0.666667 0,1 0.3333333,0 0.6666667,0 1,0 0,-0.333333 0,-0.666667 0,-1 -0.3333333,0 -0.6666667,0 -1,0 z"
       id="path4477" />
    <path
       style="fill:#f1c0c0"
       d="m 71,116 c 0,0.33333 0,0.66667 0,1 0.333333,0 0.666667,0 1,0 0,-0.33333 0,-0.66667 0,-1 -0.333333,0 -0.666667,0 -1,0 z"
       id="path4475" />
    <path
       style="fill:#f1c0c0"
       d="m 84,117 c 0,0.33333 0,0.66667 0,1 0.333333,0 0.666667,0 1,0 0,-0.33333 0,-0.66667 0,-1 -0.333333,0 -0.666667,0 -1,0 z"
       id="path4473" />
    <path
       style="fill:#f1c0c0"
       d="m 85,120 c 0,0.33333 0,0.66667 0,1 0.333333,0 0.666667,0 1,0 0,-0.33333 0,-0.66667 0,-1 -0.333333,0 -0.666667,0 -1,0 z"
       id="path4471" />
    <path
       style="fill:#f1c0c0"
       d="m 85,124 c 0,0.33333 0,0.66667 0,1 0.333333,0 0.666667,0 1,0 0,-0.33333 0,-0.66667 0,-1 -0.333333,0 -0.666667,0 -1,0 z"
       id="path4469" />
    <path
       style="fill:#f1c0c0"
       d="m 74,125 c 0,0.33333 0,0.66667 0,1 0.333333,0 0.666667,0 1,0 0,-0.33333 0,-0.66667 0,-1 -0.333333,0 -0.666667,0 -1,0 z"
       id="path4467" />
    <path
       style="fill:#f1c0c0"
       d="m 77,125 c 0,0.33333 0,0.66667 0,1 0.333333,0 0.666667,0 1,0 0,-0.33333 0,-0.66667 0,-1 -0.333333,0 -0.666667,0 -1,0 z"
       id="path4465" />
    <path
       style="fill:#f1c0c0"
       d="m 76,128 c 0,0.33333 0,0.66667 0,1 0.333333,0 0.666667,0 1,0 0,-0.33333 0,-0.66667 0,-1 -0.333333,0 -0.666667,0 -1,0 z"
       id="rect23148" />
    <rect
       id="rect23150"
       y="128"
       x="77"
       width="1"
       height="1"
       style="fill:#e79091" />
    <rect
       id="rect23152"
       y="128"
       x="78"
       width="1"
       height="1"
       style="fill:#d02223" />
    <rect
       id="rect23160"
       y="128"
       x="82"
       width="1"
       height="1"
       style="fill:#cc1214" />
    <rect
       id="rect23162"
       y="128"
       x="83"
       width="1"
       height="1"
       style="fill:#f5d0d0" />
    <rect
       id="rect23318"
       y="129"
       x="71"
       width="1"
       height="1"
       style="fill:#fcefef" />
    <rect
       id="rect23338"
       y="129"
       x="81"
       width="1"
       height="1"
       style="fill:#d33133" />
    <rect
       id="rect23340"
       y="129"
       x="82"
       width="1"
       height="1"
       style="fill:#f5d0d0" />
    <rect
       id="rect23496"
       y="130"
       x="71"
       width="1"
       height="1"
       style="fill:#f8dfe0" />
    <path
       style="fill:#e48182"
       d="m 10,3 c 0,0.3333333 0,0.6666667 0,1 0.333333,0 0.666667,0 1,0 0,-0.3333333 0,-0.6666667 0,-1 -0.333333,0 -0.666667,0 -1,0 z"
       id="path4445" />
    <path
       style="fill:#e48182"
       d="m 16,3 c 0,0.3333333 0,0.6666667 0,1 0.333333,0 0.666667,0 1,0 0,-0.3333333 0,-0.6666667 0,-1 -0.333333,0 -0.666667,0 -1,0 z"
       id="path4443" />
    <path
       style="fill:#e48182"
       d="m 13,5 c 0,0.3333333 0,0.6666667 0,1 0.333333,0 0.666667,0 1,0 0,-0.3333333 0,-0.6666667 0,-1 -0.333333,0 -0.666667,0 -1,0 z"
       id="path4441" />
    <path
       style="fill:#e48182"
       d="m 17,6 c 0,0.3333333 0,0.6666667 0,1 0.333333,0 0.666667,0 1,0 0,-0.3333333 0,-0.6666667 0,-1 -0.333333,0 -0.666667,0 -1,0 z"
       id="path4439" />
    <path
       style="fill:#e48182"
       d="m 4,10 c 0,0.333333 0,0.666667 0,1 0.3333333,0 0.6666667,0 1,0 0,-0.333333 0,-0.666667 0,-1 -0.3333333,0 -0.6666667,0 -1,0 z"
       id="path4437" />
    <path
       style="fill:#e48182"
       d="m 4,13 c 0,0.333333 0,0.666667 0,1 0.3333333,0 0.6666667,0 1,0 0,-0.333333 0,-0.666667 0,-1 -0.3333333,0 -0.6666667,0 -1,0 z"
       id="path4435" />
    <path
       style="fill:#e48182"
       d="m 9,14 c 0,0.333333 0,0.666667 0,1 0.3333333,0 0.6666667,0 1,0 0,-0.333333 0,-0.666667 0,-1 -0.3333333,0 -0.6666667,0 -1,0 z"
       id="path4433" />
    <path
       style="fill:#e48182"
       d="m 14,14 c 0,0.333333 0,0.666667 0,1 0.333333,0 0.666667,0 1,0 0,-0.333333 0,-0.666667 0,-1 -0.333333,0 -0.666667,0 -1,0 z"
       id="path4431" />
    <path
       style="fill:#e48182"
       d="m 5,16 c 0,0.333333 0,0.666667 0,1 0.3333333,0 0.6666667,0 1,0 0,-0.333333 0,-0.666667 0,-1 -0.3333333,0 -0.6666667,0 -1,0 z"
       id="path4429" />
    <path
       style="fill:#e48182"
       d="m 77,116 c 0,0.33333 0,0.66667 0,1 0.333333,0 0.666667,0 1,0 0,-0.33333 0,-0.66667 0,-1 -0.333333,0 -0.666667,0 -1,0 z"
       id="path4427" />
    <path
       style="fill:#e48182"
       d="m 70,119 c 0,0.66667 0,1.33333 0,2 0.333333,0 0.666667,0 1,0 0,-0.66667 0,-1.33333 0,-2 -0.333333,0 -0.666667,0 -1,0 z"
       id="path4425" />
    <path
       style="fill:#e48182"
       d="m 75,119 c 0,0.66667 0,1.33333 0,2 0.333333,0 0.666667,0 1,0 0,-0.66667 0,-1.33333 0,-2 -0.333333,0 -0.666667,0 -1,0 z"
       id="path4423" />
    <path
       style="fill:#e48182"
       d="m 85,121 c 0,0.66667 0,1.33333 0,2 0.333333,0 0.666667,0 1,0 0,-0.66667 0,-1.33333 0,-2 -0.333333,0 -0.666667,0 -1,0 z"
       id="path4421" />
    <path
       style="fill:#e48182"
       d="m 75,125 c 0,0.33333 0,0.66667 0,1 0.333333,0 0.666667,0 1,0 0,-0.33333 0,-0.66667 0,-1 -0.333333,0 -0.666667,0 -1,0 z"
       id="path4419" />
    <path
       style="fill:#e48182"
       d="m 72,126 c 0,0.33333 0,0.66667 0,1 0.333333,0 0.666667,0 1,0 0,-0.33333 0,-0.66667 0,-1 -0.333333,0 -0.666667,0 -1,0 z"
       id="path4417" />
    <path
       style="fill:#e48182"
       d="m 72,130 c 0,0.33333 0,0.66667 0,1 0.333333,0 0.666667,0 1,0 0,-0.33333 0,-0.66667 0,-1 -0.333333,0 -0.666667,0 -1,0 z"
       id="rect23498" />
    <path
       style="fill:#d64143"
       d="m 11,3 c 0,0.3333333 0,0.6666667 0,1 1.666667,0 3.333333,0 5,0 0,-0.3333333 0,-0.6666667 0,-1 -1.666667,0 -3.333333,0 -5,0 z"
       id="path4391" />
    <path
       style="fill:#d64143"
       d="M 8,4 C 8,4.3333333 8,4.6666667 8,5 8.3333333,5 8.6666667,5 9,5 9,4.6666667 9,4.3333333 9,4 8.6666667,4 8.3333333,4 8,4 Z"
       id="path4389" />
    <path
       style="fill:#d64143"
       d="m 17,5 c 0,0.3333333 0,0.6666667 0,1 0.333333,0 0.666667,0 1,0 0,-0.3333333 0,-0.6666667 0,-1 -0.333333,0 -0.666667,0 -1,0 z"
       id="path4387" />
    <path
       style="fill:#d64143"
       d="M 5,7 C 5,7.3333333 5,7.6666667 5,8 5.3333333,8 5.6666667,8 6,8 6,7.6666667 6,7.3333333 6,7 5.6666667,7 5.3333333,7 5,7 Z"
       id="path4385" />
    <path
       style="fill:#d64143"
       d="m 18,11 c 0,0.333333 0,0.666667 0,1 0.333333,0 0.666667,0 1,0 0,-0.333333 0,-0.666667 0,-1 -0.333333,0 -0.666667,0 -1,0 z"
       id="path4383" />
    <path
       style="fill:#d64143"
       d="m 9,13 c 0,0.333333 0,0.666667 0,1 0.3333333,0 0.6666667,0 1,0 0,-0.333333 0,-0.666667 0,-1 -0.3333333,0 -0.6666667,0 -1,0 z"
       id="path4381" />
    <path
       style="fill:#d64143"
       d="m 9,15 c 0,0.333333 0,0.666667 0,1 0.3333333,0 0.6666667,0 1,0 0,-0.333333 0,-0.666667 0,-1 -0.3333333,0 -0.6666667,0 -1,0 z"
       id="path4379" />
    <path
       style="fill:#d64143"
       d="m 18,16 c 0,0.333333 0,0.666667 0,1 0.333333,0 0.666667,0 1,0 0,-0.333333 0,-0.666667 0,-1 -0.333333,0 -0.666667,0 -1,0 z"
       id="path4377" />
    <path
       style="fill:#d64143"
       d="m 14,19 c 0,0.333333 0,0.666667 0,1 0.333333,0 0.666667,0 1,0 0,-0.333333 0,-0.666667 0,-1 -0.333333,0 -0.666667,0 -1,0 z"
       id="path4375" />
    <path
       style="fill:#d64143"
       d="m 76,114 c 0,0.33333 0,0.66667 0,1 1.333333,0 2.666667,0 4,0 0,-0.33333 0,-0.66667 0,-1 -1.333333,0 -2.666667,0 -4,0 z"
       id="path4373" />
    <path
       style="fill:#d64143"
       d="m 78,116 c 0,0.33333 0,0.66667 0,1 0.333333,0 0.666667,0 1,0 0,-0.33333 0,-0.66667 0,-1 -0.333333,0 -0.666667,0 -1,0 z"
       id="path4371" />
    <path
       style="fill:#d64143"
       d="m 84,118 c 0,0.33333 0,0.66667 0,1 0.333333,0 0.666667,0 1,0 0,-0.33333 0,-0.66667 0,-1 -0.333333,0 -0.666667,0 -1,0 z"
       id="path4369" />
    <path
       style="fill:#d64143"
       d="m 80,119 c 0,0.33333 0,0.66667 0,1 0.333333,0 0.666667,0 1,0 0,-0.33333 0,-0.66667 0,-1 -0.333333,0 -0.666667,0 -1,0 z"
       id="path4367" />
    <path
       style="fill:#d64143"
       d="m 75,121 c 0,0.33333 0,0.66667 0,1 0.333333,0 0.666667,0 1,0 0,-0.33333 0,-0.66667 0,-1 -0.333333,0 -0.666667,0 -1,0 z"
       id="path4365" />
    <path
       style="fill:#d64143"
       d="m 73,130 c 0,0.33333 0,0.66667 0,1 0.333333,0 0.666667,0 1,0 0,-0.33333 0,-0.66667 0,-1 -0.333333,0 -0.666667,0 -1,0 z"
       id="rect23500" />
    <rect
       id="rect23502"
       y="130"
       x="74"
       width="1"
       height="1"
       style="fill:#cc1214" />
    <path
       style="fill:#c90305"
       d="M 9,4 C 9,4.3333333 9,4.6666667 9,5 8.6666667,5 8.3333333,5 8,5 8,5.3333333 8,5.6666667 8,6 7.6666667,6 7.3333333,6 7,6 7,6.3333333 7,6.6666667 7,7 6.6666667,7 6.3333333,7 6,7 6,7.3333333 6,7.6666667 6,8 5.6666667,8 5.3333333,8 5,8 c 0,2.333333 0,4.666667 0,7 0.3333333,0 0.6666667,0 1,0 0,0.666667 0,1.333333 0,2 0.3333333,0 0.6666667,0 1,0 0,0.333333 0,0.666667 0,1 0.3333333,0 0.6666667,0 1,0 0,0.333333 0,0.666667 0,1 1,0 2,0 3,0 0,0.333333 0,0.666667 0,1 1,0 2,0 3,0 0,-0.333333 0,-0.666667 0,-1 0.666667,0 1.333333,0 2,0 0,-0.333333 0,-0.666667 0,-1 0.333333,0 0.666667,0 1,0 0,-0.333333 0,-0.666667 0,-1 0.333333,0 0.666667,0 1,0 0,-0.333333 0,-0.666667 0,-1 0.333333,0 0.666667,0 1,0 0,-1.333333 0,-2.666667 0,-4 -0.333333,0 -0.666667,0 -1,0 0,-0.333333 0,-0.666667 0,-1 -0.333333,0 -0.666667,0 -1,0 0,-0.333333 0,-0.666667 0,-1 -0.333333,0 -0.666667,0 -1,0 0,-0.3333333 0,-0.6666667 0,-1 -1.333333,0 -2.666667,0 -4,0 0,0.3333333 0,0.6666667 0,1 -0.666667,0 -1.333333,0 -2,0 0,0.333333 0,0.666667 0,1 1.333333,0 2.666667,0 4,0 0,0.333333 0,0.666667 0,1 0.333333,0 0.666667,0 1,0 0,1.666667 0,3.333333 0,5 -0.333333,0 -0.666667,0 -1,0 0,0.333333 0,0.666667 0,1 -1.333333,0 -2.666667,0 -4,0 0,-0.666667 0,-1.333333 0,-2 -0.3333333,0 -0.6666667,0 -1,0 0,-1.333333 0,-2.666667 0,-4 0.3333333,0 0.6666667,0 1,0 0,-0.333333 0,-0.666667 0,-1 -0.3333333,0 -0.6666667,0 -1,0 0,-1.3333333 0,-2.6666667 0,-4 0.3333333,0 0.6666667,0 1,0 0,-0.3333333 0,-0.6666667 0,-1 0.333333,0 0.666667,0 1,0 0,-0.3333333 0,-0.6666667 0,-1 1.333333,0 2.666667,0 4,0 0,0.3333333 0,0.6666667 0,1 0.333333,0 0.666667,0 1,0 0,0.3333333 0,0.6666667 0,1 0.333333,0 0.666667,0 1,0 0,-1 0,-2 0,-3 -2.666667,0 -5.333333,0 -8,0 z"
       id="path4336" />
    <path
       style="fill:#c90305"
       d="m 74,115 c 0,0.33333 0,0.66667 0,1 -0.666667,0 -1.333333,0 -2,0 0,0.66667 0,1.33333 0,2 -0.333333,0 -0.666667,0 -1,0 0,1.33333 0,2.66667 0,4 0.333333,0 0.666667,0 1,0 0,0.66667 0,1.33333 0,2 0.666667,0 1.333333,0 2,0 0,0.33333 0,0.66667 0,1 1.666667,0 3.333333,0 5,0 0,-0.33333 0,-0.66667 0,-1 0.333333,0 0.666667,0 1,0 0,-0.33333 0,-0.66667 0,-1 -1.333333,0 -2.666667,0 -4,0 0,-0.33333 0,-0.66667 0,-1 -0.333333,0 -0.666667,0 -1,0 0,-1.66667 0,-3.33333 0,-5 0.333333,0 0.666667,0 1,0 0,-0.33333 0,-0.66667 0,-1 1,0 2,0 3,0 0,0.33333 0,0.66667 0,1 0.333333,0 0.666667,0 1,0 0,0.33333 0,0.66667 0,1 0.333333,0 0.666667,0 1,0 0,1 0,2 0,3 -0.333333,0 -0.666667,0 -1,0 0,0.66667 0,1.33333 0,2 0.333333,0 0.666667,0 1,0 0,1.33333 0,2.66667 0,4 -0.333333,0 -0.666667,0 -1,0 0,0.33333 0,0.66667 0,1 -0.333333,0 -0.666667,0 -1,0 0,0.33333 0,0.66667 0,1 -1.666667,0 -3.333333,0 -5,0 0,-0.33333 0,-0.66667 0,-1 -0.333333,0 -0.666667,0 -1,0 0,0.33333 0,0.66667 0,1 -0.333333,0 -0.666667,0 -1,0 0,0.33333 0,0.66667 0,1 1,0 2,0 3,0 0,0.33333 0,0.66667 0,1 1,0 2,0 3,0 0,-0.33333 0,-0.66667 0,-1 1,0 2,0 3,0 0,-0.33333 0,-0.66667 0,-1 0.333333,0 0.666667,0 1,0 0,-0.33333 0,-0.66667 0,-1 0.333333,0 0.666667,0 1,0 0,-0.33333 0,-0.66667 0,-1 0.333333,0 0.666667,0 1,0 0,-0.66667 0,-1.33333 0,-2 0.333333,0 0.666667,0 1,0 0,-2 0,-4 0,-6 -0.333333,0 -0.666667,0 -1,0 0,-0.66667 0,-1.33333 0,-2 -0.333333,0 -0.666667,0 -1,0 0,-0.33333 0,-0.66667 0,-1 -0.666667,0 -1.333333,0 -2,0 0,-0.33333 0,-0.66667 0,-1 -2.333333,0 -4.666667,0 -7,0 z"
       id="rect23508" />
    <rect
       id="rect23510"
       y="130"
       x="78"
       width="1"
       height="1"
       style="fill:#d02223" />
    <rect
       id="rect23512"
       y="130"
       x="79"
       width="1"
       height="1"
       style="fill:#dd6162" />
    <rect
       id="rect23514"
       y="130"
       x="80"
       width="1"
       height="1"
       style="fill:#eeb0b1" />
  </g>
</svg>
