<?xml version="1.0" encoding="UTF-8" standalone="no"?>
<svg
   xmlns:dc="http://purl.org/dc/elements/1.1/"
   xmlns:cc="http://creativecommons.org/ns#"
   xmlns:rdf="http://www.w3.org/1999/02/22-rdf-syntax-ns#"
   xmlns:svg="http://www.w3.org/2000/svg"
   xmlns="http://www.w3.org/2000/svg"
   xmlns:sodipodi="http://sodipodi.sourceforge.net/DTD/sodipodi-0.dtd"
   xmlns:inkscape="http://www.inkscape.org/namespaces/inkscape"
   height="135px"
   version="1.1"
   width="90px"
   id="svg24208"
   sodipodi:docname="07-black.svg"
   inkscape:version="0.92.2 (5c3e80d, 2017-08-06)">
  <metadata
     id="metadata24212">
    <rdf:RDF>
      <cc:Work
         rdf:about="">
        <dc:format>image/svg+xml</dc:format>
        <dc:type
           rdf:resource="http://purl.org/dc/dcmitype/StillImage" />
        <dc:title />
      </cc:Work>
    </rdf:RDF>
  </metadata>
  <sodipodi:namedview
     pagecolor="#ffffff"
     bordercolor="#666666"
     borderopacity="1"
     objecttolerance="10"
     gridtolerance="10"
     guidetolerance="10"
     inkscape:pageopacity="0"
     inkscape:pageshadow="2"
     inkscape:window-width="1920"
     inkscape:window-height="1025"
     id="namedview24210"
     showgrid="false"
     inkscape:zoom="19.778039"
     inkscape:cx="29.511896"
     inkscape:cy="115.14002"
     inkscape:window-x="-8"
     inkscape:window-y="-8"
     inkscape:window-maximized="1"
     inkscape:current-layer="svg24208" />
  <defs
     id="defs2" />
  <g
     id="g5425">
    <rect
       id="rect340"
       y="2"
       x="6"
       width="1"
       height="1"
       style="fill:#efefef" />
    <rect
       id="rect342"
       y="2"
       x="7"
       width="1"
       height="1"
       style="fill:#efefef" />
    <rect
       id="rect514"
       y="3"
       x="6"
       width="1"
       height="1"
       style="fill:#a19f9f" />
    <rect
       id="rect516"
       y="3"
       x="7"
       width="1"
       height="1"
       style="fill:#231f20" />
    <rect
       id="rect534"
       y="3"
       x="16"
       width="1"
       height="1"
       style="fill:#625f60" />
    <rect
       id="rect536"
       y="3"
       x="17"
       width="1"
       height="1"
       style="fill:#140f10" />
    <rect
       id="rect690"
       y="4"
       x="6"
       width="1"
       height="1"
       style="fill:#625f60" />
    <rect
       id="rect868"
       y="5"
       x="6"
       width="1"
       height="1"
       style="fill:#231f20" />
    <rect
       id="rect890"
       y="5"
       x="17"
       width="1"
       height="1"
       style="fill:#140f10" />
    <rect
       id="rect1226"
       y="7"
       x="5"
       width="1"
       height="1"
       style="fill:#918f8f" />
    <rect
       id="rect1228"
       y="7"
       x="6"
       width="1"
       height="1"
       style="fill:#140f10" />
    <rect
       id="rect1230"
       y="7"
       x="7"
       width="1"
       height="1"
       style="fill:#918f8f" />
    <rect
       id="rect1246"
       y="7"
       x="15"
       width="1"
       height="1"
       style="fill:#231f20" />
    <rect
       id="rect1250"
       y="7"
       x="17"
       width="1"
       height="1"
       style="fill:#918f8f" />
    <rect
       id="rect1430"
       y="8"
       x="17"
       width="1"
       height="1"
       style="fill:#efefef" />
    <rect
       id="rect1604"
       y="9"
       x="14"
       width="1"
       height="1"
       style="fill:#140f10" />
    <rect
       id="rect1608"
       y="9"
       x="16"
       width="1"
       height="1"
       style="fill:#625f60" />
    <rect
       id="rect1782"
       y="10"
       x="13"
       width="1"
       height="1"
       style="fill:#140f10" />
    <rect
       id="rect1960"
       y="11"
       x="12"
       width="1"
       height="1"
       style="fill:#140f10" />
    <rect
       id="rect1966"
       y="11"
       x="15"
       width="1"
       height="1"
       style="fill:#726f70" />
    <rect
       id="rect2138"
       y="12"
       x="11"
       width="1"
       height="1"
       style="fill:#140f10" />
    <rect
       id="rect2314"
       y="13"
       x="9"
       width="1"
       height="1"
       style="fill:#efefef" />
    <rect
       id="rect2316"
       y="13"
       x="10"
       width="1"
       height="1"
       style="fill:#332f30" />
    <rect
       id="rect2324"
       y="13"
       x="14"
       width="1"
       height="1"
       style="fill:#524f50" />
    <rect
       id="rect2494"
       y="14"
       x="9"
       width="1"
       height="1"
       style="fill:#726f70" />
    <rect
       id="rect2504"
       y="14"
       x="14"
       width="1"
       height="1"
       style="fill:#a19f9f" />
    <rect
       id="rect2684"
       y="15"
       x="14"
       width="1"
       height="1"
       style="fill:#efefef" />
    <rect
       id="rect2852"
       y="16"
       x="8"
       width="1"
       height="1"
       style="fill:#625f60" />
    <rect
       id="rect2862"
       y="16"
       x="13"
       width="1"
       height="1"
       style="fill:#332f30" />
    <rect
       id="rect3032"
       y="17"
       x="8"
       width="1"
       height="1"
       style="fill:#140f10" />
    <rect
       id="rect3222"
       y="18"
       x="13"
       width="1"
       height="1"
       style="fill:#726f70" />
    <rect
       id="rect3390"
       y="19"
       x="7"
       width="1"
       height="1"
       style="fill:#b1afaf" />
    <rect
       id="rect20628"
       y="114"
       x="76"
       width="1"
       height="1"
       style="fill:#a19f9f" />
    <rect
       id="rect20988"
       y="116"
       x="76"
       width="1"
       height="1"
       style="fill:#332f30" />
    <rect
       id="rect20998"
       y="116"
       x="81"
       width="1"
       height="1"
       style="fill:#231f20" />
    <rect
       id="rect21356"
       y="118"
       x="80"
       width="1"
       height="1"
       style="fill:#140f10" />
    <rect
       id="rect21526"
       y="119"
       x="75"
       width="1"
       height="1"
       style="fill:#918f8f" />
    <rect
       id="rect21706"
       y="120"
       x="75"
       width="1"
       height="1"
       style="fill:#332f30" />
    <rect
       id="rect21714"
       y="120"
       x="79"
       width="1"
       height="1"
       style="fill:#332f30" />
    <rect
       id="rect21892"
       y="121"
       x="78"
       width="1"
       height="1"
       style="fill:#140f10" />
    <rect
       id="rect21894"
       y="121"
       x="79"
       width="1"
       height="1"
       style="fill:#efefef" />
    <rect
       id="rect22064"
       y="122"
       x="74"
       width="1"
       height="1"
       style="fill:#625f60" />
    <rect
       id="rect22070"
       y="122"
       x="77"
       width="1"
       height="1"
       style="fill:#140f10" />
    <rect
       id="rect22248"
       y="123"
       x="76"
       width="1"
       height="1"
       style="fill:#140f10" />
    <rect
       id="rect22426"
       y="124"
       x="75"
       width="1"
       height="1"
       style="fill:#140f10" />
    <rect
       id="rect22780"
       y="126"
       x="72"
       width="1"
       height="1"
       style="fill:#625f60" />
    <rect
       id="rect22800"
       y="126"
       x="82"
       width="1"
       height="1"
       style="fill:#b1afaf" />
    <rect
       id="rect22802"
       y="126"
       x="83"
       width="1"
       height="1"
       style="fill:#140f10" />
    <rect
       id="rect22804"
       y="126"
       x="84"
       width="1"
       height="1"
       style="fill:#b1afaf" />
    <rect
       id="rect22960"
       y="127"
       x="72"
       width="1"
       height="1"
       style="fill:#140f10" />
    <rect
       id="rect22984"
       y="127"
       x="84"
       width="1"
       height="1"
       style="fill:#efefef" />
    <path
       style="fill:#050001"
       d="M 7,4 C 7,4.6666667 7,5.3333333 7,6 6.6666667,6 6.3333333,6 6,6 c 0,0.3333333 0,0.6666667 0,1 3.3333333,0 6.666667,0 10,0 0,0.3333333 0,0.6666667 0,1 -0.333333,0 -0.666667,0 -1,0 0,0.6666667 0,1.3333333 0,2 -0.333333,0 -0.666667,0 -1,0 0,0.333333 0,0.666667 0,1 -0.333333,0 -0.666667,0 -1,0 0,0.333333 0,0.666667 0,1 -0.333333,0 -0.666667,0 -1,0 0,0.333333 0,0.666667 0,1 -0.333333,0 -0.666667,0 -1,0 0,0.333333 0,0.666667 0,1 -0.333333,0 -0.666667,0 -1,0 0,0.333333 0,0.666667 0,1 -0.3333333,0 -0.6666667,0 -1,0 0,1 0,2 0,3 -0.3333333,0 -0.6666667,0 -1,0 0,0.333333 0,0.666667 0,1 1.6666667,0 3.333333,0 5,0 0,-1 0,-2 0,-3 0.333333,0 0.666667,0 1,0 0,-1 0,-2 0,-3 0.333333,0 0.666667,0 1,0 0,-0.666667 0,-1.333333 0,-2 0.333333,0 0.666667,0 1,0 0,-0.666667 0,-1.3333333 0,-2 0.333333,0 0.666667,0 1,0 0,-1.3333333 0,-2.6666667 0,-4 0.333333,0 0.666667,0 1,0 0,-0.3333333 0,-0.6666667 0,-1 -3.666667,0 -7.333333,0 -11,0 z"
       id="path5569" />
    <path
       style="fill:#050001"
       d="m 77,115 c 0,0.66667 0,1.33333 0,2 -0.333333,0 -0.666667,0 -1,0 0,1.33333 0,2.66667 0,4 -0.333333,0 -0.666667,0 -1,0 0,0.66667 0,1.33333 0,2 -0.333333,0 -0.666667,0 -1,0 0,0.66667 0,1.33333 0,2 -0.333333,0 -0.666667,0 -1,0 0,1 0,2 0,3 -0.333333,0 -0.666667,0 -1,0 0,0.66667 0,1.33333 0,2 3.666667,0 7.333333,0 11,0 0,-0.66667 0,-1.33333 0,-2 0.333333,0 0.666667,0 1,0 0,-0.33333 0,-0.66667 0,-1 -3.333333,0 -6.666667,0 -10,0 0,-0.33333 0,-0.66667 0,-1 0.333333,0 0.666667,0 1,0 0,-0.66667 0,-1.33333 0,-2 0.333333,0 0.666667,0 1,0 0,-0.33333 0,-0.66667 0,-1 0.333333,0 0.666667,0 1,0 0,-0.33333 0,-0.66667 0,-1 0.333333,0 0.666667,0 1,0 0,-0.33333 0,-0.66667 0,-1 0.333333,0 0.666667,0 1,0 0,-0.33333 0,-0.66667 0,-1 0.333333,0 0.666667,0 1,0 0,-0.66667 0,-1.33333 0,-2 0.333333,0 0.666667,0 1,0 0,-0.66667 0,-1.33333 0,-2 0.333333,0 0.666667,0 1,0 0,-0.33333 0,-0.66667 0,-1 -1.666667,0 -3.333333,0 -5,0 z"
       id="rect23340" />
    <path
       style="fill:#827f80"
       d="m 8,3 c 0,0.3333333 0,0.6666667 0,1 2.666667,0 5.333333,0 8,0 0,-0.3333333 0,-0.6666667 0,-1 -2.666667,0 -5.333333,0 -8,0 z"
       id="path5669" />
    <path
       style="fill:#827f80"
       d="m 13,19 c 0,0.333333 0,0.666667 0,1 0.333333,0 0.666667,0 1,0 0,-0.333333 0,-0.666667 0,-1 -0.333333,0 -0.666667,0 -1,0 z"
       id="path5667" />
    <path
       style="fill:#827f80"
       d="m 77,114 c 0,0.33333 0,0.66667 0,1 1.666667,0 3.333333,0 5,0 0,-0.33333 0,-0.66667 0,-1 -1.666667,0 -3.333333,0 -5,0 z"
       id="path5665" />
    <path
       style="fill:#827f80"
       d="m 81,117 c 0,0.33333 0,0.66667 0,1 0.333333,0 0.666667,0 1,0 0,-0.33333 0,-0.66667 0,-1 -0.333333,0 -0.666667,0 -1,0 z"
       id="path5663" />
    <path
       style="fill:#827f80"
       d="m 80,119 c 0,0.33333 0,0.66667 0,1 0.333333,0 0.666667,0 1,0 0,-0.33333 0,-0.66667 0,-1 -0.333333,0 -0.666667,0 -1,0 z"
       id="path5661" />
    <path
       style="fill:#827f80"
       d="m 83,129 c 0,0.33333 0,0.66667 0,1 0.333333,0 0.666667,0 1,0 0,-0.33333 0,-0.66667 0,-1 -0.333333,0 -0.666667,0 -1,0 z"
       id="rect23342" />
    <path
       style="fill:#c0bfbf"
       d="m 8,7 c 0,0.3333333 0,0.6666667 0,1 2,0 4,0 6,0 0,0.3333333 0,0.6666667 0,1 0.333333,0 0.666667,0 1,0 0,-0.6666667 0,-1.3333333 0,-2 -2.333333,0 -4.666667,0 -7,0 z"
       id="path5637" />
    <path
       style="fill:#c0bfbf"
       d="m 7,18 c 0,0.333333 0,0.666667 0,1 0.3333333,0 0.6666667,0 1,0 0,-0.333333 0,-0.666667 0,-1 -0.3333333,0 -0.6666667,0 -1,0 z"
       id="path5635" />
    <path
       style="fill:#c0bfbf"
       d="m 75,126 c 0,0.33333 0,0.66667 0,1 2.333333,0 4.666667,0 7,0 0,-0.33333 0,-0.66667 0,-1 -2.333333,0 -4.666667,0 -7,0 z"
       id="path5633" />
    <path
       style="fill:#c0bfbf"
       d="m 71,129 c 0,0.66667 0,1.33333 0,2 0.333333,0 0.666667,0 1,0 0,-0.66667 0,-1.33333 0,-2 -0.333333,0 -0.666667,0 -1,0 z"
       id="rect23496" />
    <rect
       id="rect23498"
       y="130"
       x="72"
       width="1"
       height="1"
       style="fill:#140f10" />
    <path
       style="fill:#433f40"
       d="m 17,6 c 0,0.3333333 0,0.6666667 0,1 0.333333,0 0.666667,0 1,0 0,-0.3333333 0,-0.6666667 0,-1 -0.333333,0 -0.666667,0 -1,0 z"
       id="path5608" />
    <path
       style="fill:#433f40"
       d="m 13,17 c 0,0.333333 0,0.666667 0,1 0.333333,0 0.666667,0 1,0 0,-0.333333 0,-0.666667 0,-1 -0.333333,0 -0.666667,0 -1,0 z"
       id="path5606" />
    <path
       style="fill:#433f40"
       d="m 8,19 c 0,0.333333 0,0.666667 0,1 1.6666667,0 3.333333,0 5,0 0,-0.333333 0,-0.666667 0,-1 -1.666667,0 -3.3333333,0 -5,0 z"
       id="path5604" />
    <path
       style="fill:#433f40"
       d="m 76,115 c 0,0.33333 0,0.66667 0,1 0.333333,0 0.666667,0 1,0 0,-0.33333 0,-0.66667 0,-1 -0.333333,0 -0.666667,0 -1,0 z"
       id="path5602" />
    <path
       style="fill:#433f40"
       d="m 73,124 c 0,0.33333 0,0.66667 0,1 0.333333,0 0.666667,0 1,0 0,-0.33333 0,-0.66667 0,-1 -0.333333,0 -0.666667,0 -1,0 z"
       id="path5600" />
    <path
       style="fill:#433f40"
       d="m 74,126 c 0,0.33333 0,0.66667 0,1 0.333333,0 0.666667,0 1,0 0,-0.33333 0,-0.66667 0,-1 -0.333333,0 -0.666667,0 -1,0 z"
       id="path5598" />
    <path
       style="fill:#433f40"
       d="m 83,128 c 0,0.33333 0,0.66667 0,1 0.333333,0 0.666667,0 1,0 0,-0.33333 0,-0.66667 0,-1 -0.333333,0 -0.666667,0 -1,0 z"
       id="path5596" />
    <path
       style="fill:#433f40"
       d="m 73,130 c 0,0.33333 0,0.66667 0,1 3,0 6,0 9,0 0,-0.33333 0,-0.66667 0,-1 -3,0 -6,0 -9,0 z"
       id="rect23516" />
    <rect
       id="rect23518"
       y="130"
       x="82"
       width="1"
       height="1"
       style="fill:#140f10" />
    <path
       style="fill:#d0cfcf"
       d="M 5,6 C 5,6.3333333 5,6.6666667 5,7 5.3333333,7 5.6666667,7 6,7 6,6.6666667 6,6.3333333 6,6 5.6666667,6 5.3333333,6 5,6 Z"
       id="path5753" />
    <path
       style="fill:#d0cfcf"
       d="M 5,8 C 5,8.3333333 5,8.6666667 5,9 5.6666667,9 6.3333333,9 7,9 7,8.6666667 7,8.3333333 7,8 6.3333333,8 5.6666667,8 5,8 Z"
       id="path5751" />
    <path
       style="fill:#d0cfcf"
       d="m 13,9 c 0,0.3333333 0,0.6666667 0,1 0.333333,0 0.666667,0 1,0 0,-0.3333333 0,-0.6666667 0,-1 -0.333333,0 -0.666667,0 -1,0 z"
       id="path5749" />
    <path
       style="fill:#d0cfcf"
       d="m 13,10 c -0.333333,0 -0.666667,0 -1,0 0,0.333333 0,0.666667 0,1 0.333333,0 0.666667,0 1,0 0,-0.333333 0,-0.666667 0,-1 z"
       id="path5747" />
    <path
       style="fill:#d0cfcf"
       d="m 12,11 c -0.333333,0 -0.666667,0 -1,0 0,0.333333 0,0.666667 0,1 0.333333,0 0.666667,0 1,0 0,-0.333333 0,-0.666667 0,-1 z"
       id="path5745" />
    <path
       style="fill:#d0cfcf"
       d="m 75,118 c 0,0.33333 0,0.66667 0,1 0.333333,0 0.666667,0 1,0 0,-0.33333 0,-0.66667 0,-1 -0.333333,0 -0.666667,0 -1,0 z"
       id="path5743" />
    <path
       style="fill:#d0cfcf"
       d="m 74,121 c 0,0.33333 0,0.66667 0,1 0.333333,0 0.666667,0 1,0 0,-0.33333 0,-0.66667 0,-1 -0.333333,0 -0.666667,0 -1,0 z"
       id="path5741" />
    <path
       style="fill:#d0cfcf"
       d="m 78,122 c 0,0.33333 0,0.66667 0,1 0.333333,0 0.666667,0 1,0 0,-0.33333 0,-0.66667 0,-1 -0.333333,0 -0.666667,0 -1,0 z"
       id="path5739" />
    <path
       style="fill:#d0cfcf"
       d="m 78,123 c -0.333333,0 -0.666667,0 -1,0 0,0.33333 0,0.66667 0,1 0.333333,0 0.666667,0 1,0 0,-0.33333 0,-0.66667 0,-1 z"
       id="path5737" />
    <path
       style="fill:#d0cfcf"
       d="m 77,124 c -0.333333,0 -0.666667,0 -1,0 0,0.33333 0,0.66667 0,1 0.333333,0 0.666667,0 1,0 0,-0.33333 0,-0.66667 0,-1 z"
       id="path5735" />
    <path
       style="fill:#d0cfcf"
       d="m 76,125 c -0.333333,0 -0.666667,0 -1,0 0,0.33333 0,0.66667 0,1 0.333333,0 0.666667,0 1,0 0,-0.33333 0,-0.66667 0,-1 z"
       id="path5733" />
    <path
       style="fill:#d0cfcf"
       d="m 83,130 c 0,0.33333 0,0.66667 0,1 0.333333,0 0.666667,0 1,0 0,-0.33333 0,-0.66667 0,-1 -0.333333,0 -0.666667,0 -1,0 z"
       id="path5731" />
    <path
       style="fill:#d0cfcf"
       d="m 72,131 c 0,0.33333 0,0.66667 0,1 0.333333,0 0.666667,0 1,0 0,-0.33333 0,-0.66667 0,-1 -0.333333,0 -0.666667,0 -1,0 z"
       id="rect23674" />
    <path
       style="fill:#e0dfdf"
       d="m 17,2 c 0,0.3333333 0,0.6666667 0,1 0.333333,0 0.666667,0 1,0 0,-0.3333333 0,-0.6666667 0,-1 -0.333333,0 -0.666667,0 -1,0 z"
       id="path5710" />
    <path
       style="fill:#e0dfdf"
       d="m 16,10 c 0,0.333333 0,0.666667 0,1 0.333333,0 0.666667,0 1,0 0,-0.333333 0,-0.666667 0,-1 -0.333333,0 -0.666667,0 -1,0 z"
       id="path5708" />
    <path
       style="fill:#e0dfdf"
       d="m 10,12 c 0,0.333333 0,0.666667 0,1 0.333333,0 0.666667,0 1,0 0,-0.333333 0,-0.666667 0,-1 -0.333333,0 -0.666667,0 -1,0 z"
       id="path5706" />
    <path
       style="fill:#e0dfdf"
       d="m 15,12 c 0,0.333333 0,0.666667 0,1 0.333333,0 0.666667,0 1,0 0,-0.333333 0,-0.666667 0,-1 -0.333333,0 -0.666667,0 -1,0 z"
       id="path5704" />
    <path
       style="fill:#e0dfdf"
       d="m 8,15 c 0,0.333333 0,0.666667 0,1 0.3333333,0 0.6666667,0 1,0 0,-0.333333 0,-0.666667 0,-1 -0.3333333,0 -0.6666667,0 -1,0 z"
       id="path5702" />
    <path
       style="fill:#e0dfdf"
       d="m 82,114 c 0,0.66667 0,1.33333 0,2 0.333333,0 0.666667,0 1,0 0,-0.66667 0,-1.33333 0,-2 -0.333333,0 -0.666667,0 -1,0 z"
       id="path5700" />
    <path
       style="fill:#e0dfdf"
       d="m 81,118 c 0,0.33333 0,0.66667 0,1 0.333333,0 0.666667,0 1,0 0,-0.33333 0,-0.66667 0,-1 -0.333333,0 -0.666667,0 -1,0 z"
       id="path5698" />
    <path
       style="fill:#e0dfdf"
       d="m 73,123 c 0,0.33333 0,0.66667 0,1 0.333333,0 0.666667,0 1,0 0,-0.33333 0,-0.66667 0,-1 -0.333333,0 -0.666667,0 -1,0 z"
       id="path5696" />
    <path
       style="fill:#e0dfdf"
       d="m 72,125 c 0,0.33333 0,0.66667 0,1 0.333333,0 0.666667,0 1,0 0,-0.33333 0,-0.66667 0,-1 -0.333333,0 -0.666667,0 -1,0 z"
       id="path5694" />
    <path
       style="fill:#e0dfdf"
       d="m 83,125 c 0,0.33333 0,0.66667 0,1 0.666667,0 1.333333,0 2,0 0,-0.33333 0,-0.66667 0,-1 -0.666667,0 -1.333333,0 -2,0 z"
       id="path5692" />
    <path
       style="fill:#e0dfdf"
       d="m 71,131 c 0,0.33333 0,0.66667 0,1 0.333333,0 0.666667,0 1,0 0,-0.33333 0,-0.66667 0,-1 -0.333333,0 -0.666667,0 -1,0 z"
       id="path5690" />
    <path
       style="fill:#e0dfdf"
       d="m 82,131 c 0,0.33333 0,0.66667 0,1 0.333333,0 0.666667,0 1,0 0,-0.33333 0,-0.66667 0,-1 -0.333333,0 -0.666667,0 -1,0 z"
       id="rect23694" />
  </g>
</svg>
