<?xml version="1.0" encoding="UTF-8" standalone="no"?>
<svg
   xmlns:dc="http://purl.org/dc/elements/1.1/"
   xmlns:cc="http://creativecommons.org/ns#"
   xmlns:rdf="http://www.w3.org/1999/02/22-rdf-syntax-ns#"
   xmlns:svg="http://www.w3.org/2000/svg"
   xmlns="http://www.w3.org/2000/svg"
   xmlns:sodipodi="http://sodipodi.sourceforge.net/DTD/sodipodi-0.dtd"
   xmlns:inkscape="http://www.inkscape.org/namespaces/inkscape"
   height="135px"
   version="1.1"
   width="90px"
   id="svg24208"
   sodipodi:docname="08-red.svg"
   inkscape:version="0.92.2 (5c3e80d, 2017-08-06)">
  <metadata
     id="metadata24212">
    <rdf:RDF>
      <cc:Work
         rdf:about="">
        <dc:format>image/svg+xml</dc:format>
        <dc:type
           rdf:resource="http://purl.org/dc/dcmitype/StillImage" />
      </cc:Work>
    </rdf:RDF>
  </metadata>
  <sodipodi:namedview
     pagecolor="#ffffff"
     bordercolor="#666666"
     borderopacity="1"
     objecttolerance="10"
     gridtolerance="10"
     guidetolerance="10"
     inkscape:pageopacity="0"
     inkscape:pageshadow="2"
     inkscape:window-width="1920"
     inkscape:window-height="1025"
     id="namedview24210"
     showgrid="false"
     inkscape:zoom="27.97037"
     inkscape:cx="75.651579"
     inkscape:cy="16.951883"
     inkscape:window-x="-8"
     inkscape:window-y="-8"
     inkscape:window-maximized="1"
     inkscape:current-layer="svg24208" />
  <defs
     id="defs2" />
  <g
     id="g7215">
    <rect
       style="fill:#f8dfe0"
       id="rect516"
       y="3"
       x="7"
       width="1"
       height="1" />
    <rect
       style="fill:#dd6162"
       id="rect530"
       y="3"
       x="14"
       width="1"
       height="1" />
    <rect
       style="fill:#e17172"
       id="rect690"
       y="4"
       x="6"
       width="1"
       height="1" />
    <rect
       style="fill:#d02223"
       id="rect710"
       y="4"
       x="16"
       width="1"
       height="1" />
    <rect
       style="fill:#f5d0d0"
       id="rect712"
       y="4"
       x="17"
       width="1"
       height="1" />
    <rect
       style="fill:#d33133"
       id="rect876"
       y="5"
       x="10"
       width="1"
       height="1" />
    <rect
       style="fill:#e17172"
       id="rect880"
       y="5"
       x="12"
       width="1"
       height="1" />
    <rect
       style="fill:#f8dfe0"
       id="rect892"
       y="5"
       x="18"
       width="1"
       height="1" />
    <rect
       style="fill:#f8dfe0"
       id="rect1056"
       y="6"
       x="10"
       width="1"
       height="1" />
    <rect
       style="fill:#d33133"
       id="rect1234"
       y="7"
       x="9"
       width="1"
       height="1" />
    <rect
       style="fill:#fcefef"
       id="rect1242"
       y="7"
       x="13"
       width="1"
       height="1" />
    <rect
       style="fill:#e17172"
       id="rect1406"
       y="8"
       x="5"
       width="1"
       height="1" />
    <rect
       style="fill:#fcefef"
       id="rect1416"
       y="8"
       x="10"
       width="1"
       height="1" />
    <rect
       style="fill:#eeb0b1"
       id="rect1422"
       y="8"
       x="13"
       width="1"
       height="1" />
    <rect
       style="fill:#f8dfe0"
       id="rect1432"
       y="8"
       x="18"
       width="1"
       height="1" />
    <rect
       style="fill:#f5d0d0"
       id="rect1586"
       y="9"
       x="5"
       width="1"
       height="1" />
    <rect
       style="fill:#da5152"
       id="rect1596"
       y="9"
       x="10"
       width="1"
       height="1" />
    <rect
       style="fill:#f5d0d0"
       id="rect1598"
       y="9"
       x="11"
       width="1"
       height="1" />
    <rect
       style="fill:#d33133"
       id="rect1602"
       y="9"
       x="13"
       width="1"
       height="1" />
    <rect
       style="fill:#f1c0c0"
       id="rect1768"
       y="10"
       x="6"
       width="1"
       height="1" />
    <rect
       style="fill:#dd6162"
       id="rect1788"
       y="10"
       x="16"
       width="1"
       height="1" />
    <rect
       style="fill:#fcefef"
       id="rect1790"
       y="10"
       x="17"
       width="1"
       height="1" />
    <rect
       style="fill:#fcefef"
       id="rect1946"
       y="11"
       x="5"
       width="1"
       height="1" />
    <rect
       style="fill:#d02223"
       id="rect1950"
       y="11"
       x="7"
       width="1"
       height="1" />
    <rect
       style="fill:#f1c0c0"
       id="rect1970"
       y="11"
       x="17"
       width="1"
       height="1" />
    <rect
       style="fill:#fcefef"
       id="rect2124"
       y="12"
       x="4"
       width="1"
       height="1" />
    <rect
       style="fill:#d33133"
       id="rect2126"
       y="12"
       x="5"
       width="1"
       height="1" />
    <rect
       style="fill:#e17172"
       id="rect2136"
       y="12"
       x="10"
       width="1"
       height="1" />
    <rect
       style="fill:#f8dfe0"
       id="rect2138"
       y="12"
       x="11"
       width="1"
       height="1" />
    <rect
       style="fill:#f1c0c0"
       id="rect2140"
       y="12"
       x="12"
       width="1"
       height="1" />
    <rect
       style="fill:#da5152"
       id="rect2142"
       y="12"
       x="13"
       width="1"
       height="1" />
    <rect
       style="fill:#da5152"
       id="rect2314"
       y="13"
       x="9"
       width="1"
       height="1" />
    <rect
       style="fill:#f8dfe0"
       id="rect2334"
       y="13"
       x="19"
       width="1"
       height="1" />
    <rect
       style="fill:#dd6162"
       id="rect2504"
       y="14"
       x="14"
       width="1"
       height="1" />
    <rect
       style="fill:#eeb0b1"
       id="rect2514"
       y="14"
       x="19"
       width="1"
       height="1" />
    <rect
       style="fill:#e17172"
       id="rect2844"
       y="16"
       x="4"
       width="1"
       height="1" />
    <rect
       style="fill:#da5152"
       id="rect2854"
       y="16"
       x="9"
       width="1"
       height="1" />
    <rect
       style="fill:#d33133"
       id="rect2864"
       y="16"
       x="14"
       width="1"
       height="1" />
    <rect
       style="fill:#f5d0d0"
       id="rect2874"
       y="16"
       x="19"
       width="1"
       height="1" />
    <rect
       style="fill:#f8dfe0"
       id="rect3024"
       y="17"
       x="4"
       width="1"
       height="1" />
    <rect
       style="fill:#dd6162"
       id="rect3036"
       y="17"
       x="10"
       width="1"
       height="1" />
    <rect
       style="fill:#f1c0c0"
       id="rect3038"
       y="17"
       x="11"
       width="1"
       height="1" />
    <rect
       style="fill:#da5152"
       id="rect3052"
       y="17"
       x="18"
       width="1"
       height="1" />
    <rect
       style="fill:#f5d0d0"
       id="rect3206"
       y="18"
       x="5"
       width="1"
       height="1" />
    <rect
       style="fill:#d02223"
       id="rect3208"
       y="18"
       x="6"
       width="1"
       height="1" />
    <rect
       style="fill:#dd6162"
       id="rect3230"
       y="18"
       x="17"
       width="1"
       height="1" />
    <rect
       style="fill:#fcefef"
       id="rect3232"
       y="18"
       x="18"
       width="1"
       height="1" />
    <rect
       style="fill:#da5152"
       id="rect3392"
       y="19"
       x="8"
       width="1"
       height="1" />
    <path
       inkscape:connector-curvature="0"
       id="rect3402"
       d="M 7,4 C 7,4.3333333 7,4.6666667 7,5 6.6666667,5 6.3333333,5 6,5 c 0,1.6666667 0,3.3333333 0,5 0.6666667,0 1.3333333,0 2,0 0,0.666667 0,1.333333 0,2 -0.6666667,0 -1.3333333,0 -2,0 0,0.333333 0,0.666667 0,1 -0.3333333,0 -0.6666667,0 -1,0 0,1.333333 0,2.666667 0,4 0.3333333,0 0.6666667,0 1,0 0,0.333333 0,0.666667 0,1 0.3333333,0 0.6666667,0 1,0 0,0.333333 0,0.666667 0,1 1,0 2,0 3,0 0,0.333333 0,0.666667 0,1 1.333333,0 2.666667,0 4,0 0,-0.333333 0,-0.666667 0,-1 1,0 2,0 3,0 0,-0.333333 0,-0.666667 0,-1 0.333333,0 0.666667,0 1,0 0,-0.333333 0,-0.666667 0,-1 0.333333,0 0.666667,0 1,0 0,-1.333333 0,-2.666667 0,-4 -0.333333,0 -0.666667,0 -1,0 0,-0.333333 0,-0.666667 0,-1 -0.666667,0 -1.333333,0 -2,0 0,-0.666667 0,-1.333333 0,-2 0.333333,0 0.666667,0 1,0 0,-0.3333333 0,-0.6666667 0,-1 0.333333,0 0.666667,0 1,0 0,-1 0,-2 0,-3 -0.333333,0 -0.666667,0 -1,0 0,-0.3333333 0,-0.6666667 0,-1 -0.333333,0 -0.666667,0 -1,0 0,-0.3333333 0,-0.6666667 0,-1 -3,0 -6,0 -9,0 z m 3,1 c 1.333333,0 2.666667,0 4,0 0,1.6666667 0,3.3333333 0,5 -1.333333,0 -2.666667,0 -4,0 C 10,9.3333333 10,8.6666667 10,8 9.6666667,8 9.3333333,8 9,8 9,7.6666667 9,7.3333333 9,7 9.3333333,7 9.6666667,7 10,7 10,6.3333333 10,5.6666667 10,5 Z m 0,7 c 1.333333,0 2.666667,0 4,0 0,0.333333 0,0.666667 0,1 0.333333,0 0.666667,0 1,0 0,1.333333 0,2.666667 0,4 -0.333333,0 -0.666667,0 -1,0 0,0.333333 0,0.666667 0,1 -1.333333,0 -2.666667,0 -4,0 0,-0.333333 0,-0.666667 0,-1 -0.3333333,0 -0.6666667,0 -1,0 0,-1.333333 0,-2.666667 0,-4 0.3333333,0 0.6666667,0 1,0 0,-0.333333 0,-0.666667 0,-1 z"
       style="fill:#c90305" />
    <rect
       style="fill:#d33133"
       id="rect3404"
       y="19"
       x="14"
       width="1"
       height="1" />
    <rect
       style="fill:#dd6162"
       id="rect3406"
       y="19"
       x="15"
       width="1"
       height="1" />
    <rect
       style="fill:#f1c0c0"
       id="rect3408"
       y="19"
       x="16"
       width="1"
       height="1" />
    <rect
       style="fill:#f8dfe0"
       id="rect20622"
       y="114"
       x="73"
       width="1"
       height="1" />
    <rect
       style="fill:#f8dfe0"
       id="rect20640"
       y="114"
       x="82"
       width="1"
       height="1" />
    <rect
       style="fill:#fcefef"
       id="rect20798"
       y="115"
       x="71"
       width="1"
       height="1" />
    <rect
       style="fill:#e17172"
       id="rect20800"
       y="115"
       x="72"
       width="1"
       height="1" />
    <rect
       style="fill:#e17172"
       id="rect20822"
       y="115"
       x="83"
       width="1"
       height="1" />
    <rect
       style="fill:#fcefef"
       id="rect20824"
       y="115"
       x="84"
       width="1"
       height="1" />
    <rect
       style="fill:#d02223"
       id="rect20988"
       y="116"
       x="76"
       width="1"
       height="1" />
    <rect
       style="fill:#d02223"
       id="rect20994"
       y="116"
       x="79"
       width="1"
       height="1" />
    <rect
       style="fill:#eeb0b1"
       id="rect21156"
       y="117"
       x="70"
       width="1"
       height="1" />
    <rect
       style="fill:#eeb0b1"
       id="rect21186"
       y="117"
       x="85"
       width="1"
       height="1" />
    <rect
       style="fill:#dd6162"
       id="rect21356"
       y="118"
       x="80"
       width="1"
       height="1" />
    <rect
       style="fill:#da5152"
       id="rect21706"
       y="120"
       x="75"
       width="1"
       height="1" />
    <rect
       style="fill:#d33133"
       id="rect21716"
       y="120"
       x="80"
       width="1"
       height="1" />
    <rect
       style="fill:#fcefef"
       id="rect21890"
       y="121"
       x="77"
       width="1"
       height="1" />
    <rect
       style="fill:#fcefef"
       id="rect21892"
       y="121"
       x="78"
       width="1"
       height="1" />
    <rect
       style="fill:#d33133"
       id="rect21904"
       y="121"
       x="84"
       width="1"
       height="1" />
    <rect
       style="fill:#fcefef"
       id="rect22058"
       y="122"
       x="71"
       width="1"
       height="1" />
    <rect
       style="fill:#e17172"
       id="rect22060"
       y="122"
       x="72"
       width="1"
       height="1" />
    <rect
       style="fill:#e17172"
       id="rect22082"
       y="122"
       x="83"
       width="1"
       height="1" />
    <rect
       style="fill:#fcefef"
       id="rect22084"
       y="122"
       x="84"
       width="1"
       height="1" />
    <rect
       style="fill:#fcefef"
       id="rect22240"
       y="123"
       x="72"
       width="1"
       height="1" />
    <path
       style="fill:#e48182"
       d="M 5,5 C 5,5.3333333 5,5.6666667 5,6 5.3333333,6 5.6666667,6 6,6 6,5.6666667 6,5.3333333 6,5 5.6666667,5 5.3333333,5 5,5 Z"
       id="path7379" />
    <path
       style="fill:#e48182"
       d="m 18,6 c 0,0.6666667 0,1.3333333 0,2 0.333333,0 0.666667,0 1,0 0,-0.6666667 0,-1.3333333 0,-2 -0.333333,0 -0.666667,0 -1,0 z"
       id="path7377" />
    <path
       style="fill:#e48182"
       d="m 6,11 c 0,0.333333 0,0.666667 0,1 0.3333333,0 0.6666667,0 1,0 0,-0.333333 0,-0.666667 0,-1 -0.3333333,0 -0.6666667,0 -1,0 z"
       id="path7375" />
    <path
       style="fill:#e48182"
       d="m 14,15 c 0,0.333333 0,0.666667 0,1 0.333333,0 0.666667,0 1,0 0,-0.333333 0,-0.666667 0,-1 -0.333333,0 -0.666667,0 -1,0 z"
       id="path7373" />
    <path
       style="fill:#e48182"
       d="m 70,118 c 0,0.66667 0,1.33333 0,2 0.333333,0 0.666667,0 1,0 0,-0.66667 0,-1.33333 0,-2 -0.333333,0 -0.666667,0 -1,0 z"
       id="path7371" />
    <path
       style="fill:#e48182"
       d="m 85,118 c 0,0.66667 0,1.33333 0,2 0.333333,0 0.666667,0 1,0 0,-0.66667 0,-1.33333 0,-2 -0.333333,0 -0.666667,0 -1,0 z"
       id="path7369" />
    <path
       style="fill:#e48182"
       d="m 80,119 c 0,0.33333 0,0.66667 0,1 0.333333,0 0.666667,0 1,0 0,-0.33333 0,-0.66667 0,-1 -0.333333,0 -0.666667,0 -1,0 z"
       id="path7367" />
    <path
       style="fill:#e48182"
       d="m 73,123 c 0,0.33333 0,0.66667 0,1 0.333333,0 0.666667,0 1,0 0,-0.33333 0,-0.66667 0,-1 -0.333333,0 -0.666667,0 -1,0 z"
       id="rect22242" />
    <rect
       style="fill:#e17172"
       id="rect22260"
       y="123"
       x="82"
       width="1"
       height="1" />
    <rect
       style="fill:#fcefef"
       id="rect22262"
       y="123"
       x="83"
       width="1"
       height="1" />
    <rect
       style="fill:#d33133"
       id="rect22420"
       y="124"
       x="72"
       width="1"
       height="1" />
    <rect
       style="fill:#d02223"
       id="rect22428"
       y="124"
       x="76"
       width="1"
       height="1" />
    <path
       style="fill:#e79091"
       d="M 8,3 C 8,3.3333333 8,3.6666667 8,4 8.3333333,4 8.6666667,4 9,4 9,3.6666667 9,3.3333333 9,3 8.6666667,3 8.3333333,3 8,3 Z"
       id="path7411" />
    <path
       style="fill:#e79091"
       d="m 11,5 c 0,0.3333333 0,0.6666667 0,1 0.333333,0 0.666667,0 1,0 0,-0.3333333 0,-0.6666667 0,-1 -0.333333,0 -0.666667,0 -1,0 z"
       id="path7409" />
    <path
       style="fill:#e79091"
       d="m 4,13 c 0,0.333333 0,0.666667 0,1 0.3333333,0 0.6666667,0 1,0 0,-0.333333 0,-0.666667 0,-1 -0.3333333,0 -0.6666667,0 -1,0 z"
       id="path7407" />
    <path
       style="fill:#e79091"
       d="m 74,114 c 0,0.33333 0,0.66667 0,1 0.333333,0 0.666667,0 1,0 0,-0.33333 0,-0.66667 0,-1 -0.333333,0 -0.666667,0 -1,0 z"
       id="path7405" />
    <path
       style="fill:#e79091"
       d="m 81,114 c 0,0.33333 0,0.66667 0,1 0.333333,0 0.666667,0 1,0 0,-0.33333 0,-0.66667 0,-1 -0.333333,0 -0.666667,0 -1,0 z"
       id="path7403" />
    <path
       style="fill:#e79091"
       d="m 77,116 c 0,0.33333 0,0.66667 0,1 0.666667,0 1.333333,0 2,0 0,-0.33333 0,-0.66667 0,-1 -0.666667,0 -1.333333,0 -2,0 z"
       id="path7401" />
    <path
       style="fill:#e79091"
       d="m 76,121 c 0,0.33333 0,0.66667 0,1 0.333333,0 0.666667,0 1,0 0,-0.33333 0,-0.66667 0,-1 -0.333333,0 -0.666667,0 -1,0 z"
       id="path7399" />
    <path
       style="fill:#e79091"
       d="m 79,121 c 0,0.33333 0,0.66667 0,1 0.333333,0 0.666667,0 1,0 0,-0.33333 0,-0.66667 0,-1 -0.333333,0 -0.666667,0 -1,0 z"
       id="path7397" />
    <path
       style="fill:#e79091"
       d="m 77,124 c 0,0.33333 0,0.66667 0,1 0.666667,0 1.333333,0 2,0 0,-0.33333 0,-0.66667 0,-1 -0.666667,0 -1.333333,0 -2,0 z"
       id="rect22432" />
    <rect
       style="fill:#d02223"
       id="rect22434"
       y="124"
       x="79"
       width="1"
       height="1" />
    <rect
       style="fill:#d33133"
       id="rect22442"
       y="124"
       x="83"
       width="1"
       height="1" />
    <rect
       style="fill:#f1c0c0"
       id="rect22598"
       y="125"
       x="71"
       width="1"
       height="1" />
    <rect
       style="fill:#f5d0d0"
       id="rect22608"
       y="125"
       x="76"
       width="1"
       height="1" />
    <rect
       style="fill:#eeb0b1"
       id="rect22614"
       y="125"
       x="79"
       width="1"
       height="1" />
    <rect
       style="fill:#eeb0b1"
       id="rect22624"
       y="125"
       x="84"
       width="1"
       height="1" />
    <rect
       style="fill:#dd6162"
       id="rect22778"
       y="126"
       x="71"
       width="1"
       height="1" />
    <path
       style="fill:#cc1214"
       d="m 13,5 c 0,0.3333333 0,0.6666667 0,1 0.333333,0 0.666667,0 1,0 0,-0.3333333 0,-0.6666667 0,-1 -0.333333,0 -0.666667,0 -1,0 z"
       id="path7349" />
    <path
       style="fill:#cc1214"
       d="m 17,5 c 0,0.3333333 0,0.6666667 0,1 0.333333,0 0.666667,0 1,0 0,-0.3333333 0,-0.6666667 0,-1 -0.333333,0 -0.666667,0 -1,0 z"
       id="path7347" />
    <path
       style="fill:#cc1214"
       d="M 5,6 C 5,6.6666667 5,7.3333333 5,8 5.3333333,8 5.6666667,8 6,8 6,7.3333333 6,6.6666667 6,6 5.6666667,6 5.3333333,6 5,6 Z"
       id="path7345" />
    <path
       style="fill:#cc1214"
       d="m 14,13 c 0,0.333333 0,0.666667 0,1 0.333333,0 0.666667,0 1,0 0,-0.333333 0,-0.666667 0,-1 -0.333333,0 -0.666667,0 -1,0 z"
       id="path7343" />
    <path
       style="fill:#cc1214"
       d="m 5,17 c 0,0.333333 0,0.666667 0,1 0.3333333,0 0.6666667,0 1,0 0,-0.333333 0,-0.666667 0,-1 -0.3333333,0 -0.6666667,0 -1,0 z"
       id="path7341" />
    <path
       style="fill:#cc1214"
       d="m 9,19 c 0,0.333333 0,0.666667 0,1 0.3333333,0 0.6666667,0 1,0 0,-0.333333 0,-0.666667 0,-1 -0.3333333,0 -0.6666667,0 -1,0 z"
       id="path7339" />
    <path
       style="fill:#cc1214"
       d="m 80,117 c 0,0.33333 0,0.66667 0,1 0.333333,0 0.666667,0 1,0 0,-0.33333 0,-0.66667 0,-1 -0.333333,0 -0.666667,0 -1,0 z"
       id="path7337" />
    <path
       style="fill:#cc1214"
       d="m 73,122 c 0,0.33333 0,0.66667 0,1 0.333333,0 0.666667,0 1,0 0,-0.33333 0,-0.66667 0,-1 -0.333333,0 -0.666667,0 -1,0 z"
       id="path7335" />
    <path
       style="fill:#cc1214"
       d="m 77,122 c 0,0.33333 0,0.66667 0,1 0.333333,0 0.666667,0 1,0 0,-0.33333 0,-0.66667 0,-1 -0.333333,0 -0.666667,0 -1,0 z"
       id="path7333" />
    <path
       style="fill:#cc1214"
       d="m 75,126 c 0,0.33333 0,0.66667 0,1 0.333333,0 0.666667,0 1,0 0,-0.33333 0,-0.66667 0,-1 -0.333333,0 -0.666667,0 -1,0 z"
       id="rect22786" />
    <rect
       style="fill:#da5152"
       id="rect22804"
       y="126"
       x="84"
       width="1"
       height="1" />
    <rect
       style="fill:#da5152"
       id="rect22958"
       y="127"
       x="71"
       width="1"
       height="1" />
    <rect
       style="fill:#f8dfe0"
       id="rect22968"
       y="127"
       x="76"
       width="1"
       height="1" />
    <rect
       style="fill:#f5d0d0"
       id="rect22974"
       y="127"
       x="79"
       width="1"
       height="1" />
    <path
       style="fill:#d64143"
       d="m 9,3 c 0,0.3333333 0,0.6666667 0,1 1.666667,0 3.333333,0 5,0 0,-0.3333333 0,-0.6666667 0,-1 -1.666667,0 -3.333333,0 -5,0 z"
       id="path7267" />
    <path
       style="fill:#d64143"
       d="m 17,9 c 0,0.3333333 0,0.6666667 0,1 0.333333,0 0.666667,0 1,0 0,-0.3333333 0,-0.6666667 0,-1 -0.333333,0 -0.666667,0 -1,0 z"
       id="path7265" />
    <path
       style="fill:#d64143"
       d="m 7,10 c 0,0.333333 0,0.666667 0,1 0.3333333,0 0.6666667,0 1,0 0,-0.333333 0,-0.666667 0,-1 -0.3333333,0 -0.6666667,0 -1,0 z"
       id="path7263" />
    <path
       style="fill:#d64143"
       d="m 16,11 c 0,0.333333 0,0.666667 0,1 0.333333,0 0.666667,0 1,0 0,-0.333333 0,-0.666667 0,-1 -0.333333,0 -0.666667,0 -1,0 z"
       id="path7261" />
    <path
       style="fill:#d64143"
       d="m 4,14 c 0,0.666667 0,1.333333 0,2 0.3333333,0 0.6666667,0 1,0 0,-0.666667 0,-1.333333 0,-2 -0.3333333,0 -0.6666667,0 -1,0 z"
       id="path7259" />
    <path
       style="fill:#d64143"
       d="m 13,17 c 0,0.333333 0,0.666667 0,1 0.333333,0 0.666667,0 1,0 0,-0.333333 0,-0.666667 0,-1 -0.333333,0 -0.666667,0 -1,0 z"
       id="path7257" />
    <path
       style="fill:#d64143"
       d="m 75,114 c 0,0.33333 0,0.66667 0,1 0.666667,0 1.333333,0 2,0 0,-0.33333 0,-0.66667 0,-1 -0.666667,0 -1.333333,0 -2,0 z"
       id="path7255" />
    <path
       style="fill:#d64143"
       d="m 79,114 c 0,0.33333 0,0.66667 0,1 0.666667,0 1.333333,0 2,0 0,-0.33333 0,-0.66667 0,-1 -0.666667,0 -1.333333,0 -2,0 z"
       id="path7253" />
    <path
       style="fill:#d64143"
       d="m 71,116 c 0,0.33333 0,0.66667 0,1 0.333333,0 0.666667,0 1,0 0,-0.33333 0,-0.66667 0,-1 -0.333333,0 -0.666667,0 -1,0 z"
       id="path7251" />
    <path
       style="fill:#d64143"
       d="m 84,116 c 0,0.33333 0,0.66667 0,1 0.333333,0 0.666667,0 1,0 0,-0.33333 0,-0.66667 0,-1 -0.333333,0 -0.666667,0 -1,0 z"
       id="path7249" />
    <path
       style="fill:#d64143"
       d="m 75,117 c 0,0.33333 0,0.66667 0,1 0.333333,0 0.666667,0 1,0 0,-0.33333 0,-0.66667 0,-1 -0.333333,0 -0.666667,0 -1,0 z"
       id="path7247" />
    <path
       style="fill:#d64143"
       d="m 71,121 c 0,0.33333 0,0.66667 0,1 0.333333,0 0.666667,0 1,0 0,-0.33333 0,-0.66667 0,-1 -0.333333,0 -0.666667,0 -1,0 z"
       id="path7245" />
    <path
       style="fill:#d64143"
       d="m 84,127 c 0,0.33333 0,0.66667 0,1 0.333333,0 0.666667,0 1,0 0,-0.33333 0,-0.66667 0,-1 -0.333333,0 -0.666667,0 -1,0 z"
       id="path7243" />
    <path
       style="fill:#d64143"
       d="m 76,128 c 0,0.33333 0,0.66667 0,1 0.333333,0 0.666667,0 1,0 0,-0.33333 0,-0.66667 0,-1 -0.333333,0 -0.666667,0 -1,0 z"
       id="rect23148" />
    <rect
       style="fill:#eeb0b1"
       id="rect23150"
       y="128"
       x="77"
       width="1"
       height="1" />
    <rect
       style="fill:#d33133"
       id="rect23154"
       y="128"
       x="79"
       width="1"
       height="1" />
    <path
       style="fill:#eba0a1"
       d="m 15,3 c 0,0.3333333 0,0.6666667 0,1 0.333333,0 0.666667,0 1,0 0,-0.3333333 0,-0.6666667 0,-1 -0.333333,0 -0.666667,0 -1,0 z"
       id="path7314" />
    <path
       style="fill:#eba0a1"
       d="m 13,6 c 0,0.3333333 0,0.6666667 0,1 0.333333,0 0.666667,0 1,0 0,-0.3333333 0,-0.6666667 0,-1 -0.333333,0 -0.666667,0 -1,0 z"
       id="path7312" />
    <path
       style="fill:#eba0a1"
       d="m 12,9 c 0,0.3333333 0,0.6666667 0,1 0.333333,0 0.666667,0 1,0 0,-0.3333333 0,-0.6666667 0,-1 -0.333333,0 -0.666667,0 -1,0 z"
       id="path7310" />
    <path
       style="fill:#eba0a1"
       d="m 18,12 c 0,0.333333 0,0.666667 0,1 0.333333,0 0.666667,0 1,0 0,-0.333333 0,-0.666667 0,-1 -0.333333,0 -0.666667,0 -1,0 z"
       id="path7308" />
    <path
       style="fill:#eba0a1"
       d="m 9,14 c 0,0.666667 0,1.333333 0,2 0.3333333,0 0.6666667,0 1,0 0,-0.666667 0,-1.333333 0,-2 -0.3333333,0 -0.6666667,0 -1,0 z"
       id="path7306" />
    <path
       style="fill:#eba0a1"
       d="m 19,15 c 0,0.333333 0,0.666667 0,1 0.333333,0 0.666667,0 1,0 0,-0.333333 0,-0.666667 0,-1 -0.333333,0 -0.666667,0 -1,0 z"
       id="path7304" />
    <path
       style="fill:#eba0a1"
       d="m 12,17 c 0,0.333333 0,0.666667 0,1 0.333333,0 0.666667,0 1,0 0,-0.333333 0,-0.666667 0,-1 -0.333333,0 -0.666667,0 -1,0 z"
       id="path7302" />
    <path
       style="fill:#eba0a1"
       d="m 7,19 c 0,0.333333 0,0.666667 0,1 0.3333333,0 0.6666667,0 1,0 0,-0.333333 0,-0.666667 0,-1 -0.3333333,0 -0.6666667,0 -1,0 z"
       id="path7300" />
    <path
       style="fill:#eba0a1"
       d="m 75,118 c 0,0.66667 0,1.33333 0,2 0.333333,0 0.666667,0 1,0 0,-0.66667 0,-1.33333 0,-2 -0.333333,0 -0.666667,0 -1,0 z"
       id="path7298" />
    <path
       style="fill:#eba0a1"
       d="m 70,120 c 0,0.33333 0,0.66667 0,1 0.333333,0 0.666667,0 1,0 0,-0.33333 0,-0.66667 0,-1 -0.333333,0 -0.666667,0 -1,0 z"
       id="path7296" />
    <path
       style="fill:#eba0a1"
       d="m 85,120 c 0,0.33333 0,0.66667 0,1 0.333333,0 0.666667,0 1,0 0,-0.33333 0,-0.66667 0,-1 -0.333333,0 -0.666667,0 -1,0 z"
       id="path7294" />
    <path
       style="fill:#eba0a1"
       d="m 71,128 c 0,0.33333 0,0.66667 0,1 0.333333,0 0.666667,0 1,0 0,-0.33333 0,-0.66667 0,-1 -0.333333,0 -0.666667,0 -1,0 z"
       id="path7292" />
    <path
       style="fill:#eba0a1"
       d="m 78,128 c 0,0.33333 0,0.66667 0,1 0.333333,0 0.666667,0 1,0 0,-0.33333 0,-0.66667 0,-1 -0.333333,0 -0.666667,0 -1,0 z"
       id="path7290" />
    <path
       style="fill:#eba0a1"
       d="m 84,128 c 0,0.33333 0,0.66667 0,1 0.333333,0 0.666667,0 1,0 0,-0.33333 0,-0.66667 0,-1 -0.333333,0 -0.666667,0 -1,0 z"
       id="rect23164" />
    <rect
       style="fill:#e17172"
       id="rect23320"
       y="129"
       x="72"
       width="1"
       height="1" />
    <rect
       style="fill:#e17172"
       id="rect23342"
       y="129"
       x="83"
       width="1"
       height="1" />
    <rect
       style="fill:#f8dfe0"
       id="rect23500"
       y="130"
       x="73"
       width="1"
       height="1" />
    <rect
       style="fill:#e17172"
       id="rect23502"
       y="130"
       x="74"
       width="1"
       height="1" />
    <rect
       style="fill:#d33133"
       id="rect23504"
       y="130"
       x="75"
       width="1"
       height="1" />
    <path
       inkscape:connector-curvature="0"
       id="rect23512"
       d="m 77,114 c 0,0.33333 0,0.66667 0,1 -1.333333,0 -2.666667,0 -4,0 0,0.33333 0,0.66667 0,1 -0.333333,0 -0.666667,0 -1,0 0,0.33333 0,0.66667 0,1 -0.333333,0 -0.666667,0 -1,0 0,1.33333 0,2.66667 0,4 0.333333,0 0.666667,0 1,0 0,0.33333 0,0.66667 0,1 0.666667,0 1.333333,0 2,0 0,0.66667 0,1.33333 0,2 -0.333333,0 -0.666667,0 -1,0 0,0.33333 0,0.66667 0,1 -0.333333,0 -0.666667,0 -1,0 0,1.33333 0,2.66667 0,4 0.333333,0 0.666667,0 1,0 0,0.33333 0,0.66667 0,1 1,0 2,0 3,0 0,0.33333 0,0.66667 0,1 1.333333,0 2.666667,0 4,0 0,-0.33333 0,-0.66667 0,-1 1,0 2,0 3,0 0,-0.33333 0,-0.66667 0,-1 0.333333,0 0.666667,0 1,0 0,-1.33333 0,-2.66667 0,-4 -0.333333,0 -0.666667,0 -1,0 0,-0.33333 0,-0.66667 0,-1 -0.333333,0 -0.666667,0 -1,0 0,-0.33333 0,-0.66667 0,-1 0.333333,0 0.666667,0 1,0 0,-0.33333 0,-0.66667 0,-1 0.333333,0 0.666667,0 1,0 0,-0.33333 0,-0.66667 0,-1 0.333333,0 0.666667,0 1,0 0,-1.33333 0,-2.66667 0,-4 -0.333333,0 -0.666667,0 -1,0 0,-0.33333 0,-0.66667 0,-1 -0.333333,0 -0.666667,0 -1,0 0,-0.33333 0,-0.66667 0,-1 -1.333333,0 -2.666667,0 -4,0 0,-0.33333 0,-0.66667 0,-1 -0.666667,0 -1.333333,0 -2,0 z m -1,2 c 1.333333,0 2.666667,0 4,0 0,0.33333 0,0.66667 0,1 0.333333,0 0.666667,0 1,0 0,1.33333 0,2.66667 0,4 -0.333333,0 -0.666667,0 -1,0 0,0.33333 0,0.66667 0,1 -0.666667,0 -1.333333,0 -2,0 0,0.33333 0,0.66667 0,1 -0.333333,0 -0.666667,0 -1,0 0,-0.33333 0,-0.66667 0,-1 -0.333333,0 -0.666667,0 -1,0 0,-0.33333 0,-0.66667 0,-1 -0.333333,0 -0.666667,0 -1,0 0,-1.33333 0,-2.66667 0,-4 0.333333,0 0.666667,0 1,0 0,-0.33333 0,-0.66667 0,-1 z m 0,8 c 1.333333,0 2.666667,0 4,0 0,1.66667 0,3.33333 0,5 -1.333333,0 -2.666667,0 -4,0 0,-0.66667 0,-1.33333 0,-2 -0.333333,0 -0.666667,0 -1,0 0,-0.33333 0,-0.66667 0,-1 0.333333,0 0.666667,0 1,0 0,-0.66667 0,-1.33333 0,-2 z"
       style="fill:#c90305" />
    <rect
       style="fill:#d33133"
       id="rect23514"
       y="130"
       x="80"
       width="1"
       height="1" />
    <rect
       style="fill:#dd6162"
       id="rect23516"
       y="130"
       x="81"
       width="1"
       height="1" />
    <rect
       style="fill:#f5d0d0"
       id="rect23518"
       y="130"
       x="82"
       width="1"
       height="1" />
  </g>
</svg>
