<?xml version="1.0" encoding="UTF-8" standalone="no"?>
<svg
   xmlns:dc="http://purl.org/dc/elements/1.1/"
   xmlns:cc="http://creativecommons.org/ns#"
   xmlns:rdf="http://www.w3.org/1999/02/22-rdf-syntax-ns#"
   xmlns:svg="http://www.w3.org/2000/svg"
   xmlns="http://www.w3.org/2000/svg"
   xmlns:sodipodi="http://sodipodi.sourceforge.net/DTD/sodipodi-0.dtd"
   xmlns:inkscape="http://www.inkscape.org/namespaces/inkscape"
   height="135px"
   version="1.1"
   width="90px"
   id="svg24208"
   sodipodi:docname="09-red.svg"
   inkscape:version="0.92.2 (5c3e80d, 2017-08-06)">
  <metadata
     id="metadata24212">
    <rdf:RDF>
      <cc:Work
         rdf:about="">
        <dc:format>image/svg+xml</dc:format>
        <dc:type
           rdf:resource="http://purl.org/dc/dcmitype/StillImage" />
        <dc:title />
      </cc:Work>
    </rdf:RDF>
  </metadata>
  <sodipodi:namedview
     pagecolor="#ffffff"
     bordercolor="#666666"
     borderopacity="1"
     objecttolerance="10"
     gridtolerance="10"
     guidetolerance="10"
     inkscape:pageopacity="0"
     inkscape:pageshadow="2"
     inkscape:window-width="1920"
     inkscape:window-height="1025"
     id="namedview24210"
     showgrid="false"
     inkscape:zoom="39.556077"
     inkscape:cx="81.775887"
     inkscape:cy="11.39302"
     inkscape:window-x="-8"
     inkscape:window-y="-8"
     inkscape:window-maximized="1"
     inkscape:current-layer="svg24208" />
  <defs
     id="defs2" />
  <g
     id="g4858">
    <rect
       id="rect516"
       y="3"
       x="7"
       width="1"
       height="1"
       style="fill:#fcefef" />
    <rect
       id="rect518"
       y="3"
       x="8"
       width="1"
       height="1"
       style="fill:#e79091" />
    <rect
       id="rect520"
       y="3"
       x="9"
       width="1"
       height="1"
       style="fill:#da5152" />
    <rect
       id="rect528"
       y="3"
       x="13"
       width="1"
       height="1"
       style="fill:#da5152" />
    <rect
       id="rect530"
       y="3"
       x="14"
       width="1"
       height="1"
       style="fill:#eba0a1" />
    <rect
       id="rect532"
       y="3"
       x="15"
       width="1"
       height="1"
       style="fill:#fcefef" />
    <rect
       id="rect690"
       y="4"
       x="6"
       width="1"
       height="1"
       style="fill:#eba0a1" />
    <rect
       id="rect692"
       y="4"
       x="7"
       width="1"
       height="1"
       style="fill:#cc1214" />
    <rect
       id="rect708"
       y="4"
       x="15"
       width="1"
       height="1"
       style="fill:#d02223" />
    <rect
       id="rect866"
       y="5"
       x="5"
       width="1"
       height="1"
       style="fill:#eba0a1" />
    <rect
       id="rect876"
       y="5"
       x="10"
       width="1"
       height="1"
       style="fill:#cc1214" />
    <rect
       id="rect878"
       y="5"
       x="11"
       width="1"
       height="1"
       style="fill:#e79091" />
    <rect
       id="rect880"
       y="5"
       x="12"
       width="1"
       height="1"
       style="fill:#d02223" />
    <rect
       id="rect890"
       y="5"
       x="17"
       width="1"
       height="1"
       style="fill:#eeb0b1" />
    <rect
       id="rect1046"
       y="6"
       x="5"
       width="1"
       height="1"
       style="fill:#cc1214" />
    <rect
       id="rect1056"
       y="6"
       x="10"
       width="1"
       height="1"
       style="fill:#fcefef" />
    <rect
       id="rect1062"
       y="6"
       x="13"
       width="1"
       height="1"
       style="fill:#dd6162" />
    <rect
       id="rect1070"
       y="6"
       x="17"
       width="1"
       height="1"
       style="fill:#cc1214" />
    <rect
       id="rect1072"
       y="6"
       x="18"
       width="1"
       height="1"
       style="fill:#fcefef" />
    <rect
       id="rect1224"
       y="7"
       x="4"
       width="1"
       height="1"
       style="fill:#e79091" />
    <rect
       id="rect1234"
       y="7"
       x="9"
       width="1"
       height="1"
       style="fill:#eba0a1" />
    <rect
       id="rect1252"
       y="7"
       x="18"
       width="1"
       height="1"
       style="fill:#e17172" />
    <rect
       id="rect1404"
       y="8"
       x="4"
       width="1"
       height="1"
       style="fill:#da5152" />
    <rect
       id="rect1432"
       y="8"
       x="18"
       width="1"
       height="1"
       style="fill:#d02223" />
    <rect
       id="rect1764"
       y="10"
       x="4"
       width="1"
       height="1"
       style="fill:#e17172" />
    <rect
       id="rect1774"
       y="10"
       x="9"
       width="1"
       height="1"
       style="fill:#e17172" />
    <rect
       id="rect1782"
       y="10"
       x="13"
       width="1"
       height="1"
       style="fill:#eeb0b1" />
    <rect
       id="rect1958"
       y="11"
       x="11"
       width="1"
       height="1"
       style="fill:#fcefef" />
    <rect
       id="rect1960"
       y="11"
       x="12"
       width="1"
       height="1"
       style="fill:#eba0a1" />
    <rect
       id="rect1962"
       y="11"
       x="13"
       width="1"
       height="1"
       style="fill:#cc1214" />
    <rect
       id="rect2126"
       y="12"
       x="5"
       width="1"
       height="1"
       style="fill:#dd6162" />
    <rect
       id="rect2310"
       y="13"
       x="7"
       width="1"
       height="1"
       style="fill:#cc1214" />
    <rect
       id="rect2324"
       y="13"
       x="14"
       width="1"
       height="1"
       style="fill:#e17172" />
    <rect
       id="rect2334"
       y="13"
       x="19"
       width="1"
       height="1"
       style="fill:#fcefef" />
    <rect
       id="rect2490"
       y="14"
       x="7"
       width="1"
       height="1"
       style="fill:#fcefef" />
    <rect
       id="rect2492"
       y="14"
       x="8"
       width="1"
       height="1"
       style="fill:#eeb0b1" />
    <rect
       id="rect2496"
       y="14"
       x="10"
       width="1"
       height="1"
       style="fill:#e79091" />
    <rect
       id="rect2504"
       y="14"
       x="14"
       width="1"
       height="1"
       style="fill:#d33133" />
    <rect
       id="rect2512"
       y="14"
       x="18"
       width="1"
       height="1"
       style="fill:#d33133" />
    <rect
       id="rect2668"
       y="15"
       x="6"
       width="1"
       height="1"
       style="fill:#da5152" />
    <rect
       id="rect2670"
       y="15"
       x="7"
       width="1"
       height="1"
       style="fill:#eba0a1" />
    <rect
       id="rect2692"
       y="15"
       x="18"
       width="1"
       height="1"
       style="fill:#eba0a1" />
    <rect
       id="rect2848"
       y="16"
       x="6"
       width="1"
       height="1"
       style="fill:#d02223" />
    <rect
       id="rect2850"
       y="16"
       x="7"
       width="1"
       height="1"
       style="fill:#d33133" />
    <rect
       id="rect2860"
       y="16"
       x="12"
       width="1"
       height="1"
       style="fill:#fcefef" />
    <rect
       id="rect2862"
       y="16"
       x="13"
       width="1"
       height="1"
       style="fill:#d02223" />
    <rect
       id="rect2870"
       y="16"
       x="17"
       width="1"
       height="1"
       style="fill:#d33133" />
    <rect
       id="rect3026"
       y="17"
       x="5"
       width="1"
       height="1"
       style="fill:#fcefef" />
    <rect
       id="rect3032"
       y="17"
       x="8"
       width="1"
       height="1"
       style="fill:#d33133" />
    <rect
       id="rect3034"
       y="17"
       x="9"
       width="1"
       height="1"
       style="fill:#e79091" />
    <rect
       id="rect3040"
       y="17"
       x="12"
       width="1"
       height="1"
       style="fill:#cc1214" />
    <rect
       id="rect3048"
       y="17"
       x="16"
       width="1"
       height="1"
       style="fill:#d33133" />
    <rect
       id="rect3050"
       y="17"
       x="17"
       width="1"
       height="1"
       style="fill:#fcefef" />
    <rect
       id="rect3226"
       y="18"
       x="15"
       width="1"
       height="1"
       style="fill:#da5152" />
    <rect
       id="rect3228"
       y="18"
       x="16"
       width="1"
       height="1"
       style="fill:#fcefef" />
    <rect
       id="rect3388"
       y="19"
       x="6"
       width="1"
       height="1"
       style="fill:#e17172" />
    <path
       inkscape:connector-curvature="0"
       id="rect3398"
       d="M 8,4 C 8,4.3333333 8,4.6666667 8,5 7.3333333,5 6.6666667,5 6,5 6,5.6666667 6,6.3333333 6,7 5.6666667,7 5.3333333,7 5,7 c 0,1.6666667 0,3.333333 0,5 0.3333333,0 0.6666667,0 1,0 0,0.333333 0,0.666667 0,1 0.6666667,0 1.3333333,0 2,0 0,0.333333 0,0.666667 0,1 1.6666667,0 3.333333,0 5,0 0,-0.333333 0,-0.666667 0,-1 0.666667,0 1.333333,0 2,0 0,0.666667 0,1.333333 0,2 -0.333333,0 -0.666667,0 -1,0 0,0.666667 0,1.333333 0,2 -0.333333,0 -0.666667,0 -1,0 0,0.333333 0,0.666667 0,1 -1.666667,0 -3.3333333,0 -5,0 0,-0.333333 0,-0.666667 0,-1 -0.6666667,0 -1.3333333,0 -2,0 0,0.666667 0,1.333333 0,2 0.6666667,0 1.3333333,0 2,0 0,0.333333 0,0.666667 0,1 1.3333333,0 2.666667,0 4,0 0,-0.333333 0,-0.666667 0,-1 1,0 2,0 3,0 0,-0.333333 0,-0.666667 0,-1 0.333333,0 0.666667,0 1,0 0,-0.333333 0,-0.666667 0,-1 0.333333,0 0.666667,0 1,0 0,-0.333333 0,-0.666667 0,-1 0.333333,0 0.666667,0 1,0 0,-0.666667 0,-1.333333 0,-2 0.333333,0 0.666667,0 1,0 0,-1.666667 0,-3.333333 0,-5 -0.333333,0 -0.666667,0 -1,0 0,-0.6666667 0,-1.3333333 0,-2 -0.333333,0 -0.666667,0 -1,0 0,-0.6666667 0,-1.3333333 0,-2 -0.666667,0 -1.333333,0 -2,0 0,-0.3333333 0,-0.6666667 0,-1 -2.333333,0 -4.666667,0 -7,0 z m 2,1 c 1,0 2,0 3,0 0,0.3333333 0,0.6666667 0,1 0.333333,0 0.666667,0 1,0 0,2 0,4 0,6 -1.333333,0 -2.666667,0 -4,0 0,-0.333333 0,-0.666667 0,-1 -0.3333333,0 -0.6666667,0 -1,0 0,-1.6666667 0,-3.3333333 0,-5 0.3333333,0 0.6666667,0 1,0 0,-0.3333333 0,-0.6666667 0,-1 z"
       style="fill:#c90305" />
    <rect
       id="rect3400"
       y="19"
       x="12"
       width="1"
       height="1"
       style="fill:#d33133" />
    <rect
       id="rect3402"
       y="19"
       x="13"
       width="1"
       height="1"
       style="fill:#dd6162" />
    <rect
       id="rect20640"
       y="114"
       x="82"
       width="1"
       height="1"
       style="fill:#e17172" />
    <rect
       id="rect20642"
       y="114"
       x="83"
       width="1"
       height="1"
       style="fill:#eba0a1" />
    <rect
       id="rect20644"
       y="114"
       x="84"
       width="1"
       height="1"
       style="fill:#fcefef" />
    <rect
       id="rect20802"
       y="115"
       x="73"
       width="1"
       height="1"
       style="fill:#fcefef" />
    <rect
       id="rect20804"
       y="115"
       x="74"
       width="1"
       height="1"
       style="fill:#dd6162" />
    <rect
       id="rect20982"
       y="116"
       x="73"
       width="1"
       height="1"
       style="fill:#d33133" />
    <rect
       id="rect20990"
       y="116"
       x="77"
       width="1"
       height="1"
       style="fill:#cc1214" />
    <rect
       id="rect20992"
       y="116"
       x="78"
       width="1"
       height="1"
       style="fill:#e17172" />
    <rect
       id="rect20996"
       y="116"
       x="80"
       width="1"
       height="1"
       style="fill:#da5152" />
    <rect
       id="rect21002"
       y="116"
       x="83"
       width="1"
       height="1"
       style="fill:#cc1214" />
    <rect
       id="rect21158"
       y="117"
       x="71"
       width="1"
       height="1"
       style="fill:#fcefef" />
    <rect
       id="rect21160"
       y="117"
       x="72"
       width="1"
       height="1"
       style="fill:#d33133" />
    <rect
       id="rect21168"
       y="117"
       x="76"
       width="1"
       height="1"
       style="fill:#d33133" />
    <rect
       id="rect21178"
       y="117"
       x="81"
       width="1"
       height="1"
       style="fill:#fcefef" />
    <rect
       id="rect21348"
       y="118"
       x="76"
       width="1"
       height="1"
       style="fill:#f5d0d0" />
    <rect
       id="rect21360"
       y="118"
       x="82"
       width="1"
       height="1"
       style="fill:#dd6162" />
    <rect
       id="rect21518"
       y="119"
       x="71"
       width="1"
       height="1"
       style="fill:#cc1214" />
    <rect
       id="rect21526"
       y="119"
       x="75"
       width="1"
       height="1"
       style="fill:#da5152" />
    <rect
       id="rect21532"
       y="119"
       x="78"
       width="1"
       height="1"
       style="fill:#fcefef" />
    <rect
       id="rect21696"
       y="120"
       x="70"
       width="1"
       height="1"
       style="fill:#f5d0d0" />
    <rect
       id="rect21706"
       y="120"
       x="75"
       width="1"
       height="1"
       style="fill:#e79091" />
    <rect
       id="rect21708"
       y="120"
       x="76"
       width="1"
       height="1"
       style="fill:#e79091" />
    <rect
       id="rect21710"
       y="120"
       x="77"
       width="1"
       height="1"
       style="fill:#cc1214" />
    <rect
       id="rect21722"
       y="120"
       x="83"
       width="1"
       height="1"
       style="fill:#f5d0d0" />
    <rect
       id="rect21876"
       y="121"
       x="70"
       width="1"
       height="1"
       style="fill:#eba0a1" />
    <rect
       id="rect21886"
       y="121"
       x="75"
       width="1"
       height="1"
       style="fill:#d02223" />
    <rect
       id="rect21904"
       y="121"
       x="84"
       width="1"
       height="1"
       style="fill:#eeb0b1" />
    <rect
       id="rect22068"
       y="122"
       x="76"
       width="1"
       height="1"
       style="fill:#cc1214" />
    <rect
       id="rect22084"
       y="122"
       x="84"
       width="1"
       height="1"
       style="fill:#cc1214" />
    <rect
       id="rect22086"
       y="122"
       x="85"
       width="1"
       height="1"
       style="fill:#fcefef" />
    <rect
       id="rect22256"
       y="123"
       x="80"
       width="1"
       height="1"
       style="fill:#d02223" />
    <rect
       id="rect22266"
       y="123"
       x="85"
       width="1"
       height="1"
       style="fill:#eeb0b1" />
    <rect
       id="rect22416"
       y="124"
       x="70"
       width="1"
       height="1"
       style="fill:#eeb0b1" />
    <rect
       id="rect22426"
       y="124"
       x="75"
       width="1"
       height="1"
       style="fill:#d02223" />
    <path
       style="fill:#d64143"
       d="m 10,3 c 0,0.3333333 0,0.6666667 0,1 1,0 2,0 3,0 0,-0.3333333 0,-0.6666667 0,-1 -1,0 -2,0 -3,0 z M 9,6 C 9,6.3333333 9,6.6666667 9,7 9.3333333,7 9.6666667,7 10,7 10,6.6666667 10,6.3333333 10,6 9.6666667,6 9.3333333,6 9,6 Z M 4,9 c 0,0.3333333 0,0.6666667 0,1 0.3333333,0 0.6666667,0 1,0 C 5,9.6666667 5,9.3333333 5,9 4.6666667,9 4.3333333,9 4,9 Z m 3,10 c 0,0.333333 0,0.666667 0,1 0.3333333,0 0.6666667,0 1,0 0,-0.333333 0,-0.666667 0,-1 -0.3333333,0 -0.6666667,0 -1,0 z m 70,95 c 0,0.33333 0,0.66667 0,1 1.666667,0 3.333333,0 5,0 0,-0.33333 0,-0.66667 0,-1 -1.666667,0 -3.333333,0 -5,0 z m 6,3 c 0,0.33333 0,0.66667 0,1 0.333333,0 0.666667,0 1,0 0,-0.33333 0,-0.66667 0,-1 -0.333333,0 -0.666667,0 -1,0 z m -1,3 c 0,0.33333 0,0.66667 0,1 0.333333,0 0.666667,0 1,0 0,-0.33333 0,-0.66667 0,-1 -0.333333,0 -0.666667,0 -1,0 z m -3,2 c 0,0.33333 0,0.66667 0,1 0.333333,0 0.666667,0 1,0 0,-0.33333 0,-0.66667 0,-1 -0.333333,0 -0.666667,0 -1,0 z m -4,3 c 0,0.33333 0,0.66667 0,1 0.333333,0 0.666667,0 1,0 0,-0.33333 0,-0.66667 0,-1 -0.333333,0 -0.666667,0 -1,0 z"
       id="rect22606"
       inkscape:connector-curvature="0" />
    <rect
       id="rect22778"
       y="126"
       x="71"
       width="1"
       height="1"
       style="fill:#d33133" />
    <rect
       id="rect22786"
       y="126"
       x="75"
       width="1"
       height="1"
       style="fill:#cc1214" />
    <path
       style="fill:#e48182"
       d="m 10,11 c 0,0.333333 0,0.666667 0,1 0.333333,0 0.666667,0 1,0 0,-0.333333 0,-0.666667 0,-1 -0.333333,0 -0.666667,0 -1,0 z"
       id="path4972" />
    <path
       style="fill:#e48182"
       d="m 6,13 c 0,0.333333 0,0.666667 0,1 0.3333333,0 0.6666667,0 1,0 0,-0.333333 0,-0.666667 0,-1 -0.3333333,0 -0.6666667,0 -1,0 z"
       id="path4970" />
    <path
       style="fill:#e48182"
       d="m 13,13 c 0,0.333333 0,0.666667 0,1 0.333333,0 0.666667,0 1,0 0,-0.333333 0,-0.666667 0,-1 -0.333333,0 -0.666667,0 -1,0 z"
       id="path4968" />
    <path
       style="fill:#e48182"
       d="m 9,14 c 0,0.333333 0,0.666667 0,1 0.3333333,0 0.6666667,0 1,0 0,-0.333333 0,-0.666667 0,-1 -0.3333333,0 -0.6666667,0 -1,0 z"
       id="path4966" />
    <path
       style="fill:#e48182"
       d="m 11,17 c 0,0.333333 0,0.666667 0,1 0.333333,0 0.666667,0 1,0 0,-0.333333 0,-0.666667 0,-1 -0.333333,0 -0.666667,0 -1,0 z"
       id="path4964" />
    <path
       style="fill:#e48182"
       d="m 76,114 c 0,0.33333 0,0.66667 0,1 0.333333,0 0.666667,0 1,0 0,-0.33333 0,-0.66667 0,-1 -0.333333,0 -0.666667,0 -1,0 z"
       id="path4962" />
    <path
       style="fill:#e48182"
       d="m 79,116 c 0,0.33333 0,0.66667 0,1 0.333333,0 0.666667,0 1,0 0,-0.33333 0,-0.66667 0,-1 -0.333333,0 -0.666667,0 -1,0 z"
       id="path4960" />
    <path
       style="fill:#e48182"
       d="m 71,118 c 0,0.33333 0,0.66667 0,1 0.333333,0 0.666667,0 1,0 0,-0.33333 0,-0.66667 0,-1 -0.333333,0 -0.666667,0 -1,0 z"
       id="path4958" />
    <path
       style="fill:#e48182"
       d="m 83,118 c 0,0.33333 0,0.66667 0,1 0.333333,0 0.666667,0 1,0 0,-0.33333 0,-0.66667 0,-1 -0.333333,0 -0.666667,0 -1,0 z"
       id="path4956" />
    <path
       style="fill:#e48182"
       d="m 70,122 c 0,0.66667 0,1.33333 0,2 0.333333,0 0.666667,0 1,0 0,-0.66667 0,-1.33333 0,-2 -0.333333,0 -0.666667,0 -1,0 z"
       id="path4954" />
    <path
       style="fill:#e48182"
       d="m 77,122 c 0,0.33333 0,0.66667 0,1 0.333333,0 0.666667,0 1,0 0,-0.33333 0,-0.66667 0,-1 -0.333333,0 -0.666667,0 -1,0 z"
       id="path4952" />
    <path
       style="fill:#e48182"
       d="m 80,124 c 0,1 0,2 0,3 0.333333,0 0.666667,0 1,0 0,-1 0,-2 0,-3 -0.333333,0 -0.666667,0 -1,0 z"
       id="path4950" />
    <path
       style="fill:#e48182"
       d="m 85,124 c 0,0.66667 0,1.33333 0,2 0.333333,0 0.666667,0 1,0 0,-0.66667 0,-1.33333 0,-2 -0.333333,0 -0.666667,0 -1,0 z"
       id="rect22796" />
    <rect
       id="rect22806"
       y="126"
       x="85"
       width="1"
       height="1"
       style="fill:#eeb0b1" />
    <rect
       id="rect22958"
       y="127"
       x="71"
       width="1"
       height="1"
       style="fill:#eeb0b1" />
    <rect
       id="rect22976"
       y="127"
       x="80"
       width="1"
       height="1"
       style="fill:#d02223" />
    <rect
       id="rect22984"
       y="127"
       x="84"
       width="1"
       height="1"
       style="fill:#cc1214" />
    <rect
       id="rect22986"
       y="127"
       x="85"
       width="1"
       height="1"
       style="fill:#fcefef" />
    <rect
       id="rect23140"
       y="128"
       x="72"
       width="1"
       height="1"
       style="fill:#dd6162" />
    <rect
       id="rect23150"
       y="128"
       x="77"
       width="1"
       height="1"
       style="fill:#e17172" />
    <rect
       id="rect23152"
       y="128"
       x="78"
       width="1"
       height="1"
       style="fill:#eba0a1" />
    <rect
       id="rect23154"
       y="128"
       x="79"
       width="1"
       height="1"
       style="fill:#d02223" />
    <rect
       id="rect23164"
       y="128"
       x="84"
       width="1"
       height="1"
       style="fill:#eba0a1" />
    <rect
       id="rect23322"
       y="129"
       x="73"
       width="1"
       height="1"
       style="fill:#e17172" />
    <rect
       id="rect23340"
       y="129"
       x="82"
       width="1"
       height="1"
       style="fill:#cc1214" />
    <rect
       id="rect23342"
       y="129"
       x="83"
       width="1"
       height="1"
       style="fill:#eba0a1" />
    <path
       style="fill:#f1c0c0"
       d="m 16,4 c 0,0.3333333 0,0.6666667 0,1 0.333333,0 0.666667,0 1,0 0,-0.3333333 0,-0.6666667 0,-1 -0.333333,0 -0.666667,0 -1,0 z"
       id="path4926" />
    <path
       style="fill:#f1c0c0"
       d="m 9,8 c 0,0.6666667 0,1.3333333 0,2 0.3333333,0 0.6666667,0 1,0 C 10,9.3333333 10,8.6666667 10,8 9.6666667,8 9.3333333,8 9,8 Z"
       id="path4924" />
    <path
       style="fill:#f1c0c0"
       d="m 19,10 c 0,1 0,2 0,3 0.333333,0 0.666667,0 1,0 0,-1 0,-2 0,-3 -0.333333,0 -0.666667,0 -1,0 z"
       id="path4922" />
    <path
       style="fill:#f1c0c0"
       d="m 4,11 c 0,0.333333 0,0.666667 0,1 0.3333333,0 0.6666667,0 1,0 0,-0.333333 0,-0.666667 0,-1 -0.3333333,0 -0.6666667,0 -1,0 z"
       id="path4920" />
    <path
       style="fill:#f1c0c0"
       d="m 11,14 c 0,0.333333 0,0.666667 0,1 0.333333,0 0.666667,0 1,0 0,-0.333333 0,-0.666667 0,-1 -0.333333,0 -0.666667,0 -1,0 z"
       id="path4918" />
    <path
       style="fill:#f1c0c0"
       d="m 13,15 c 0,0.333333 0,0.666667 0,1 0.333333,0 0.666667,0 1,0 0,-0.333333 0,-0.666667 0,-1 -0.333333,0 -0.666667,0 -1,0 z"
       id="path4916" />
    <path
       style="fill:#f1c0c0"
       d="m 10,17 c 0,0.333333 0,0.666667 0,1 0.333333,0 0.666667,0 1,0 0,-0.333333 0,-0.666667 0,-1 -0.333333,0 -0.666667,0 -1,0 z"
       id="path4914" />
    <path
       style="fill:#f1c0c0"
       d="m 5,18 c 0,0.666667 0,1.333333 0,2 0.3333333,0 0.6666667,0 1,0 0,-0.666667 0,-1.333333 0,-2 -0.3333333,0 -0.6666667,0 -1,0 z"
       id="path4912" />
    <path
       style="fill:#f1c0c0"
       d="m 14,19 c 0,0.333333 0,0.666667 0,1 0.333333,0 0.666667,0 1,0 0,-0.333333 0,-0.666667 0,-1 -0.333333,0 -0.666667,0 -1,0 z"
       id="path4910" />
    <path
       style="fill:#f1c0c0"
       d="m 79,119 c 0,0.33333 0,0.66667 0,1 0.666667,0 1.333333,0 2,0 0,-0.33333 0,-0.66667 0,-1 -0.666667,0 -1.333333,0 -2,0 z"
       id="path4908" />
    <path
       style="fill:#f1c0c0"
       d="m 78,122 c 0,0.33333 0,0.66667 0,1 0.333333,0 0.666667,0 1,0 0,-0.33333 0,-0.66667 0,-1 -0.333333,0 -0.666667,0 -1,0 z"
       id="path4906" />
    <path
       style="fill:#f1c0c0"
       d="m 76,123 c 0,0.33333 0,0.66667 0,1 0.333333,0 0.666667,0 1,0 0,-0.33333 0,-0.66667 0,-1 -0.333333,0 -0.666667,0 -1,0 z"
       id="path4904" />
    <path
       style="fill:#f1c0c0"
       d="m 76,127 c 0,0.33333 0,0.66667 0,1 0.333333,0 0.666667,0 1,0 0,-0.33333 0,-0.66667 0,-1 -0.333333,0 -0.666667,0 -1,0 z"
       id="path4902" />
    <path
       style="fill:#f1c0c0"
       d="m 74,130 c 0,0.33333 0,0.66667 0,1 0.333333,0 0.666667,0 1,0 0,-0.33333 0,-0.66667 0,-1 -0.333333,0 -0.666667,0 -1,0 z"
       id="rect23502" />
    <rect
       id="rect23504"
       y="130"
       x="75"
       width="1"
       height="1"
       style="fill:#dd6162" />
    <rect
       id="rect23506"
       y="130"
       x="76"
       width="1"
       height="1"
       style="fill:#d02223" />
    <path
       inkscape:connector-curvature="0"
       id="rect23512"
       d="m 75,115 c 0,0.33333 0,0.66667 0,1 -0.333333,0 -0.666667,0 -1,0 0,0.33333 0,0.66667 0,1 -0.333333,0 -0.666667,0 -1,0 0,0.33333 0,0.66667 0,1 -0.333333,0 -0.666667,0 -1,0 0,0.66667 0,1.33333 0,2 -0.333333,0 -0.666667,0 -1,0 0,2 0,4 0,6 0.333333,0 0.666667,0 1,0 0,0.66667 0,1.33333 0,2 0.333333,0 0.666667,0 1,0 0,0.33333 0,0.66667 0,1 0.333333,0 0.666667,0 1,0 0,0.33333 0,0.66667 0,1 1,0 2,0 3,0 0,0.33333 0,0.66667 0,1 1,0 2,0 3,0 0,-0.33333 0,-0.66667 0,-1 0.666667,0 1.333333,0 2,0 0,-0.33333 0,-0.66667 0,-1 0.666667,0 1.333333,0 2,0 0,-0.66667 0,-1.33333 0,-2 0.333333,0 0.666667,0 1,0 0,-1.33333 0,-2.66667 0,-4 -0.333333,0 -0.666667,0 -1,0 0,-0.66667 0,-1.33333 0,-2 -0.666667,0 -1.333333,0 -2,0 0,-0.33333 0,-0.66667 0,-1 -1.333333,0 -2.666667,0 -4,0 0,0.33333 0,0.66667 0,1 -0.666667,0 -1.333333,0 -2,0 0,0.33333 0,0.66667 0,1 1.333333,0 2.666667,0 4,0 0,0.33333 0,0.66667 0,1 0.333333,0 0.666667,0 1,0 0,1.66667 0,3.33333 0,5 -0.333333,0 -0.666667,0 -1,0 0,0.33333 0,0.66667 0,1 -1,0 -2,0 -3,0 0,-0.33333 0,-0.66667 0,-1 -0.333333,0 -0.666667,0 -1,0 0,-0.33333 0,-0.66667 0,-1 -0.333333,0 -0.666667,0 -1,0 0,-1 0,-2 0,-3 0.333333,0 0.666667,0 1,0 0,-0.66667 0,-1.33333 0,-2 -0.333333,0 -0.666667,0 -1,0 0,-1 0,-2 0,-3 0.333333,0 0.666667,0 1,0 0,-0.66667 0,-1.33333 0,-2 0.333333,0 0.666667,0 1,0 0,-0.33333 0,-0.66667 0,-1 1.333333,0 2.666667,0 4,0 0,0.33333 0,0.66667 0,1 0.333333,0 0.666667,0 1,0 0,0.33333 0,0.66667 0,1 0.333333,0 0.666667,0 1,0 0,-0.66667 0,-1.33333 0,-2 0.333333,0 0.666667,0 1,0 0,-0.33333 0,-0.66667 0,-1 -3,0 -6,0 -9,0 z"
       style="fill:#c90305" />
    <rect
       id="rect23514"
       y="130"
       x="80"
       width="1"
       height="1"
       style="fill:#d33133" />
    <rect
       id="rect23516"
       y="130"
       x="81"
       width="1"
       height="1"
       style="fill:#e17172" />
    <path
       style="fill:#f8dfe0"
       d="M 4,6 C 4,6.3333333 4,6.6666667 4,7 4.3333333,7 4.6666667,7 5,7 5,6.6666667 5,6.3333333 5,6 4.6666667,6 4.3333333,6 4,6 Z"
       id="path5010" />
    <path
       style="fill:#f8dfe0"
       d="m 13,7 c 0,0.3333333 0,0.6666667 0,1 0.333333,0 0.666667,0 1,0 0,-0.3333333 0,-0.6666667 0,-1 -0.333333,0 -0.666667,0 -1,0 z"
       id="path5008" />
    <path
       style="fill:#f8dfe0"
       d="m 19,9 c 0,0.3333333 0,0.6666667 0,1 0.333333,0 0.666667,0 1,0 0,-0.3333333 0,-0.6666667 0,-1 -0.333333,0 -0.666667,0 -1,0 z"
       id="path5006" />
    <path
       style="fill:#f8dfe0"
       d="m 6,14 c 0,0.333333 0,0.666667 0,1 0.3333333,0 0.6666667,0 1,0 0,-0.333333 0,-0.666667 0,-1 -0.3333333,0 -0.6666667,0 -1,0 z"
       id="path5004" />
    <path
       style="fill:#f8dfe0"
       d="m 75,114 c 0,0.33333 0,0.66667 0,1 0.333333,0 0.666667,0 1,0 0,-0.33333 0,-0.66667 0,-1 -0.333333,0 -0.666667,0 -1,0 z"
       id="path5002" />
    <path
       style="fill:#f8dfe0"
       d="m 84,115 c 0,0.33333 0,0.66667 0,1 0.333333,0 0.666667,0 1,0 0,-0.33333 0,-0.66667 0,-1 -0.333333,0 -0.666667,0 -1,0 z"
       id="path5000" />
    <path
       style="fill:#f8dfe0"
       d="m 72,116 c 0,0.33333 0,0.66667 0,1 0.333333,0 0.666667,0 1,0 0,-0.33333 0,-0.66667 0,-1 -0.333333,0 -0.666667,0 -1,0 z"
       id="path4998" />
    <path
       style="fill:#f8dfe0"
       d="m 77,117 c 0,0.33333 0,0.66667 0,1 0.333333,0 0.666667,0 1,0 0,-0.33333 0,-0.66667 0,-1 -0.333333,0 -0.666667,0 -1,0 z"
       id="path4996" />
    <path
       style="fill:#f8dfe0"
       d="m 81,119 c 0,0.33333 0,0.66667 0,1 1,0 2,0 3,0 0,-0.33333 0,-0.66667 0,-1 -1,0 -2,0 -3,0 z"
       id="path4994" />
    <path
       style="fill:#f8dfe0"
       d="m 70,125 c 0,0.33333 0,0.66667 0,1 0.333333,0 0.666667,0 1,0 0,-0.33333 0,-0.66667 0,-1 -0.333333,0 -0.666667,0 -1,0 z"
       id="path4992" />
    <path
       style="fill:#f8dfe0"
       d="m 82,130 c 0,0.33333 0,0.66667 0,1 0.333333,0 0.666667,0 1,0 0,-0.33333 0,-0.66667 0,-1 -0.333333,0 -0.666667,0 -1,0 z"
       id="rect23518" />
  </g>
</svg>
