<?xml version="1.0" encoding="UTF-8" standalone="no"?>
<svg
   xmlns:dc="http://purl.org/dc/elements/1.1/"
   xmlns:cc="http://creativecommons.org/ns#"
   xmlns:rdf="http://www.w3.org/1999/02/22-rdf-syntax-ns#"
   xmlns:svg="http://www.w3.org/2000/svg"
   xmlns="http://www.w3.org/2000/svg"
   xmlns:sodipodi="http://sodipodi.sourceforge.net/DTD/sodipodi-0.dtd"
   xmlns:inkscape="http://www.inkscape.org/namespaces/inkscape"
   height="135px"
   version="1.1"
   width="90px"
   id="svg24208"
   sodipodi:docname="10-black.svg"
   inkscape:version="0.92.2 (5c3e80d, 2017-08-06)">
  <metadata
     id="metadata24212">
    <rdf:RDF>
      <cc:Work
         rdf:about="">
        <dc:format>image/svg+xml</dc:format>
        <dc:type
           rdf:resource="http://purl.org/dc/dcmitype/StillImage" />
        <dc:title></dc:title>
      </cc:Work>
    </rdf:RDF>
  </metadata>
  <sodipodi:namedview
     pagecolor="#ffffff"
     bordercolor="#666666"
     borderopacity="1"
     objecttolerance="10"
     gridtolerance="10"
     guidetolerance="10"
     inkscape:pageopacity="0"
     inkscape:pageshadow="2"
     inkscape:window-width="1920"
     inkscape:window-height="1025"
     id="namedview24210"
     showgrid="false"
     inkscape:zoom="27.97037"
     inkscape:cx="86.116805"
     inkscape:cy="10.633073"
     inkscape:window-x="-8"
     inkscape:window-y="-8"
     inkscape:window-maximized="1"
     inkscape:current-layer="svg24208" />
  <defs
     id="defs2" />
  <g
     id="g6084">
    <rect
       id="rect518"
       y="3"
       x="8"
       width="1"
       height="1"
       style="fill:#524f50" />
    <rect
       id="rect530"
       y="3"
       x="14"
       width="1"
       height="1"
       style="fill:#d0cfcf" />
    <rect
       id="rect532"
       y="3"
       x="15"
       width="1"
       height="1"
       style="fill:#524f50" />
    <rect
       id="rect536"
       y="3"
       x="17"
       width="1"
       height="1"
       style="fill:#524f50" />
    <rect
       id="rect538"
       y="3"
       x="18"
       width="1"
       height="1"
       style="fill:#d0cfcf" />
    <rect
       id="rect690"
       y="4"
       x="6"
       width="1"
       height="1"
       style="fill:#a19f9f" />
    <rect
       id="rect692"
       y="4"
       x="7"
       width="1"
       height="1"
       style="fill:#140f10" />
    <rect
       id="rect704"
       y="4"
       x="13"
       width="1"
       height="1"
       style="fill:#d0cfcf" />
    <rect
       id="rect706"
       y="4"
       x="14"
       width="1"
       height="1"
       style="fill:#140f10" />
    <rect
       id="rect716"
       y="4"
       x="19"
       width="1"
       height="1"
       style="fill:#d0cfcf" />
    <rect
       id="rect862"
       y="5"
       x="3"
       width="1"
       height="1"
       style="fill:#d0cfcf" />
    <rect
       id="rect864"
       y="5"
       x="4"
       width="1"
       height="1"
       style="fill:#726f70" />
    <rect
       id="rect866"
       y="5"
       x="5"
       width="1"
       height="1"
       style="fill:#231f20" />
    <rect
       id="rect888"
       y="5"
       x="16"
       width="1"
       height="1"
       style="fill:#726f70" />
    <rect
       id="rect890"
       y="5"
       x="17"
       width="1"
       height="1"
       style="fill:#140f10" />
    <rect
       id="rect894"
       y="5"
       x="19"
       width="1"
       height="1"
       style="fill:#231f20" />
    <rect
       id="rect1042"
       y="6"
       x="3"
       width="1"
       height="1"
       style="fill:#524f50" />
    <rect
       id="rect1044"
       y="6"
       x="4"
       width="1"
       height="1"
       style="fill:#140f10" />
    <rect
       id="rect1060"
       y="6"
       x="12"
       width="1"
       height="1"
       style="fill:#d0cfcf" />
    <rect
       id="rect1066"
       y="6"
       x="15"
       width="1"
       height="1"
       style="fill:#625f60" />
    <rect
       id="rect1070"
       y="6"
       x="17"
       width="1"
       height="1"
       style="fill:#726f70" />
    <rect
       id="rect1076"
       y="6"
       x="20"
       width="1"
       height="1"
       style="fill:#b1afaf" />
    <rect
       id="rect1226"
       y="7"
       x="5"
       width="1"
       height="1"
       style="fill:#726f70" />
    <rect
       id="rect1246"
       y="7"
       x="15"
       width="1"
       height="1"
       style="fill:#a19f9f" />
    <rect
       id="rect1250"
       y="7"
       x="17"
       width="1"
       height="1"
       style="fill:#b1afaf" />
    <rect
       id="rect1256"
       y="7"
       x="20"
       width="1"
       height="1"
       style="fill:#726f70" />
    <rect
       id="rect1600"
       y="9"
       x="12"
       width="1"
       height="1"
       style="fill:#231f20" />
    <rect
       id="rect1610"
       y="9"
       x="17"
       width="1"
       height="1"
       style="fill:#efefef" />
    <rect
       id="rect2320"
       y="13"
       x="12"
       width="1"
       height="1"
       style="fill:#140f10" />
    <rect
       id="rect2516"
       y="14"
       x="20"
       width="1"
       height="1"
       style="fill:#332f30" />
    <rect
       id="rect2680"
       y="15"
       x="12"
       width="1"
       height="1"
       style="fill:#726f70" />
    <rect
       id="rect2686"
       y="15"
       x="15"
       width="1"
       height="1"
       style="fill:#b1afaf" />
    <rect
       id="rect2696"
       y="15"
       x="20"
       width="1"
       height="1"
       style="fill:#625f60" />
    <rect
       id="rect2860"
       y="16"
       x="12"
       width="1"
       height="1"
       style="fill:#b1afaf" />
    <rect
       id="rect2866"
       y="16"
       x="15"
       width="1"
       height="1"
       style="fill:#726f70" />
    <rect
       id="rect2876"
       y="16"
       x="20"
       width="1"
       height="1"
       style="fill:#a19f9f" />
    <rect
       id="rect3042"
       y="17"
       x="13"
       width="1"
       height="1"
       style="fill:#231f20" />
    <rect
       id="rect3046"
       y="17"
       x="15"
       width="1"
       height="1"
       style="fill:#140f10" />
    <rect
       id="rect3048"
       y="17"
       x="16"
       width="1"
       height="1"
       style="fill:#b1afaf" />
    <rect
       id="rect3050"
       y="17"
       x="17"
       width="1"
       height="1"
       style="fill:#231f20" />
    <rect
       id="rect3054"
       y="17"
       x="19"
       width="1"
       height="1"
       style="fill:#140f10" />
    <rect
       id="rect3204"
       y="18"
       x="4"
       width="1"
       height="1"
       style="fill:#726f70" />
    <rect
       id="rect3206"
       y="18"
       x="5"
       width="1"
       height="1"
       style="fill:#140f10" />
    <rect
       id="rect3222"
       y="18"
       x="13"
       width="1"
       height="1"
       style="fill:#b1afaf" />
    <rect
       id="rect3234"
       y="18"
       x="19"
       width="1"
       height="1"
       style="fill:#b1afaf" />
    <rect
       id="rect3382"
       y="19"
       x="3"
       width="1"
       height="1"
       style="fill:#a19f9f" />
    <rect
       id="rect3404"
       y="19"
       x="14"
       width="1"
       height="1"
       style="fill:#a19f9f" />
    <rect
       id="rect3406"
       y="19"
       x="15"
       width="1"
       height="1"
       style="fill:#140f10" />
    <path
       inkscape:connector-curvature="0"
       id="rect3408"
       d="m 15,4 c 0,0.3333333 0,0.6666667 0,1 -0.333333,0 -0.666667,0 -1,0 0,0.3333333 0,0.6666667 0,1 -0.333333,0 -0.666667,0 -1,0 0,1.3333333 0,2.6666667 0,4 -0.333333,0 -0.666667,0 -1,0 0,1 0,2 0,3 0.333333,0 0.666667,0 1,0 0,1.333333 0,2.666667 0,4 0.333333,0 0.666667,0 1,0 0,0.666667 0,1.333333 0,2 0.666667,0 1.333333,0 2,0 0,0.333333 0,0.666667 0,1 0.333333,0 0.666667,0 1,0 0,-0.333333 0,-0.666667 0,-1 0.666667,0 1.333333,0 2,0 0,-0.666667 0,-1.333333 0,-2 0.333333,0 0.666667,0 1,0 0,-1 0,-2 0,-3 0.333333,0 0.666667,0 1,0 0,-1.666667 0,-3.333333 0,-5 -0.333333,0 -0.666667,0 -1,0 0,-1 0,-2 0,-3 -0.333333,0 -0.666667,0 -1,0 0,-0.6666667 0,-1.3333333 0,-2 -1.333333,0 -2.666667,0 -4,0 z m 1,1 c 0.666667,0 1.333333,0 2,0 0,4.3333333 0,8.666667 0,13 -1,0 -2,0 -3,0 0,-4 0,-8 0,-12 0.333333,0 0.666667,0 1,0 0,-0.3333333 0,-0.6666667 0,-1 z"
       style="fill:#050001" />
    <rect
       id="rect3410"
       y="19"
       x="17"
       width="1"
       height="1"
       style="fill:#140f10" />
    <rect
       id="rect3412"
       y="19"
       x="18"
       width="1"
       height="1"
       style="fill:#a19f9f" />
    <rect
       id="rect20618"
       y="114"
       x="71"
       width="1"
       height="1"
       style="fill:#b1afaf" />
    <rect
       id="rect20620"
       y="114"
       x="72"
       width="1"
       height="1"
       style="fill:#332f30" />
    <rect
       id="rect20622"
       y="114"
       x="73"
       width="1"
       height="1"
       style="fill:#140f10" />
    <rect
       id="rect20624"
       y="114"
       x="74"
       width="1"
       height="1"
       style="fill:#524f50" />
    <rect
       id="rect20796"
       y="115"
       x="70"
       width="1"
       height="1"
       style="fill:#a19f9f" />
    <rect
       id="rect20806"
       y="115"
       x="75"
       width="1"
       height="1"
       style="fill:#140f10" />
    <rect
       id="rect20808"
       y="115"
       x="76"
       width="1"
       height="1"
       style="fill:#efefef" />
    <rect
       id="rect20816"
       y="115"
       x="80"
       width="1"
       height="1"
       style="fill:#140f10" />
    <rect
       id="rect20824"
       y="115"
       x="84"
       width="1"
       height="1"
       style="fill:#140f10" />
    <rect
       id="rect20826"
       y="115"
       x="85"
       width="1"
       height="1"
       style="fill:#524f50" />
    <rect
       id="rect20974"
       y="116"
       x="69"
       width="1"
       height="1"
       style="fill:#efefef" />
    <rect
       id="rect20976"
       y="116"
       x="70"
       width="1"
       height="1"
       style="fill:#140f10" />
    <rect
       id="rect20980"
       y="116"
       x="72"
       width="1"
       height="1"
       style="fill:#332f30" />
    <rect
       id="rect20982"
       y="116"
       x="73"
       width="1"
       height="1"
       style="fill:#726f70" />
    <rect
       id="rect20988"
       y="116"
       x="76"
       width="1"
       height="1"
       style="fill:#625f60" />
    <rect
       id="rect21004"
       y="116"
       x="84"
       width="1"
       height="1"
       style="fill:#b1afaf" />
    <rect
       id="rect21154"
       y="117"
       x="69"
       width="1"
       height="1"
       style="fill:#918f8f" />
    <rect
       id="rect21160"
       y="117"
       x="72"
       width="1"
       height="1"
       style="fill:#a19f9f" />
    <rect
       id="rect21164"
       y="117"
       x="74"
       width="1"
       height="1"
       style="fill:#332f30" />
    <rect
       id="rect21170"
       y="117"
       x="77"
       width="1"
       height="1"
       style="fill:#efefef" />
    <rect
       id="rect21176"
       y="117"
       x="80"
       width="1"
       height="1"
       style="fill:#efefef" />
    <rect
       id="rect21184"
       y="117"
       x="84"
       width="1"
       height="1"
       style="fill:#d0cfcf" />
    <rect
       id="rect21344"
       y="118"
       x="74"
       width="1"
       height="1"
       style="fill:#726f70" />
    <rect
       id="rect21350"
       y="118"
       x="77"
       width="1"
       height="1"
       style="fill:#a19f9f" />
    <rect
       id="rect21692"
       y="120"
       x="68"
       width="1"
       height="1"
       style="fill:#efefef" />
    <rect
       id="rect21704"
       y="120"
       x="74"
       width="1"
       height="1"
       style="fill:#b1afaf" />
    <rect
       id="rect22424"
       y="124"
       x="74"
       width="1"
       height="1"
       style="fill:#b1afaf" />
    <rect
       id="rect22610"
       y="125"
       x="77"
       width="1"
       height="1"
       style="fill:#726f70" />
    <rect
       id="rect22624"
       y="125"
       x="84"
       width="1"
       height="1"
       style="fill:#efefef" />
    <rect
       id="rect22774"
       y="126"
       x="69"
       width="1"
       height="1"
       style="fill:#332f30" />
    <rect
       id="rect22790"
       y="126"
       x="77"
       width="1"
       height="1"
       style="fill:#a19f9f" />
    <path
       style="fill:#c0bfbf"
       d="m 5,8 c 0,3 0,6 0,9 0.3333333,0 0.6666667,0 1,0 C 6,14 6,11 6,8 5.6666667,8 5.3333333,8 5,8 Z"
       id="path6133" />
    <path
       style="fill:#c0bfbf"
       d="m 15,8 c 0,2.333333 0,4.666667 0,7 0.333333,0 0.666667,0 1,0 0,-2.333333 0,-4.666667 0,-7 -0.333333,0 -0.666667,0 -1,0 z"
       id="path6131" />
    <path
       style="fill:#c0bfbf"
       d="m 17,8 c 0,0.3333333 0,0.6666667 0,1 0.333333,0 0.666667,0 1,0 0,-0.3333333 0,-0.6666667 0,-1 -0.333333,0 -0.666667,0 -1,0 z"
       id="path6129" />
    <path
       style="fill:#c0bfbf"
       d="m 17,14 c 0,0.666667 0,1.333333 0,2 0.333333,0 0.666667,0 1,0 0,-0.666667 0,-1.333333 0,-2 -0.333333,0 -0.666667,0 -1,0 z"
       id="path6127" />
    <path
       style="fill:#c0bfbf"
       d="m 3,18 c 0,0.333333 0,0.666667 0,1 0.3333333,0 0.6666667,0 1,0 0,-0.333333 0,-0.666667 0,-1 -0.3333333,0 -0.6666667,0 -1,0 z"
       id="path6125" />
    <path
       style="fill:#c0bfbf"
       d="m 80,116 c 0,0.33333 0,0.66667 0,1 0.333333,0 0.666667,0 1,0 0,-0.33333 0,-0.66667 0,-1 -0.333333,0 -0.666667,0 -1,0 z"
       id="path6123" />
    <path
       style="fill:#c0bfbf"
       d="m 68,121 c 0,1 0,2 0,3 0.333333,0 0.666667,0 1,0 0,-1 0,-2 0,-3 -0.333333,0 -0.666667,0 -1,0 z"
       id="path6121" />
    <path
       style="fill:#c0bfbf"
       d="m 74,121 c 0,1 0,2 0,3 0.333333,0 0.666667,0 1,0 0,-1 0,-2 0,-3 -0.333333,0 -0.666667,0 -1,0 z"
       id="path6119" />
    <path
       style="fill:#c0bfbf"
       d="m 84,126 c 0,0.33333 0,0.66667 0,1 0.333333,0 0.666667,0 1,0 0,-0.33333 0,-0.66667 0,-1 -0.333333,0 -0.666667,0 -1,0 z"
       id="rect22804" />
    <rect
       id="rect22954"
       y="127"
       x="69"
       width="1"
       height="1"
       style="fill:#726f70" />
    <rect
       id="rect22960"
       y="127"
       x="72"
       width="1"
       height="1"
       style="fill:#b1afaf" />
    <rect
       id="rect22964"
       y="127"
       x="74"
       width="1"
       height="1"
       style="fill:#332f30" />
    <path
       style="fill:#433f40"
       d="m 16,3 c 0,0.3333333 0,0.6666667 0,1 0.333333,0 0.666667,0 1,0 0,-0.3333333 0,-0.6666667 0,-1 -0.333333,0 -0.666667,0 -1,0 z"
       id="path6177" />
    <path
       style="fill:#433f40"
       d="m 13,5 c 0,0.3333333 0,0.6666667 0,1 0.333333,0 0.666667,0 1,0 0,-0.3333333 0,-0.6666667 0,-1 -0.333333,0 -0.666667,0 -1,0 z"
       id="path6175" />
    <path
       style="fill:#433f40"
       d="m 12,8 c 0,0.3333333 0,0.6666667 0,1 0.333333,0 0.666667,0 1,0 0,-0.3333333 0,-0.6666667 0,-1 -0.333333,0 -0.666667,0 -1,0 z"
       id="path6173" />
    <path
       style="fill:#433f40"
       d="m 20,8 c 0,0.3333333 0,0.6666667 0,1 0.333333,0 0.666667,0 1,0 0,-0.3333333 0,-0.6666667 0,-1 -0.333333,0 -0.666667,0 -1,0 z"
       id="path6171" />
    <path
       style="fill:#433f40"
       d="m 12,14 c 0,0.333333 0,0.666667 0,1 0.333333,0 0.666667,0 1,0 0,-0.333333 0,-0.666667 0,-1 -0.333333,0 -0.666667,0 -1,0 z"
       id="path6169" />
    <path
       style="fill:#433f40"
       d="m 9,18 c 0,0.333333 0,0.666667 0,1 -1.6666667,0 -3.3333333,0 -5,0 0,0.333333 0,0.666667 0,1 2.3333333,0 4.6666667,0 7,0 0,-0.333333 0,-0.666667 0,-1 -0.333333,0 -0.666667,0 -1,0 0,-0.333333 0,-0.666667 0,-1 -0.3333333,0 -0.6666667,0 -1,0 z"
       id="path6167" />
    <path
       style="fill:#433f40"
       d="m 79,115 c 0,0.33333 0,0.66667 0,1 0.333333,0 0.666667,0 1,0 0,-0.33333 0,-0.66667 0,-1 -0.333333,0 -0.666667,0 -1,0 z"
       id="path6165" />
    <path
       style="fill:#433f40"
       d="m 69,118 c 0,0.33333 0,0.66667 0,1 0.333333,0 0.666667,0 1,0 0,-0.33333 0,-0.66667 0,-1 -0.333333,0 -0.666667,0 -1,0 z"
       id="path6163" />
    <path
       style="fill:#433f40"
       d="m 77,120 c 0,1.66667 0,3.33333 0,5 0.333333,0 0.666667,0 1,0 0,-1.66667 0,-3.33333 0,-5 -0.333333,0 -0.666667,0 -1,0 z"
       id="path6161" />
    <path
       style="fill:#433f40"
       d="m 85,127 c 0,0.33333 0,0.66667 0,1 0.333333,0 0.666667,0 1,0 0,-0.33333 0,-0.66667 0,-1 -0.333333,0 -0.666667,0 -1,0 z"
       id="rect22986" />
    <rect
       id="rect22988"
       y="127"
       x="86"
       width="1"
       height="1"
       style="fill:#a19f9f" />
    <rect
       id="rect23140"
       y="128"
       x="72"
       width="1"
       height="1"
       style="fill:#332f30" />
    <rect
       id="rect23142"
       y="128"
       x="73"
       width="1"
       height="1"
       style="fill:#918f8f" />
    <rect
       id="rect23148"
       y="128"
       x="76"
       width="1"
       height="1"
       style="fill:#625f60" />
    <rect
       id="rect23164"
       y="128"
       x="84"
       width="1"
       height="1"
       style="fill:#140f10" />
    <rect
       id="rect23166"
       y="128"
       x="85"
       width="1"
       height="1"
       style="fill:#625f60" />
    <rect
       id="rect23168"
       y="128"
       x="86"
       width="1"
       height="1"
       style="fill:#d0cfcf" />
    <rect
       id="rect23326"
       y="129"
       x="75"
       width="1"
       height="1"
       style="fill:#140f10" />
    <path
       id="path5901"
       d="M 8,4 C 8,4.3333333 8,4.6666667 8,5 7.3333333,5 6.6666667,5 6,5 6,5.3333333 6,5.6666667 6,6 5.6666667,6 5.3333333,6 5,6 c 0,0.3333333 0,0.6666667 0,1 0.3333333,0 0.6666667,0 1,0 0,4 0,8 0,12 1,0 2,0 3,0 C 9,14 9,9 9,4 8.6666667,4 8.3333333,4 8,4 Z"
       style="fill:#050001" />
    <path
       id="rect23338"
       d="m 81,115 c 0,5 0,10 0,15 0.333333,0 0.666667,0 1,0 0,-0.33333 0,-0.66667 0,-1 0.666667,0 1.333333,0 2,0 0,-0.33333 0,-0.66667 0,-1 0.333333,0 0.666667,0 1,0 0,-0.33333 0,-0.66667 0,-1 -0.333333,0 -0.666667,0 -1,0 0,-4 0,-8 0,-12 -1,0 -2,0 -3,0 z"
       style="fill:#050001" />
    <rect
       id="rect23340"
       y="129"
       x="82"
       width="1"
       height="1"
       style="fill:#140f10" />
    <rect
       id="rect23342"
       y="129"
       x="83"
       width="1"
       height="1"
       style="fill:#918f8f" />
    <path
       style="fill:#827f80"
       d="m 12,7 c 0,0.3333333 0,0.6666667 0,1 0.333333,0 0.666667,0 1,0 0,-0.3333333 0,-0.6666667 0,-1 -0.333333,0 -0.666667,0 -1,0 z"
       id="path6217" />
    <path
       style="fill:#827f80"
       d="m 17,16 c 0,0.333333 0,0.666667 0,1 0.333333,0 0.666667,0 1,0 0,-0.333333 0,-0.666667 0,-1 -0.333333,0 -0.666667,0 -1,0 z"
       id="path6215" />
    <path
       style="fill:#827f80"
       d="m 5,17 c 0,0.333333 0,0.666667 0,1 0.3333333,0 0.6666667,0 1,0 0,-0.333333 0,-0.666667 0,-1 -0.3333333,0 -0.6666667,0 -1,0 z"
       id="path6213" />
    <path
       style="fill:#827f80"
       d="m 10,18 c 0,0.333333 0,0.666667 0,1 0.333333,0 0.666667,0 1,0 0,-0.333333 0,-0.666667 0,-1 -0.333333,0 -0.666667,0 -1,0 z"
       id="path6211" />
    <path
       style="fill:#827f80"
       d="m 79,114 c 0,0.33333 0,0.66667 0,1 2.333333,0 4.666667,0 7,0 0,-0.33333 0,-0.66667 0,-1 -2.333333,0 -4.666667,0 -7,0 z"
       id="path6209" />
    <path
       style="fill:#827f80"
       d="m 74,119 c 0,0.33333 0,0.66667 0,1 0.333333,0 0.666667,0 1,0 0,-0.33333 0,-0.66667 0,-1 -0.333333,0 -0.666667,0 -1,0 z"
       id="path6207" />
    <path
       style="fill:#827f80"
       d="m 77,119 c 0,0.33333 0,0.66667 0,1 0.333333,0 0.666667,0 1,0 0,-0.33333 0,-0.66667 0,-1 -0.333333,0 -0.666667,0 -1,0 z"
       id="path6205" />
    <path
       style="fill:#827f80"
       d="m 74,125 c 0,0.66667 0,1.33333 0,2 0.333333,0 0.666667,0 1,0 0,-0.66667 0,-1.33333 0,-2 -0.333333,0 -0.666667,0 -1,0 z"
       id="path6203" />
    <path
       style="fill:#827f80"
       d="m 70,129 c 0,0.33333 0,0.66667 0,1 0.333333,0 0.666667,0 1,0 0,-0.33333 0,-0.66667 0,-1 -0.333333,0 -0.666667,0 -1,0 z"
       id="path6201" />
    <path
       style="fill:#827f80"
       d="m 71,130 c 0,0.33333 0,0.66667 0,1 0.333333,0 0.666667,0 1,0 0,-0.33333 0,-0.66667 0,-1 -0.333333,0 -0.666667,0 -1,0 z"
       id="rect23496" />
    <rect
       id="rect23498"
       y="130"
       x="72"
       width="1"
       height="1"
       style="fill:#140f10" />
    <path
       inkscape:connector-curvature="0"
       id="rect23500"
       d="m 71,115 c 0,0.66667 0,1.33333 0,2 -0.333333,0 -0.666667,0 -1,0 0,0.66667 0,1.33333 0,2 -0.333333,0 -0.666667,0 -1,0 0,2.33333 0,4.66667 0,7 0.333333,0 0.666667,0 1,0 0,1 0,2 0,3 0.333333,0 0.666667,0 1,0 0,0.33333 0,0.66667 0,1 0.666667,0 1.333333,0 2,0 0,0.33333 0,0.66667 0,1 0.333333,0 0.666667,0 1,0 0,-0.33333 0,-0.66667 0,-1 0.333333,0 0.666667,0 1,0 0,-0.33333 0,-0.66667 0,-1 0.333333,0 0.666667,0 1,0 0,-0.33333 0,-0.66667 0,-1 0.333333,0 0.666667,0 1,0 0,-3.66667 0,-7.33333 0,-11 -0.333333,0 -0.666667,0 -1,0 0,-0.33333 0,-0.66667 0,-1 -0.333333,0 -0.666667,0 -1,0 0,-0.33333 0,-0.66667 0,-1 -1.333333,0 -2.666667,0 -4,0 z m 1,1 c 0.666667,0 1.333333,0 2,0 0,0.33333 0,0.66667 0,1 0.333333,0 0.666667,0 1,0 0,3.66667 0,7.33333 0,11 -0.333333,0 -0.666667,0 -1,0 0,0.33333 0,0.66667 0,1 -0.666667,0 -1.333333,0 -2,0 0,-4.33333 0,-8.66667 0,-13 z"
       style="fill:#050001" />
    <rect
       id="rect23502"
       y="130"
       x="74"
       width="1"
       height="1"
       style="fill:#231f20" />
    <rect
       id="rect23504"
       y="130"
       x="75"
       width="1"
       height="1"
       style="fill:#d0cfcf" />
    <rect
       id="rect23516"
       y="130"
       x="81"
       width="1"
       height="1"
       style="fill:#332f30" />
    <path
       style="fill:#e0dfdf"
       d="M 7,3 C 7,3.3333333 7,3.6666667 7,4 7.3333333,4 7.6666667,4 8,4 8,3.6666667 8,3.3333333 8,3 7.6666667,3 7.3333333,3 7,3 Z"
       id="path6255" />
    <path
       style="fill:#e0dfdf"
       d="m 75,114 c 0,0.33333 0,0.66667 0,1 0.333333,0 0.666667,0 1,0 0,-0.33333 0,-0.66667 0,-1 -0.333333,0 -0.666667,0 -1,0 z"
       id="path6253" />
    <path
       style="fill:#e0dfdf"
       d="m 78,114 c 0,0.66667 0,1.33333 0,2 0.333333,0 0.666667,0 1,0 0,-0.66667 0,-1.33333 0,-2 -0.333333,0 -0.666667,0 -1,0 z"
       id="path6251" />
    <path
       style="fill:#e0dfdf"
       d="m 86,114 c 0,0.66667 0,1.33333 0,2 0.333333,0 0.666667,0 1,0 0,-0.66667 0,-1.33333 0,-2 -0.333333,0 -0.666667,0 -1,0 z"
       id="path6249" />
    <path
       style="fill:#e0dfdf"
       d="m 72,118 c 0,0.33333 0,0.66667 0,1 0.333333,0 0.666667,0 1,0 0,-0.33333 0,-0.66667 0,-1 -0.333333,0 -0.666667,0 -1,0 z"
       id="path6247" />
    <path
       style="fill:#e0dfdf"
       d="m 68,124 c 0,0.33333 0,0.66667 0,1 0.333333,0 0.666667,0 1,0 0,-0.33333 0,-0.66667 0,-1 -0.333333,0 -0.666667,0 -1,0 z"
       id="path6245" />
    <path
       style="fill:#e0dfdf"
       d="m 72,126 c 0,0.33333 0,0.66667 0,1 0.333333,0 0.666667,0 1,0 0,-0.33333 0,-0.66667 0,-1 -0.333333,0 -0.666667,0 -1,0 z"
       id="path6243" />
    <path
       style="fill:#e0dfdf"
       d="m 77,127 c 0,0.33333 0,0.66667 0,1 0.333333,0 0.666667,0 1,0 0,-0.33333 0,-0.66667 0,-1 -0.333333,0 -0.666667,0 -1,0 z"
       id="path6241" />
    <path
       style="fill:#e0dfdf"
       d="m 69,128 c 0,0.33333 0,0.66667 0,1 0.333333,0 0.666667,0 1,0 0,-0.33333 0,-0.66667 0,-1 -0.333333,0 -0.666667,0 -1,0 z"
       id="path6239" />
    <path
       style="fill:#e0dfdf"
       d="m 76,129 c 0,0.33333 0,0.66667 0,1 0.333333,0 0.666667,0 1,0 0,-0.33333 0,-0.66667 0,-1 -0.333333,0 -0.666667,0 -1,0 z"
       id="path6237" />
    <path
       style="fill:#e0dfdf"
       d="m 82,130 c 0,0.33333 0,0.66667 0,1 0.333333,0 0.666667,0 1,0 0,-0.33333 0,-0.66667 0,-1 -0.333333,0 -0.666667,0 -1,0 z"
       id="rect23518" />
  </g>
</svg>
