<?xml version="1.0" encoding="UTF-8" standalone="no"?>
<svg
   xmlns:dc="http://purl.org/dc/elements/1.1/"
   xmlns:cc="http://creativecommons.org/ns#"
   xmlns:rdf="http://www.w3.org/1999/02/22-rdf-syntax-ns#"
   xmlns:svg="http://www.w3.org/2000/svg"
   xmlns="http://www.w3.org/2000/svg"
   xmlns:sodipodi="http://sodipodi.sourceforge.net/DTD/sodipodi-0.dtd"
   xmlns:inkscape="http://www.inkscape.org/namespaces/inkscape"
   height="135px"
   version="1.1"
   width="90px"
   id="svg24208"
   sodipodi:docname="11-black.svg"
   inkscape:version="0.92.2 (5c3e80d, 2017-08-06)">
  <metadata
     id="metadata24212">
    <rdf:RDF>
      <cc:Work
         rdf:about="">
        <dc:format>image/svg+xml</dc:format>
        <dc:type
           rdf:resource="http://purl.org/dc/dcmitype/StillImage" />
      </cc:Work>
    </rdf:RDF>
  </metadata>
  <sodipodi:namedview
     pagecolor="#ffffff"
     bordercolor="#666666"
     borderopacity="1"
     objecttolerance="10"
     gridtolerance="10"
     guidetolerance="10"
     inkscape:pageopacity="0"
     inkscape:pageshadow="2"
     inkscape:window-width="1920"
     inkscape:window-height="1025"
     id="namedview24210"
     showgrid="false"
     inkscape:zoom="27.97037"
     inkscape:cx="83.584455"
     inkscape:cy="12.889538"
     inkscape:window-x="-8"
     inkscape:window-y="-8"
     inkscape:window-maximized="1"
     inkscape:current-layer="svg24208" />
  <defs
     id="defs2" />
  <g
     id="g18449">
    <rect
       style="fill:#1e2121"
       id="rect700"
       y="4"
       x="11"
       width="1"
       height="1" />
    <rect
       style="fill:#332f2f"
       id="rect712"
       y="4"
       x="17"
       width="1"
       height="1" />
    <rect
       style="fill:#acb3b2"
       id="rect878"
       y="5"
       x="11"
       width="1"
       height="1" />
    <rect
       style="fill:#cfcfd0"
       id="rect1058"
       y="6"
       x="11"
       width="1"
       height="1" />
    <rect
       style="fill:#92908f"
       id="rect2858"
       y="16"
       x="11"
       width="1"
       height="1" />
    <rect
       style="fill:#acb3b2"
       id="rect3034"
       y="17"
       x="9"
       width="1"
       height="1" />
    <rect
       style="fill:#1e2121"
       id="rect3038"
       y="17"
       x="11"
       width="1"
       height="1" />
    <rect
       style="fill:#6e726b"
       id="rect3048"
       y="17"
       x="16"
       width="1"
       height="1" />
    <rect
       style="fill:#535050"
       id="rect3390"
       y="19"
       x="7"
       width="1"
       height="1" />
    <rect
       style="fill:#1e2121"
       id="rect3400"
       y="19"
       x="12"
       width="1"
       height="1" />
    <rect
       style="fill:#fffdff"
       id="rect3406"
       y="19"
       x="15"
       width="1"
       height="1" />
    <rect
       style="fill:#6e726b"
       id="rect20628"
       y="114"
       x="76"
       width="1"
       height="1" />
    <rect
       style="fill:#1e2121"
       id="rect20632"
       y="114"
       x="78"
       width="1"
       height="1" />
    <rect
       style="fill:#1e2121"
       id="rect20636"
       y="114"
       x="80"
       width="1"
       height="1" />
    <rect
       style="fill:#92908f"
       id="rect20640"
       y="114"
       x="82"
       width="1"
       height="1" />
    <rect
       style="fill:#eeefee"
       id="rect20642"
       y="114"
       x="83"
       width="1"
       height="1" />
    <rect
       style="fill:#1e2121"
       id="rect20822"
       y="115"
       x="83"
       width="1"
       height="1" />
    <rect
       style="fill:#6e726b"
       id="rect20982"
       y="116"
       x="73"
       width="1"
       height="1" />
    <rect
       style="fill:#1e2121"
       id="rect20992"
       y="116"
       x="78"
       width="1"
       height="1" />
    <rect
       style="fill:#848992"
       id="rect20996"
       y="116"
       x="80"
       width="1"
       height="1" />
    <rect
       style="fill:#acb3b2"
       id="rect21006"
       y="116"
       x="85"
       width="1"
       height="1" />
    <rect
       style="fill:#acb3b2"
       id="rect21172"
       y="117"
       x="78"
       width="1"
       height="1" />
    <rect
       style="fill:#fffffc"
       id="rect21176"
       y="117"
       x="80"
       width="1"
       height="1" />
    <rect
       style="fill:#eeefee"
       id="rect21178"
       y="117"
       x="81"
       width="1"
       height="1" />
    <rect
       style="fill:#1e2121"
       id="rect21180"
       y="117"
       x="82"
       width="1"
       height="1" />
    <rect
       style="fill:#cfcfd0"
       id="rect21186"
       y="117"
       x="85"
       width="1"
       height="1" />
    <rect
       style="fill:#eeefee"
       id="rect21352"
       y="118"
       x="78"
       width="1"
       height="1" />
    <rect
       style="fill:#fff9fd"
       id="rect21358"
       y="118"
       x="81"
       width="1"
       height="1" />
    <rect
       style="fill:#5c6156"
       id="rect21360"
       y="118"
       x="82"
       width="1"
       height="1" />
    <path
       style="fill:#807f7e"
       d="m 11,3 c 0,0.3333333 0,0.6666667 0,1 2.333333,0 4.666667,0 7,0 0,-0.3333333 0,-0.6666667 0,-1 -2.333333,0 -4.666667,0 -7,0 z"
       id="path18655" />
    <path
       style="fill:#807f7e"
       d="m 7,13 c 0,0.333333 0,0.666667 0,1 0.3333333,0 0.6666667,0 1,0 0,-0.333333 0,-0.666667 0,-1 -0.3333333,0 -0.6666667,0 -1,0 z"
       id="path18653" />
    <path
       style="fill:#807f7e"
       d="m 5,18 c 0,0.333333 0,0.666667 0,1 0.3333333,0 0.6666667,0 1,0 0,-0.333333 0,-0.666667 0,-1 -0.3333333,0 -0.6666667,0 -1,0 z"
       id="path18651" />
    <path
       style="fill:#807f7e"
       d="m 79,116 c 0,0.33333 0,0.66667 0,1 0.333333,0 0.666667,0 1,0 0,-0.33333 0,-0.66667 0,-1 -0.333333,0 -0.666667,0 -1,0 z"
       id="path18649" />
    <path
       style="fill:#807f7e"
       d="m 82,119 c 0,0.33333 0,0.66667 0,1 0.333333,0 0.666667,0 1,0 0,-0.33333 0,-0.66667 0,-1 -0.333333,0 -0.666667,0 -1,0 z"
       id="rect21540" />
    <rect
       style="fill:#fffdff"
       id="rect21718"
       y="120"
       x="81"
       width="1"
       height="1" />
    <path
       style="fill:#626560"
       d="m 4,17 c 0,0.333333 0,0.666667 0,1 0.3333333,0 0.6666667,0 1,0 0,-0.333333 0,-0.666667 0,-1 -0.3333333,0 -0.6666667,0 -1,0 z"
       id="path18794" />
    <path
       style="fill:#626560"
       d="m 15,18 c 0,0.333333 0,0.666667 0,1 0.333333,0 0.666667,0 1,0 0,-0.333333 0,-0.666667 0,-1 -0.333333,0 -0.666667,0 -1,0 z"
       id="path18792" />
    <path
       style="fill:#626560"
       d="m 13,19 c 0,0.333333 0,0.666667 0,1 0.333333,0 0.666667,0 1,0 0,-0.333333 0,-0.666667 0,-1 -0.333333,0 -0.666667,0 -1,0 z"
       id="path18790" />
    <path
       style="fill:#626560"
       d="m 74,115 c 0,0.33333 0,0.66667 0,1 0.333333,0 0.666667,0 1,0 0,-0.33333 0,-0.66667 0,-1 -0.333333,0 -0.666667,0 -1,0 z"
       id="path18788" />
    <path
       style="fill:#626560"
       d="m 84,118 c 0,0.33333 0,0.66667 0,1 0.333333,0 0.666667,0 1,0 0,-0.33333 0,-0.66667 0,-1 -0.333333,0 -0.666667,0 -1,0 z"
       id="path18786" />
    <path
       style="fill:#626560"
       d="m 82,120 c 0,0.33333 0,0.66667 0,1 0.666667,0 1.333333,0 2,0 0,-0.33333 0,-0.66667 0,-1 -0.666667,0 -1.333333,0 -2,0 z"
       id="rect21722" />
    <rect
       style="fill:#acb3b2"
       id="rect21900"
       y="121"
       x="82"
       width="1"
       height="1" />
    <rect
       style="fill:#fffdff"
       id="rect21904"
       y="121"
       x="84"
       width="1"
       height="1" />
    <rect
       style="fill:#fffdff"
       id="rect22080"
       y="122"
       x="82"
       width="1"
       height="1" />
    <path
       style="fill:#bfbebf"
       d="m 17,5 c 0,0.3333333 0,0.6666667 0,1 0.333333,0 0.666667,0 1,0 0,-0.3333333 0,-0.6666667 0,-1 -0.333333,0 -0.666667,0 -1,0 z"
       id="path18772" />
    <path
       style="fill:#bfbebf"
       d="m 5,14 c 0,0.333333 0,0.666667 0,1 0.3333333,0 0.6666667,0 1,0 0,-0.333333 0,-0.666667 0,-1 -0.3333333,0 -0.6666667,0 -1,0 z"
       id="path18770" />
    <path
       style="fill:#bfbebf"
       d="m 7,14 c 0,0.333333 0,0.666667 0,1 0.3333333,0 0.6666667,0 1,0 0,-0.333333 0,-0.666667 0,-1 -0.3333333,0 -0.6666667,0 -1,0 z"
       id="path18768" />
    <path
       style="fill:#bfbebf"
       d="m 11,15 c 0,0.333333 0,0.666667 0,1 0.333333,0 0.666667,0 1,0 0,-0.333333 0,-0.666667 0,-1 -0.333333,0 -0.666667,0 -1,0 z"
       id="path18766" />
    <path
       style="fill:#bfbebf"
       d="m 4,16 c 0,0.333333 0,0.666667 0,1 0.3333333,0 0.6666667,0 1,0 0,-0.333333 0,-0.666667 0,-1 -0.3333333,0 -0.6666667,0 -1,0 z"
       id="path18764" />
    <path
       style="fill:#bfbebf"
       d="m 6,19 c 0,0.333333 0,0.666667 0,1 0.3333333,0 0.6666667,0 1,0 0,-0.333333 0,-0.666667 0,-1 -0.3333333,0 -0.6666667,0 -1,0 z"
       id="path18762" />
    <path
       style="fill:#bfbebf"
       d="m 84,115 c 0,0.33333 0,0.66667 0,1 0.333333,0 0.666667,0 1,0 0,-0.33333 0,-0.66667 0,-1 -0.333333,0 -0.666667,0 -1,0 z"
       id="path18760" />
    <path
       style="fill:#bfbebf"
       d="m 72,118 c 0,3.33333 0,6.66667 0,10 0.333333,0 0.666667,0 1,0 0,-3.33333 0,-6.66667 0,-10 -0.333333,0 -0.666667,0 -1,0 z"
       id="rect22960" />
    <rect
       style="fill:#acb3b2"
       id="rect23140"
       y="128"
       x="72"
       width="1"
       height="1" />
    <rect
       style="fill:#cfcfd0"
       id="rect23318"
       y="129"
       x="71"
       width="1"
       height="1" />
    <rect
       style="fill:#332f2f"
       id="rect23320"
       y="129"
       x="72"
       width="1"
       height="1" />
    <path
       style="fill:#040001"
       d="m 12,4 c 0,4.6666667 0,9.333333 0,14 -1.333333,0 -2.6666667,0 -4,0 0,-0.333333 0,-0.666667 0,-1 -0.3333333,0 -0.6666667,0 -1,0 0,-1 0,-2 0,-3 -0.3333333,0 -0.6666667,0 -1,0 0,0.666667 0,1.333333 0,2 -0.3333333,0 -0.6666667,0 -1,0 0,0.666667 0,1.333333 0,2 0.3333333,0 0.6666667,0 1,0 0,0.333333 0,0.666667 0,1 0.6666667,0 1.3333333,0 2,0 0,0.333333 0,0.666667 0,1 1.3333333,0 2.666667,0 4,0 0,-0.333333 0,-0.666667 0,-1 1,0 2,0 3,0 0,-0.333333 0,-0.666667 0,-1 0.333333,0 0.666667,0 1,0 0,-0.333333 0,-0.666667 0,-1 0.333333,0 0.666667,0 1,0 0,-4.333333 0,-8.6666667 0,-13 -1.666667,0 -3.333333,0 -5,0 z"
       id="path18631" />
    <path
       style="fill:#040001"
       d="m 79,114 c 0,0.33333 0,0.66667 0,1 -1.333333,0 -2.666667,0 -4,0 0,0.33333 0,0.66667 0,1 -0.333333,0 -0.666667,0 -1,0 0,0.33333 0,0.66667 0,1 -0.333333,0 -0.666667,0 -1,0 0,4.33333 0,8.66667 0,13 1.666667,0 3.333333,0 5,0 0,-4.66667 0,-9.33333 0,-14 1,0 2,0 3,0 0,0.33333 0,0.66667 0,1 0.666667,0 1.333333,0 2,0 0,1 0,2 0,3 0.333333,0 0.666667,0 1,0 0,-0.66667 0,-1.33333 0,-2 0.333333,0 0.666667,0 1,0 0,-0.66667 0,-1.33333 0,-2 -0.666667,0 -1.333333,0 -2,0 0,-0.33333 0,-0.66667 0,-1 -1,0 -2,0 -3,0 0,-0.33333 0,-0.66667 0,-1 -0.333333,0 -0.666667,0 -1,0 z"
       id="rect23330" />
    <rect
       style="fill:#535050"
       id="rect23332"
       y="129"
       x="78"
       width="1"
       height="1" />
    <path
       style="fill:#e0dedb"
       d="m 18,3 c 0,0.6666667 0,1.3333333 0,2 0.333333,0 0.666667,0 1,0 0,-0.6666667 0,-1.3333333 0,-2 -0.333333,0 -0.666667,0 -1,0 z"
       id="path18706" />
    <path
       style="fill:#e0dedb"
       d="m 6,12 c 0,0.333333 0,0.666667 0,1 0.6666667,0 1.3333333,0 2,0 0,-0.333333 0,-0.666667 0,-1 -0.6666667,0 -1.3333333,0 -2,0 z"
       id="path18704" />
    <path
       style="fill:#e0dedb"
       d="m 14,19 c 0,0.333333 0,0.666667 0,1 0.333333,0 0.666667,0 1,0 0,-0.333333 0,-0.666667 0,-1 -0.333333,0 -0.666667,0 -1,0 z"
       id="path18702" />
    <path
       style="fill:#e0dedb"
       d="m 75,114 c 0,0.33333 0,0.66667 0,1 0.333333,0 0.666667,0 1,0 0,-0.33333 0,-0.66667 0,-1 -0.333333,0 -0.666667,0 -1,0 z"
       id="path18700" />
    <path
       style="fill:#e0dedb"
       d="m 72,117 c 0,0.33333 0,0.66667 0,1 0.333333,0 0.666667,0 1,0 0,-0.33333 0,-0.66667 0,-1 -0.333333,0 -0.666667,0 -1,0 z"
       id="path18698" />
    <path
       style="fill:#e0dedb"
       d="m 84,119 c 0,0.33333 0,0.66667 0,1 0.333333,0 0.666667,0 1,0 0,-0.33333 0,-0.66667 0,-1 -0.333333,0 -0.666667,0 -1,0 z"
       id="path18696" />
    <path
       style="fill:#e0dedb"
       d="m 83,121 c 0,0.33333 0,0.66667 0,1 0.333333,0 0.666667,0 1,0 0,-0.33333 0,-0.66667 0,-1 -0.333333,0 -0.666667,0 -1,0 z"
       id="path18694" />
    <path
       style="fill:#e0dedb"
       d="m 78,128 c 0,0.33333 0,0.66667 0,1 0.333333,0 0.666667,0 1,0 0,-0.33333 0,-0.66667 0,-1 -0.333333,0 -0.666667,0 -1,0 z"
       id="path18692" />
    <path
       style="fill:#e0dedb"
       d="m 79,129 c 0,0.33333 0,0.66667 0,1 0.333333,0 0.666667,0 1,0 0,-0.33333 0,-0.66667 0,-1 -0.333333,0 -0.666667,0 -1,0 z"
       id="rect23334" />
    <path
       style="fill:#413f3f"
       d="m 6,13 c 0,0.333333 0,0.666667 0,1 0.3333333,0 0.6666667,0 1,0 0,-0.333333 0,-0.666667 0,-1 -0.3333333,0 -0.6666667,0 -1,0 z"
       id="path18736" />
    <path
       style="fill:#413f3f"
       d="m 5,15 c 0,0.333333 0,0.666667 0,1 0.3333333,0 0.6666667,0 1,0 0,-0.333333 0,-0.666667 0,-1 -0.3333333,0 -0.6666667,0 -1,0 z"
       id="path18734" />
    <path
       style="fill:#413f3f"
       d="m 7,16 c 0,0.333333 0,0.666667 0,1 0.3333333,0 0.6666667,0 1,0 0,-0.333333 0,-0.666667 0,-1 -0.3333333,0 -0.6666667,0 -1,0 z"
       id="path18732" />
    <path
       style="fill:#413f3f"
       d="m 8,17 c 0,0.333333 0,0.666667 0,1 0.3333333,0 0.6666667,0 1,0 0,-0.333333 0,-0.666667 0,-1 -0.3333333,0 -0.6666667,0 -1,0 z"
       id="path18730" />
    <path
       style="fill:#413f3f"
       d="m 77,114 c 0,0.33333 0,0.66667 0,1 0.333333,0 0.666667,0 1,0 0,-0.33333 0,-0.66667 0,-1 -0.333333,0 -0.666667,0 -1,0 z"
       id="path18728" />
    <path
       style="fill:#413f3f"
       d="m 81,114 c 0,0.33333 0,0.66667 0,1 0.333333,0 0.666667,0 1,0 0,-0.33333 0,-0.66667 0,-1 -0.333333,0 -0.666667,0 -1,0 z"
       id="path18726" />
    <path
       style="fill:#413f3f"
       d="m 72,130 c 0,0.33333 0,0.66667 0,1 2.333333,0 4.666667,0 7,0 0,-0.33333 0,-0.66667 0,-1 -2.333333,0 -4.666667,0 -7,0 z"
       id="rect23510" />
    <path
       style="fill:#a19f9f"
       d="m 10,3 c 0,0.6666667 0,1.3333333 0,2 0.333333,0 0.666667,0 1,0 0,-0.6666667 0,-1.3333333 0,-2 -0.333333,0 -0.666667,0 -1,0 z"
       id="path18674" />
    <path
       style="fill:#a19f9f"
       d="m 7,15 c 0,0.333333 0,0.666667 0,1 0.3333333,0 0.6666667,0 1,0 0,-0.333333 0,-0.666667 0,-1 -0.3333333,0 -0.6666667,0 -1,0 z"
       id="path18672" />
    <path
       style="fill:#a19f9f"
       d="m 10,17 c 0,0.333333 0,0.666667 0,1 0.333333,0 0.666667,0 1,0 0,-0.333333 0,-0.666667 0,-1 -0.333333,0 -0.666667,0 -1,0 z"
       id="path18670" />
    <path
       style="fill:#a19f9f"
       d="m 71,130 c 0,0.33333 0,0.66667 0,1 0.333333,0 0.666667,0 1,0 0,-0.33333 0,-0.66667 0,-1 -0.333333,0 -0.666667,0 -1,0 z"
       id="path18668" />
    <path
       style="fill:#a19f9f"
       d="m 79,130 c 0,0.33333 0,0.66667 0,1 0.333333,0 0.666667,0 1,0 0,-0.33333 0,-0.66667 0,-1 -0.333333,0 -0.666667,0 -1,0 z"
       id="rect23512" />
  </g>
</svg>
