<?xml version="1.0" encoding="UTF-8" standalone="no"?>
<svg
   xmlns:dc="http://purl.org/dc/elements/1.1/"
   xmlns:cc="http://creativecommons.org/ns#"
   xmlns:rdf="http://www.w3.org/1999/02/22-rdf-syntax-ns#"
   xmlns:svg="http://www.w3.org/2000/svg"
   xmlns="http://www.w3.org/2000/svg"
   xmlns:sodipodi="http://sodipodi.sourceforge.net/DTD/sodipodi-0.dtd"
   xmlns:inkscape="http://www.inkscape.org/namespaces/inkscape"
   height="135px"
   version="1.1"
   width="90px"
   id="svg24208"
   sodipodi:docname="11-red.svg"
   inkscape:version="0.92.2 (5c3e80d, 2017-08-06)">
  <metadata
     id="metadata24212">
    <rdf:RDF>
      <cc:Work
         rdf:about="">
        <dc:format>image/svg+xml</dc:format>
        <dc:type
           rdf:resource="http://purl.org/dc/dcmitype/StillImage" />
      </cc:Work>
    </rdf:RDF>
  </metadata>
  <sodipodi:namedview
     pagecolor="#ffffff"
     bordercolor="#666666"
     borderopacity="1"
     objecttolerance="10"
     gridtolerance="10"
     guidetolerance="10"
     inkscape:pageopacity="0"
     inkscape:pageshadow="2"
     inkscape:window-width="1920"
     inkscape:window-height="1025"
     id="namedview24210"
     showgrid="false"
     inkscape:zoom="9.8890193"
     inkscape:cx="60.919953"
     inkscape:cy="102.65018"
     inkscape:window-x="-8"
     inkscape:window-y="-8"
     inkscape:window-maximized="1"
     inkscape:current-layer="svg24208" />
  <defs
     id="defs2" />
  <g
     id="g17439">
    <rect
       style="fill:#eda9aa"
       id="rect522"
       y="3"
       x="10"
       width="1"
       height="1" />
    <rect
       style="fill:#f8f8f6"
       id="rect696"
       y="4"
       x="9"
       width="1"
       height="1" />
    <rect
       style="fill:#eda9aa"
       id="rect698"
       y="4"
       x="10"
       width="1"
       height="1" />
    <rect
       style="fill:#d22a2b"
       id="rect700"
       y="4"
       x="11"
       width="1"
       height="1" />
    <rect
       style="fill:#d22a2b"
       id="rect712"
       y="4"
       x="17"
       width="1"
       height="1" />
    <rect
       style="fill:#fbfdfd"
       id="rect876"
       y="5"
       x="10"
       width="1"
       height="1" />
    <rect
       style="fill:#eda9aa"
       id="rect878"
       y="5"
       x="11"
       width="1"
       height="1" />
    <rect
       style="fill:#f1d4cd"
       id="rect1058"
       y="6"
       x="11"
       width="1"
       height="1" />
    <rect
       style="fill:#eda9aa"
       id="rect2670"
       y="15"
       x="7"
       width="1"
       height="1" />
    <rect
       style="fill:#fbfdfd"
       id="rect2672"
       y="15"
       x="8"
       width="1"
       height="1" />
    <rect
       style="fill:#d22a2b"
       id="rect3032"
       y="17"
       x="8"
       width="1"
       height="1" />
    <rect
       style="fill:#eda9aa"
       id="rect3036"
       y="17"
       x="10"
       width="1"
       height="1" />
    <rect
       style="fill:#d22a2b"
       id="rect3038"
       y="17"
       x="11"
       width="1"
       height="1" />
    <rect
       style="fill:#f9fafa"
       id="rect3050"
       y="17"
       x="17"
       width="1"
       height="1" />
    <rect
       style="fill:#fbfdfd"
       id="rect3228"
       y="18"
       x="16"
       width="1"
       height="1" />
    <rect
       style="fill:#d22a2b"
       id="rect3400"
       y="19"
       x="12"
       width="1"
       height="1" />
    <rect
       style="fill:#f1d4cd"
       id="rect20626"
       y="114"
       x="75"
       width="1"
       height="1" />
    <rect
       style="fill:#d22a2b"
       id="rect20632"
       y="114"
       x="78"
       width="1"
       height="1" />
    <rect
       style="fill:#d22a2b"
       id="rect20636"
       y="114"
       x="80"
       width="1"
       height="1" />
    <rect
       style="fill:#fcefee"
       id="rect20642"
       y="114"
       x="83"
       width="1"
       height="1" />
    <rect
       style="fill:#d22a2b"
       id="rect20822"
       y="115"
       x="83"
       width="1"
       height="1" />
    <rect
       style="fill:#fbfdfd"
       id="rect20980"
       y="116"
       x="72"
       width="1"
       height="1" />
    <rect
       style="fill:#d22a2b"
       id="rect20992"
       y="116"
       x="78"
       width="1"
       height="1" />
    <rect
       style="fill:#eda9aa"
       id="rect21006"
       y="116"
       x="85"
       width="1"
       height="1" />
    <rect
       style="fill:#eda9aa"
       id="rect21172"
       y="117"
       x="78"
       width="1"
       height="1" />
    <rect
       style="fill:#fcefee"
       id="rect21178"
       y="117"
       x="81"
       width="1"
       height="1" />
    <rect
       style="fill:#f1d4cd"
       id="rect21186"
       y="117"
       x="85"
       width="1"
       height="1" />
    <rect
       style="fill:#fcefee"
       id="rect21352"
       y="118"
       x="78"
       width="1"
       height="1" />
    <rect
       style="fill:#fbfdfd"
       id="rect21358"
       y="118"
       x="81"
       width="1"
       height="1" />
    <path
       style="fill:#e48283"
       d="m 11,3 c 0,0.3333333 0,0.6666667 0,1 2.333333,0 4.666667,0 7,0 0,-0.3333333 0,-0.6666667 0,-1 -2.333333,0 -4.666667,0 -7,0 z"
       id="path17480" />
    <path
       style="fill:#e48283"
       d="m 7,13 c 0,0.333333 0,0.666667 0,1 0.3333333,0 0.6666667,0 1,0 0,-0.333333 0,-0.666667 0,-1 -0.3333333,0 -0.6666667,0 -1,0 z"
       id="path17478" />
    <path
       style="fill:#e48283"
       d="m 11,16 c 0,0.333333 0,0.666667 0,1 0.333333,0 0.666667,0 1,0 0,-0.333333 0,-0.666667 0,-1 -0.333333,0 -0.666667,0 -1,0 z"
       id="path17476" />
    <path
       style="fill:#e48283"
       d="m 16,17 c 0,0.333333 0,0.666667 0,1 0.333333,0 0.666667,0 1,0 0,-0.333333 0,-0.666667 0,-1 -0.333333,0 -0.666667,0 -1,0 z"
       id="path17474" />
    <path
       style="fill:#e48283"
       d="m 5,18 c 0,0.333333 0,0.666667 0,1 0.3333333,0 0.6666667,0 1,0 0,-0.333333 0,-0.666667 0,-1 -0.3333333,0 -0.6666667,0 -1,0 z"
       id="path17472" />
    <path
       style="fill:#e48283"
       d="m 76,114 c 0,0.33333 0,0.66667 0,1 0.333333,0 0.666667,0 1,0 0,-0.33333 0,-0.66667 0,-1 -0.333333,0 -0.666667,0 -1,0 z"
       id="path17470" />
    <path
       style="fill:#e48283"
       d="m 82,114 c 0,0.33333 0,0.66667 0,1 0.333333,0 0.666667,0 1,0 0,-0.33333 0,-0.66667 0,-1 -0.333333,0 -0.666667,0 -1,0 z"
       id="path17468" />
    <path
       style="fill:#e48283"
       d="m 73,116 c 0,0.33333 0,0.66667 0,1 0.333333,0 0.666667,0 1,0 0,-0.33333 0,-0.66667 0,-1 -0.333333,0 -0.666667,0 -1,0 z"
       id="path17466" />
    <path
       style="fill:#e48283"
       d="m 79,116 c 0,0.33333 0,0.66667 0,1 0.666667,0 1.333333,0 2,0 0,-0.33333 0,-0.66667 0,-1 -0.666667,0 -1.333333,0 -2,0 z"
       id="path17464" />
    <path
       style="fill:#e48283"
       d="m 82,118 c 0,0.66667 0,1.33333 0,2 0.333333,0 0.666667,0 1,0 0,-0.66667 0,-1.33333 0,-2 -0.333333,0 -0.666667,0 -1,0 z"
       id="rect21540" />
    <path
       style="fill:#f0c1c0"
       d="m 17,5 c 0,0.3333333 0,0.6666667 0,1 0.333333,0 0.666667,0 1,0 0,-0.3333333 0,-0.6666667 0,-1 -0.333333,0 -0.666667,0 -1,0 z"
       id="path17603" />
    <path
       style="fill:#f0c1c0"
       d="m 5,14 c 0,0.333333 0,0.666667 0,1 0.3333333,0 0.6666667,0 1,0 0,-0.333333 0,-0.666667 0,-1 -0.3333333,0 -0.6666667,0 -1,0 z"
       id="path17601" />
    <path
       style="fill:#f0c1c0"
       d="m 7,14 c 0,0.333333 0,0.666667 0,1 0.3333333,0 0.6666667,0 1,0 0,-0.333333 0,-0.666667 0,-1 -0.3333333,0 -0.6666667,0 -1,0 z"
       id="path17599" />
    <path
       style="fill:#f0c1c0"
       d="m 11,15 c 0,0.333333 0,0.666667 0,1 0.333333,0 0.666667,0 1,0 0,-0.333333 0,-0.666667 0,-1 -0.333333,0 -0.666667,0 -1,0 z"
       id="path17597" />
    <path
       style="fill:#f0c1c0"
       d="m 4,16 c 0,0.333333 0,0.666667 0,1 0.3333333,0 0.6666667,0 1,0 0,-0.333333 0,-0.666667 0,-1 -0.3333333,0 -0.6666667,0 -1,0 z"
       id="path17595" />
    <path
       style="fill:#f0c1c0"
       d="m 9,17 c 0,0.333333 0,0.666667 0,1 0.3333333,0 0.6666667,0 1,0 0,-0.333333 0,-0.666667 0,-1 -0.3333333,0 -0.6666667,0 -1,0 z"
       id="path17593" />
    <path
       style="fill:#f0c1c0"
       d="m 6,19 c 0,0.333333 0,0.666667 0,1 0.3333333,0 0.6666667,0 1,0 0,-0.333333 0,-0.666667 0,-1 -0.3333333,0 -0.6666667,0 -1,0 z"
       id="path17591" />
    <path
       style="fill:#f0c1c0"
       d="m 84,115 c 0,0.33333 0,0.66667 0,1 0.333333,0 0.666667,0 1,0 0,-0.33333 0,-0.66667 0,-1 -0.333333,0 -0.666667,0 -1,0 z"
       id="path17589" />
    <path
       style="fill:#f0c1c0"
       d="m 72,118 c 0,3.33333 0,6.66667 0,10 0.333333,0 0.666667,0 1,0 0,-3.33333 0,-6.66667 0,-10 -0.333333,0 -0.666667,0 -1,0 z"
       id="path17587" />
    <path
       style="fill:#f0c1c0"
       d="m 82,121 c 0,0.33333 0,0.66667 0,1 0.333333,0 0.666667,0 1,0 0,-0.33333 0,-0.66667 0,-1 -0.333333,0 -0.666667,0 -1,0 z"
       id="rect22960" />
    <rect
       style="fill:#eda9aa"
       id="rect23140"
       y="128"
       x="72"
       width="1"
       height="1" />
    <rect
       style="fill:#f1d4cd"
       id="rect23318"
       y="129"
       x="71"
       width="1"
       height="1" />
    <rect
       style="fill:#d22a2b"
       id="rect23320"
       y="129"
       x="72"
       width="1"
       height="1" />
    <path
       id="path17327"
       d="m 12,4 c 0,4.6666667 0,9.333333 0,14 -1.333333,0 -2.6666667,0 -4,0 0,-0.333333 0,-0.666667 0,-1 -0.3333333,0 -0.6666667,0 -1,0 0,-1 0,-2 0,-3 -0.3333333,0 -0.6666667,0 -1,0 0,0.666667 0,1.333333 0,2 -0.3333333,0 -0.6666667,0 -1,0 0,0.666667 0,1.333333 0,2 0.3333333,0 0.6666667,0 1,0 0,0.333333 0,0.666667 0,1 0.6666667,0 1.3333333,0 2,0 0,0.333333 0,0.666667 0,1 1.3333333,0 2.666667,0 4,0 0,-0.333333 0,-0.666667 0,-1 1,0 2,0 3,0 0,-0.333333 0,-0.666667 0,-1 0.333333,0 0.666667,0 1,0 0,-0.333333 0,-0.666667 0,-1 0.333333,0 0.666667,0 1,0 0,-4.333333 0,-8.6666667 0,-13 -1.666667,0 -3.333333,0 -5,0 z"
       style="fill:#c90305" />
    <path
       id="rect23330"
       d="m 79,114 c 0,0.33333 0,0.66667 0,1 -1.333333,0 -2.666667,0 -4,0 0,0.33333 0,0.66667 0,1 -0.333333,0 -0.666667,0 -1,0 0,0.33333 0,0.66667 0,1 -0.333333,0 -0.666667,0 -1,0 0,4.33333 0,8.66667 0,13 1.666667,0 3.333333,0 5,0 0,-4.66667 0,-9.33333 0,-14 1,0 2,0 3,0 0,0.33333 0,0.66667 0,1 0.333333,0 0.666667,0 1,0 0,0.33333 0,0.66667 0,1 0.333333,0 0.666667,0 1,0 0,0.66667 0,1.33333 0,2 0.333333,0 0.666667,0 1,0 0,-0.66667 0,-1.33333 0,-2 0.333333,0 0.666667,0 1,0 0,-0.66667 0,-1.33333 0,-2 -0.666667,0 -1.333333,0 -2,0 0,-0.33333 0,-0.66667 0,-1 -1,0 -2,0 -3,0 0,-0.33333 0,-0.66667 0,-1 -0.333333,0 -0.666667,0 -1,0 z"
       style="fill:#c90305" />
    <path
       style="fill:#f8e0e1"
       d="m 18,3 c 0,0.6666667 0,1.3333333 0,2 0.333333,0 0.666667,0 1,0 0,-0.6666667 0,-1.3333333 0,-2 -0.333333,0 -0.666667,0 -1,0 z"
       id="path17509" />
    <path
       style="fill:#f8e0e1"
       d="m 6,12 c 0,0.333333 0,0.666667 0,1 0.6666667,0 1.3333333,0 2,0 0,-0.333333 0,-0.666667 0,-1 -0.6666667,0 -1.3333333,0 -2,0 z"
       id="path17507" />
    <path
       style="fill:#f8e0e1"
       d="m 14,19 c 0,0.333333 0,0.666667 0,1 0.333333,0 0.666667,0 1,0 0,-0.333333 0,-0.666667 0,-1 -0.333333,0 -0.666667,0 -1,0 z"
       id="path17505" />
    <path
       style="fill:#f8e0e1"
       d="m 72,117 c 0,0.33333 0,0.66667 0,1 0.333333,0 0.666667,0 1,0 0,-0.33333 0,-0.66667 0,-1 -0.333333,0 -0.666667,0 -1,0 z"
       id="path17503" />
    <path
       style="fill:#f8e0e1"
       d="m 84,119 c 0,0.33333 0,0.66667 0,1 0.333333,0 0.666667,0 1,0 0,-0.33333 0,-0.66667 0,-1 -0.333333,0 -0.666667,0 -1,0 z"
       id="path17501" />
    <path
       style="fill:#f8e0e1"
       d="m 83,121 c 0,0.33333 0,0.66667 0,1 0.333333,0 0.666667,0 1,0 0,-0.33333 0,-0.66667 0,-1 -0.333333,0 -0.666667,0 -1,0 z"
       id="path17499" />
    <path
       style="fill:#f8e0e1"
       d="m 78,128 c 0,0.33333 0,0.66667 0,1 0.333333,0 0.666667,0 1,0 0,-0.33333 0,-0.66667 0,-1 -0.333333,0 -0.666667,0 -1,0 z"
       id="path17497" />
    <path
       style="fill:#f8e0e1"
       d="m 79,129 c 0,0.33333 0,0.66667 0,1 0.333333,0 0.666667,0 1,0 0,-0.33333 0,-0.66667 0,-1 -0.333333,0 -0.666667,0 -1,0 z"
       id="rect23334" />
    <rect
       style="fill:#f9fafa"
       id="rect23494"
       y="130"
       x="70"
       width="1"
       height="1" />
    <rect
       style="fill:#eda9aa"
       id="rect23496"
       y="130"
       x="71"
       width="1"
       height="1" />
    <rect
       style="fill:#d22a2b"
       id="rect23502"
       y="130"
       x="74"
       width="1"
       height="1" />
    <rect
       style="fill:#d22a2b"
       id="rect23508"
       y="130"
       x="77"
       width="1"
       height="1" />
    <path
       style="fill:#d94f51"
       d="m 6,13 c 0,0.333333 0,0.666667 0,1 0.3333333,0 0.6666667,0 1,0 0,-0.333333 0,-0.666667 0,-1 -0.3333333,0 -0.6666667,0 -1,0 z"
       id="path17561" />
    <path
       style="fill:#d94f51"
       d="m 5,15 c 0,0.333333 0,0.666667 0,1 0.3333333,0 0.6666667,0 1,0 0,-0.333333 0,-0.666667 0,-1 -0.3333333,0 -0.6666667,0 -1,0 z"
       id="path17559" />
    <path
       style="fill:#d94f51"
       d="m 7,16 c 0,0.333333 0,0.666667 0,1 0.3333333,0 0.6666667,0 1,0 0,-0.333333 0,-0.666667 0,-1 -0.3333333,0 -0.6666667,0 -1,0 z"
       id="path17557" />
    <path
       style="fill:#d94f51"
       d="m 4,17 c 0,0.333333 0,0.666667 0,1 0.3333333,0 0.6666667,0 1,0 0,-0.333333 0,-0.666667 0,-1 -0.3333333,0 -0.6666667,0 -1,0 z"
       id="path17555" />
    <path
       style="fill:#d94f51"
       d="m 15,18 c 0,0.333333 0,0.666667 0,1 0.333333,0 0.666667,0 1,0 0,-0.333333 0,-0.666667 0,-1 -0.333333,0 -0.666667,0 -1,0 z"
       id="path17553" />
    <path
       style="fill:#d94f51"
       d="m 7,19 c 0,0.333333 0,0.666667 0,1 0.3333333,0 0.6666667,0 1,0 0,-0.333333 0,-0.666667 0,-1 -0.3333333,0 -0.6666667,0 -1,0 z"
       id="path17551" />
    <path
       style="fill:#d94f51"
       d="m 13,19 c 0,0.333333 0,0.666667 0,1 0.333333,0 0.666667,0 1,0 0,-0.333333 0,-0.666667 0,-1 -0.333333,0 -0.666667,0 -1,0 z"
       id="path17549" />
    <path
       style="fill:#d94f51"
       d="m 77,114 c 0,0.33333 0,0.66667 0,1 0.333333,0 0.666667,0 1,0 0,-0.33333 0,-0.66667 0,-1 -0.333333,0 -0.666667,0 -1,0 z"
       id="path17547" />
    <path
       style="fill:#d94f51"
       d="m 81,114 c 0,0.33333 0,0.66667 0,1 0.333333,0 0.666667,0 1,0 0,-0.33333 0,-0.66667 0,-1 -0.333333,0 -0.666667,0 -1,0 z"
       id="path17545" />
    <path
       style="fill:#d94f51"
       d="m 74,115 c 0,0.33333 0,0.66667 0,1 0.333333,0 0.666667,0 1,0 0,-0.33333 0,-0.66667 0,-1 -0.333333,0 -0.666667,0 -1,0 z"
       id="path17543" />
    <path
       style="fill:#d94f51"
       d="m 84,118 c 0,0.33333 0,0.66667 0,1 0.333333,0 0.666667,0 1,0 0,-0.33333 0,-0.66667 0,-1 -0.333333,0 -0.666667,0 -1,0 z"
       id="path17541" />
    <path
       style="fill:#d94f51"
       d="m 82,120 c 0,0.33333 0,0.66667 0,1 0.666667,0 1.333333,0 2,0 0,-0.33333 0,-0.66667 0,-1 -0.666667,0 -1.333333,0 -2,0 z"
       id="path17539" />
    <path
       style="fill:#d94f51"
       d="m 78,129 c 0,0.66667 0,1.33333 0,2 0.333333,0 0.666667,0 1,0 0,-0.66667 0,-1.33333 0,-2 -0.333333,0 -0.666667,0 -1,0 z"
       id="path17537" />
    <path
       style="fill:#d94f51"
       d="m 72,130 c 0,0.33333 0,0.66667 0,1 0.666667,0 1.333333,0 2,0 0,-0.33333 0,-0.66667 0,-1 -0.666667,0 -1.333333,0 -2,0 z"
       id="path17535" />
    <path
       style="fill:#d94f51"
       d="m 75,130 c 0,0.33333 0,0.66667 0,1 0.666667,0 1.333333,0 2,0 0,-0.33333 0,-0.66667 0,-1 -0.666667,0 -1.333333,0 -2,0 z"
       id="rect23510" />
    <rect
       style="fill:#eda9aa"
       id="rect23512"
       y="130"
       x="79"
       width="1"
       height="1" />
    <rect
       style="fill:#fbfdfd"
       id="rect23672"
       y="131"
       x="71"
       width="1"
       height="1" />
    <rect
       style="fill:#f9fafa"
       id="rect23674"
       y="131"
       x="72"
       width="1"
       height="1" />
    <rect
       style="fill:#fbfdfd"
       id="rect23676"
       y="131"
       x="73"
       width="1"
       height="1" />
    <rect
       style="fill:#f9fafa"
       id="rect23682"
       y="131"
       x="76"
       width="1"
       height="1" />
    <rect
       style="fill:#f9fafa"
       id="rect23688"
       y="131"
       x="79"
       width="1"
       height="1" />
  </g>
</svg>
