<?xml version="1.0" encoding="UTF-8" standalone="no"?>
<svg
   xmlns:dc="http://purl.org/dc/elements/1.1/"
   xmlns:cc="http://creativecommons.org/ns#"
   xmlns:rdf="http://www.w3.org/1999/02/22-rdf-syntax-ns#"
   xmlns:svg="http://www.w3.org/2000/svg"
   xmlns="http://www.w3.org/2000/svg"
   xmlns:sodipodi="http://sodipodi.sourceforge.net/DTD/sodipodi-0.dtd"
   xmlns:inkscape="http://www.inkscape.org/namespaces/inkscape"
   height="135px"
   version="1.1"
   width="90px"
   id="svg24208"
   sodipodi:docname="12-black.svg"
   inkscape:version="0.92.2 (5c3e80d, 2017-08-06)">
  <metadata
     id="metadata24212">
    <rdf:RDF>
      <cc:Work
         rdf:about="">
        <dc:format>image/svg+xml</dc:format>
        <dc:type
           rdf:resource="http://purl.org/dc/dcmitype/StillImage" />
        <dc:title />
      </cc:Work>
    </rdf:RDF>
  </metadata>
  <sodipodi:namedview
     pagecolor="#ffffff"
     bordercolor="#666666"
     borderopacity="1"
     objecttolerance="10"
     gridtolerance="10"
     guidetolerance="10"
     inkscape:pageopacity="0"
     inkscape:pageshadow="2"
     inkscape:window-width="1920"
     inkscape:window-height="1025"
     id="namedview24210"
     showgrid="false"
     inkscape:zoom="6.9925926"
     inkscape:cx="76.35334"
     inkscape:cy="101.09426"
     inkscape:window-x="-8"
     inkscape:window-y="-8"
     inkscape:window-maximized="1"
     inkscape:current-layer="svg24208" />
  <defs
     id="defs2" />
  <g
     id="g13026">
    <rect
       id="rect518"
       y="3"
       x="8"
       width="1"
       height="1"
       style="fill:#a0a09f" />
    <rect
       id="rect520"
       y="3"
       x="9"
       width="1"
       height="1"
       style="fill:#62605e" />
    <rect
       id="rect532"
       y="3"
       x="15"
       width="1"
       height="1"
       style="fill:#e1dedf" />
    <rect
       id="rect690"
       y="4"
       x="6"
       width="1"
       height="1"
       style="fill:#b0afaf" />
    <rect
       id="rect710"
       y="4"
       x="16"
       width="1"
       height="1"
       style="fill:#62605e" />
    <rect
       id="rect712"
       y="4"
       x="17"
       width="1"
       height="1"
       style="fill:#eeefef" />
    <rect
       id="rect866"
       y="5"
       x="5"
       width="1"
       height="1"
       style="fill:#a0a09f" />
    <rect
       id="rect878"
       y="5"
       x="11"
       width="1"
       height="1"
       style="fill:#707270" />
    <rect
       id="rect892"
       y="5"
       x="18"
       width="1"
       height="1"
       style="fill:#d1ccd1" />
    <rect
       id="rect1044"
       y="6"
       x="4"
       width="1"
       height="1"
       style="fill:#b0afaf" />
    <rect
       id="rect1056"
       y="6"
       x="10"
       width="1"
       height="1"
       style="fill:#e1dedf" />
    <rect
       id="rect1062"
       y="6"
       x="13"
       width="1"
       height="1"
       style="fill:#62605e" />
    <rect
       id="rect1072"
       y="6"
       x="18"
       width="1"
       height="1"
       style="fill:#322f30" />
    <rect
       id="rect1074"
       y="6"
       x="19"
       width="1"
       height="1"
       style="fill:#eeefef" />
    <rect
       id="rect1222"
       y="7"
       x="3"
       width="1"
       height="1"
       style="fill:#eeefef" />
    <rect
       id="rect1254"
       y="7"
       x="19"
       width="1"
       height="1"
       style="fill:#707270" />
    <rect
       id="rect1256"
       y="7"
       x="20"
       width="1"
       height="1"
       style="fill:#fffefe" />
    <rect
       id="rect1400"
       y="8"
       x="2"
       width="1"
       height="1"
       style="fill:#fffefe" />
    <rect
       id="rect1402"
       y="8"
       x="3"
       width="1"
       height="1"
       style="fill:#91989c" />
    <rect
       id="rect1422"
       y="8"
       x="13"
       width="1"
       height="1"
       style="fill:#fffefe" />
    <rect
       id="rect1436"
       y="8"
       x="20"
       width="1"
       height="1"
       style="fill:#eeefef" />
    <rect
       id="rect1594"
       y="9"
       x="9"
       width="1"
       height="1"
       style="fill:#fffefe" />
    <rect
       id="rect1604"
       y="9"
       x="14"
       width="1"
       height="1"
       style="fill:#d1ccd1" />
    <rect
       id="rect1616"
       y="9"
       x="20"
       width="1"
       height="1"
       style="fill:#b7b3ad" />
    <rect
       id="rect1954"
       y="11"
       x="9"
       width="1"
       height="1"
       style="fill:#fffefe" />
    <rect
       id="rect1978"
       y="11"
       x="21"
       width="1"
       height="1"
       style="fill:#fffefe" />
    <rect
       id="rect2312"
       y="13"
       x="8"
       width="1"
       height="1"
       style="fill:#322f30" />
    <rect
       id="rect2336"
       y="13"
       x="20"
       width="1"
       height="1"
       style="fill:#a0a09f" />
    <rect
       id="rect2480"
       y="14"
       x="2"
       width="1"
       height="1"
       style="fill:#fffefe" />
    <rect
       id="rect2482"
       y="14"
       x="3"
       width="1"
       height="1"
       style="fill:#707270" />
    <rect
       id="rect2494"
       y="14"
       x="9"
       width="1"
       height="1"
       style="fill:#8d8e8c" />
    <rect
       id="rect2496"
       y="14"
       x="10"
       width="1"
       height="1"
       style="fill:#322f30" />
    <rect
       id="rect2502"
       y="14"
       x="13"
       width="1"
       height="1"
       style="fill:#322f30" />
    <rect
       id="rect2504"
       y="14"
       x="14"
       width="1"
       height="1"
       style="fill:#8d8e8c" />
    <rect
       id="rect2516"
       y="14"
       x="20"
       width="1"
       height="1"
       style="fill:#eeefef" />
    <rect
       id="rect2662"
       y="15"
       x="3"
       width="1"
       height="1"
       style="fill:#e1dedf" />
    <rect
       id="rect2674"
       y="15"
       x="9"
       width="1"
       height="1"
       style="fill:#322f30" />
    <rect
       id="rect2676"
       y="15"
       x="10"
       width="1"
       height="1"
       style="fill:#62605e" />
    <rect
       id="rect2694"
       y="15"
       x="19"
       width="1"
       height="1"
       style="fill:#62605e" />
    <rect
       id="rect2842"
       y="16"
       x="3"
       width="1"
       height="1"
       style="fill:#fffefe" />
    <rect
       id="rect2856"
       y="16"
       x="10"
       width="1"
       height="1"
       style="fill:#bfbebd" />
    <rect
       id="rect2858"
       y="16"
       x="11"
       width="1"
       height="1"
       style="fill:#f9f2f5" />
    <rect
       id="rect2874"
       y="16"
       x="19"
       width="1"
       height="1"
       style="fill:#eeefef" />
    <rect
       id="rect3026"
       y="17"
       x="5"
       width="1"
       height="1"
       style="fill:#62605e" />
    <rect
       id="rect3052"
       y="17"
       x="18"
       width="1"
       height="1"
       style="fill:#d1ccd1" />
    <rect
       id="rect3056"
       y="17"
       x="20"
       width="1"
       height="1"
       style="fill:#a0a09f" />
    <rect
       id="rect3058"
       y="17"
       x="21"
       width="1"
       height="1"
       style="fill:#bfbebd" />
    <rect
       id="rect3208"
       y="18"
       x="6"
       width="1"
       height="1"
       style="fill:#a0a09f" />
    <rect
       id="rect3234"
       y="18"
       x="19"
       width="1"
       height="1"
       style="fill:#eeefef" />
    <rect
       id="rect3236"
       y="18"
       x="20"
       width="1"
       height="1"
       style="fill:#322f30" />
    <rect
       id="rect3390"
       y="19"
       x="7"
       width="1"
       height="1"
       style="fill:#eeefef" />
    <rect
       id="rect3392"
       y="19"
       x="8"
       width="1"
       height="1"
       style="fill:#8d8e8c" />
    <rect
       id="rect3420"
       y="19"
       x="22"
       width="1"
       height="1"
       style="fill:#fffefe" />
    <rect
       id="rect3584"
       y="20"
       x="14"
       width="1"
       height="1"
       style="fill:#e1dedf" />
    <rect
       id="rect3598"
       y="20"
       x="21"
       width="1"
       height="1"
       style="fill:#8d8e8c" />
    <rect
       id="rect3778"
       y="21"
       x="21"
       width="1"
       height="1"
       style="fill:#eee1e1" />
    <rect
       id="rect3780"
       y="21"
       x="22"
       width="1"
       height="1"
       style="fill:#fcffff" />
    <rect
       id="rect3948"
       y="22"
       x="16"
       width="1"
       height="1"
       style="fill:#a0a09f" />
    <path
       inkscape:connector-curvature="0"
       id="rect3952"
       d="M 8,4 C 8,4.3333333 8,4.6666667 8,5 7.3333333,5 6.6666667,5 6,5 6,5.3333333 6,5.6666667 6,6 5.6666667,6 5.3333333,6 5,6 5,6.3333333 5,6.6666667 5,7 4.6666667,7 4.3333333,7 4,7 c 0,1 0,2 0,3 -0.3333333,0 -0.6666667,0 -1,0 0,1 0,2 0,3 0.3333333,0 0.6666667,0 1,0 0,1 0,2 0,3 0.3333333,0 0.6666667,0 1,0 0,0.333333 0,0.666667 0,1 0.3333333,0 0.6666667,0 1,0 0,0.333333 0,0.666667 0,1 0.6666667,0 1.3333333,0 2,0 0,0.333333 0,0.666667 0,1 1,0 2,0 3,0 0,0.333333 0,0.666667 0,1 0.666667,0 1.333333,0 2,0 0,-0.333333 0,-0.666667 0,-1 0.666667,0 1.333333,0 2,0 0,0.666667 0,1.333333 0,2 0.333333,0 0.666667,0 1,0 0,0.333333 0,0.666667 0,1 0.666667,0 1.333333,0 2,0 0,0.333333 0,0.666667 0,1 0.333333,0 0.666667,0 1,0 0,-0.333333 0,-0.666667 0,-1 0.666667,0 1.333333,0 2,0 0,-1 0,-2 0,-3 -1.333333,0 -2.666667,0 -4,0 0,-0.666667 0,-1.333333 0,-2 0.666667,0 1.333333,0 2,0 0,-0.666667 0,-1.333333 0,-2 0.333333,0 0.666667,0 1,0 0,-2.333333 0,-4.666667 0,-7 -0.333333,0 -0.666667,0 -1,0 0,-0.3333333 0,-0.6666667 0,-1 -0.333333,0 -0.666667,0 -1,0 0,-0.3333333 0,-0.6666667 0,-1 -0.333333,0 -0.666667,0 -1,0 0,-0.3333333 0,-0.6666667 0,-1 -0.333333,0 -0.666667,0 -1,0 0,-0.3333333 0,-0.6666667 0,-1 -2.666667,0 -5.333333,0 -8,0 z m 3,1 c 0.666667,0 1.333333,0 2,0 0,0.3333333 0,0.6666667 0,1 0.333333,0 0.666667,0 1,0 0,0.3333333 0,0.6666667 0,1 0.333333,0 0.666667,0 1,0 0,1.6666667 0,3.333333 0,5 0.333333,0 0.666667,0 1,0 0,0.333333 0,0.666667 0,1 -0.333333,0 -0.666667,0 -1,0 0,0.666667 0,1.333333 0,2 -0.666667,0 -1.333333,0 -2,0 0,-0.333333 0,-0.666667 0,-1 -0.666667,0 -1.333333,0 -2,0 0,0.666667 0,1.333333 0,2 0.333333,0 0.666667,0 1,0 0,0.333333 0,0.666667 0,1 0.333333,0 0.666667,0 1,0 0,0.333333 0,0.666667 0,1 -0.666667,0 -1.333333,0 -2,0 0,-0.333333 0,-0.666667 0,-1 -0.333333,0 -0.666667,0 -1,0 0,-0.333333 0,-0.666667 0,-1 -0.3333333,0 -0.6666667,0 -1,0 0,-0.666667 0,-1.333333 0,-2 -0.3333333,0 -0.6666667,0 -1,0 0,-2 0,-4 0,-6 0.3333333,0 0.6666667,0 1,0 0,-0.6666667 0,-1.3333333 0,-2 0.6666667,0 1.333333,0 2,0 0,-0.3333333 0,-0.6666667 0,-1 z"
       style="fill:#050102" />
    <rect
       id="rect3954"
       y="22"
       x="19"
       width="1"
       height="1"
       style="fill:#62605e" />
    <rect
       id="rect3956"
       y="22"
       x="20"
       width="1"
       height="1"
       style="fill:#e1dedf" />
    <rect
       id="rect20074"
       y="111"
       x="69"
       width="1"
       height="1"
       style="fill:#eeefef" />
    <rect
       id="rect20082"
       y="111"
       x="73"
       width="1"
       height="1"
       style="fill:#e1dedf" />
    <rect
       id="rect20252"
       y="112"
       x="68"
       width="1"
       height="1"
       style="fill:#e1dedf" />
    <rect
       id="rect20264"
       y="112"
       x="74"
       width="1"
       height="1"
       style="fill:#d1ccd1" />
    <rect
       id="rect20432"
       y="113"
       x="68"
       width="1"
       height="1"
       style="fill:#707270" />
    <rect
       id="rect20446"
       y="113"
       x="75"
       width="1"
       height="1"
       style="fill:#fffefe" />
    <rect
       id="rect20630"
       y="114"
       x="77"
       width="1"
       height="1"
       style="fill:#322f30" />
    <rect
       id="rect20638"
       y="114"
       x="81"
       width="1"
       height="1"
       style="fill:#bfbebd" />
    <rect
       id="rect20796"
       y="115"
       x="70"
       width="1"
       height="1"
       style="fill:#d1ccd1" />
    <rect
       id="rect20798"
       y="115"
       x="71"
       width="1"
       height="1"
       style="fill:#b0afaf" />
    <rect
       id="rect20820"
       y="115"
       x="82"
       width="1"
       height="1"
       style="fill:#62605e" />
    <rect
       id="rect20822"
       y="115"
       x="83"
       width="1"
       height="1"
       style="fill:#e1dedf" />
    <rect
       id="rect20970"
       y="116"
       x="67"
       width="1"
       height="1"
       style="fill:#fffefe" />
    <rect
       id="rect20974"
       y="116"
       x="69"
       width="1"
       height="1"
       style="fill:#bfbebd" />
    <rect
       id="rect20978"
       y="116"
       x="71"
       width="1"
       height="1"
       style="fill:#d1ccd1" />
    <rect
       id="rect20990"
       y="116"
       x="77"
       width="1"
       height="1"
       style="fill:#424841" />
    <rect
       id="rect21004"
       y="116"
       x="84"
       width="1"
       height="1"
       style="fill:#a0a09f" />
    <rect
       id="rect21156"
       y="117"
       x="70"
       width="1"
       height="1"
       style="fill:#e1dedf" />
    <rect
       id="rect21170"
       y="117"
       x="77"
       width="1"
       height="1"
       style="fill:#62605e" />
    <rect
       id="rect21174"
       y="117"
       x="79"
       width="1"
       height="1"
       style="fill:#707270" />
    <rect
       id="rect21186"
       y="117"
       x="85"
       width="1"
       height="1"
       style="fill:#d1ccd1" />
    <rect
       id="rect21352"
       y="118"
       x="78"
       width="1"
       height="1"
       style="fill:#322f30" />
    <rect
       id="rect21354"
       y="118"
       x="79"
       width="1"
       height="1"
       style="fill:#91989c" />
    <rect
       id="rect21366"
       y="118"
       x="85"
       width="1"
       height="1"
       style="fill:#322f30" />
    <rect
       id="rect21514"
       y="119"
       x="69"
       width="1"
       height="1"
       style="fill:#d1ccd1" />
    <rect
       id="rect21526"
       y="119"
       x="75"
       width="1"
       height="1"
       style="fill:#707270" />
    <rect
       id="rect21548"
       y="119"
       x="86"
       width="1"
       height="1"
       style="fill:#bfbebd" />
    <rect
       id="rect21692"
       y="120"
       x="68"
       width="1"
       height="1"
       style="fill:#fffefe" />
    <rect
       id="rect21710"
       y="120"
       x="77"
       width="1"
       height="1"
       style="fill:#bfbebd" />
    <rect
       id="rect21712"
       y="120"
       x="78"
       width="1"
       height="1"
       style="fill:#e1dedf" />
    <rect
       id="rect21716"
       y="120"
       x="80"
       width="1"
       height="1"
       style="fill:#eeefef" />
    <rect
       id="rect21728"
       y="120"
       x="86"
       width="1"
       height="1"
       style="fill:#707270" />
    <rect
       id="rect21898"
       y="121"
       x="81"
       width="1"
       height="1"
       style="fill:#322f30" />
    <rect
       id="rect22412"
       y="124"
       x="68"
       width="1"
       height="1"
       style="fill:#fffefe" />
    <rect
       id="rect22448"
       y="124"
       x="86"
       width="1"
       height="1"
       style="fill:#62605e" />
    <rect
       id="rect22594"
       y="125"
       x="69"
       width="1"
       height="1"
       style="fill:#bfbebd" />
    <rect
       id="rect22606"
       y="125"
       x="75"
       width="1"
       height="1"
       style="fill:#b0afaf" />
    <rect
       id="rect22618"
       y="125"
       x="81"
       width="1"
       height="1"
       style="fill:#322f30" />
    <rect
       id="rect22628"
       y="125"
       x="86"
       width="1"
       height="1"
       style="fill:#b0afaf" />
    <rect
       id="rect22776"
       y="126"
       x="70"
       width="1"
       height="1"
       style="fill:#322f30" />
    <rect
       id="rect22786"
       y="126"
       x="75"
       width="1"
       height="1"
       style="fill:#62605e" />
    <rect
       id="rect22796"
       y="126"
       x="80"
       width="1"
       height="1"
       style="fill:#eeefef" />
    <rect
       id="rect22956"
       y="127"
       x="70"
       width="1"
       height="1"
       style="fill:#d1ccd1" />
    <rect
       id="rect22968"
       y="127"
       x="76"
       width="1"
       height="1"
       style="fill:#bfbebd" />
    <rect
       id="rect22974"
       y="127"
       x="79"
       width="1"
       height="1"
       style="fill:#eeefef" />
    <path
       style="fill:#505050"
       d="M 9,6 C 9,6.3333333 9,6.6666667 9,7 9.3333333,7 9.6666667,7 10,7 10,6.6666667 10,6.3333333 10,6 9.6666667,6 9.3333333,6 9,6 Z"
       id="path12633"
       inkscape:connector-curvature="0" />
    <path
       style="fill:#505050"
       d="M 8,8 C 8,8.3333333 8,8.6666667 8,9 8.3333333,9 8.6666667,9 9,9 9,8.6666667 9,8.3333333 9,8 8.6666667,8 8.3333333,8 8,8 Z"
       id="path12631"
       inkscape:connector-curvature="0" />
    <path
       style="fill:#505050"
       d="m 8,12 c 0,0.333333 0,0.666667 0,1 0.3333333,0 0.6666667,0 1,0 0,-0.333333 0,-0.666667 0,-1 -0.3333333,0 -0.6666667,0 -1,0 z"
       id="path12629"
       inkscape:connector-curvature="0" />
    <path
       style="fill:#505050"
       d="m 11,17 c 0,0.333333 0,0.666667 0,1 0.666667,0 1.333333,0 2,0 0,-0.333333 0,-0.666667 0,-1 -0.666667,0 -1.333333,0 -2,0 z"
       id="path12627"
       inkscape:connector-curvature="0" />
    <path
       style="fill:#505050"
       d="m 17,18 c 0,0.333333 0,0.666667 0,1 0.333333,0 0.666667,0 1,0 0,-0.333333 0,-0.666667 0,-1 -0.333333,0 -0.666667,0 -1,0 z"
       id="path12625"
       inkscape:connector-curvature="0" />
    <path
       style="fill:#505050"
       d="m 75,114 c 0,0.33333 0,0.66667 0,1 0.333333,0 0.666667,0 1,0 0,-0.33333 0,-0.66667 0,-1 -0.333333,0 -0.666667,0 -1,0 z"
       id="path12623"
       inkscape:connector-curvature="0" />
    <path
       style="fill:#505050"
       d="m 69,115 c 0,0.33333 0,0.66667 0,1 0.333333,0 0.666667,0 1,0 0,-0.33333 0,-0.66667 0,-1 -0.333333,0 -0.666667,0 -1,0 z"
       id="path12621"
       inkscape:connector-curvature="0" />
    <path
       style="fill:#505050"
       d="m 80,119 c 0,0.33333 0,0.66667 0,1 0.333333,0 0.666667,0 1,0 0,-0.33333 0,-0.66667 0,-1 -0.333333,0 -0.666667,0 -1,0 z"
       id="path12619"
       inkscape:connector-curvature="0" />
    <path
       style="fill:#505050"
       d="m 69,121 c 0,0.33333 0,0.66667 0,1 0.333333,0 0.666667,0 1,0 0,-0.33333 0,-0.66667 0,-1 -0.333333,0 -0.666667,0 -1,0 z"
       id="path12617"
       inkscape:connector-curvature="0" />
    <path
       style="fill:#505050"
       d="m 80,127 c 0,0.33333 0,0.66667 0,1 0.333333,0 0.666667,0 1,0 0,-0.33333 0,-0.66667 0,-1 -0.333333,0 -0.666667,0 -1,0 z"
       id="rect22976"
       inkscape:connector-curvature="0" />
    <rect
       id="rect22986"
       y="127"
       x="85"
       width="1"
       height="1"
       style="fill:#b0afaf" />
    <rect
       id="rect23138"
       y="128"
       x="71"
       width="1"
       height="1"
       style="fill:#a0a09f" />
    <path
       style="fill:#808280"
       d="m 14,3 c 0,0.3333333 0,0.6666667 0,1 0.333333,0 0.666667,0 1,0 0,-0.3333333 0,-0.6666667 0,-1 -0.333333,0 -0.666667,0 -1,0 z"
       id="path12599"
       inkscape:connector-curvature="0" />
    <path
       style="fill:#808280"
       d="m 14,8 c 0,0.3333333 0,0.6666667 0,1 0.333333,0 0.666667,0 1,0 0,-0.3333333 0,-0.6666667 0,-1 -0.333333,0 -0.666667,0 -1,0 z"
       id="path12597"
       inkscape:connector-curvature="0" />
    <path
       style="fill:#808280"
       d="m 8,9 c 0,1 0,2 0,3 0.3333333,0 0.6666667,0 1,0 C 9,11 9,10 9,9 8.6666667,9 8.3333333,9 8,9 Z"
       id="path12595"
       inkscape:connector-curvature="0" />
    <path
       style="fill:#808280"
       d="m 20,10 c 0,1 0,2 0,3 0.333333,0 0.666667,0 1,0 0,-1 0,-2 0,-3 -0.333333,0 -0.666667,0 -1,0 z"
       id="path12593"
       inkscape:connector-curvature="0" />
    <path
       style="fill:#808280"
       d="m 4,16 c 0,0.333333 0,0.666667 0,1 0.3333333,0 0.6666667,0 1,0 0,-0.333333 0,-0.666667 0,-1 -0.3333333,0 -0.6666667,0 -1,0 z"
       id="path12591"
       inkscape:connector-curvature="0" />
    <path
       style="fill:#808280"
       d="m 21,18 c 0,0.666667 0,1.333333 0,2 0.333333,0 0.666667,0 1,0 0,-0.666667 0,-1.333333 0,-2 -0.333333,0 -0.666667,0 -1,0 z"
       id="path12589"
       inkscape:connector-curvature="0" />
    <path
       style="fill:#808280"
       d="m 15,21 c 0,0.333333 0,0.666667 0,1 0.333333,0 0.666667,0 1,0 0,-0.333333 0,-0.666667 0,-1 -0.333333,0 -0.666667,0 -1,0 z"
       id="path12587"
       inkscape:connector-curvature="0" />
    <path
       style="fill:#808280"
       d="m 70,111 c 0,0.33333 0,0.66667 0,1 0.333333,0 0.666667,0 1,0 0,-0.33333 0,-0.66667 0,-1 -0.333333,0 -0.666667,0 -1,0 z"
       id="path12585"
       inkscape:connector-curvature="0" />
    <path
       style="fill:#808280"
       d="m 72,111 c 0,0.33333 0,0.66667 0,1 0.333333,0 0.666667,0 1,0 0,-0.33333 0,-0.66667 0,-1 -0.333333,0 -0.666667,0 -1,0 z"
       id="path12583"
       inkscape:connector-curvature="0" />
    <path
       style="fill:#808280"
       d="m 80,114 c 0,0.33333 0,0.66667 0,1 0.333333,0 0.666667,0 1,0 0,-0.33333 0,-0.66667 0,-1 -0.333333,0 -0.666667,0 -1,0 z"
       id="path12581"
       inkscape:connector-curvature="0" />
    <path
       style="fill:#808280"
       d="m 68,116 c 0,0.33333 0,0.66667 0,1 0.333333,0 0.666667,0 1,0 0,-0.33333 0,-0.66667 0,-1 -0.333333,0 -0.666667,0 -1,0 z"
       id="path12579"
       inkscape:connector-curvature="0" />
    <path
       style="fill:#808280"
       d="m 69,120 c 0,0.33333 0,0.66667 0,1 0.333333,0 0.666667,0 1,0 0,-0.33333 0,-0.66667 0,-1 -0.333333,0 -0.666667,0 -1,0 z"
       id="path12577"
       inkscape:connector-curvature="0" />
    <path
       style="fill:#808280"
       d="m 69,124 c 0,0.33333 0,0.66667 0,1 0.333333,0 0.666667,0 1,0 0,-0.33333 0,-0.66667 0,-1 -0.333333,0 -0.666667,0 -1,0 z"
       id="path12575"
       inkscape:connector-curvature="0" />
    <path
       style="fill:#808280"
       d="m 77,128 c 0,0.33333 0,0.66667 0,1 0.666667,0 1.333333,0 2,0 0,-0.33333 0,-0.66667 0,-1 -0.666667,0 -1.333333,0 -2,0 z"
       id="rect23152"
       inkscape:connector-curvature="0" />
    <rect
       id="rect23164"
       y="128"
       x="84"
       width="1"
       height="1"
       style="fill:#a0a09f" />
    <rect
       id="rect23320"
       y="129"
       x="72"
       width="1"
       height="1"
       style="fill:#bfbebd" />
    <path
       style="fill:#221e1f"
       d="M 7,4 C 7,4.3333333 7,4.6666667 7,5 7.3333333,5 7.6666667,5 8,5 8,4.6666667 8,4.3333333 8,4 7.6666667,4 7.3333333,4 7,4 Z"
       id="path12679"
       inkscape:connector-curvature="0" />
    <path
       style="fill:#221e1f"
       d="m 17,5 c 0,0.3333333 0,0.6666667 0,1 0.333333,0 0.666667,0 1,0 0,-0.3333333 0,-0.6666667 0,-1 -0.333333,0 -0.666667,0 -1,0 z"
       id="path12677"
       inkscape:connector-curvature="0" />
    <path
       style="fill:#221e1f"
       d="m 14,7 c 0,0.3333333 0,0.6666667 0,1 0.333333,0 0.666667,0 1,0 0,-0.3333333 0,-0.6666667 0,-1 -0.333333,0 -0.666667,0 -1,0 z"
       id="path12675"
       inkscape:connector-curvature="0" />
    <path
       style="fill:#221e1f"
       d="m 17,17 c 0,0.333333 0,0.666667 0,1 0.333333,0 0.666667,0 1,0 0,-0.333333 0,-0.666667 0,-1 -0.333333,0 -0.666667,0 -1,0 z"
       id="path12673"
       inkscape:connector-curvature="0" />
    <path
       style="fill:#221e1f"
       d="m 7,18 c 0,0.333333 0,0.666667 0,1 0.3333333,0 0.6666667,0 1,0 0,-0.333333 0,-0.666667 0,-1 -0.3333333,0 -0.6666667,0 -1,0 z"
       id="path12671"
       inkscape:connector-curvature="0" />
    <path
       style="fill:#221e1f"
       d="m 10,19 c 0,0.333333 0,0.666667 0,1 0.333333,0 0.666667,0 1,0 0,-0.333333 0,-0.666667 0,-1 -0.333333,0 -0.666667,0 -1,0 z"
       id="path12669"
       inkscape:connector-curvature="0" />
    <path
       style="fill:#221e1f"
       d="m 13,19 c 0,0.333333 0,0.666667 0,1 0.666667,0 1.333333,0 2,0 0,-0.333333 0,-0.666667 0,-1 -0.666667,0 -1.333333,0 -2,0 z"
       id="path12667"
       inkscape:connector-curvature="0" />
    <path
       style="fill:#221e1f"
       d="m 73,112 c 0,0.33333 0,0.66667 0,1 0.333333,0 0.666667,0 1,0 0,-0.33333 0,-0.66667 0,-1 -0.333333,0 -0.666667,0 -1,0 z"
       id="path12665"
       inkscape:connector-curvature="0" />
    <path
       style="fill:#221e1f"
       d="m 74,113 c 0,0.33333 0,0.66667 0,1 0.333333,0 0.666667,0 1,0 0,-0.33333 0,-0.66667 0,-1 -0.333333,0 -0.666667,0 -1,0 z"
       id="path12663"
       inkscape:connector-curvature="0" />
    <path
       style="fill:#221e1f"
       d="m 78,114 c 0,0.33333 0,0.66667 0,1 0.333333,0 0.666667,0 1,0 0,-0.33333 0,-0.66667 0,-1 -0.333333,0 -0.666667,0 -1,0 z"
       id="path12661"
       inkscape:connector-curvature="0" />
    <path
       style="fill:#221e1f"
       d="m 72,116 c 0,0.33333 0,0.66667 0,1 0.333333,0 0.666667,0 1,0 0,-0.33333 0,-0.66667 0,-1 -0.333333,0 -0.666667,0 -1,0 z"
       id="path12659"
       inkscape:connector-curvature="0" />
    <path
       style="fill:#221e1f"
       d="m 85,126 c 0,0.33333 0,0.66667 0,1 0.333333,0 0.666667,0 1,0 0,-0.33333 0,-0.66667 0,-1 -0.333333,0 -0.666667,0 -1,0 z"
       id="path12657"
       inkscape:connector-curvature="0" />
    <path
       style="fill:#221e1f"
       d="m 73,129 c 0,0.33333 0,0.66667 0,1 0.333333,0 0.666667,0 1,0 0,-0.33333 0,-0.66667 0,-1 -0.333333,0 -0.666667,0 -1,0 z"
       id="path12655"
       inkscape:connector-curvature="0" />
    <path
       style="fill:#221e1f"
       d="m 82,129 c 0,0.33333 0,0.66667 0,1 0.333333,0 0.666667,0 1,0 0,-0.33333 0,-0.66667 0,-1 -0.333333,0 -0.666667,0 -1,0 z"
       id="rect23340"
       inkscape:connector-curvature="0" />
    <rect
       id="rect23342"
       y="129"
       x="83"
       width="1"
       height="1"
       style="fill:#a6a8a9" />
    <rect
       id="rect23500"
       y="130"
       x="73"
       width="1"
       height="1"
       style="fill:#eeefef" />
    <rect
       id="rect23502"
       y="130"
       x="74"
       width="1"
       height="1"
       style="fill:#a0a09f" />
    <path
       inkscape:connector-curvature="0"
       id="rect23512"
       d="m 69,112 c 0,1 0,2 0,3 1,0 2,0 3,0 0,0.33333 0,0.66667 0,1 0.333333,0 0.666667,0 1,0 0,0.33333 0,0.66667 0,1 -0.666667,0 -1.333333,0 -2,0 0,0.66667 0,1.33333 0,2 -0.333333,0 -0.666667,0 -1,0 0,2.33333 0,4.66667 0,7 0.333333,0 0.666667,0 1,0 0,0.66667 0,1.33333 0,2 0.333333,0 0.666667,0 1,0 0,0.33333 0,0.66667 0,1 0.666667,0 1.333333,0 2,0 0,0.33333 0,0.66667 0,1 0.666667,0 1.333333,0 2,0 0,0.33333 0,0.66667 0,1 1.333333,0 2.666667,0 4,0 0,-0.33333 0,-0.66667 0,-1 0.666667,0 1.333333,0 2,0 0,-0.33333 0,-0.66667 0,-1 0.666667,0 1.333333,0 2,0 0,-0.33333 0,-0.66667 0,-1 0.333333,0 0.666667,0 1,0 0,-0.66667 0,-1.33333 0,-2 0.333333,0 0.666667,0 1,0 0,-2.33333 0,-4.66667 0,-7 -0.333333,0 -0.666667,0 -1,0 0,-0.66667 0,-1.33333 0,-2 -0.333333,0 -0.666667,0 -1,0 0,-0.33333 0,-0.66667 0,-1 -0.666667,0 -1.333333,0 -2,0 0,-0.33333 0,-0.66667 0,-1 -2.333333,0 -4.666667,0 -7,0 0,-0.33333 0,-0.66667 0,-1 -0.333333,0 -0.666667,0 -1,0 0,-0.33333 0,-0.66667 0,-1 -0.333333,0 -0.666667,0 -1,0 0,-0.33333 0,-0.66667 0,-1 -1.333333,0 -2.666667,0 -4,0 z m 8,4 c 0.333333,0 0.666667,0 1,0 0,0.33333 0,0.66667 0,1 0.666667,0 1.333333,0 2,0 0,0.66667 0,1.33333 0,2 0.333333,0 0.666667,0 1,0 0,0.66667 0,1.33333 0,2 0.333333,0 0.666667,0 1,0 0,1.66667 0,3.33333 0,5 -0.333333,0 -0.666667,0 -1,0 0,0.66667 0,1.33333 0,2 -0.666667,0 -1.333333,0 -2,0 0,0.33333 0,0.66667 0,1 -0.666667,0 -1.333333,0 -2,0 0,-0.33333 0,-0.66667 0,-1 -0.333333,0 -0.666667,0 -1,0 0,-0.33333 0,-0.66667 0,-1 -0.333333,0 -0.666667,0 -1,0 0,-1 0,-2 0,-3 -0.333333,0 -0.666667,0 -1,0 0,-1.33333 0,-2.66667 0,-4 0.333333,0 0.666667,0 1,0 0,-0.33333 0,-0.66667 0,-1 0.333333,0 0.666667,0 1,0 0,0.33333 0,0.66667 0,1 1.333333,0 2.666667,0 4,0 0,-0.33333 0,-0.66667 0,-1 -0.666667,0 -1.333333,0 -2,0 0,-0.33333 0,-0.66667 0,-1 -0.333333,0 -0.666667,0 -1,0 0,-0.66667 0,-1.33333 0,-2 z"
       style="fill:#050102" />
    <path
       style="fill:#433f40"
       d="m 10,3 c 0,0.3333333 0,0.6666667 0,1 1.333333,0 2.666667,0 4,0 0,-0.3333333 0,-0.6666667 0,-1 -1.333333,0 -2.666667,0 -4,0 z"
       id="path12548"
       inkscape:connector-curvature="0" />
    <path
       style="fill:#433f40"
       d="m 12,5 c 0,0.3333333 0,0.6666667 0,1 0.333333,0 0.666667,0 1,0 0,-0.3333333 0,-0.6666667 0,-1 -0.333333,0 -0.666667,0 -1,0 z"
       id="path12546"
       inkscape:connector-curvature="0" />
    <path
       style="fill:#433f40"
       d="m 3,9 c 0,0.3333333 0,0.6666667 0,1 0.3333333,0 0.6666667,0 1,0 C 4,9.6666667 4,9.3333333 4,9 3.6666667,9 3.3333333,9 3,9 Z"
       id="path12544"
       inkscape:connector-curvature="0" />
    <path
       style="fill:#433f40"
       d="m 15,12 c 0,0.333333 0,0.666667 0,1 0.333333,0 0.666667,0 1,0 0,-0.333333 0,-0.666667 0,-1 -0.333333,0 -0.666667,0 -1,0 z"
       id="path12542"
       inkscape:connector-curvature="0" />
    <path
       style="fill:#433f40"
       d="m 3,13 c 0,0.333333 0,0.666667 0,1 0.3333333,0 0.6666667,0 1,0 0,-0.333333 0,-0.666667 0,-1 -0.3333333,0 -0.6666667,0 -1,0 z"
       id="path12540"
       inkscape:connector-curvature="0" />
    <path
       style="fill:#433f40"
       d="m 9,19 c 0,0.333333 0,0.666667 0,1 0.3333333,0 0.6666667,0 1,0 0,-0.333333 0,-0.666667 0,-1 -0.3333333,0 -0.6666667,0 -1,0 z"
       id="path12538"
       inkscape:connector-curvature="0" />
    <path
       style="fill:#433f40"
       d="m 17,22 c 0,0.333333 0,0.666667 0,1 0.333333,0 0.666667,0 1,0 0,-0.333333 0,-0.666667 0,-1 -0.333333,0 -0.666667,0 -1,0 z"
       id="path12536"
       inkscape:connector-curvature="0" />
    <path
       style="fill:#433f40"
       d="m 71,111 c 0,0.33333 0,0.66667 0,1 0.333333,0 0.666667,0 1,0 0,-0.33333 0,-0.66667 0,-1 -0.333333,0 -0.666667,0 -1,0 z"
       id="path12534"
       inkscape:connector-curvature="0" />
    <path
       style="fill:#433f40"
       d="m 68,114 c 0,0.66667 0,1.33333 0,2 0.333333,0 0.666667,0 1,0 0,-0.66667 0,-1.33333 0,-2 -0.333333,0 -0.666667,0 -1,0 z"
       id="path12532"
       inkscape:connector-curvature="0" />
    <path
       style="fill:#433f40"
       d="m 76,114 c 0,0.33333 0,0.66667 0,1 0.333333,0 0.666667,0 1,0 0,-0.33333 0,-0.66667 0,-1 -0.333333,0 -0.666667,0 -1,0 z"
       id="path12530"
       inkscape:connector-curvature="0" />
    <path
       style="fill:#433f40"
       d="m 79,114 c 0,0.33333 0,0.66667 0,1 0.333333,0 0.666667,0 1,0 0,-0.33333 0,-0.66667 0,-1 -0.333333,0 -0.666667,0 -1,0 z"
       id="path12528"
       inkscape:connector-curvature="0" />
    <path
       style="fill:#433f40"
       d="m 70,118 c 0,0.33333 0,0.66667 0,1 0.333333,0 0.666667,0 1,0 0,-0.33333 0,-0.66667 0,-1 -0.333333,0 -0.666667,0 -1,0 z"
       id="path12526"
       inkscape:connector-curvature="0" />
    <path
       style="fill:#433f40"
       d="m 74,120 c 0,1.33333 0,2.66667 0,4 0.333333,0 0.666667,0 1,0 0,-1.33333 0,-2.66667 0,-4 -0.333333,0 -0.666667,0 -1,0 z"
       id="path12524"
       inkscape:connector-curvature="0" />
    <path
       style="fill:#433f40"
       d="m 86,121 c 0,1 0,2 0,3 0.333333,0 0.666667,0 1,0 0,-1 0,-2 0,-3 -0.333333,0 -0.666667,0 -1,0 z"
       id="path12522"
       inkscape:connector-curvature="0" />
    <path
       style="fill:#433f40"
       d="m 69,122 c 0,0.66667 0,1.33333 0,2 0.333333,0 0.666667,0 1,0 0,-0.66667 0,-1.33333 0,-2 -0.333333,0 -0.666667,0 -1,0 z"
       id="path12520"
       inkscape:connector-curvature="0" />
    <path
       style="fill:#433f40"
       d="m 81,122 c 0,1 0,2 0,3 0.333333,0 0.666667,0 1,0 0,-1 0,-2 0,-3 -0.333333,0 -0.666667,0 -1,0 z"
       id="path12518"
       inkscape:connector-curvature="0" />
    <path
       style="fill:#433f40"
       d="m 75,130 c 0,0.33333 0,0.66667 0,1 0.333333,0 0.666667,0 1,0 0,-0.33333 0,-0.66667 0,-1 -0.333333,0 -0.666667,0 -1,0 z"
       id="path12516"
       inkscape:connector-curvature="0" />
    <path
       style="fill:#433f40"
       d="m 80,130 c 0,0.33333 0,0.66667 0,1 0.333333,0 0.666667,0 1,0 0,-0.33333 0,-0.66667 0,-1 -0.333333,0 -0.666667,0 -1,0 z"
       id="rect23514"
       inkscape:connector-curvature="0" />
    <rect
       id="rect23516"
       y="130"
       x="81"
       width="1"
       height="1"
       style="fill:#8d8e8c" />
    <rect
       id="rect23518"
       y="130"
       x="82"
       width="1"
       height="1"
       style="fill:#eeefef" />
  </g>
</svg>
