<?xml version="1.0" encoding="UTF-8" standalone="no"?>
<svg
   xmlns:dc="http://purl.org/dc/elements/1.1/"
   xmlns:cc="http://creativecommons.org/ns#"
   xmlns:rdf="http://www.w3.org/1999/02/22-rdf-syntax-ns#"
   xmlns:svg="http://www.w3.org/2000/svg"
   xmlns="http://www.w3.org/2000/svg"
   xmlns:sodipodi="http://sodipodi.sourceforge.net/DTD/sodipodi-0.dtd"
   xmlns:inkscape="http://www.inkscape.org/namespaces/inkscape"
   height="135px"
   version="1.1"
   width="90px"
   id="svg24208"
   sodipodi:docname="12-red.svg"
   inkscape:version="0.92.2 (5c3e80d, 2017-08-06)">
  <metadata
     id="metadata24212">
    <rdf:RDF>
      <cc:Work
         rdf:about="">
        <dc:format>image/svg+xml</dc:format>
        <dc:type
           rdf:resource="http://purl.org/dc/dcmitype/StillImage" />
        <dc:title></dc:title>
      </cc:Work>
    </rdf:RDF>
  </metadata>
  <sodipodi:namedview
     pagecolor="#ffffff"
     bordercolor="#666666"
     borderopacity="1"
     objecttolerance="10"
     gridtolerance="10"
     guidetolerance="10"
     inkscape:pageopacity="0"
     inkscape:pageshadow="2"
     inkscape:window-width="1920"
     inkscape:window-height="1025"
     id="namedview24210"
     showgrid="false"
     inkscape:zoom="6.9925926"
     inkscape:cx="55.687239"
     inkscape:cy="107.94279"
     inkscape:window-x="-8"
     inkscape:window-y="-8"
     inkscape:window-maximized="1"
     inkscape:current-layer="svg24208" />
  <defs
     id="defs2" />
  <g
     id="g13847">
    <rect
       id="rect518"
       y="3"
       x="8"
       width="1"
       height="1"
       style="fill:#eda8a9" />
    <rect
       id="rect532"
       y="3"
       x="15"
       width="1"
       height="1"
       style="fill:#f5dde3" />
    <rect
       id="rect690"
       y="4"
       x="6"
       width="1"
       height="1"
       style="fill:#eda8a9" />
    <rect
       id="rect712"
       y="4"
       x="17"
       width="1"
       height="1"
       style="fill:#fbeef2" />
    <rect
       id="rect866"
       y="5"
       x="5"
       width="1"
       height="1"
       style="fill:#eda8a9" />
    <rect
       id="rect892"
       y="5"
       x="18"
       width="1"
       height="1"
       style="fill:#f7cfd3" />
    <rect
       id="rect1044"
       y="6"
       x="4"
       width="1"
       height="1"
       style="fill:#eda8a9" />
    <rect
       id="rect1056"
       y="6"
       x="10"
       width="1"
       height="1"
       style="fill:#f5dde3" />
    <rect
       id="rect1074"
       y="6"
       x="19"
       width="1"
       height="1"
       style="fill:#fbeef2" />
    <rect
       id="rect1222"
       y="7"
       x="3"
       width="1"
       height="1"
       style="fill:#fbeef2" />
    <rect
       id="rect1256"
       y="7"
       x="20"
       width="1"
       height="1"
       style="fill:#fffbf9" />
    <rect
       id="rect1436"
       y="8"
       x="20"
       width="1"
       height="1"
       style="fill:#fbeef2" />
    <rect
       id="rect1604"
       y="9"
       x="14"
       width="1"
       height="1"
       style="fill:#f7cfd3" />
    <rect
       id="rect1616"
       y="9"
       x="20"
       width="1"
       height="1"
       style="fill:#eda8a9" />
    <rect
       id="rect2144"
       y="12"
       x="14"
       width="1"
       height="1"
       style="fill:#fffbf9" />
    <rect
       id="rect2336"
       y="13"
       x="20"
       width="1"
       height="1"
       style="fill:#eda8a9" />
    <rect
       id="rect2338"
       y="13"
       x="21"
       width="1"
       height="1"
       style="fill:#fcfcfd" />
    <rect
       id="rect2516"
       y="14"
       x="20"
       width="1"
       height="1"
       style="fill:#fbeef2" />
    <rect
       id="rect2662"
       y="15"
       x="3"
       width="1"
       height="1"
       style="fill:#f5dde3" />
    <rect
       id="rect2856"
       y="16"
       x="10"
       width="1"
       height="1"
       style="fill:#f1c0c0" />
    <rect
       id="rect3052"
       y="17"
       x="18"
       width="1"
       height="1"
       style="fill:#f5dde3" />
    <rect
       id="rect3056"
       y="17"
       x="20"
       width="1"
       height="1"
       style="fill:#eda8a9" />
    <rect
       id="rect3058"
       y="17"
       x="21"
       width="1"
       height="1"
       style="fill:#f1c0c0" />
    <rect
       id="rect3208"
       y="18"
       x="6"
       width="1"
       height="1"
       style="fill:#eda8a9" />
    <rect
       id="rect3234"
       y="18"
       x="19"
       width="1"
       height="1"
       style="fill:#fbeef2" />
    <rect
       id="rect3390"
       y="19"
       x="7"
       width="1"
       height="1"
       style="fill:#fbeef2" />
    <rect
       id="rect3574"
       y="20"
       x="9"
       width="1"
       height="1"
       style="fill:#fffbf9" />
    <rect
       id="rect3576"
       y="20"
       x="10"
       width="1"
       height="1"
       style="fill:#fffbf9" />
    <rect
       id="rect3580"
       y="20"
       x="12"
       width="1"
       height="1"
       style="fill:#fffcff" />
    <rect
       id="rect3582"
       y="20"
       x="13"
       width="1"
       height="1"
       style="fill:#fffbf9" />
    <rect
       id="rect3584"
       y="20"
       x="14"
       width="1"
       height="1"
       style="fill:#f5dde3" />
    <rect
       id="rect3778"
       y="21"
       x="21"
       width="1"
       height="1"
       style="fill:#f9e6ed" />
    <rect
       id="rect3946"
       y="22"
       x="15"
       width="1"
       height="1"
       style="fill:#fffbf9" />
    <rect
       id="rect3948"
       y="22"
       x="16"
       width="1"
       height="1"
       style="fill:#eda8a9" />
    <path
       inkscape:connector-curvature="0"
       id="rect3952"
       d="M 8,4 C 8,4.3333333 8,4.6666667 8,5 7.3333333,5 6.6666667,5 6,5 6,5.3333333 6,5.6666667 6,6 5.6666667,6 5.3333333,6 5,6 5,6.3333333 5,6.6666667 5,7 4.6666667,7 4.3333333,7 4,7 c 0,1 0,2 0,3 -0.3333333,0 -0.6666667,0 -1,0 0,1 0,2 0,3 0.3333333,0 0.6666667,0 1,0 0,1 0,2 0,3 0.3333333,0 0.6666667,0 1,0 0,0.333333 0,0.666667 0,1 0.3333333,0 0.6666667,0 1,0 0,0.333333 0,0.666667 0,1 0.6666667,0 1.3333333,0 2,0 0,0.333333 0,0.666667 0,1 1,0 2,0 3,0 0,0.333333 0,0.666667 0,1 0.666667,0 1.333333,0 2,0 0,-0.333333 0,-0.666667 0,-1 0.666667,0 1.333333,0 2,0 0,0.666667 0,1.333333 0,2 0.333333,0 0.666667,0 1,0 0,0.333333 0,0.666667 0,1 0.666667,0 1.333333,0 2,0 0,0.333333 0,0.666667 0,1 0.333333,0 0.666667,0 1,0 0,-0.333333 0,-0.666667 0,-1 0.666667,0 1.333333,0 2,0 0,-1 0,-2 0,-3 -1.333333,0 -2.666667,0 -4,0 0,-0.333333 0,-0.666667 0,-1 0.333333,0 0.666667,0 1,0 0,-0.333333 0,-0.666667 0,-1 0.333333,0 0.666667,0 1,0 0,-0.666667 0,-1.333333 0,-2 0.333333,0 0.666667,0 1,0 0,-2.333333 0,-4.666667 0,-7 -0.333333,0 -0.666667,0 -1,0 0,-0.3333333 0,-0.6666667 0,-1 -0.333333,0 -0.666667,0 -1,0 0,-0.3333333 0,-0.6666667 0,-1 -0.333333,0 -0.666667,0 -1,0 0,-0.3333333 0,-0.6666667 0,-1 -0.333333,0 -0.666667,0 -1,0 0,-0.3333333 0,-0.6666667 0,-1 -2.666667,0 -5.333333,0 -8,0 z m 3,1 c 0.666667,0 1.333333,0 2,0 0,0.3333333 0,0.6666667 0,1 0.333333,0 0.666667,0 1,0 0,0.3333333 0,0.6666667 0,1 0.333333,0 0.666667,0 1,0 0,1.6666667 0,3.333333 0,5 0.333333,0 0.666667,0 1,0 0,0.333333 0,0.666667 0,1 -0.333333,0 -0.666667,0 -1,0 0,0.666667 0,1.333333 0,2 -0.666667,0 -1.333333,0 -2,0 0,-0.333333 0,-0.666667 0,-1 -0.666667,0 -1.333333,0 -2,0 0,0.666667 0,1.333333 0,2 0.333333,0 0.666667,0 1,0 0,0.333333 0,0.666667 0,1 0.333333,0 0.666667,0 1,0 0,0.333333 0,0.666667 0,1 -0.666667,0 -1.333333,0 -2,0 0,-0.333333 0,-0.666667 0,-1 -0.333333,0 -0.666667,0 -1,0 0,-0.333333 0,-0.666667 0,-1 -0.3333333,0 -0.6666667,0 -1,0 0,-0.666667 0,-1.333333 0,-2 -0.3333333,0 -0.6666667,0 -1,0 0,-2 0,-4 0,-6 0.3333333,0 0.6666667,0 1,0 0,-0.6666667 0,-1.3333333 0,-2 0.6666667,0 1.333333,0 2,0 0,-0.3333333 0,-0.6666667 0,-1 z"
       style="fill:#c90406" />
    <rect
       id="rect3956"
       y="22"
       x="20"
       width="1"
       height="1"
       style="fill:#f5dde3" />
    <rect
       id="rect4130"
       y="23"
       x="17"
       width="1"
       height="1"
       style="fill:#fffbf9" />
    <rect
       id="rect20074"
       y="111"
       x="69"
       width="1"
       height="1"
       style="fill:#fbeef2" />
    <rect
       id="rect20082"
       y="111"
       x="73"
       width="1"
       height="1"
       style="fill:#f5dde3" />
    <rect
       id="rect20252"
       y="112"
       x="68"
       width="1"
       height="1"
       style="fill:#f5dde3" />
    <rect
       id="rect20264"
       y="112"
       x="74"
       width="1"
       height="1"
       style="fill:#f7cfd3" />
    <rect
       id="rect20446"
       y="113"
       x="75"
       width="1"
       height="1"
       style="fill:#f4f7fd" />
    <rect
       id="rect20638"
       y="114"
       x="81"
       width="1"
       height="1"
       style="fill:#f1c0c0" />
    <rect
       id="rect20796"
       y="115"
       x="70"
       width="1"
       height="1"
       style="fill:#f7cfd3" />
    <rect
       id="rect20798"
       y="115"
       x="71"
       width="1"
       height="1"
       style="fill:#eda8a9" />
    <rect
       id="rect20822"
       y="115"
       x="83"
       width="1"
       height="1"
       style="fill:#f9e6ed" />
    <rect
       id="rect20974"
       y="116"
       x="69"
       width="1"
       height="1"
       style="fill:#f1c0c0" />
    <rect
       id="rect20976"
       y="116"
       x="70"
       width="1"
       height="1"
       style="fill:#fcfeff" />
    <rect
       id="rect20978"
       y="116"
       x="71"
       width="1"
       height="1"
       style="fill:#f7cfd3" />
    <rect
       id="rect21004"
       y="116"
       x="84"
       width="1"
       height="1"
       style="fill:#eda8a9" />
    <rect
       id="rect21156"
       y="117"
       x="70"
       width="1"
       height="1"
       style="fill:#f5dde3" />
    <rect
       id="rect21186"
       y="117"
       x="85"
       width="1"
       height="1"
       style="fill:#f7cfd3" />
    <rect
       id="rect21334"
       y="118"
       x="69"
       width="1"
       height="1"
       style="fill:#fcfcfd" />
    <rect
       id="rect21514"
       y="119"
       x="69"
       width="1"
       height="1"
       style="fill:#f7cfd3" />
    <rect
       id="rect21548"
       y="119"
       x="86"
       width="1"
       height="1"
       style="fill:#f1c0c0" />
    <rect
       id="rect21706"
       y="120"
       x="75"
       width="1"
       height="1"
       style="fill:#fffbf9" />
    <rect
       id="rect21710"
       y="120"
       x="77"
       width="1"
       height="1"
       style="fill:#f1c0c0" />
    <rect
       id="rect21712"
       y="120"
       x="78"
       width="1"
       height="1"
       style="fill:#f5dde3" />
    <rect
       id="rect21714"
       y="120"
       x="79"
       width="1"
       height="1"
       style="fill:#fffbf9" />
    <rect
       id="rect21716"
       y="120"
       x="80"
       width="1"
       height="1"
       style="fill:#fbeef2" />
    <rect
       id="rect22052"
       y="122"
       x="68"
       width="1"
       height="1"
       style="fill:#fffbf9" />
    <rect
       id="rect22076"
       y="122"
       x="80"
       width="1"
       height="1"
       style="fill:#fcfcfd" />
    <rect
       id="rect22412"
       y="124"
       x="68"
       width="1"
       height="1"
       style="fill:#fffbf9" />
    <rect
       id="rect22594"
       y="125"
       x="69"
       width="1"
       height="1"
       style="fill:#f1c0c0" />
    <rect
       id="rect22606"
       y="125"
       x="75"
       width="1"
       height="1"
       style="fill:#eda8a9" />
    <rect
       id="rect22628"
       y="125"
       x="86"
       width="1"
       height="1"
       style="fill:#eda8a9" />
    <rect
       id="rect22796"
       y="126"
       x="80"
       width="1"
       height="1"
       style="fill:#fbeef2" />
    <rect
       id="rect22956"
       y="127"
       x="70"
       width="1"
       height="1"
       style="fill:#f7cfd3" />
    <rect
       id="rect22968"
       y="127"
       x="76"
       width="1"
       height="1"
       style="fill:#f1c0c0" />
    <rect
       id="rect22974"
       y="127"
       x="79"
       width="1"
       height="1"
       style="fill:#fbeef2" />
    <rect
       id="rect22986"
       y="127"
       x="85"
       width="1"
       height="1"
       style="fill:#eda8a9" />
    <rect
       id="rect23136"
       y="128"
       x="70"
       width="1"
       height="1"
       style="fill:#fcfcfd" />
    <rect
       id="rect23138"
       y="128"
       x="71"
       width="1"
       height="1"
       style="fill:#eda8a9" />
    <rect
       id="rect23164"
       y="128"
       x="84"
       width="1"
       height="1"
       style="fill:#eda8a9" />
    <rect
       id="rect23320"
       y="129"
       x="72"
       width="1"
       height="1"
       style="fill:#f1c0c0" />
    <path
       style="fill:#d22b2c"
       d="m 13,3 c 0,0.3333333 0,0.6666667 0,1 0.333333,0 0.666667,0 1,0 0,-0.3333333 0,-0.6666667 0,-1 -0.333333,0 -0.666667,0 -1,0 z"
       id="path13005"
       inkscape:connector-curvature="0" />
    <path
       style="fill:#d22b2c"
       d="M 7,4 C 7,4.3333333 7,4.6666667 7,5 7.3333333,5 7.6666667,5 8,5 8,4.6666667 8,4.3333333 8,4 7.6666667,4 7.3333333,4 7,4 Z"
       id="path13003"
       inkscape:connector-curvature="0" />
    <path
       style="fill:#d22b2c"
       d="m 12,5 c 0,0.3333333 0,0.6666667 0,1 0.333333,0 0.666667,0 1,0 0,-0.3333333 0,-0.6666667 0,-1 -0.333333,0 -0.666667,0 -1,0 z"
       id="path13001"
       inkscape:connector-curvature="0" />
    <path
       style="fill:#d22b2c"
       d="m 17,5 c 0,0.3333333 0,0.6666667 0,1 0.333333,0 0.666667,0 1,0 0,-0.3333333 0,-0.6666667 0,-1 -0.333333,0 -0.666667,0 -1,0 z"
       id="path12999"
       inkscape:connector-curvature="0" />
    <path
       style="fill:#d22b2c"
       d="m 18,6 c 0,0.3333333 0,0.6666667 0,1 0.333333,0 0.666667,0 1,0 0,-0.3333333 0,-0.6666667 0,-1 -0.333333,0 -0.666667,0 -1,0 z"
       id="path12997"
       inkscape:connector-curvature="0" />
    <path
       style="fill:#d22b2c"
       d="m 14,7 c 0,0.3333333 0,0.6666667 0,1 0.333333,0 0.666667,0 1,0 0,-0.3333333 0,-0.6666667 0,-1 -0.333333,0 -0.666667,0 -1,0 z"
       id="path12995"
       inkscape:connector-curvature="0" />
    <path
       style="fill:#d22b2c"
       d="m 8,13 c 0,0.333333 0,0.666667 0,1 0.3333333,0 0.6666667,0 1,0 0,-0.333333 0,-0.666667 0,-1 -0.3333333,0 -0.6666667,0 -1,0 z"
       id="path12993"
       inkscape:connector-curvature="0" />
    <path
       style="fill:#d22b2c"
       d="m 10,14 c 0,0.333333 0,0.666667 0,1 0.333333,0 0.666667,0 1,0 0,-0.333333 0,-0.666667 0,-1 -0.333333,0 -0.666667,0 -1,0 z"
       id="path12991"
       inkscape:connector-curvature="0" />
    <path
       style="fill:#d22b2c"
       d="m 10,15 c -0.3333333,0 -0.6666667,0 -1,0 0,0.333333 0,0.666667 0,1 0.3333333,0 0.6666667,0 1,0 0,-0.333333 0,-0.666667 0,-1 z"
       id="path12989"
       inkscape:connector-curvature="0" />
    <path
       style="fill:#d22b2c"
       d="m 13,14 c 0,0.333333 0,0.666667 0,1 0.333333,0 0.666667,0 1,0 0,-0.333333 0,-0.666667 0,-1 -0.333333,0 -0.666667,0 -1,0 z"
       id="path12987"
       inkscape:connector-curvature="0" />
    <path
       style="fill:#d22b2c"
       d="m 7,18 c 0,0.333333 0,0.666667 0,1 0.3333333,0 0.6666667,0 1,0 0,-0.333333 0,-0.666667 0,-1 -0.3333333,0 -0.6666667,0 -1,0 z"
       id="path12985"
       inkscape:connector-curvature="0" />
    <path
       style="fill:#d22b2c"
       d="m 20,18 c 0,0.333333 0,0.666667 0,1 0.333333,0 0.666667,0 1,0 0,-0.333333 0,-0.666667 0,-1 -0.333333,0 -0.666667,0 -1,0 z"
       id="path12983"
       inkscape:connector-curvature="0" />
    <path
       style="fill:#d22b2c"
       d="m 10,19 c 0,0.333333 0,0.666667 0,1 0.333333,0 0.666667,0 1,0 0,-0.333333 0,-0.666667 0,-1 -0.333333,0 -0.666667,0 -1,0 z"
       id="path12981"
       inkscape:connector-curvature="0" />
    <path
       style="fill:#d22b2c"
       d="m 13,19 c 0,0.333333 0,0.666667 0,1 0.666667,0 1.333333,0 2,0 0,-0.333333 0,-0.666667 0,-1 -0.666667,0 -1.333333,0 -2,0 z"
       id="path12979"
       inkscape:connector-curvature="0" />
    <path
       style="fill:#d22b2c"
       d="m 74,113 c 0,0.33333 0,0.66667 0,1 0.333333,0 0.666667,0 1,0 0,-0.33333 0,-0.66667 0,-1 -0.333333,0 -0.666667,0 -1,0 z"
       id="path12977"
       inkscape:connector-curvature="0" />
    <path
       style="fill:#d22b2c"
       d="m 68,114 c 0,0.33333 0,0.66667 0,1 0.333333,0 0.666667,0 1,0 0,-0.33333 0,-0.66667 0,-1 -0.333333,0 -0.666667,0 -1,0 z"
       id="path12975"
       inkscape:connector-curvature="0" />
    <path
       style="fill:#d22b2c"
       d="m 77,114 c 0,0.33333 0,0.66667 0,1 0.666667,0 1.333333,0 2,0 0,-0.33333 0,-0.66667 0,-1 -0.666667,0 -1.333333,0 -2,0 z"
       id="path12973"
       inkscape:connector-curvature="0" />
    <path
       style="fill:#d22b2c"
       d="m 72,116 c 0,0.33333 0,0.66667 0,1 0.333333,0 0.666667,0 1,0 0,-0.33333 0,-0.66667 0,-1 -0.333333,0 -0.666667,0 -1,0 z"
       id="path12971"
       inkscape:connector-curvature="0" />
    <path
       style="fill:#d22b2c"
       d="m 78,118 c 0,0.33333 0,0.66667 0,1 0.333333,0 0.666667,0 1,0 0,-0.33333 0,-0.66667 0,-1 -0.333333,0 -0.666667,0 -1,0 z"
       id="path12969"
       inkscape:connector-curvature="0" />
    <path
       style="fill:#d22b2c"
       d="m 79,119 c 0,0.33333 0,0.66667 0,1 0.333333,0 0.666667,0 1,0 0,-0.33333 0,-0.66667 0,-1 -0.333333,0 -0.666667,0 -1,0 z"
       id="path12967"
       inkscape:connector-curvature="0" />
    <path
       style="fill:#d22b2c"
       d="m 85,118 c 0,0.33333 0,0.66667 0,1 0.333333,0 0.666667,0 1,0 0,-0.33333 0,-0.66667 0,-1 -0.333333,0 -0.666667,0 -1,0 z"
       id="path12965"
       inkscape:connector-curvature="0" />
    <path
       style="fill:#d22b2c"
       d="m 81,121 c 0,0.33333 0,0.66667 0,1 0.333333,0 0.666667,0 1,0 0,-0.33333 0,-0.66667 0,-1 -0.333333,0 -0.666667,0 -1,0 z"
       id="path12963"
       inkscape:connector-curvature="0" />
    <path
       style="fill:#d22b2c"
       d="m 86,121 c 0,0.33333 0,0.66667 0,1 0.333333,0 0.666667,0 1,0 0,-0.33333 0,-0.66667 0,-1 -0.333333,0 -0.666667,0 -1,0 z"
       id="path12961"
       inkscape:connector-curvature="0" />
    <path
       style="fill:#d22b2c"
       d="m 81,125 c 0,0.33333 0,0.66667 0,1 0.333333,0 0.666667,0 1,0 0,-0.33333 0,-0.66667 0,-1 -0.333333,0 -0.666667,0 -1,0 z"
       id="path12959"
       inkscape:connector-curvature="0" />
    <path
       style="fill:#d22b2c"
       d="m 70,126 c 0,0.33333 0,0.66667 0,1 0.333333,0 0.666667,0 1,0 0,-0.33333 0,-0.66667 0,-1 -0.333333,0 -0.666667,0 -1,0 z"
       id="path12957"
       inkscape:connector-curvature="0" />
    <path
       style="fill:#d22b2c"
       d="m 85,126 c 0,0.33333 0,0.66667 0,1 0.333333,0 0.666667,0 1,0 0,-0.33333 0,-0.66667 0,-1 -0.333333,0 -0.666667,0 -1,0 z"
       id="path12955"
       inkscape:connector-curvature="0" />
    <path
       style="fill:#d22b2c"
       d="m 73,129 c 0,0.33333 0,0.66667 0,1 0.333333,0 0.666667,0 1,0 0,-0.33333 0,-0.66667 0,-1 -0.333333,0 -0.666667,0 -1,0 z"
       id="rect23322"
       inkscape:connector-curvature="0" />
    <rect
       id="rect23342"
       y="129"
       x="83"
       width="1"
       height="1"
       style="fill:#f1c0c0" />
    <rect
       id="rect23344"
       y="129"
       x="84"
       width="1"
       height="1"
       style="fill:#fffbf9" />
    <rect
       id="rect23346"
       y="129"
       x="85"
       width="1"
       height="1"
       style="fill:#fffcff" />
    <rect
       id="rect23500"
       y="130"
       x="73"
       width="1"
       height="1"
       style="fill:#f9e6ed" />
    <rect
       id="rect23502"
       y="130"
       x="74"
       width="1"
       height="1"
       style="fill:#eda8a9" />
    <path
       inkscape:connector-curvature="0"
       id="rect23512"
       d="m 69,112 c 0,1 0,2 0,3 1,0 2,0 3,0 0,0.33333 0,0.66667 0,1 0.333333,0 0.666667,0 1,0 0,0.33333 0,0.66667 0,1 -0.666667,0 -1.333333,0 -2,0 0,0.66667 0,1.33333 0,2 -0.333333,0 -0.666667,0 -1,0 0,2.33333 0,4.66667 0,7 0.333333,0 0.666667,0 1,0 0,0.66667 0,1.33333 0,2 0.333333,0 0.666667,0 1,0 0,0.33333 0,0.66667 0,1 0.666667,0 1.333333,0 2,0 0,0.33333 0,0.66667 0,1 0.666667,0 1.333333,0 2,0 0,0.33333 0,0.66667 0,1 1.333333,0 2.666667,0 4,0 0,-0.33333 0,-0.66667 0,-1 1,0 2,0 3,0 0,-0.33333 0,-0.66667 0,-1 0.333333,0 0.666667,0 1,0 0,-0.33333 0,-0.66667 0,-1 0.333333,0 0.666667,0 1,0 0,-0.66667 0,-1.33333 0,-2 0.333333,0 0.666667,0 1,0 0,-2.33333 0,-4.66667 0,-7 -0.333333,0 -0.666667,0 -1,0 0,-0.66667 0,-1.33333 0,-2 -0.333333,0 -0.666667,0 -1,0 0,-0.33333 0,-0.66667 0,-1 -0.666667,0 -1.333333,0 -2,0 0,-0.33333 0,-0.66667 0,-1 -2.333333,0 -4.666667,0 -7,0 0,-0.33333 0,-0.66667 0,-1 -0.333333,0 -0.666667,0 -1,0 0,-0.66667 0,-1.33333 0,-2 -1.666667,0 -3.333333,0 -5,0 z m 8,4 c 0.333333,0 0.666667,0 1,0 0,0.33333 0,0.66667 0,1 0.666667,0 1.333333,0 2,0 0,0.66667 0,1.33333 0,2 0.333333,0 0.666667,0 1,0 0,0.66667 0,1.33333 0,2 0.333333,0 0.666667,0 1,0 0,1.66667 0,3.33333 0,5 -0.333333,0 -0.666667,0 -1,0 0,0.66667 0,1.33333 0,2 -0.666667,0 -1.333333,0 -2,0 0,0.33333 0,0.66667 0,1 -0.666667,0 -1.333333,0 -2,0 0,-0.33333 0,-0.66667 0,-1 -0.333333,0 -0.666667,0 -1,0 0,-0.33333 0,-0.66667 0,-1 -0.333333,0 -0.666667,0 -1,0 0,-1 0,-2 0,-3 -0.333333,0 -0.666667,0 -1,0 0,-1.33333 0,-2.66667 0,-4 0.333333,0 0.666667,0 1,0 0,-0.33333 0,-0.66667 0,-1 0.333333,0 0.666667,0 1,0 0,0.33333 0,0.66667 0,1 1,0 2,0 3,0 0,-0.33333 0,-0.66667 0,-1 -0.333333,0 -0.666667,0 -1,0 0,-0.33333 0,-0.66667 0,-1 -0.333333,0 -0.666667,0 -1,0 0,-0.66667 0,-1.33333 0,-2 z"
       style="fill:#c90406" />
    <path
       style="fill:#d84d4f"
       d="m 9,3 c 0,0.3333333 0,0.6666667 0,1 1.333333,0 2.666667,0 4,0 0,-0.3333333 0,-0.6666667 0,-1 -1.333333,0 -2.666667,0 -4,0 z"
       id="path12919"
       inkscape:connector-curvature="0" />
    <path
       style="fill:#d84d4f"
       d="m 16,4 c 0,0.3333333 0,0.6666667 0,1 0.333333,0 0.666667,0 1,0 0,-0.3333333 0,-0.6666667 0,-1 -0.333333,0 -0.666667,0 -1,0 z"
       id="path12917"
       inkscape:connector-curvature="0" />
    <path
       style="fill:#d84d4f"
       d="M 9,6 C 9,6.3333333 9,6.6666667 9,7 9.3333333,7 9.6666667,7 10,7 10,6.6666667 10,6.3333333 10,6 9.6666667,6 9.3333333,6 9,6 Z"
       id="path12915"
       inkscape:connector-curvature="0" />
    <path
       style="fill:#d84d4f"
       d="m 13,6 c 0,0.3333333 0,0.6666667 0,1 0.333333,0 0.666667,0 1,0 0,-0.3333333 0,-0.6666667 0,-1 -0.333333,0 -0.666667,0 -1,0 z"
       id="path12913"
       inkscape:connector-curvature="0" />
    <path
       style="fill:#d84d4f"
       d="M 8,8 C 8,8.3333333 8,8.6666667 8,9 8.3333333,9 8.6666667,9 9,9 9,8.6666667 9,8.3333333 9,8 8.6666667,8 8.3333333,8 8,8 Z"
       id="path12911"
       inkscape:connector-curvature="0" />
    <path
       style="fill:#d84d4f"
       d="m 3,9 c 0,0.3333333 0,0.6666667 0,1 0.3333333,0 0.6666667,0 1,0 C 4,9.6666667 4,9.3333333 4,9 3.6666667,9 3.3333333,9 3,9 Z"
       id="path12909"
       inkscape:connector-curvature="0" />
    <path
       style="fill:#d84d4f"
       d="m 8,12 c 0,0.333333 0,0.666667 0,1 0.3333333,0 0.6666667,0 1,0 0,-0.333333 0,-0.666667 0,-1 -0.3333333,0 -0.6666667,0 -1,0 z"
       id="path12907"
       inkscape:connector-curvature="0" />
    <path
       style="fill:#d84d4f"
       d="m 15,12 c 0,0.333333 0,0.666667 0,1 0.333333,0 0.666667,0 1,0 0,-0.333333 0,-0.666667 0,-1 -0.333333,0 -0.666667,0 -1,0 z"
       id="path12905"
       inkscape:connector-curvature="0" />
    <path
       style="fill:#d84d4f"
       d="m 3,13 c 0,0.333333 0,0.666667 0,1 0.3333333,0 0.6666667,0 1,0 0,-0.333333 0,-0.666667 0,-1 -0.3333333,0 -0.6666667,0 -1,0 z"
       id="path12903"
       inkscape:connector-curvature="0" />
    <path
       style="fill:#d84d4f"
       d="m 19,15 c 0,0.333333 0,0.666667 0,1 0.333333,0 0.666667,0 1,0 0,-0.333333 0,-0.666667 0,-1 -0.333333,0 -0.666667,0 -1,0 z"
       id="path12901"
       inkscape:connector-curvature="0" />
    <path
       style="fill:#d84d4f"
       d="m 5,17 c 0,0.333333 0,0.666667 0,1 0.3333333,0 0.6666667,0 1,0 0,-0.333333 0,-0.666667 0,-1 -0.3333333,0 -0.6666667,0 -1,0 z"
       id="path12899"
       inkscape:connector-curvature="0" />
    <path
       style="fill:#d84d4f"
       d="m 11,17 c 0,0.333333 0,0.666667 0,1 0.666667,0 1.333333,0 2,0 0,-0.333333 0,-0.666667 0,-1 -0.666667,0 -1.333333,0 -2,0 z"
       id="path12897"
       inkscape:connector-curvature="0" />
    <path
       style="fill:#d84d4f"
       d="m 17,18 c 0,0.333333 0,0.666667 0,1 0.333333,0 0.666667,0 1,0 0,-0.333333 0,-0.666667 0,-1 -0.333333,0 -0.666667,0 -1,0 z"
       id="path12895"
       inkscape:connector-curvature="0" />
    <path
       style="fill:#d84d4f"
       d="m 9,19 c 0,0.333333 0,0.666667 0,1 0.3333333,0 0.6666667,0 1,0 0,-0.333333 0,-0.666667 0,-1 -0.3333333,0 -0.6666667,0 -1,0 z"
       id="path12893"
       inkscape:connector-curvature="0" />
    <path
       style="fill:#d84d4f"
       d="m 17,22 c 0,0.333333 0,0.666667 0,1 0.333333,0 0.666667,0 1,0 0,-0.333333 0,-0.666667 0,-1 -0.333333,0 -0.666667,0 -1,0 z"
       id="path12891"
       inkscape:connector-curvature="0" />
    <path
       style="fill:#d84d4f"
       d="m 19,22 c 0,0.333333 0,0.666667 0,1 0.333333,0 0.666667,0 1,0 0,-0.333333 0,-0.666667 0,-1 -0.333333,0 -0.666667,0 -1,0 z"
       id="path12889"
       inkscape:connector-curvature="0" />
    <path
       style="fill:#d84d4f"
       d="m 71,111 c 0,0.33333 0,0.66667 0,1 0.333333,0 0.666667,0 1,0 0,-0.33333 0,-0.66667 0,-1 -0.333333,0 -0.666667,0 -1,0 z"
       id="path12887"
       inkscape:connector-curvature="0" />
    <path
       style="fill:#d84d4f"
       d="m 75,114 c 0,0.33333 0,0.66667 0,1 0.666667,0 1.333333,0 2,0 0,-0.33333 0,-0.66667 0,-1 -0.666667,0 -1.333333,0 -2,0 z"
       id="path12885"
       inkscape:connector-curvature="0" />
    <path
       style="fill:#d84d4f"
       d="m 79,114 c 0,0.33333 0,0.66667 0,1 0.333333,0 0.666667,0 1,0 0,-0.33333 0,-0.66667 0,-1 -0.333333,0 -0.666667,0 -1,0 z"
       id="path12883"
       inkscape:connector-curvature="0" />
    <path
       style="fill:#d84d4f"
       d="m 68,115 c 0,0.33333 0,0.66667 0,1 0.666667,0 1.333333,0 2,0 0,-0.33333 0,-0.66667 0,-1 -0.666667,0 -1.333333,0 -2,0 z"
       id="path12881"
       inkscape:connector-curvature="0" />
    <path
       style="fill:#d84d4f"
       d="m 82,115 c 0,0.33333 0,0.66667 0,1 0.333333,0 0.666667,0 1,0 0,-0.33333 0,-0.66667 0,-1 -0.333333,0 -0.666667,0 -1,0 z"
       id="path12879"
       inkscape:connector-curvature="0" />
    <path
       style="fill:#d84d4f"
       d="m 77,116 c 0,0.66667 0,1.33333 0,2 0.333333,0 0.666667,0 1,0 0,-0.66667 0,-1.33333 0,-2 -0.333333,0 -0.666667,0 -1,0 z"
       id="path12877"
       inkscape:connector-curvature="0" />
    <path
       style="fill:#d84d4f"
       d="m 70,118 c 0,0.33333 0,0.66667 0,1 0.333333,0 0.666667,0 1,0 0,-0.33333 0,-0.66667 0,-1 -0.333333,0 -0.666667,0 -1,0 z"
       id="path12875"
       inkscape:connector-curvature="0" />
    <path
       style="fill:#d84d4f"
       d="m 80,119 c 0,0.33333 0,0.66667 0,1 0.333333,0 0.666667,0 1,0 0,-0.33333 0,-0.66667 0,-1 -0.333333,0 -0.666667,0 -1,0 z"
       id="path12873"
       inkscape:connector-curvature="0" />
    <path
       style="fill:#d84d4f"
       d="m 74,120 c 0,1.33333 0,2.66667 0,4 0.333333,0 0.666667,0 1,0 0,-1.33333 0,-2.66667 0,-4 -0.333333,0 -0.666667,0 -1,0 z"
       id="path12871"
       inkscape:connector-curvature="0" />
    <path
       style="fill:#d84d4f"
       d="m 69,121 c 0,1 0,2 0,3 0.333333,0 0.666667,0 1,0 0,-1 0,-2 0,-3 -0.333333,0 -0.666667,0 -1,0 z"
       id="path12869"
       inkscape:connector-curvature="0" />
    <path
       style="fill:#d84d4f"
       d="m 81,122 c 0,1 0,2 0,3 0.333333,0 0.666667,0 1,0 0,-1 0,-2 0,-3 -0.333333,0 -0.666667,0 -1,0 z"
       id="path12867"
       inkscape:connector-curvature="0" />
    <path
       style="fill:#d84d4f"
       d="m 86,122 c 0,1 0,2 0,3 0.333333,0 0.666667,0 1,0 0,-1 0,-2 0,-3 -0.333333,0 -0.666667,0 -1,0 z"
       id="path12865"
       inkscape:connector-curvature="0" />
    <path
       style="fill:#d84d4f"
       d="m 75,126 c 0,0.33333 0,0.66667 0,1 0.333333,0 0.666667,0 1,0 0,-0.33333 0,-0.66667 0,-1 -0.333333,0 -0.666667,0 -1,0 z"
       id="path12863"
       inkscape:connector-curvature="0" />
    <path
       style="fill:#d84d4f"
       d="m 80,127 c 0,0.33333 0,0.66667 0,1 0.333333,0 0.666667,0 1,0 0,-0.33333 0,-0.66667 0,-1 -0.333333,0 -0.666667,0 -1,0 z"
       id="path12861"
       inkscape:connector-curvature="0" />
    <path
       style="fill:#d84d4f"
       d="m 75,130 c 0,0.33333 0,0.66667 0,1 0.333333,0 0.666667,0 1,0 0,-0.33333 0,-0.66667 0,-1 -0.333333,0 -0.666667,0 -1,0 z"
       id="path12859"
       inkscape:connector-curvature="0" />
    <path
       style="fill:#d84d4f"
       d="m 80,130 c 0,0.33333 0,0.66667 0,1 0.333333,0 0.666667,0 1,0 0,-0.33333 0,-0.66667 0,-1 -0.333333,0 -0.666667,0 -1,0 z"
       id="rect23514"
       inkscape:connector-curvature="0" />
    <path
       style="fill:#e38183"
       d="m 14,3 c 0,0.3333333 0,0.6666667 0,1 0.333333,0 0.666667,0 1,0 0,-0.3333333 0,-0.6666667 0,-1 -0.333333,0 -0.666667,0 -1,0 z"
       id="path12804"
       inkscape:connector-curvature="0" />
    <path
       style="fill:#e38183"
       d="m 11,5 c 0,0.3333333 0,0.6666667 0,1 0.333333,0 0.666667,0 1,0 0,-0.3333333 0,-0.6666667 0,-1 -0.333333,0 -0.666667,0 -1,0 z"
       id="path12802"
       inkscape:connector-curvature="0" />
    <path
       style="fill:#e38183"
       d="m 19,7 c 0,0.3333333 0,0.6666667 0,1 0.333333,0 0.666667,0 1,0 0,-0.3333333 0,-0.6666667 0,-1 -0.333333,0 -0.666667,0 -1,0 z"
       id="path12800"
       inkscape:connector-curvature="0" />
    <path
       style="fill:#e38183"
       d="M 3,8 C 3,8.3333333 3,8.6666667 3,9 3.3333333,9 3.6666667,9 4,9 4,8.6666667 4,8.3333333 4,8 3.6666667,8 3.3333333,8 3,8 Z"
       id="path12798"
       inkscape:connector-curvature="0" />
    <path
       style="fill:#e38183"
       d="m 14,8 c 0,0.3333333 0,0.6666667 0,1 0.333333,0 0.666667,0 1,0 0,-0.3333333 0,-0.6666667 0,-1 -0.333333,0 -0.666667,0 -1,0 z"
       id="path12796"
       inkscape:connector-curvature="0" />
    <path
       style="fill:#e38183"
       d="m 8,9 c 0,1 0,2 0,3 0.3333333,0 0.6666667,0 1,0 C 9,11 9,10 9,9 8.6666667,9 8.3333333,9 8,9 Z"
       id="path12794"
       inkscape:connector-curvature="0" />
    <path
       style="fill:#e38183"
       d="m 20,10 c 0,1 0,2 0,3 0.333333,0 0.666667,0 1,0 0,-1 0,-2 0,-3 -0.333333,0 -0.666667,0 -1,0 z"
       id="path12792"
       inkscape:connector-curvature="0" />
    <path
       style="fill:#e38183"
       d="m 3,14 c 0,0.333333 0,0.666667 0,1 0.3333333,0 0.6666667,0 1,0 0,-0.333333 0,-0.666667 0,-1 -0.3333333,0 -0.6666667,0 -1,0 z"
       id="path12790"
       inkscape:connector-curvature="0" />
    <path
       style="fill:#e38183"
       d="m 9,14 c 0,0.333333 0,0.666667 0,1 0.3333333,0 0.6666667,0 1,0 0,-0.333333 0,-0.666667 0,-1 -0.3333333,0 -0.6666667,0 -1,0 z"
       id="path12788"
       inkscape:connector-curvature="0" />
    <path
       style="fill:#e38183"
       d="m 10,15 c 0,0.333333 0,0.666667 0,1 0.333333,0 0.666667,0 1,0 0,-0.333333 0,-0.666667 0,-1 -0.333333,0 -0.666667,0 -1,0 z"
       id="path12786"
       inkscape:connector-curvature="0" />
    <path
       style="fill:#e38183"
       d="m 14,14 c 0,0.333333 0,0.666667 0,1 0.333333,0 0.666667,0 1,0 0,-0.333333 0,-0.666667 0,-1 -0.333333,0 -0.666667,0 -1,0 z"
       id="path12784"
       inkscape:connector-curvature="0" />
    <path
       style="fill:#e38183"
       d="m 4,16 c 0,0.333333 0,0.666667 0,1 0.3333333,0 0.6666667,0 1,0 0,-0.333333 0,-0.666667 0,-1 -0.3333333,0 -0.6666667,0 -1,0 z"
       id="path12782"
       inkscape:connector-curvature="0" />
    <path
       style="fill:#e38183"
       d="m 21,18 c 0,1 0,2 0,3 0.333333,0 0.666667,0 1,0 0,-1 0,-2 0,-3 -0.333333,0 -0.666667,0 -1,0 z"
       id="path12780"
       inkscape:connector-curvature="0" />
    <path
       style="fill:#e38183"
       d="m 8,19 c 0,0.333333 0,0.666667 0,1 0.3333333,0 0.6666667,0 1,0 0,-0.333333 0,-0.666667 0,-1 -0.3333333,0 -0.6666667,0 -1,0 z"
       id="path12778"
       inkscape:connector-curvature="0" />
    <path
       style="fill:#e38183"
       d="m 15,21 c 0,0.333333 0,0.666667 0,1 0.333333,0 0.666667,0 1,0 0,-0.333333 0,-0.666667 0,-1 -0.333333,0 -0.666667,0 -1,0 z"
       id="path12776"
       inkscape:connector-curvature="0" />
    <path
       style="fill:#e38183"
       d="m 70,111 c 0,0.33333 0,0.66667 0,1 0.333333,0 0.666667,0 1,0 0,-0.33333 0,-0.66667 0,-1 -0.333333,0 -0.666667,0 -1,0 z"
       id="path12774"
       inkscape:connector-curvature="0" />
    <path
       style="fill:#e38183"
       d="m 72,111 c 0,0.33333 0,0.66667 0,1 0.333333,0 0.666667,0 1,0 0,-0.33333 0,-0.66667 0,-1 -0.333333,0 -0.666667,0 -1,0 z"
       id="path12772"
       inkscape:connector-curvature="0" />
    <path
       style="fill:#e38183"
       d="m 68,113 c 0,0.33333 0,0.66667 0,1 0.333333,0 0.666667,0 1,0 0,-0.33333 0,-0.66667 0,-1 -0.333333,0 -0.666667,0 -1,0 z"
       id="path12770"
       inkscape:connector-curvature="0" />
    <path
       style="fill:#e38183"
       d="m 80,114 c 0,0.33333 0,0.66667 0,1 0.333333,0 0.666667,0 1,0 0,-0.33333 0,-0.66667 0,-1 -0.333333,0 -0.666667,0 -1,0 z"
       id="path12768"
       inkscape:connector-curvature="0" />
    <path
       style="fill:#e38183"
       d="m 68,116 c 0,0.33333 0,0.66667 0,1 0.333333,0 0.666667,0 1,0 0,-0.33333 0,-0.66667 0,-1 -0.333333,0 -0.666667,0 -1,0 z"
       id="path12766"
       inkscape:connector-curvature="0" />
    <path
       style="fill:#e38183"
       d="m 79,117 c 0,0.66667 0,1.33333 0,2 0.333333,0 0.666667,0 1,0 0,-0.66667 0,-1.33333 0,-2 -0.333333,0 -0.666667,0 -1,0 z"
       id="path12764"
       inkscape:connector-curvature="0" />
    <path
       style="fill:#e38183"
       d="m 75,119 c 0,0.33333 0,0.66667 0,1 0.333333,0 0.666667,0 1,0 0,-0.33333 0,-0.66667 0,-1 -0.333333,0 -0.666667,0 -1,0 z"
       id="path12762"
       inkscape:connector-curvature="0" />
    <path
       style="fill:#e38183"
       d="m 69,120 c 0,0.33333 0,0.66667 0,1 0.333333,0 0.666667,0 1,0 0,-0.33333 0,-0.66667 0,-1 -0.333333,0 -0.666667,0 -1,0 z"
       id="path12760"
       inkscape:connector-curvature="0" />
    <path
       style="fill:#e38183"
       d="m 86,120 c 0,0.33333 0,0.66667 0,1 0.333333,0 0.666667,0 1,0 0,-0.33333 0,-0.66667 0,-1 -0.333333,0 -0.666667,0 -1,0 z"
       id="path12758"
       inkscape:connector-curvature="0" />
    <path
       style="fill:#e38183"
       d="m 69,124 c 0,0.33333 0,0.66667 0,1 0.333333,0 0.666667,0 1,0 0,-0.33333 0,-0.66667 0,-1 -0.333333,0 -0.666667,0 -1,0 z"
       id="path12756"
       inkscape:connector-curvature="0" />
    <path
       style="fill:#e38183"
       d="m 77,128 c 0,0.33333 0,0.66667 0,1 0.666667,0 1.333333,0 2,0 0,-0.33333 0,-0.66667 0,-1 -0.666667,0 -1.333333,0 -2,0 z"
       id="path12754"
       inkscape:connector-curvature="0" />
    <path
       style="fill:#e38183"
       d="m 81,130 c 0,0.33333 0,0.66667 0,1 0.333333,0 0.666667,0 1,0 0,-0.33333 0,-0.66667 0,-1 -0.333333,0 -0.666667,0 -1,0 z"
       id="rect23516"
       inkscape:connector-curvature="0" />
    <rect
       id="rect23518"
       y="130"
       x="82"
       width="1"
       height="1"
       style="fill:#fbeef2" />
    <rect
       id="rect23520"
       y="130"
       x="83"
       width="1"
       height="1"
       style="fill:#fffcff" />
    <rect
       id="rect23678"
       y="131"
       x="74"
       width="1"
       height="1"
       style="fill:#fffbf9" />
    <rect
       id="rect23680"
       y="131"
       x="75"
       width="1"
       height="1"
       style="fill:#fffbf9" />
    <path
       style="fill:#fffefd"
       d="m 11,6 c 0,0.3333333 0,0.6666667 0,1 -0.333333,0 -0.666667,0 -1,0 0,0.3333333 0,0.6666667 0,1 0.666667,0 1.333333,0 2,0 0,-0.6666667 0,-1.3333333 0,-2 -0.333333,0 -0.666667,0 -1,0 z"
       id="path13075"
       inkscape:connector-curvature="0" />
    <path
       style="fill:#fffefd"
       d="m 13,8 c 0,0.3333333 0,0.6666667 0,1 0.333333,0 0.666667,0 1,0 0,-0.3333333 0,-0.6666667 0,-1 -0.333333,0 -0.666667,0 -1,0 z"
       id="path13073"
       inkscape:connector-curvature="0" />
    <path
       style="fill:#fffefd"
       d="m 2,16 c 0,0.333333 0,0.666667 0,1 0.6666667,0 1.3333333,0 2,0 0,-0.333333 0,-0.666667 0,-1 -0.6666667,0 -1.3333333,0 -2,0 z"
       id="path13071"
       inkscape:connector-curvature="0" />
    <path
       style="fill:#fffefd"
       d="m 22,17 c 0,0.333333 0,0.666667 0,1 0.333333,0 0.666667,0 1,0 0,-0.333333 0,-0.666667 0,-1 -0.333333,0 -0.666667,0 -1,0 z"
       id="path13069"
       inkscape:connector-curvature="0" />
    <path
       style="fill:#fffefd"
       d="m 18,18 c 0,0.333333 0,0.666667 0,1 0.333333,0 0.666667,0 1,0 0,-0.333333 0,-0.666667 0,-1 -0.333333,0 -0.666667,0 -1,0 z"
       id="path13067"
       inkscape:connector-curvature="0" />
    <path
       style="fill:#fffefd"
       d="m 6,19 c 0,0.333333 0,0.666667 0,1 0.3333333,0 0.6666667,0 1,0 0,-0.333333 0,-0.666667 0,-1 -0.3333333,0 -0.6666667,0 -1,0 z"
       id="path13065"
       inkscape:connector-curvature="0" />
    <path
       style="fill:#fffefd"
       d="m 11,20 c 0,0.333333 0,0.666667 0,1 0.333333,0 0.666667,0 1,0 0,-0.333333 0,-0.666667 0,-1 -0.333333,0 -0.666667,0 -1,0 z"
       id="path13063"
       inkscape:connector-curvature="0" />
    <path
       style="fill:#fffefd"
       d="m 14,21 c 0,0.333333 0,0.666667 0,1 0.333333,0 0.666667,0 1,0 0,-0.333333 0,-0.666667 0,-1 -0.333333,0 -0.666667,0 -1,0 z"
       id="path13061"
       inkscape:connector-curvature="0" />
    <path
       style="fill:#fffefd"
       d="m 16,23 c 0,0.333333 0,0.666667 0,1 0.333333,0 0.666667,0 1,0 0,-0.333333 0,-0.666667 0,-1 -0.333333,0 -0.666667,0 -1,0 z"
       id="path13059"
       inkscape:connector-curvature="0" />
    <path
       style="fill:#fffefd"
       d="m 75,111 c -0.333333,0 -0.666667,0 -1,0 0,0.33333 0,0.66667 0,1 0.333333,0 0.666667,0 1,0 0,-0.33333 0,-0.66667 0,-1 z"
       id="path13055"
       inkscape:connector-curvature="0" />
    <path
       style="fill:#fffefd"
       d="m 84,115 c 0,0.33333 0,0.66667 0,1 0.333333,0 0.666667,0 1,0 0,-0.33333 0,-0.66667 0,-1 -0.333333,0 -0.666667,0 -1,0 z"
       id="path13053"
       inkscape:connector-curvature="0" />
    <path
       style="fill:#fffefd"
       d="m 67,116 c 0,0.33333 0,0.66667 0,1 0.333333,0 0.666667,0 1,0 0,-0.33333 0,-0.66667 0,-1 -0.333333,0 -0.666667,0 -1,0 z"
       id="path13051"
       inkscape:connector-curvature="0" />
    <path
       style="fill:#fffefd"
       d="m 86,117 c 0,0.33333 0,0.66667 0,1 0.333333,0 0.666667,0 1,0 0,-0.33333 0,-0.66667 0,-1 -0.333333,0 -0.666667,0 -1,0 z"
       id="path13049"
       inkscape:connector-curvature="0" />
    <path
       style="fill:#fffefd"
       d="m 76,120 c 0,0.33333 0,0.66667 0,1 0.333333,0 0.666667,0 1,0 0,-0.33333 0,-0.66667 0,-1 -0.333333,0 -0.666667,0 -1,0 z"
       id="path13047"
       inkscape:connector-curvature="0" />
    <path
       style="fill:#fffefd"
       d="m 71,129 c 0,0.33333 0,0.66667 0,1 0.333333,0 0.666667,0 1,0 0,-0.33333 0,-0.66667 0,-1 -0.333333,0 -0.666667,0 -1,0 z"
       id="path13045"
       inkscape:connector-curvature="0" />
    <path
       style="fill:#fffefd"
       d="m 72,130 c 0,0.33333 0,0.66667 0,1 0.333333,0 0.666667,0 1,0 0,-0.33333 0,-0.66667 0,-1 -0.333333,0 -0.666667,0 -1,0 z"
       id="path13043"
       inkscape:connector-curvature="0" />
    <path
       style="fill:#fffefd"
       d="m 76,131 c 0,0.33333 0,0.66667 0,1 0.333333,0 0.666667,0 1,0 0,-0.33333 0,-0.66667 0,-1 -0.333333,0 -0.666667,0 -1,0 z"
       id="path13037"
       inkscape:connector-curvature="0" />
    <path
       style="fill:#fffefd"
       d="m 80,131 c 0,0.33333 0,0.66667 0,1 0.333333,0 0.666667,0 1,0 0,-0.33333 0,-0.66667 0,-1 -0.333333,0 -0.666667,0 -1,0 z"
       id="rect23690"
       inkscape:connector-curvature="0" />
  </g>
</svg>
