<?xml version="1.0" encoding="UTF-8" standalone="no"?>
<svg
   xmlns:dc="http://purl.org/dc/elements/1.1/"
   xmlns:cc="http://creativecommons.org/ns#"
   xmlns:rdf="http://www.w3.org/1999/02/22-rdf-syntax-ns#"
   xmlns:svg="http://www.w3.org/2000/svg"
   xmlns="http://www.w3.org/2000/svg"
   xmlns:sodipodi="http://sodipodi.sourceforge.net/DTD/sodipodi-0.dtd"
   xmlns:inkscape="http://www.inkscape.org/namespaces/inkscape"
   height="135px"
   version="1.1"
   width="90px"
   id="svg24208"
   sodipodi:docname="13-black.svg"
   inkscape:version="0.92.2 (5c3e80d, 2017-08-06)">
  <metadata
     id="metadata24212">
    <rdf:RDF>
      <cc:Work
         rdf:about="">
        <dc:format>image/svg+xml</dc:format>
        <dc:type
           rdf:resource="http://purl.org/dc/dcmitype/StillImage" />
        <dc:title />
      </cc:Work>
    </rdf:RDF>
  </metadata>
  <sodipodi:namedview
     pagecolor="#ffffff"
     bordercolor="#666666"
     borderopacity="1"
     objecttolerance="10"
     gridtolerance="10"
     guidetolerance="10"
     inkscape:pageopacity="0"
     inkscape:pageshadow="2"
     inkscape:window-width="1920"
     inkscape:window-height="1025"
     id="namedview24210"
     showgrid="false"
     inkscape:zoom="27.97037"
     inkscape:cx="80.949306"
     inkscape:cy="17.141942"
     inkscape:window-x="-8"
     inkscape:window-y="-8"
     inkscape:window-maximized="1"
     inkscape:current-layer="svg24208" />
  <defs
     id="defs2" />
  <g
     id="g12388">
    <rect
       id="rect510"
       y="3"
       x="4"
       width="1"
       height="1"
       style="fill:#a19e9f" />
    <rect
       id="rect524"
       y="3"
       x="11"
       width="1"
       height="1"
       style="fill:#a19e9f" />
    <rect
       id="rect528"
       y="3"
       x="13"
       width="1"
       height="1"
       style="fill:#a19e9f" />
    <rect
       id="rect686"
       y="4"
       x="4"
       width="1"
       height="1"
       style="fill:#918f92" />
    <rect
       id="rect700"
       y="4"
       x="11"
       width="1"
       height="1"
       style="fill:#918f92" />
    <rect
       id="rect704"
       y="4"
       x="13"
       width="1"
       height="1"
       style="fill:#918f92" />
    <rect
       id="rect714"
       y="4"
       x="18"
       width="1"
       height="1"
       style="fill:#140f10" />
    <rect
       id="rect716"
       y="4"
       x="19"
       width="1"
       height="1"
       style="fill:#615e60" />
    <rect
       id="rect882"
       y="5"
       x="13"
       width="1"
       height="1"
       style="fill:#e0dfe0" />
    <rect
       id="rect890"
       y="5"
       x="17"
       width="1"
       height="1"
       style="fill:#706d70" />
    <rect
       id="rect1046"
       y="6"
       x="5"
       width="1"
       height="1"
       style="fill:#524f4f" />
    <rect
       id="rect1056"
       y="6"
       x="10"
       width="1"
       height="1"
       style="fill:#615e60" />
    <rect
       id="rect1060"
       y="6"
       x="12"
       width="1"
       height="1"
       style="fill:#efefef" />
    <rect
       id="rect1066"
       y="6"
       x="15"
       width="1"
       height="1"
       style="fill:#140f10" />
    <rect
       id="rect1068"
       y="6"
       x="16"
       width="1"
       height="1"
       style="fill:#b0aeb1" />
    <rect
       id="rect1238"
       y="7"
       x="11"
       width="1"
       height="1"
       style="fill:#efefef" />
    <rect
       id="rect1246"
       y="7"
       x="15"
       width="1"
       height="1"
       style="fill:#cfced1" />
    <rect
       id="rect1416"
       y="8"
       x="10"
       width="1"
       height="1"
       style="fill:#706d70" />
    <rect
       id="rect1426"
       y="8"
       x="15"
       width="1"
       height="1"
       style="fill:#706d70" />
    <rect
       id="rect1608"
       y="9"
       x="16"
       width="1"
       height="1"
       style="fill:#b0aeb1" />
    <rect
       id="rect1788"
       y="10"
       x="16"
       width="1"
       height="1"
       style="fill:#140f10" />
    <rect
       id="rect1790"
       y="10"
       x="17"
       width="1"
       height="1"
       style="fill:#efefef" />
    <rect
       id="rect1958"
       y="11"
       x="11"
       width="1"
       height="1"
       style="fill:#706d70" />
    <rect
       id="rect1970"
       y="11"
       x="17"
       width="1"
       height="1"
       style="fill:#706d70" />
    <rect
       id="rect2152"
       y="12"
       x="18"
       width="1"
       height="1"
       style="fill:#efefef" />
    <rect
       id="rect2320"
       y="13"
       x="12"
       width="1"
       height="1"
       style="fill:#cfced1" />
    <rect
       id="rect2502"
       y="14"
       x="13"
       width="1"
       height="1"
       style="fill:#615e60" />
    <rect
       id="rect2512"
       y="14"
       x="18"
       width="1"
       height="1"
       style="fill:#231f20" />
    <rect
       id="rect2682"
       y="15"
       x="13"
       width="1"
       height="1"
       style="fill:#cfced1" />
    <rect
       id="rect2694"
       y="15"
       x="19"
       width="1"
       height="1"
       style="fill:#cfced1" />
    <rect
       id="rect2846"
       y="16"
       x="5"
       width="1"
       height="1"
       style="fill:#615e60" />
    <rect
       id="rect2856"
       y="16"
       x="10"
       width="1"
       height="1"
       style="fill:#706d70" />
    <rect
       id="rect2874"
       y="16"
       x="19"
       width="1"
       height="1"
       style="fill:#706d70" />
    <rect
       id="rect3044"
       y="17"
       x="14"
       width="1"
       height="1"
       style="fill:#706d70" />
    <rect
       id="rect3054"
       y="17"
       x="19"
       width="1"
       height="1"
       style="fill:#140f10" />
    <rect
       id="rect3056"
       y="17"
       x="20"
       width="1"
       height="1"
       style="fill:#efefef" />
    <rect
       id="rect3204"
       y="18"
       x="4"
       width="1"
       height="1"
       style="fill:#b0aeb1" />
    <rect
       id="rect3206"
       y="18"
       x="5"
       width="1"
       height="1"
       style="fill:#140f10" />
    <rect
       id="rect3216"
       y="18"
       x="10"
       width="1"
       height="1"
       style="fill:#140f10" />
    <rect
       id="rect3218"
       y="18"
       x="11"
       width="1"
       height="1"
       style="fill:#b0aeb1" />
    <rect
       id="rect3222"
       y="18"
       x="13"
       width="1"
       height="1"
       style="fill:#efefef" />
    <rect
       id="rect3224"
       y="18"
       x="14"
       width="1"
       height="1"
       style="fill:#524f4f" />
    <rect
       id="rect3238"
       y="18"
       x="21"
       width="1"
       height="1"
       style="fill:#e0dfe0" />
    <rect
       id="rect3384"
       y="19"
       x="4"
       width="1"
       height="1"
       style="fill:#706d70" />
    <rect
       id="rect3398"
       y="19"
       x="11"
       width="1"
       height="1"
       style="fill:#706d70" />
    <rect
       id="rect3402"
       y="19"
       x="13"
       width="1"
       height="1"
       style="fill:#cfced1" />
    <rect
       id="rect3418"
       y="19"
       x="21"
       width="1"
       height="1"
       style="fill:#a19e9f" />
    <rect
       id="rect20794"
       y="115"
       x="69"
       width="1"
       height="1"
       style="fill:#140f10" />
    <rect
       id="rect20812"
       y="115"
       x="78"
       width="1"
       height="1"
       style="fill:#615e60" />
    <rect
       id="rect20824"
       y="115"
       x="84"
       width="1"
       height="1"
       style="fill:#140f10" />
    <rect
       id="rect20826"
       y="115"
       x="85"
       width="1"
       height="1"
       style="fill:#b0aeb1" />
    <rect
       id="rect20986"
       y="116"
       x="75"
       width="1"
       height="1"
       style="fill:#b0aeb1" />
    <rect
       id="rect21004"
       y="116"
       x="84"
       width="1"
       height="1"
       style="fill:#706d70" />
    <rect
       id="rect21166"
       y="117"
       x="75"
       width="1"
       height="1"
       style="fill:#706d70" />
    <rect
       id="rect21336"
       y="118"
       x="70"
       width="1"
       height="1"
       style="fill:#918f92" />
    <rect
       id="rect21346"
       y="118"
       x="75"
       width="1"
       height="1"
       style="fill:#140f10" />
    <rect
       id="rect21516"
       y="119"
       x="70"
       width="1"
       height="1"
       style="fill:#e0dfe0" />
    <rect
       id="rect21528"
       y="119"
       x="76"
       width="1"
       height="1"
       style="fill:#a19e9f" />
    <rect
       id="rect21708"
       y="120"
       x="76"
       width="1"
       height="1"
       style="fill:#231f20" />
    <rect
       id="rect21878"
       y="121"
       x="71"
       width="1"
       height="1"
       style="fill:#b0aeb1" />
    <rect
       id="rect22060"
       y="122"
       x="72"
       width="1"
       height="1"
       style="fill:#231f20" />
    <rect
       id="rect22074"
       y="122"
       x="79"
       width="1"
       height="1"
       style="fill:#231f20" />
    <rect
       id="rect22422"
       y="124"
       x="73"
       width="1"
       height="1"
       style="fill:#615e60" />
    <rect
       id="rect22602"
       y="125"
       x="73"
       width="1"
       height="1"
       style="fill:#efefef" />
    <rect
       id="rect22792"
       y="126"
       x="78"
       width="1"
       height="1"
       style="fill:#efefef" />
    <path
       style="fill:#c1bebf"
       d="m 20,3 c 0,0.6666667 0,1.3333333 0,2 0.333333,0 0.666667,0 1,0 0,-0.6666667 0,-1.3333333 0,-2 -0.333333,0 -0.666667,0 -1,0 z"
       id="path12825" />
    <path
       style="fill:#c1bebf"
       d="m 68,114 c 0,0.66667 0,1.33333 0,2 0.333333,0 0.666667,0 1,0 0,-0.66667 0,-1.33333 0,-2 -0.333333,0 -0.666667,0 -1,0 z"
       id="path12823" />
    <path
       style="fill:#c1bebf"
       d="m 69,116 c 0,0.33333 0,0.66667 0,1 0.333333,0 0.666667,0 1,0 0,-0.33333 0,-0.66667 0,-1 -0.333333,0 -0.666667,0 -1,0 z"
       id="path12821" />
    <path
       style="fill:#c1bebf"
       d="m 85,114 c 0,0.33333 0,0.66667 0,1 0.333333,0 0.666667,0 1,0 0,-0.33333 0,-0.66667 0,-1 -0.333333,0 -0.666667,0 -1,0 z"
       id="path12819" />
    <path
       style="fill:#c1bebf"
       d="m 78,122 c 0,0.33333 0,0.66667 0,1 0.333333,0 0.666667,0 1,0 0,-0.33333 0,-0.66667 0,-1 -0.333333,0 -0.666667,0 -1,0 z"
       id="path12817" />
    <path
       style="fill:#c1bebf"
       d="m 72,123 c 0,0.33333 0,0.66667 0,1 0.333333,0 0.666667,0 1,0 0,-0.33333 0,-0.66667 0,-1 -0.333333,0 -0.666667,0 -1,0 z"
       id="path12815" />
    <path
       style="fill:#c1bebf"
       d="m 74,126 c 0,0.33333 0,0.66667 0,1 0.333333,0 0.666667,0 1,0 0,-0.33333 0,-0.66667 0,-1 -0.333333,0 -0.666667,0 -1,0 z"
       id="path12813" />
    <path
       style="fill:#c1bebf"
       d="m 74,127 c -0.333333,0 -0.666667,0 -1,0 0,0.33333 0,0.66667 0,1 0.333333,0 0.666667,0 1,0 0,-0.33333 0,-0.66667 0,-1 z"
       id="rect22962" />
    <rect
       id="rect22964"
       y="127"
       x="74"
       width="1"
       height="1"
       style="fill:#140f10" />
    <path
       style="fill:#322f30"
       d="m 13,6 c 0,0.3333333 0,0.6666667 0,1 0.333333,0 0.666667,0 1,0 0,-0.3333333 0,-0.6666667 0,-1 -0.333333,0 -0.666667,0 -1,0 z"
       id="path12862" />
    <path
       style="fill:#322f30"
       d="m 13,7 c -0.333333,0 -0.666667,0 -1,0 0,0.3333333 0,0.6666667 0,1 0.333333,0 0.666667,0 1,0 0,-0.3333333 0,-0.6666667 0,-1 z"
       id="path12860" />
    <path
       style="fill:#322f30"
       d="m 12,8 c -0.333333,0 -0.666667,0 -1,0 0,0.3333333 0,0.6666667 0,1 0.333333,0 0.666667,0 1,0 0,-0.3333333 0,-0.6666667 0,-1 z"
       id="path12858" />
    <path
       style="fill:#322f30"
       d="m 12,12 c 0,0.333333 0,0.666667 0,1 0.333333,0 0.666667,0 1,0 0,-0.333333 0,-0.666667 0,-1 -0.333333,0 -0.666667,0 -1,0 z"
       id="path12856" />
    <path
       style="fill:#322f30"
       d="m 14,16 c 0,0.333333 0,0.666667 0,1 0.333333,0 0.666667,0 1,0 0,-0.333333 0,-0.666667 0,-1 -0.333333,0 -0.666667,0 -1,0 z"
       id="path12854" />
    <path
       style="fill:#322f30"
       d="m 20,18 c 0,0.333333 0,0.666667 0,1 0.333333,0 0.666667,0 1,0 0,-0.333333 0,-0.666667 0,-1 -0.333333,0 -0.666667,0 -1,0 z"
       id="path12852" />
    <path
       style="fill:#322f30"
       d="m 70,117 c 0,0.33333 0,0.66667 0,1 0.333333,0 0.666667,0 1,0 0,-0.33333 0,-0.66667 0,-1 -0.333333,0 -0.666667,0 -1,0 z"
       id="path12850" />
    <path
       style="fill:#322f30"
       d="m 74,125 c 0,0.33333 0,0.66667 0,1 0.333333,0 0.666667,0 1,0 0,-0.33333 0,-0.66667 0,-1 -0.333333,0 -0.666667,0 -1,0 z"
       id="path12848" />
    <path
       style="fill:#322f30"
       d="m 78,125 c 0,0.33333 0,0.66667 0,1 0.666667,0 1.333333,0 2,0 0,-0.33333 0,-0.66667 0,-1 -0.666667,0 -1.333333,0 -2,0 z"
       id="path12846" />
    <path
       style="fill:#322f30"
       d="m 78,126 c -0.333333,0 -0.666667,0 -1,0 0,0.33333 0,0.66667 0,1 0.333333,0 0.666667,0 1,0 0,-0.33333 0,-0.66667 0,-1 z"
       id="path12844" />
    <path
       style="fill:#322f30"
       d="m 77,127 c -0.333333,0 -0.666667,0 -1,0 0,0.33333 0,0.66667 0,1 0.333333,0 0.666667,0 1,0 0,-0.33333 0,-0.66667 0,-1 z"
       id="rect22968" />
    <rect
       id="rect22970"
       y="127"
       x="77"
       width="1"
       height="1"
       style="fill:#efefef" />
    <rect
       id="rect23146"
       y="128"
       x="75"
       width="1"
       height="1"
       style="fill:#140f10" />
    <rect
       id="rect23148"
       y="128"
       x="76"
       width="1"
       height="1"
       style="fill:#efefef" />
    <rect
       id="rect23152"
       y="128"
       x="78"
       width="1"
       height="1"
       style="fill:#fefefe" />
    <rect
       id="rect23154"
       y="128"
       x="79"
       width="1"
       height="1"
       style="fill:#140f10" />
    <rect
       id="rect23164"
       y="128"
       x="84"
       width="1"
       height="1"
       style="fill:#706d70" />
    <rect
       id="rect23314"
       y="129"
       x="69"
       width="1"
       height="1"
       style="fill:#e0dfe0" />
    <rect
       id="rect23316"
       y="129"
       x="70"
       width="1"
       height="1"
       style="fill:#706d70" />
    <rect
       id="rect23318"
       y="129"
       x="71"
       width="1"
       height="1"
       style="fill:#231f20" />
    <rect
       id="rect23326"
       y="129"
       x="75"
       width="1"
       height="1"
       style="fill:#231f20" />
    <rect
       id="rect23328"
       y="129"
       x="76"
       width="1"
       height="1"
       style="fill:#cfced1" />
    <rect
       id="rect23330"
       y="129"
       x="77"
       width="1"
       height="1"
       style="fill:#fcfcfd" />
    <path
       style="fill:#827f81"
       d="M 5,3 C 5,3.3333333 5,3.6666667 5,4 7,4 9,4 11,4 11,3.6666667 11,3.3333333 11,3 9,3 7,3 5,3 Z"
       id="path12796" />
    <path
       style="fill:#827f81"
       d="m 14,3 c 0,0.3333333 0,0.6666667 0,1 2,0 4,0 6,0 0,-0.3333333 0,-0.6666667 0,-1 -2,0 -4,0 -6,0 z"
       id="path12794" />
    <path
       style="fill:#827f81"
       d="m 5,7 c 0,3 0,6 0,9 0.3333333,0 0.6666667,0 1,0 C 6,13 6,10 6,7 5.6666667,7 5.3333333,7 5,7 Z"
       id="path12792" />
    <path
       style="fill:#827f81"
       d="m 10,7 c 0,0.3333333 0,0.6666667 0,1 0.333333,0 0.666667,0 1,0 0,-0.3333333 0,-0.6666667 0,-1 -0.333333,0 -0.666667,0 -1,0 z"
       id="path12790" />
    <path
       style="fill:#827f81"
       d="m 10,12 c 0,1.333333 0,2.666667 0,4 0.333333,0 0.666667,0 1,0 0,-1.333333 0,-2.666667 0,-4 -0.333333,0 -0.666667,0 -1,0 z"
       id="path12788" />
    <path
       style="fill:#827f81"
       d="m 18,13 c 0,0.333333 0,0.666667 0,1 0.333333,0 0.666667,0 1,0 0,-0.333333 0,-0.666667 0,-1 -0.333333,0 -0.666667,0 -1,0 z"
       id="path12786" />
    <path
       style="fill:#827f81"
       d="m 69,114 c 0,0.33333 0,0.66667 0,1 2.333333,0 4.666667,0 7,0 0,-0.33333 0,-0.66667 0,-1 -2.333333,0 -4.666667,0 -7,0 z"
       id="path12784" />
    <path
       style="fill:#827f81"
       d="m 78,114 c 0,0.33333 0,0.66667 0,1 2.333333,0 4.666667,0 7,0 0,-0.33333 0,-0.66667 0,-1 -2.333333,0 -4.666667,0 -7,0 z"
       id="path12782" />
    <path
       style="fill:#827f81"
       d="m 84,117 c 0,3.66667 0,7.33333 0,11 0.333333,0 0.666667,0 1,0 0,-3.66667 0,-7.33333 0,-11 -0.333333,0 -0.666667,0 -1,0 z"
       id="path12780" />
    <path
       style="fill:#827f81"
       d="m 77,121 c 0,0.33333 0,0.66667 0,1 0.333333,0 0.666667,0 1,0 0,-0.33333 0,-0.66667 0,-1 -0.333333,0 -0.666667,0 -1,0 z"
       id="path12778" />
    <path
       style="fill:#827f81"
       d="m 72,128 c 0,0.33333 0,0.66667 0,1 0.333333,0 0.666667,0 1,0 0,-0.33333 0,-0.66667 0,-1 -0.333333,0 -0.666667,0 -1,0 z"
       id="path12776" />
    <path
       style="fill:#827f81"
       d="m 78,129 c 0,0.33333 0,0.66667 0,1 0.333333,0 0.666667,0 1,0 0,-0.33333 0,-0.66667 0,-1 -0.333333,0 -0.666667,0 -1,0 z"
       id="rect23332" />
    <path
       style="fill:#040001"
       d="m 5,4 c 0,0.3333333 0,0.6666667 0,1 0.3333333,0 0.6666667,0 1,0 0,4.6666667 0,9.333333 0,14 1.3333333,0 2.6666667,0 4,0 0,-2.666667 0,-5.333333 0,-8 0.666667,0 1.333333,0 2,0 0,0.333333 0,0.666667 0,1 0.333333,0 0.666667,0 1,0 0,0.666667 0,1.333333 0,2 0.333333,0 0.666667,0 1,0 0,0.666667 0,1.333333 0,2 0.333333,0 0.666667,0 1,0 0,1 0,2 0,3 1.666667,0 3.333333,0 5,0 0,-0.333333 0,-0.666667 0,-1 -0.333333,0 -0.666667,0 -1,0 0,-1 0,-2 0,-3 -0.333333,0 -0.666667,0 -1,0 0,-1 0,-2 0,-3 -0.333333,0 -0.666667,0 -1,0 0,-0.333333 0,-0.666667 0,-1 -0.333333,0 -0.666667,0 -1,0 0,-0.666667 0,-1.3333333 0,-2 -0.333333,0 -0.666667,0 -1,0 0,-1 0,-2 0,-3 0.666667,0 1.333333,0 2,0 0,-0.3333333 0,-0.6666667 0,-1 0.333333,0 0.666667,0 1,0 0,-0.3333333 0,-0.6666667 0,-1 -1.333333,0 -2.666667,0 -4,0 0,1 0,2 0,3 -0.333333,0 -0.666667,0 -1,0 0,0.3333333 0,0.6666667 0,1 -0.333333,0 -0.666667,0 -1,0 0,0.3333333 0,0.6666667 0,1 -0.666667,0 -1.333333,0 -2,0 0,-1.3333333 0,-2.6666667 0,-4 0.333333,0 0.666667,0 1,0 C 11,4.6666667 11,4.3333333 11,4 9,4 7,4 5,4 Z"
       id="path12645" />
    <path
       style="fill:#040001"
       d="m 70,115 c 0,0.66667 0,1.33333 0,2 0.333333,0 0.666667,0 1,0 0,1 0,2 0,3 0.333333,0 0.666667,0 1,0 0,0.66667 0,1.33333 0,2 0.333333,0 0.666667,0 1,0 0,0.66667 0,1.33333 0,2 0.333333,0 0.666667,0 1,0 0,0.33333 0,0.66667 0,1 0.333333,0 0.666667,0 1,0 0,1 0,2 0,3 0.333333,0 0.666667,0 1,0 0,-0.33333 0,-0.66667 0,-1 0.333333,0 0.666667,0 1,0 0,-0.33333 0,-0.66667 0,-1 0.333333,0 0.666667,0 1,0 0,-0.33333 0,-0.66667 0,-1 0.666667,0 1.333333,0 2,0 0,1.33333 0,2.66667 0,4 -0.333333,0 -0.666667,0 -1,0 0,0.33333 0,0.66667 0,1 1.666667,0 3.333333,0 5,0 0,-5 0,-10 0,-15 -1.666667,0 -3.333333,0 -5,0 0,0.66667 0,1.33333 0,2 0.333333,0 0.666667,0 1,0 0,2 0,4 0,6 -0.666667,0 -1.333333,0 -2,0 0,-0.33333 0,-0.66667 0,-1 -0.333333,0 -0.666667,0 -1,0 0,-0.33333 0,-0.66667 0,-1 -0.333333,0 -0.666667,0 -1,0 0,-0.66667 0,-1.33333 0,-2 -0.333333,0 -0.666667,0 -1,0 0,-1.33333 0,-2.66667 0,-4 -1.666667,0 -3.333333,0 -5,0 z"
       id="path12643" />
    <path
       style="fill:#040001"
       d="m 75,128 c -0.666667,0 -1.333333,0 -2,0 0,0.33333 0,0.66667 0,1 -0.333333,0 -0.666667,0 -1,0 0,0.33333 0,0.66667 0,1 1,0 2,0 3,0 0,-0.66667 0,-1.33333 0,-2 z"
       id="rect23342" />
    <rect
       id="rect23344"
       y="129"
       x="84"
       width="1"
       height="1"
       style="fill:#140f10" />
    <rect
       id="rect23346"
       y="129"
       x="85"
       width="1"
       height="1"
       style="fill:#cfced1" />
    <rect
       id="rect23492"
       y="130"
       x="69"
       width="1"
       height="1"
       style="fill:#a19e9f" />
    <rect
       id="rect23506"
       y="130"
       x="76"
       width="1"
       height="1"
       style="fill:#918f92" />
    <path
       style="fill:#433f40"
       d="M 5,5 C 5,5.3333333 5,5.6666667 5,6 5.3333333,6 5.6666667,6 6,6 6,5.6666667 6,5.3333333 6,5 5.6666667,5 5.3333333,5 5,5 Z"
       id="path12714" />
    <path
       style="fill:#433f40"
       d="m 10,5 c 0,0.3333333 0,0.6666667 0,1 0.333333,0 0.666667,0 1,0 0,-0.3333333 0,-0.6666667 0,-1 -0.333333,0 -0.666667,0 -1,0 z"
       id="path12712" />
    <path
       style="fill:#433f40"
       d="m 10,11 c 0,0.333333 0,0.666667 0,1 0.333333,0 0.666667,0 1,0 0,-0.333333 0,-0.666667 0,-1 -0.333333,0 -0.666667,0 -1,0 z"
       id="path12710" />
    <path
       style="fill:#433f40"
       d="m 5,17 c 0,0.333333 0,0.666667 0,1 0.3333333,0 0.6666667,0 1,0 0,-0.333333 0,-0.666667 0,-1 -0.3333333,0 -0.6666667,0 -1,0 z"
       id="path12708" />
    <path
       style="fill:#433f40"
       d="m 10,17 c 0,0.333333 0,0.666667 0,1 0.333333,0 0.666667,0 1,0 0,-0.333333 0,-0.666667 0,-1 -0.333333,0 -0.666667,0 -1,0 z"
       id="path12706" />
    <path
       style="fill:#433f40"
       d="m 5,19 c 0,0.333333 0,0.666667 0,1 2,0 4,0 6,0 0,-0.333333 0,-0.666667 0,-1 -2,0 -4,0 -6,0 z"
       id="path12704" />
    <path
       style="fill:#433f40"
       d="m 14,19 c 0,0.333333 0,0.666667 0,1 2.333333,0 4.666667,0 7,0 0,-0.333333 0,-0.666667 0,-1 -2.333333,0 -4.666667,0 -7,0 z"
       id="path12702" />
    <path
       style="fill:#433f40"
       d="m 75,115 c 0,0.33333 0,0.66667 0,1 0.333333,0 0.666667,0 1,0 0,-0.33333 0,-0.66667 0,-1 -0.333333,0 -0.666667,0 -1,0 z"
       id="path12700" />
    <path
       style="fill:#433f40"
       d="m 79,117 c 0,1.66667 0,3.33333 0,5 0.333333,0 0.666667,0 1,0 0,-1.66667 0,-3.33333 0,-5 -0.333333,0 -0.666667,0 -1,0 z"
       id="path12698" />
    <path
       style="fill:#433f40"
       d="m 71,120 c 0,0.33333 0,0.66667 0,1 0.333333,0 0.666667,0 1,0 0,-0.33333 0,-0.66667 0,-1 -0.333333,0 -0.666667,0 -1,0 z"
       id="path12696" />
    <path
       style="fill:#433f40"
       d="m 79,126 c 0,0.66667 0,1.33333 0,2 0.333333,0 0.666667,0 1,0 0,-0.66667 0,-1.33333 0,-2 -0.333333,0 -0.666667,0 -1,0 z"
       id="path12694" />
    <path
       style="fill:#433f40"
       d="m 70,130 c 0,0.33333 0,0.66667 0,1 2,0 4,0 6,0 0,-0.33333 0,-0.66667 0,-1 -2,0 -4,0 -6,0 z"
       id="path12692" />
    <path
       style="fill:#433f40"
       d="m 78,130 c 0,0.33333 0,0.66667 0,1 2.333333,0 4.666667,0 7,0 0,-0.33333 0,-0.66667 0,-1 -2.333333,0 -4.666667,0 -7,0 z"
       id="rect23522" />
    <rect
       id="rect23524"
       y="130"
       x="85"
       width="1"
       height="1"
       style="fill:#a19e9f" />
  </g>
</svg>
