<?xml version="1.0" encoding="UTF-8" standalone="no"?>
<svg
   xmlns:dc="http://purl.org/dc/elements/1.1/"
   xmlns:cc="http://creativecommons.org/ns#"
   xmlns:rdf="http://www.w3.org/1999/02/22-rdf-syntax-ns#"
   xmlns:svg="http://www.w3.org/2000/svg"
   xmlns="http://www.w3.org/2000/svg"
   xmlns:sodipodi="http://sodipodi.sourceforge.net/DTD/sodipodi-0.dtd"
   xmlns:inkscape="http://www.inkscape.org/namespaces/inkscape"
   height="135px"
   version="1.1"
   width="90px"
   id="svg24208"
   sodipodi:docname="13-red.svg"
   inkscape:version="0.92.2 (5c3e80d, 2017-08-06)">
  <metadata
     id="metadata24212">
    <rdf:RDF>
      <cc:Work
         rdf:about="">
        <dc:format>image/svg+xml</dc:format>
        <dc:type
           rdf:resource="http://purl.org/dc/dcmitype/StillImage" />
        <dc:title />
      </cc:Work>
    </rdf:RDF>
  </metadata>
  <sodipodi:namedview
     pagecolor="#ffffff"
     bordercolor="#666666"
     borderopacity="1"
     objecttolerance="10"
     gridtolerance="10"
     guidetolerance="10"
     inkscape:pageopacity="0"
     inkscape:pageshadow="2"
     inkscape:window-width="1920"
     inkscape:window-height="1025"
     id="namedview24210"
     showgrid="false"
     inkscape:zoom="39.556077"
     inkscape:cx="84.421199"
     inkscape:cy="11.138842"
     inkscape:window-x="-8"
     inkscape:window-y="-8"
     inkscape:window-maximized="1"
     inkscape:current-layer="svg24208" />
  <defs
     id="defs2" />
  <g
     id="g12475">
    <rect
       id="rect510"
       y="3"
       x="4"
       width="1"
       height="1"
       style="fill:#eda9aa" />
    <rect
       id="rect524"
       y="3"
       x="11"
       width="1"
       height="1"
       style="fill:#eda9aa" />
    <rect
       id="rect526"
       y="3"
       x="12"
       width="1"
       height="1"
       style="fill:#fbfcfc" />
    <rect
       id="rect528"
       y="3"
       x="13"
       width="1"
       height="1"
       style="fill:#eda9aa" />
    <rect
       id="rect686"
       y="4"
       x="4"
       width="1"
       height="1"
       style="fill:#e69091" />
    <rect
       id="rect700"
       y="4"
       x="11"
       width="1"
       height="1"
       style="fill:#e69091" />
    <rect
       id="rect704"
       y="4"
       x="13"
       width="1"
       height="1"
       style="fill:#e69091" />
    <rect
       id="rect714"
       y="4"
       x="18"
       width="1"
       height="1"
       style="fill:#cc1214" />
    <rect
       id="rect716"
       y="4"
       x="19"
       width="1"
       height="1"
       style="fill:#dd6162" />
    <rect
       id="rect882"
       y="5"
       x="13"
       width="1"
       height="1"
       style="fill:#f8dfe0" />
    <rect
       id="rect890"
       y="5"
       x="17"
       width="1"
       height="1"
       style="fill:#e17172" />
    <rect
       id="rect1056"
       y="6"
       x="10"
       width="1"
       height="1"
       style="fill:#dd6162" />
    <rect
       id="rect1060"
       y="6"
       x="12"
       width="1"
       height="1"
       style="fill:#fcefef" />
    <rect
       id="rect1066"
       y="6"
       x="15"
       width="1"
       height="1"
       style="fill:#cc1214" />
    <rect
       id="rect1068"
       y="6"
       x="16"
       width="1"
       height="1"
       style="fill:#eda9aa" />
    <rect
       id="rect1238"
       y="7"
       x="11"
       width="1"
       height="1"
       style="fill:#fcefef" />
    <rect
       id="rect1416"
       y="8"
       x="10"
       width="1"
       height="1"
       style="fill:#e17172" />
    <rect
       id="rect1426"
       y="8"
       x="15"
       width="1"
       height="1"
       style="fill:#e17172" />
    <rect
       id="rect1608"
       y="9"
       x="16"
       width="1"
       height="1"
       style="fill:#eda9aa" />
    <rect
       id="rect1788"
       y="10"
       x="16"
       width="1"
       height="1"
       style="fill:#cc1214" />
    <rect
       id="rect1790"
       y="10"
       x="17"
       width="1"
       height="1"
       style="fill:#fcefef" />
    <rect
       id="rect1958"
       y="11"
       x="11"
       width="1"
       height="1"
       style="fill:#e17172" />
    <rect
       id="rect1970"
       y="11"
       x="17"
       width="1"
       height="1"
       style="fill:#e17172" />
    <rect
       id="rect2152"
       y="12"
       x="18"
       width="1"
       height="1"
       style="fill:#fcefef" />
    <rect
       id="rect2502"
       y="14"
       x="13"
       width="1"
       height="1"
       style="fill:#dd6162" />
    <rect
       id="rect2846"
       y="16"
       x="5"
       width="1"
       height="1"
       style="fill:#dd6162" />
    <rect
       id="rect2856"
       y="16"
       x="10"
       width="1"
       height="1"
       style="fill:#e17172" />
    <rect
       id="rect2874"
       y="16"
       x="19"
       width="1"
       height="1"
       style="fill:#e17172" />
    <rect
       id="rect3044"
       y="17"
       x="14"
       width="1"
       height="1"
       style="fill:#e17172" />
    <rect
       id="rect3054"
       y="17"
       x="19"
       width="1"
       height="1"
       style="fill:#cc1214" />
    <rect
       id="rect3056"
       y="17"
       x="20"
       width="1"
       height="1"
       style="fill:#fcefef" />
    <rect
       id="rect3204"
       y="18"
       x="4"
       width="1"
       height="1"
       style="fill:#eda9aa" />
    <rect
       id="rect3206"
       y="18"
       x="5"
       width="1"
       height="1"
       style="fill:#cc1214" />
    <rect
       id="rect3216"
       y="18"
       x="10"
       width="1"
       height="1"
       style="fill:#cc1214" />
    <rect
       id="rect3218"
       y="18"
       x="11"
       width="1"
       height="1"
       style="fill:#eda9aa" />
    <rect
       id="rect3222"
       y="18"
       x="13"
       width="1"
       height="1"
       style="fill:#fcefef" />
    <rect
       id="rect3238"
       y="18"
       x="21"
       width="1"
       height="1"
       style="fill:#f8dfe0" />
    <rect
       id="rect3384"
       y="19"
       x="4"
       width="1"
       height="1"
       style="fill:#e17172" />
    <rect
       id="rect3398"
       y="19"
       x="11"
       width="1"
       height="1"
       style="fill:#e17172" />
    <rect
       id="rect3418"
       y="19"
       x="21"
       width="1"
       height="1"
       style="fill:#eda9aa" />
    <rect
       id="rect3420"
       y="19"
       x="22"
       width="1"
       height="1"
       style="fill:#fbfcfc" />
    <rect
       id="rect20610"
       y="114"
       x="67"
       width="1"
       height="1"
       style="fill:#fbfcfc" />
    <rect
       id="rect20794"
       y="115"
       x="69"
       width="1"
       height="1"
       style="fill:#cc1214" />
    <rect
       id="rect20812"
       y="115"
       x="78"
       width="1"
       height="1"
       style="fill:#dd6162" />
    <rect
       id="rect20824"
       y="115"
       x="84"
       width="1"
       height="1"
       style="fill:#cc1214" />
    <rect
       id="rect20826"
       y="115"
       x="85"
       width="1"
       height="1"
       style="fill:#eda9aa" />
    <rect
       id="rect20972"
       y="116"
       x="68"
       width="1"
       height="1"
       style="fill:#f9fafc" />
    <rect
       id="rect20986"
       y="116"
       x="75"
       width="1"
       height="1"
       style="fill:#eda9aa" />
    <rect
       id="rect21004"
       y="116"
       x="84"
       width="1"
       height="1"
       style="fill:#e17172" />
    <rect
       id="rect21166"
       y="117"
       x="75"
       width="1"
       height="1"
       style="fill:#e17172" />
    <rect
       id="rect21336"
       y="118"
       x="70"
       width="1"
       height="1"
       style="fill:#e69091" />
    <rect
       id="rect21346"
       y="118"
       x="75"
       width="1"
       height="1"
       style="fill:#cc1214" />
    <rect
       id="rect21516"
       y="119"
       x="70"
       width="1"
       height="1"
       style="fill:#f8dfe0" />
    <rect
       id="rect21528"
       y="119"
       x="76"
       width="1"
       height="1"
       style="fill:#eda9aa" />
    <rect
       id="rect21878"
       y="121"
       x="71"
       width="1"
       height="1"
       style="fill:#eda9aa" />
    <rect
       id="rect22058"
       y="122"
       x="71"
       width="1"
       height="1"
       style="fill:#fbfcfc" />
    <rect
       id="rect22422"
       y="124"
       x="73"
       width="1"
       height="1"
       style="fill:#dd6162" />
    <rect
       id="rect22602"
       y="125"
       x="73"
       width="1"
       height="1"
       style="fill:#fcefef" />
    <rect
       id="rect22792"
       y="126"
       x="78"
       width="1"
       height="1"
       style="fill:#fcefef" />
    <rect
       id="rect22964"
       y="127"
       x="74"
       width="1"
       height="1"
       style="fill:#cc1214" />
    <rect
       id="rect22970"
       y="127"
       x="77"
       width="1"
       height="1"
       style="fill:#fcefef" />
    <rect
       id="rect23146"
       y="128"
       x="75"
       width="1"
       height="1"
       style="fill:#cc1214" />
    <rect
       id="rect23148"
       y="128"
       x="76"
       width="1"
       height="1"
       style="fill:#fcefef" />
    <rect
       id="rect23154"
       y="128"
       x="79"
       width="1"
       height="1"
       style="fill:#cc1214" />
    <rect
       id="rect23164"
       y="128"
       x="84"
       width="1"
       height="1"
       style="fill:#e17172" />
    <rect
       id="rect23314"
       y="129"
       x="69"
       width="1"
       height="1"
       style="fill:#f8dfe0" />
    <rect
       id="rect23316"
       y="129"
       x="70"
       width="1"
       height="1"
       style="fill:#e17172" />
    <path
       style="fill:#d22c2e"
       d="m 13,6 c 0,0.3333333 0,0.6666667 0,1 0.333333,0 0.666667,0 1,0 0,-0.3333333 0,-0.6666667 0,-1 -0.333333,0 -0.666667,0 -1,0 z"
       id="path12990" />
    <path
       style="fill:#d22c2e"
       d="m 13,7 c -0.333333,0 -0.666667,0 -1,0 0,0.3333333 0,0.6666667 0,1 0.333333,0 0.666667,0 1,0 0,-0.3333333 0,-0.6666667 0,-1 z"
       id="path12988" />
    <path
       style="fill:#d22c2e"
       d="m 12,8 c -0.333333,0 -0.666667,0 -1,0 0,0.3333333 0,0.6666667 0,1 0.333333,0 0.666667,0 1,0 0,-0.3333333 0,-0.6666667 0,-1 z"
       id="path12986" />
    <path
       style="fill:#d22c2e"
       d="m 12,12 c 0,0.333333 0,0.666667 0,1 0.333333,0 0.666667,0 1,0 0,-0.333333 0,-0.666667 0,-1 -0.333333,0 -0.666667,0 -1,0 z"
       id="path12984" />
    <path
       style="fill:#d22c2e"
       d="m 18,14 c 0,0.333333 0,0.666667 0,1 0.333333,0 0.666667,0 1,0 0,-0.333333 0,-0.666667 0,-1 -0.333333,0 -0.666667,0 -1,0 z"
       id="path12982" />
    <path
       style="fill:#d22c2e"
       d="m 14,16 c 0,0.333333 0,0.666667 0,1 0.333333,0 0.666667,0 1,0 0,-0.333333 0,-0.666667 0,-1 -0.333333,0 -0.666667,0 -1,0 z"
       id="path12980" />
    <path
       style="fill:#d22c2e"
       d="m 20,18 c 0,0.333333 0,0.666667 0,1 0.333333,0 0.666667,0 1,0 0,-0.333333 0,-0.666667 0,-1 -0.333333,0 -0.666667,0 -1,0 z"
       id="path12978" />
    <path
       style="fill:#d22c2e"
       d="m 70,117 c 0,0.33333 0,0.66667 0,1 0.333333,0 0.666667,0 1,0 0,-0.33333 0,-0.66667 0,-1 -0.333333,0 -0.666667,0 -1,0 z"
       id="path12976" />
    <path
       style="fill:#d22c2e"
       d="m 76,120 c 0,0.33333 0,0.66667 0,1 0.333333,0 0.666667,0 1,0 0,-0.33333 0,-0.66667 0,-1 -0.333333,0 -0.666667,0 -1,0 z"
       id="path12974" />
    <path
       style="fill:#d22c2e"
       d="m 72,122 c 0,0.33333 0,0.66667 0,1 0.333333,0 0.666667,0 1,0 0,-0.33333 0,-0.66667 0,-1 -0.333333,0 -0.666667,0 -1,0 z"
       id="path12972" />
    <path
       style="fill:#d22c2e"
       d="m 79,122 c 0,0.33333 0,0.66667 0,1 0.333333,0 0.666667,0 1,0 0,-0.33333 0,-0.66667 0,-1 -0.333333,0 -0.666667,0 -1,0 z"
       id="path12970" />
    <path
       style="fill:#d22c2e"
       d="m 74,125 c 0,0.33333 0,0.66667 0,1 0.333333,0 0.666667,0 1,0 0,-0.33333 0,-0.66667 0,-1 -0.333333,0 -0.666667,0 -1,0 z"
       id="path12968" />
    <path
       style="fill:#d22c2e"
       d="m 78,125 c 0,0.33333 0,0.66667 0,1 0.666667,0 1.333333,0 2,0 0,-0.33333 0,-0.66667 0,-1 -0.666667,0 -1.333333,0 -2,0 z"
       id="path12966" />
    <path
       style="fill:#d22c2e"
       d="m 78,126 c -0.333333,0 -0.666667,0 -1,0 0,0.33333 0,0.66667 0,1 0.333333,0 0.666667,0 1,0 0,-0.33333 0,-0.66667 0,-1 z"
       id="path12964" />
    <path
       style="fill:#d22c2e"
       d="m 77,127 c -0.333333,0 -0.666667,0 -1,0 0,0.33333 0,0.66667 0,1 0.333333,0 0.666667,0 1,0 0,-0.33333 0,-0.66667 0,-1 z"
       id="path12962" />
    <path
       style="fill:#d22c2e"
       d="m 71,129 c 0,0.33333 0,0.66667 0,1 0.333333,0 0.666667,0 1,0 0,-0.33333 0,-0.66667 0,-1 -0.333333,0 -0.666667,0 -1,0 z"
       id="path12960" />
    <path
       style="fill:#d22c2e"
       d="m 75,129 c 0,0.33333 0,0.66667 0,1 0.333333,0 0.666667,0 1,0 0,-0.33333 0,-0.66667 0,-1 -0.333333,0 -0.666667,0 -1,0 z"
       id="rect23326" />
    <path
       style="fill:#e48182"
       d="M 5,3 C 5,3.3333333 5,3.6666667 5,4 7,4 9,4 11,4 11,3.6666667 11,3.3333333 11,3 9,3 7,3 5,3 Z"
       id="path12814" />
    <path
       style="fill:#e48182"
       d="m 14,3 c 0,0.3333333 0,0.6666667 0,1 2,0 4,0 6,0 0,-0.3333333 0,-0.6666667 0,-1 -2,0 -4,0 -6,0 z"
       id="path12812" />
    <path
       style="fill:#e48182"
       d="m 5,7 c 0,3 0,6 0,9 0.3333333,0 0.6666667,0 1,0 C 6,13 6,10 6,7 5.6666667,7 5.3333333,7 5,7 Z"
       id="path12810" />
    <path
       style="fill:#e48182"
       d="m 10,7 c 0,0.3333333 0,0.6666667 0,1 0.333333,0 0.666667,0 1,0 0,-0.3333333 0,-0.6666667 0,-1 -0.333333,0 -0.666667,0 -1,0 z"
       id="path12808" />
    <path
       style="fill:#e48182"
       d="m 10,12 c 0,1.333333 0,2.666667 0,4 0.333333,0 0.666667,0 1,0 0,-1.333333 0,-2.666667 0,-4 -0.333333,0 -0.666667,0 -1,0 z"
       id="path12806" />
    <path
       style="fill:#e48182"
       d="m 18,13 c 0,0.333333 0,0.666667 0,1 0.333333,0 0.666667,0 1,0 0,-0.333333 0,-0.666667 0,-1 -0.333333,0 -0.666667,0 -1,0 z"
       id="path12804" />
    <path
       style="fill:#e48182"
       d="m 69,114 c 0,0.33333 0,0.66667 0,1 2.333333,0 4.666667,0 7,0 0,-0.33333 0,-0.66667 0,-1 -2.333333,0 -4.666667,0 -7,0 z"
       id="path12802" />
    <path
       style="fill:#e48182"
       d="m 78,114 c 0,0.33333 0,0.66667 0,1 2.333333,0 4.666667,0 7,0 0,-0.33333 0,-0.66667 0,-1 -2.333333,0 -4.666667,0 -7,0 z"
       id="path12800" />
    <path
       style="fill:#e48182"
       d="m 84,117 c 0,3.66667 0,7.33333 0,11 0.333333,0 0.666667,0 1,0 0,-3.66667 0,-7.33333 0,-11 -0.333333,0 -0.666667,0 -1,0 z"
       id="path12798" />
    <path
       style="fill:#e48182"
       d="m 77,121 c 0,0.33333 0,0.66667 0,1 0.333333,0 0.666667,0 1,0 0,-0.33333 0,-0.66667 0,-1 -0.333333,0 -0.666667,0 -1,0 z"
       id="path12796" />
    <path
       style="fill:#e48182"
       d="m 72,128 c 0,0.33333 0,0.66667 0,1 0.333333,0 0.666667,0 1,0 0,-0.33333 0,-0.66667 0,-1 -0.333333,0 -0.666667,0 -1,0 z"
       id="path12794" />
    <path
       style="fill:#e48182"
       d="m 78,129 c 0,0.33333 0,0.66667 0,1 0.333333,0 0.666667,0 1,0 0,-0.33333 0,-0.66667 0,-1 -0.333333,0 -0.666667,0 -1,0 z"
       id="rect23332" />
    <path
       style="fill:#c90305"
       d="m 5,4 c 0,0.3333333 0,0.6666667 0,1 0.3333333,0 0.6666667,0 1,0 0,4.6666667 0,9.333333 0,14 1.3333333,0 2.6666667,0 4,0 0,-2.666667 0,-5.333333 0,-8 0.666667,0 1.333333,0 2,0 0,0.333333 0,0.666667 0,1 0.333333,0 0.666667,0 1,0 0,0.666667 0,1.333333 0,2 0.333333,0 0.666667,0 1,0 0,0.666667 0,1.333333 0,2 0.333333,0 0.666667,0 1,0 0,1 0,2 0,3 1.666667,0 3.333333,0 5,0 0,-0.333333 0,-0.666667 0,-1 -0.333333,0 -0.666667,0 -1,0 0,-1 0,-2 0,-3 -0.333333,0 -0.666667,0 -1,0 0,-1 0,-2 0,-3 -0.333333,0 -0.666667,0 -1,0 0,-0.333333 0,-0.666667 0,-1 -0.333333,0 -0.666667,0 -1,0 0,-0.666667 0,-1.3333333 0,-2 -0.333333,0 -0.666667,0 -1,0 0,-1 0,-2 0,-3 0.666667,0 1.333333,0 2,0 0,-0.3333333 0,-0.6666667 0,-1 0.333333,0 0.666667,0 1,0 0,-0.3333333 0,-0.6666667 0,-1 -1.333333,0 -2.666667,0 -4,0 0,1 0,2 0,3 -0.333333,0 -0.666667,0 -1,0 0,0.3333333 0,0.6666667 0,1 -0.333333,0 -0.666667,0 -1,0 0,0.3333333 0,0.6666667 0,1 -0.666667,0 -1.333333,0 -2,0 0,-1.3333333 0,-2.6666667 0,-4 0.333333,0 0.666667,0 1,0 C 11,4.6666667 11,4.3333333 11,4 9,4 7,4 5,4 Z"
       id="path12732" />
    <path
       style="fill:#c90305"
       d="m 70,115 c 0,0.66667 0,1.33333 0,2 0.333333,0 0.666667,0 1,0 0,1 0,2 0,3 0.333333,0 0.666667,0 1,0 0,0.66667 0,1.33333 0,2 0.333333,0 0.666667,0 1,0 0,0.66667 0,1.33333 0,2 0.333333,0 0.666667,0 1,0 0,0.33333 0,0.66667 0,1 0.333333,0 0.666667,0 1,0 0,1 0,2 0,3 0.333333,0 0.666667,0 1,0 0,-0.33333 0,-0.66667 0,-1 0.333333,0 0.666667,0 1,0 0,-0.33333 0,-0.66667 0,-1 0.333333,0 0.666667,0 1,0 0,-0.33333 0,-0.66667 0,-1 0.666667,0 1.333333,0 2,0 0,1.33333 0,2.66667 0,4 -0.333333,0 -0.666667,0 -1,0 0,0.33333 0,0.66667 0,1 1.666667,0 3.333333,0 5,0 0,-5 0,-10 0,-15 -1.666667,0 -3.333333,0 -5,0 0,0.66667 0,1.33333 0,2 0.333333,0 0.666667,0 1,0 0,2 0,4 0,6 -0.666667,0 -1.333333,0 -2,0 0,-0.33333 0,-0.66667 0,-1 -0.333333,0 -0.666667,0 -1,0 0,-0.33333 0,-0.66667 0,-1 -0.333333,0 -0.666667,0 -1,0 0,-0.66667 0,-1.33333 0,-2 -0.333333,0 -0.666667,0 -1,0 0,-1.33333 0,-2.66667 0,-4 -1.666667,0 -3.333333,0 -5,0 z"
       id="path12730" />
    <path
       style="fill:#c90305"
       d="m 75,128 c -0.666667,0 -1.333333,0 -2,0 0,0.33333 0,0.66667 0,1 -0.333333,0 -0.666667,0 -1,0 0,0.33333 0,0.66667 0,1 1,0 2,0 3,0 0,-0.66667 0,-1.33333 0,-2 z"
       id="rect23342" />
    <rect
       id="rect23344"
       y="129"
       x="84"
       width="1"
       height="1"
       style="fill:#cc1214" />
    <path
       style="fill:#f3c8c8"
       d="m 20,3 c 0,0.6666667 0,1.3333333 0,2 0.333333,0 0.666667,0 1,0 0,-0.6666667 0,-1.3333333 0,-2 -0.333333,0 -0.666667,0 -1,0 z"
       id="path12935" />
    <path
       style="fill:#f3c8c8"
       d="m 15,7 c 0,0.3333333 0,0.6666667 0,1 0.333333,0 0.666667,0 1,0 0,-0.3333333 0,-0.6666667 0,-1 -0.333333,0 -0.666667,0 -1,0 z"
       id="path12933" />
    <path
       style="fill:#f3c8c8"
       d="m 12,13 c 0,0.333333 0,0.666667 0,1 0.333333,0 0.666667,0 1,0 0,-0.333333 0,-0.666667 0,-1 -0.333333,0 -0.666667,0 -1,0 z"
       id="path12931" />
    <path
       style="fill:#f3c8c8"
       d="m 13,15 c 0,0.333333 0,0.666667 0,1 0.333333,0 0.666667,0 1,0 0,-0.333333 0,-0.666667 0,-1 -0.333333,0 -0.666667,0 -1,0 z"
       id="path12929" />
    <path
       style="fill:#f3c8c8"
       d="m 19,15 c 0,0.333333 0,0.666667 0,1 0.333333,0 0.666667,0 1,0 0,-0.333333 0,-0.666667 0,-1 -0.333333,0 -0.666667,0 -1,0 z"
       id="path12927" />
    <path
       style="fill:#f3c8c8"
       d="m 13,19 c 0,0.333333 0,0.666667 0,1 0.333333,0 0.666667,0 1,0 0,-0.333333 0,-0.666667 0,-1 -0.333333,0 -0.666667,0 -1,0 z"
       id="path12925" />
    <path
       style="fill:#f3c8c8"
       d="m 68,114 c 0,0.66667 0,1.33333 0,2 0.333333,0 0.666667,0 1,0 0,-0.66667 0,-1.33333 0,-2 -0.333333,0 -0.666667,0 -1,0 z"
       id="path12923" />
    <path
       style="fill:#f3c8c8"
       d="m 69,116 c 0,0.33333 0,0.66667 0,1 0.333333,0 0.666667,0 1,0 0,-0.33333 0,-0.66667 0,-1 -0.333333,0 -0.666667,0 -1,0 z"
       id="path12921" />
    <path
       style="fill:#f3c8c8"
       d="m 85,114 c 0,0.33333 0,0.66667 0,1 0.333333,0 0.666667,0 1,0 0,-0.33333 0,-0.66667 0,-1 -0.333333,0 -0.666667,0 -1,0 z"
       id="path12919" />
    <path
       style="fill:#f3c8c8"
       d="m 78,122 c 0,0.33333 0,0.66667 0,1 0.333333,0 0.666667,0 1,0 0,-0.33333 0,-0.66667 0,-1 -0.333333,0 -0.666667,0 -1,0 z"
       id="path12917" />
    <path
       style="fill:#f3c8c8"
       d="m 72,123 c 0,0.33333 0,0.66667 0,1 0.333333,0 0.666667,0 1,0 0,-0.33333 0,-0.66667 0,-1 -0.333333,0 -0.666667,0 -1,0 z"
       id="path12915" />
    <path
       style="fill:#f3c8c8"
       d="m 74,126 c 0,0.33333 0,0.66667 0,1 0.333333,0 0.666667,0 1,0 0,-0.33333 0,-0.66667 0,-1 -0.333333,0 -0.666667,0 -1,0 z"
       id="path12913" />
    <path
       style="fill:#f3c8c8"
       d="m 74,127 c -0.333333,0 -0.666667,0 -1,0 0,0.33333 0,0.66667 0,1 0.333333,0 0.666667,0 1,0 0,-0.33333 0,-0.66667 0,-1 z"
       id="path12911" />
    <path
       style="fill:#f3c8c8"
       d="m 76,129 c 0,0.33333 0,0.66667 0,1 0.333333,0 0.666667,0 1,0 0,-0.33333 0,-0.66667 0,-1 -0.333333,0 -0.666667,0 -1,0 z"
       id="path12909" />
    <path
       style="fill:#f3c8c8"
       d="m 85,129 c 0,0.33333 0,0.66667 0,1 0.333333,0 0.666667,0 1,0 0,-0.33333 0,-0.66667 0,-1 -0.333333,0 -0.666667,0 -1,0 z"
       id="rect23346" />
    <rect
       id="rect23490"
       y="130"
       x="68"
       width="1"
       height="1"
       style="fill:#fbfcfc" />
    <rect
       id="rect23492"
       y="130"
       x="69"
       width="1"
       height="1"
       style="fill:#eda9aa" />
    <rect
       id="rect23506"
       y="130"
       x="76"
       width="1"
       height="1"
       style="fill:#e69091" />
    <path
       style="fill:#d74345"
       d="M 5,5 C 5,5.6666667 5,6.3333333 5,7 5.3333333,7 5.6666667,7 6,7 6,6.3333333 6,5.6666667 6,5 5.6666667,5 5.3333333,5 5,5 Z"
       id="path12885" />
    <path
       style="fill:#d74345"
       d="m 10,5 c 0,0.3333333 0,0.6666667 0,1 0.333333,0 0.666667,0 1,0 0,-0.3333333 0,-0.6666667 0,-1 -0.333333,0 -0.666667,0 -1,0 z"
       id="path12883" />
    <path
       style="fill:#d74345"
       d="m 10,11 c 0,0.333333 0,0.666667 0,1 0.333333,0 0.666667,0 1,0 0,-0.333333 0,-0.666667 0,-1 -0.333333,0 -0.666667,0 -1,0 z"
       id="path12881" />
    <path
       style="fill:#d74345"
       d="m 5,17 c 0,0.333333 0,0.666667 0,1 0.3333333,0 0.6666667,0 1,0 0,-0.333333 0,-0.666667 0,-1 -0.3333333,0 -0.6666667,0 -1,0 z"
       id="path12879" />
    <path
       style="fill:#d74345"
       d="m 10,17 c 0,0.333333 0,0.666667 0,1 0.333333,0 0.666667,0 1,0 0,-0.333333 0,-0.666667 0,-1 -0.333333,0 -0.666667,0 -1,0 z"
       id="path12877" />
    <path
       style="fill:#d74345"
       d="m 14,18 c 0,0.666667 0,1.333333 0,2 2.333333,0 4.666667,0 7,0 0,-0.333333 0,-0.666667 0,-1 -2,0 -4,0 -6,0 0,-0.333333 0,-0.666667 0,-1 -0.333333,0 -0.666667,0 -1,0 z"
       id="path12875" />
    <path
       style="fill:#d74345"
       d="m 5,19 c 0,0.333333 0,0.666667 0,1 2,0 4,0 6,0 0,-0.333333 0,-0.666667 0,-1 -2,0 -4,0 -6,0 z"
       id="path12873" />
    <path
       style="fill:#d74345"
       d="m 75,115 c 0,0.33333 0,0.66667 0,1 0.333333,0 0.666667,0 1,0 0,-0.33333 0,-0.66667 0,-1 -0.333333,0 -0.666667,0 -1,0 z"
       id="path12871" />
    <path
       style="fill:#d74345"
       d="m 79,117 c 0,1.66667 0,3.33333 0,5 0.333333,0 0.666667,0 1,0 0,-1.66667 0,-3.33333 0,-5 -0.333333,0 -0.666667,0 -1,0 z"
       id="path12869" />
    <path
       style="fill:#d74345"
       d="m 71,120 c 0,0.33333 0,0.66667 0,1 0.333333,0 0.666667,0 1,0 0,-0.33333 0,-0.66667 0,-1 -0.333333,0 -0.666667,0 -1,0 z"
       id="path12867" />
    <path
       style="fill:#d74345"
       d="m 79,126 c 0,0.66667 0,1.33333 0,2 0.333333,0 0.666667,0 1,0 0,-0.66667 0,-1.33333 0,-2 -0.333333,0 -0.666667,0 -1,0 z"
       id="path12865" />
    <path
       style="fill:#d74345"
       d="m 70,130 c 0,0.33333 0,0.66667 0,1 2,0 4,0 6,0 0,-0.33333 0,-0.66667 0,-1 -2,0 -4,0 -6,0 z"
       id="path12863" />
    <path
       style="fill:#d74345"
       d="m 78,130 c 0,0.33333 0,0.66667 0,1 2.333333,0 4.666667,0 7,0 0,-0.33333 0,-0.66667 0,-1 -2.333333,0 -4.666667,0 -7,0 z"
       id="rect23522" />
    <rect
       id="rect23524"
       y="130"
       x="85"
       width="1"
       height="1"
       style="fill:#eda9aa" />
    <rect
       id="rect23678"
       y="131"
       x="74"
       width="1"
       height="1"
       style="fill:#f9fafc" />
    <path
       style="fill:#fdfefe"
       d="M 3,4 C 3,4.3333333 3,4.6666667 3,5 3.3333333,5 3.6666667,5 4,5 4,4.6666667 4,4.3333333 4,4 3.6666667,4 3.3333333,4 3,4 Z"
       id="path13029" />
    <path
       style="fill:#fdfefe"
       d="m 12,4 c 0,0.3333333 0,0.6666667 0,1 0.333333,0 0.666667,0 1,0 0,-0.3333333 0,-0.6666667 0,-1 -0.333333,0 -0.666667,0 -1,0 z"
       id="path13027" />
    <path
       style="fill:#fdfefe"
       d="m 20,20 c 0,0.333333 0,0.666667 0,1 0.666667,0 1.333333,0 2,0 0,-0.333333 0,-0.666667 0,-1 -0.666667,0 -1.333333,0 -2,0 z"
       id="path13025" />
    <path
       style="fill:#fdfefe"
       d="m 69,117 c 0,0.33333 0,0.66667 0,1 0.333333,0 0.666667,0 1,0 0,-0.33333 0,-0.66667 0,-1 -0.333333,0 -0.666667,0 -1,0 z"
       id="path13023" />
    <path
       style="fill:#fdfefe"
       d="m 72,124 c 0,0.33333 0,0.66667 0,1 0.333333,0 0.666667,0 1,0 0,-0.33333 0,-0.66667 0,-1 -0.333333,0 -0.666667,0 -1,0 z"
       id="path13021" />
    <path
       style="fill:#fdfefe"
       d="m 73,126 c 0,0.33333 0,0.66667 0,1 0.333333,0 0.666667,0 1,0 0,-0.33333 0,-0.66667 0,-1 -0.333333,0 -0.666667,0 -1,0 z"
       id="path13019" />
    <path
       style="fill:#fdfefe"
       d="m 78,128 c 0,0.33333 0,0.66667 0,1 0.333333,0 0.666667,0 1,0 0,-0.33333 0,-0.66667 0,-1 -0.333333,0 -0.666667,0 -1,0 z"
       id="path13017" />
    <path
       style="fill:#fdfefe"
       d="m 78,129 c -0.333333,0 -0.666667,0 -1,0 0,0.66667 0,1.33333 0,2 0.333333,0 0.666667,0 1,0 0,-0.66667 0,-1.33333 0,-2 z"
       id="path13015" />
    <path
       style="fill:#fdfefe"
       d="m 69,131 c 0,0.33333 0,0.66667 0,1 1.666667,0 3.333333,0 5,0 0,-0.33333 0,-0.66667 0,-1 -1.666667,0 -3.333333,0 -5,0 z"
       id="path13013" />
    <path
       style="fill:#fdfefe"
       d="m 75,131 c 0,0.33333 0,0.66667 0,1 0.333333,0 0.666667,0 1,0 0,-0.33333 0,-0.66667 0,-1 -0.333333,0 -0.666667,0 -1,0 z"
       id="rect23680" />
    <rect
       id="rect23682"
       y="131"
       x="76"
       width="1"
       height="1"
       style="fill:#fbffff" />
    <rect
       id="rect23684"
       y="131"
       x="77"
       width="1"
       height="1"
       style="fill:#fbffff" />
  </g>
</svg>
