<?xml version="1.0" encoding="UTF-8" standalone="no"?>
<svg
   xmlns:dc="http://purl.org/dc/elements/1.1/"
   xmlns:cc="http://creativecommons.org/ns#"
   xmlns:rdf="http://www.w3.org/1999/02/22-rdf-syntax-ns#"
   xmlns:svg="http://www.w3.org/2000/svg"
   xmlns="http://www.w3.org/2000/svg"
   xmlns:sodipodi="http://sodipodi.sourceforge.net/DTD/sodipodi-0.dtd"
   xmlns:inkscape="http://www.inkscape.org/namespaces/inkscape"
   height="135px"
   version="1.1"
   width="90px"
   id="svg24208"
   sodipodi:docname="suit-hearts.svg"
   inkscape:version="0.92.2 (5c3e80d, 2017-08-06)">
  <metadata
     id="metadata24212">
    <rdf:RDF>
      <cc:Work
         rdf:about="">
        <dc:format>image/svg+xml</dc:format>
        <dc:type
           rdf:resource="http://purl.org/dc/dcmitype/StillImage" />
        <dc:title />
      </cc:Work>
    </rdf:RDF>
  </metadata>
  <sodipodi:namedview
     pagecolor="#ffffff"
     bordercolor="#666666"
     borderopacity="1"
     objecttolerance="10"
     gridtolerance="10"
     guidetolerance="10"
     inkscape:pageopacity="0"
     inkscape:pageshadow="2"
     inkscape:window-width="1920"
     inkscape:window-height="1025"
     id="namedview24210"
     showgrid="false"
     inkscape:zoom="13.985185"
     inkscape:cx="81.331534"
     inkscape:cy="7.9368383"
     inkscape:window-x="-8"
     inkscape:window-y="-8"
     inkscape:window-maximized="1"
     inkscape:current-layer="svg24208" />
  <defs
     id="defs2" />
  <g
     id="g9183">
    <rect
       style="fill:#f8dfe0"
       id="rect726"
       y="4"
       x="24"
       width="1"
       height="1" />
    <rect
       style="fill:#eeb0b1"
       id="rect730"
       y="4"
       x="26"
       width="1"
       height="1" />
    <rect
       style="fill:#eeb0b1"
       id="rect738"
       y="4"
       x="30"
       width="1"
       height="1" />
    <rect
       style="fill:#f8dfe0"
       id="rect742"
       y="4"
       x="32"
       width="1"
       height="1" />
    <rect
       style="fill:#eba0a1"
       id="rect902"
       y="5"
       x="23"
       width="1"
       height="1" />
    <rect
       style="fill:#d33133"
       id="rect910"
       y="5"
       x="27"
       width="1"
       height="1" />
    <rect
       style="fill:#d33133"
       id="rect914"
       y="5"
       x="29"
       width="1"
       height="1" />
    <rect
       style="fill:#eba0a1"
       id="rect922"
       y="5"
       x="33"
       width="1"
       height="1" />
    <rect
       style="fill:#d33133"
       id="rect1102"
       y="6"
       x="33"
       width="1"
       height="1" />
    <rect
       style="fill:#d33133"
       id="rect1442"
       y="8"
       x="23"
       width="1"
       height="1" />
    <rect
       style="fill:#eeb0b1"
       id="rect1622"
       y="9"
       x="23"
       width="1"
       height="1" />
    <rect
       style="fill:#fcefef"
       id="rect1984"
       y="11"
       x="24"
       width="1"
       height="1" />
    <rect
       style="fill:#fcefef"
       id="rect2000"
       y="11"
       x="32"
       width="1"
       height="1" />
    <rect
       style="fill:#f5d0d0"
       id="rect2166"
       y="12"
       x="25"
       width="1"
       height="1" />
    <rect
       style="fill:#f5d0d0"
       id="rect2178"
       y="12"
       x="31"
       width="1"
       height="1" />
    <rect
       style="fill:#e79091"
       id="rect2348"
       y="13"
       x="26"
       width="1"
       height="1" />
    <rect
       style="fill:#e79091"
       id="rect2356"
       y="13"
       x="30"
       width="1"
       height="1" />
    <rect
       style="fill:#da5152"
       id="rect2892"
       y="16"
       x="28"
       width="1"
       height="1" />
    <rect
       style="fill:#f8dfe0"
       id="rect4106"
       y="23"
       x="5"
       width="1"
       height="1" />
    <rect
       style="fill:#eeb0b1"
       id="rect4110"
       y="23"
       x="7"
       width="1"
       height="1" />
    <rect
       style="fill:#eeb0b1"
       id="rect4118"
       y="23"
       x="11"
       width="1"
       height="1" />
    <rect
       style="fill:#f8dfe0"
       id="rect4122"
       y="23"
       x="13"
       width="1"
       height="1" />
    <rect
       style="fill:#eba0a1"
       id="rect4284"
       y="24"
       x="4"
       width="1"
       height="1" />
    <rect
       style="fill:#d33133"
       id="rect4292"
       y="24"
       x="8"
       width="1"
       height="1" />
    <rect
       style="fill:#d33133"
       id="rect4296"
       y="24"
       x="10"
       width="1"
       height="1" />
    <rect
       style="fill:#eba0a1"
       id="rect4304"
       y="24"
       x="14"
       width="1"
       height="1" />
    <rect
       style="fill:#d33133"
       id="rect4484"
       y="25"
       x="14"
       width="1"
       height="1" />
    <rect
       style="fill:#d33133"
       id="rect4824"
       y="27"
       x="4"
       width="1"
       height="1" />
    <rect
       style="fill:#eeb0b1"
       id="rect5004"
       y="28"
       x="4"
       width="1"
       height="1" />
    <rect
       style="fill:#fcefef"
       id="rect5366"
       y="30"
       x="5"
       width="1"
       height="1" />
    <rect
       style="fill:#fcefef"
       id="rect5382"
       y="30"
       x="13"
       width="1"
       height="1" />
    <rect
       style="fill:#f5d0d0"
       id="rect5548"
       y="31"
       x="6"
       width="1"
       height="1" />
    <rect
       style="fill:#f5d0d0"
       id="rect5560"
       y="31"
       x="12"
       width="1"
       height="1" />
    <rect
       style="fill:#e79091"
       id="rect5730"
       y="32"
       x="7"
       width="1"
       height="1" />
    <rect
       style="fill:#e79091"
       id="rect5738"
       y="32"
       x="11"
       width="1"
       height="1" />
    <rect
       style="fill:#da5152"
       id="rect6274"
       y="35"
       x="9"
       width="1"
       height="1" />
    <rect
       style="fill:#eeb0b1"
       id="rect17756"
       y="98"
       x="80"
       width="1"
       height="1" />
    <rect
       style="fill:#f5d0d0"
       id="rect17758"
       y="98"
       x="81"
       width="1"
       height="1" />
    <rect
       style="fill:#f5d0d0"
       id="rect18114"
       y="100"
       x="79"
       width="1"
       height="1" />
    <rect
       style="fill:#f8dfe0"
       id="rect18120"
       y="100"
       x="82"
       width="1"
       height="1" />
    <rect
       style="fill:#d33133"
       id="rect18294"
       y="101"
       x="79"
       width="1"
       height="1" />
    <rect
       style="fill:#eeb0b1"
       id="rect18650"
       y="103"
       x="77"
       width="1"
       height="1" />
    <rect
       style="fill:#fcefef"
       id="rect18828"
       y="104"
       x="76"
       width="1"
       height="1" />
    <rect
       style="fill:#fcefef"
       id="rect18846"
       y="104"
       x="85"
       width="1"
       height="1" />
    <rect
       style="fill:#f8dfe0"
       id="rect19186"
       y="106"
       x="75"
       width="1"
       height="1" />
    <rect
       style="fill:#f8dfe0"
       id="rect19208"
       y="106"
       x="86"
       width="1"
       height="1" />
    <rect
       style="fill:#eba0a1"
       id="rect19366"
       y="107"
       x="75"
       width="1"
       height="1" />
    <rect
       style="fill:#e79091"
       id="rect19388"
       y="107"
       x="86"
       width="1"
       height="1" />
    <rect
       style="fill:#e79091"
       id="rect19546"
       y="108"
       x="75"
       width="1"
       height="1" />
    <rect
       style="fill:#eba0a1"
       id="rect19568"
       y="108"
       x="86"
       width="1"
       height="1" />
    <rect
       style="fill:#fcefef"
       id="rect19726"
       y="109"
       x="75"
       width="1"
       height="1" />
    <rect
       style="fill:#e79091"
       id="rect19736"
       y="109"
       x="80"
       width="1"
       height="1" />
    <rect
       style="fill:#fcefef"
       id="rect19748"
       y="109"
       x="86"
       width="1"
       height="1" />
    <rect
       style="fill:#f5d0d0"
       id="rect19908"
       y="110"
       x="76"
       width="1"
       height="1" />
    <rect
       style="fill:#da5152"
       id="rect19912"
       y="110"
       x="78"
       width="1"
       height="1" />
    <rect
       style="fill:#eeb0b1"
       id="rect19914"
       y="110"
       x="79"
       width="1"
       height="1" />
    <rect
       style="fill:#eba0a1"
       id="rect19920"
       y="110"
       x="82"
       width="1"
       height="1" />
    <rect
       style="fill:#da5152"
       id="rect19922"
       y="110"
       x="83"
       width="1"
       height="1" />
    <rect
       style="fill:#f8dfe0"
       id="rect19926"
       y="110"
       x="85"
       width="1"
       height="1" />
    <rect
       style="fill:#e79091"
       id="rect21138"
       y="117"
       x="61"
       width="1"
       height="1" />
    <rect
       style="fill:#f8dfe0"
       id="rect21140"
       y="117"
       x="62"
       width="1"
       height="1" />
    <rect
       style="fill:#d33133"
       id="rect21318"
       y="118"
       x="61"
       width="1"
       height="1" />
    <rect
       style="fill:#eeb0b1"
       id="rect21496"
       y="119"
       x="60"
       width="1"
       height="1" />
    <rect
       style="fill:#fcefef"
       id="rect21502"
       y="119"
       x="63"
       width="1"
       height="1" />
    <rect
       style="fill:#fcefef"
       id="rect21674"
       y="120"
       x="59"
       width="1"
       height="1" />
    <rect
       style="fill:#da5152"
       id="rect21682"
       y="120"
       x="63"
       width="1"
       height="1" />
    <path
       id="path6132"
       d="m 28,6 c 0,0.3333333 0,0.6666667 0,1 0.333333,0 0.666667,0 1,0 0,-0.3333333 0,-0.6666667 0,-1 -0.333333,0 -0.666667,0 -1,0 z"
       style="fill:#d64143"
       inkscape:connector-curvature="0" />
    <path
       id="path6128"
       d="m 24,10 c 0,0.333333 0,0.666667 0,1 0.333333,0 0.666667,0 1,0 0,-0.333333 0,-0.666667 0,-1 -0.333333,0 -0.666667,0 -1,0 z"
       style="fill:#d64143"
       inkscape:connector-curvature="0" />
    <path
       id="path6126"
       d="m 27,14 c 0,0.333333 0,0.666667 0,1 0.333333,0 0.666667,0 1,0 0,-0.333333 0,-0.666667 0,-1 -0.333333,0 -0.666667,0 -1,0 z"
       style="fill:#d64143"
       inkscape:connector-curvature="0" />
    <path
       id="path6124"
       d="m 29,14 c 0,0.333333 0,0.666667 0,1 0.333333,0 0.666667,0 1,0 0,-0.333333 0,-0.666667 0,-1 -0.333333,0 -0.666667,0 -1,0 z"
       style="fill:#d64143"
       inkscape:connector-curvature="0" />
    <path
       id="path6116"
       d="m 9,25 c 0,0.333333 0,0.666667 0,1 0.3333333,0 0.6666667,0 1,0 0,-0.333333 0,-0.666667 0,-1 -0.3333333,0 -0.6666667,0 -1,0 z"
       style="fill:#d64143"
       inkscape:connector-curvature="0" />
    <path
       id="path6114"
       d="m 5,29 c 0,0.333333 0,0.666667 0,1 0.3333333,0 0.6666667,0 1,0 0,-0.333333 0,-0.666667 0,-1 -0.3333333,0 -0.6666667,0 -1,0 z"
       style="fill:#d64143"
       inkscape:connector-curvature="0" />
    <path
       id="path6112"
       d="m 8,33 c 0,0.333333 0,0.666667 0,1 0.3333333,0 0.6666667,0 1,0 0,-0.333333 0,-0.666667 0,-1 -0.3333333,0 -0.6666667,0 -1,0 z"
       style="fill:#d64143"
       inkscape:connector-curvature="0" />
    <path
       id="path6110"
       d="m 10,33 c 0,0.333333 0,0.666667 0,1 0.333333,0 0.666667,0 1,0 0,-0.333333 0,-0.666667 0,-1 -0.333333,0 -0.666667,0 -1,0 z"
       style="fill:#d64143"
       inkscape:connector-curvature="0" />
    <path
       id="path6076"
       d="m 82,101 c 0,0.33333 0,0.66667 0,1 0.333333,0 0.666667,0 1,0 0,-0.33333 0,-0.66667 0,-1 -0.333333,0 -0.666667,0 -1,0 z"
       style="fill:#d64143"
       inkscape:connector-curvature="0" />
    <path
       id="path6074"
       d="m 76,105 c 0,0.33333 0,0.66667 0,1 0.333333,0 0.666667,0 1,0 0,-0.33333 0,-0.66667 0,-1 -0.333333,0 -0.666667,0 -1,0 z"
       style="fill:#d64143"
       inkscape:connector-curvature="0" />
    <rect
       style="fill:#da5152"
       id="rect21854"
       y="121"
       x="59"
       width="1"
       height="1" />
    <rect
       style="fill:#eba0a1"
       id="rect21864"
       y="121"
       x="64"
       width="1"
       height="1" />
    <rect
       style="fill:#f5d0d0"
       id="rect22046"
       y="122"
       x="65"
       width="1"
       height="1" />
    <rect
       style="fill:#f5d0d0"
       id="rect22210"
       y="123"
       x="57"
       width="1"
       height="1" />
    <rect
       style="fill:#fcefef"
       id="rect22228"
       y="123"
       x="66"
       width="1"
       height="1" />
    <rect
       style="fill:#fcefef"
       id="rect22590"
       y="125"
       x="67"
       width="1"
       height="1" />
    <rect
       style="fill:#d33133"
       id="rect22938"
       y="127"
       x="61"
       width="1"
       height="1" />
    <rect
       style="fill:#f5d0d0"
       id="rect22950"
       y="127"
       x="67"
       width="1"
       height="1" />
    <rect
       style="fill:#f8dfe0"
       id="rect23108"
       y="128"
       x="56"
       width="1"
       height="1" />
    <rect
       style="fill:#d33133"
       id="rect23128"
       y="128"
       x="66"
       width="1"
       height="1" />
    <path
       id="path6431"
       d="m 23,6 c 0,0.3333333 0,0.6666667 0,1 0.333333,0 0.666667,0 1,0 0,-0.3333333 0,-0.6666667 0,-1 -0.333333,0 -0.666667,0 -1,0 z"
       style="fill:#d02223"
       inkscape:connector-curvature="0" />
    <path
       id="path6429"
       d="m 31,11 c 0,0.333333 0,0.666667 0,1 0.333333,0 0.666667,0 1,0 0,-0.333333 0,-0.666667 0,-1 -0.333333,0 -0.666667,0 -1,0 z"
       style="fill:#d02223"
       inkscape:connector-curvature="0" />
    <path
       id="path6419"
       d="m 4,25 c 0,0.333333 0,0.666667 0,1 0.3333333,0 0.6666667,0 1,0 0,-0.333333 0,-0.666667 0,-1 -0.3333333,0 -0.6666667,0 -1,0 z"
       style="fill:#d02223"
       inkscape:connector-curvature="0" />
    <path
       id="path6417"
       d="m 12,30 c 0,0.333333 0,0.666667 0,1 0.333333,0 0.666667,0 1,0 0,-0.333333 0,-0.666667 0,-1 -0.333333,0 -0.666667,0 -1,0 z"
       style="fill:#d02223"
       inkscape:connector-curvature="0" />
    <path
       id="path6395"
       d="m 65,123 c 0,0.33333 0,0.66667 0,1 0.333333,0 0.666667,0 1,0 0,-0.33333 0,-0.66667 0,-1 -0.333333,0 -0.666667,0 -1,0 z"
       style="fill:#d02223"
       inkscape:connector-curvature="0" />
    <path
       id="path6393"
       d="m 57,124 c 0,0.33333 0,0.66667 0,1 0.333333,0 0.666667,0 1,0 0,-0.33333 0,-0.66667 0,-1 -0.333333,0 -0.666667,0 -1,0 z"
       style="fill:#d02223"
       inkscape:connector-curvature="0" />
    <rect
       style="fill:#f5d0d0"
       id="rect23290"
       y="129"
       x="57"
       width="1"
       height="1" />
    <path
       style="fill:#e17172"
       d="m 78,102 c 0,0.33333 0,0.66667 0,1 0.333333,0 0.666667,0 1,0 0,-0.33333 0,-0.66667 0,-1 -0.333333,0 -0.666667,0 -1,0 z"
       id="path974" />
    <path
       style="fill:#e17172"
       d="m 77,110 c 0,0.33333 0,0.66667 0,1 0.333333,0 0.666667,0 1,0 0,-0.33333 0,-0.66667 0,-1 -0.333333,0 -0.666667,0 -1,0 z"
       id="path972" />
    <path
       style="fill:#e17172"
       d="m 84,110 c 0,0.33333 0,0.66667 0,1 0.333333,0 0.666667,0 1,0 0,-0.33333 0,-0.66667 0,-1 -0.333333,0 -0.666667,0 -1,0 z"
       id="path970" />
    <path
       style="fill:#e17172"
       d="m 56,126 c 0,0.66667 0,1.33333 0,2 0.333333,0 0.666667,0 1,0 0,-0.66667 0,-1.33333 0,-2 -0.333333,0 -0.666667,0 -1,0 z"
       id="path968" />
    <path
       style="fill:#e17172"
       d="m 58,129 c 0,0.33333 0,0.66667 0,1 0.333333,0 0.666667,0 1,0 0,-0.33333 0,-0.66667 0,-1 -0.333333,0 -0.666667,0 -1,0 z"
       id="rect23292" />
    <path
       id="path6671"
       d="m 33,8 c 0,0.3333333 0,0.6666667 0,1 0.333333,0 0.666667,0 1,0 0,-0.3333333 0,-0.6666667 0,-1 -0.333333,0 -0.666667,0 -1,0 z"
       style="fill:#dd6162"
       inkscape:connector-curvature="0" />
    <path
       id="path6669"
       d="m 32,10 c 0,0.333333 0,0.666667 0,1 0.333333,0 0.666667,0 1,0 0,-0.333333 0,-0.666667 0,-1 -0.333333,0 -0.666667,0 -1,0 z"
       style="fill:#dd6162"
       inkscape:connector-curvature="0" />
    <path
       id="path6661"
       d="m 14,27 c 0,0.333333 0,0.666667 0,1 0.333333,0 0.666667,0 1,0 0,-0.333333 0,-0.666667 0,-1 -0.333333,0 -0.666667,0 -1,0 z"
       style="fill:#dd6162"
       inkscape:connector-curvature="0" />
    <path
       id="path6659"
       d="m 13,29 c 0,0.333333 0,0.666667 0,1 0.333333,0 0.666667,0 1,0 0,-0.333333 0,-0.666667 0,-1 -0.333333,0 -0.666667,0 -1,0 z"
       style="fill:#dd6162"
       inkscape:connector-curvature="0" />
    <path
       id="path6633"
       d="m 80,99 c 0,0.333333 0,0.666667 0,1 0.666667,0 1.333333,0 2,0 0,-0.333333 0,-0.666667 0,-1 -0.666667,0 -1.333333,0 -2,0 z"
       style="fill:#dd6162"
       inkscape:connector-curvature="0" />
    <path
       id="path6631"
       d="m 85,105 c 0,0.33333 0,0.66667 0,1 0.333333,0 0.666667,0 1,0 0,-0.33333 0,-0.66667 0,-1 -0.333333,0 -0.666667,0 -1,0 z"
       style="fill:#dd6162"
       inkscape:connector-curvature="0" />
    <path
       id="path6621"
       d="m 62,128 c 0,0.33333 0,0.66667 0,1 0.333333,0 0.666667,0 1,0 0,-0.33333 0,-0.66667 0,-1 -0.333333,0 -0.666667,0 -1,0 z"
       style="fill:#dd6162"
       inkscape:connector-curvature="0" />
    <path
       id="rect23294"
       d="m 59,129 c 0,0.33333 0,0.66667 0,1 0.333333,0 0.666667,0 1,0 0,-0.33333 0,-0.66667 0,-1 -0.333333,0 -0.666667,0 -1,0 z"
       style="fill:#dd6162"
       inkscape:connector-curvature="0" />
    <rect
       style="fill:#f5d0d0"
       id="rect23296"
       y="129"
       x="60"
       width="1"
       height="1" />
    <rect
       style="fill:#eeb0b1"
       id="rect23302"
       y="129"
       x="63"
       width="1"
       height="1" />
    <rect
       style="fill:#da5152"
       id="rect23304"
       y="129"
       x="64"
       width="1"
       height="1" />
    <rect
       style="fill:#e79091"
       id="rect23306"
       y="129"
       x="65"
       width="1"
       height="1" />
    <rect
       style="fill:#fcefef"
       id="rect23308"
       y="129"
       x="66"
       width="1"
       height="1" />
    <path
       id="path6252"
       d="m 25,4 c 0,0.3333333 0,0.6666667 0,1 0.333333,0 0.666667,0 1,0 0,-0.3333333 0,-0.6666667 0,-1 -0.333333,0 -0.666667,0 -1,0 z"
       style="fill:#e48182"
       inkscape:connector-curvature="0" />
    <path
       id="path6250"
       d="m 31,4 c 0,0.3333333 0,0.6666667 0,1 0.333333,0 0.666667,0 1,0 0,-0.3333333 0,-0.6666667 0,-1 -0.333333,0 -0.666667,0 -1,0 z"
       style="fill:#e48182"
       inkscape:connector-curvature="0" />
    <path
       id="path6246"
       d="m 6,23 c 0,0.333333 0,0.666667 0,1 0.3333333,0 0.6666667,0 1,0 0,-0.333333 0,-0.666667 0,-1 -0.3333333,0 -0.6666667,0 -1,0 z"
       style="fill:#e48182"
       inkscape:connector-curvature="0" />
    <path
       id="path6244"
       d="m 12,23 c 0,0.333333 0,0.666667 0,1 0.333333,0 0.666667,0 1,0 0,-0.333333 0,-0.666667 0,-1 -0.333333,0 -0.666667,0 -1,0 z"
       style="fill:#e48182"
       inkscape:connector-curvature="0" />
    <path
       id="path6218"
       d="m 83,102 c 0,0.33333 0,0.66667 0,1 0.333333,0 0.666667,0 1,0 0,-0.33333 0,-0.66667 0,-1 -0.333333,0 -0.666667,0 -1,0 z"
       style="fill:#e48182"
       inkscape:connector-curvature="0" />
    <path
       id="path6216"
       d="m 81,109 c 0,0.33333 0,0.66667 0,1 0.333333,0 0.666667,0 1,0 0,-0.33333 0,-0.66667 0,-1 -0.333333,0 -0.666667,0 -1,0 z"
       style="fill:#e48182"
       inkscape:connector-curvature="0" />
    <path
       id="path6204"
       d="m 62,118 c 0,0.33333 0,0.66667 0,1 0.333333,0 0.666667,0 1,0 0,-0.33333 0,-0.66667 0,-1 -0.333333,0 -0.666667,0 -1,0 z"
       style="fill:#e48182"
       inkscape:connector-curvature="0" />
    <path
       id="path6198"
       d="m 58,122 c 0,0.33333 0,0.66667 0,1 0.333333,0 0.666667,0 1,0 0,-0.33333 0,-0.66667 0,-1 -0.333333,0 -0.666667,0 -1,0 z"
       style="fill:#e48182"
       inkscape:connector-curvature="0" />
    <path
       id="path6196"
       d="m 66,124 c 0,0.33333 0,0.66667 0,1 0.333333,0 0.666667,0 1,0 0,-0.33333 0,-0.66667 0,-1 -0.333333,0 -0.666667,0 -1,0 z"
       style="fill:#e48182"
       inkscape:connector-curvature="0" />
    <path
       id="path6577"
       d="m 33,7 c 0,0.3333333 0,0.6666667 0,1 0.333333,0 0.666667,0 1,0 0,-0.3333333 0,-0.6666667 0,-1 -0.333333,0 -0.666667,0 -1,0 z"
       style="fill:#cc1214"
       inkscape:connector-curvature="0" />
    <path
       id="path6573"
       d="m 25,11 c 0,0.333333 0,0.666667 0,1 0.333333,0 0.666667,0 1,0 0,-0.333333 0,-0.666667 0,-1 -0.333333,0 -0.666667,0 -1,0 z"
       style="fill:#cc1214"
       inkscape:connector-curvature="0" />
    <path
       id="path6567"
       d="m 14,26 c 0,0.333333 0,0.666667 0,1 0.333333,0 0.666667,0 1,0 0,-0.333333 0,-0.666667 0,-1 -0.333333,0 -0.666667,0 -1,0 z"
       style="fill:#cc1214"
       inkscape:connector-curvature="0" />
    <path
       id="path6565"
       d="m 6,30 c 0,0.333333 0,0.666667 0,1 0.3333333,0 0.6666667,0 1,0 0,-0.333333 0,-0.666667 0,-1 -0.3333333,0 -0.6666667,0 -1,0 z"
       style="fill:#cc1214"
       inkscape:connector-curvature="0" />
    <path
       id="path6507"
       d="m 77,104 c 0,0.33333 0,0.66667 0,1 0.333333,0 0.666667,0 1,0 0,-0.33333 0,-0.66667 0,-1 -0.333333,0 -0.666667,0 -1,0 z"
       style="fill:#cc1214"
       inkscape:connector-curvature="0" />
    <path
       id="path6505"
       d="m 84,104 c 0,0.33333 0,0.66667 0,1 0.333333,0 0.666667,0 1,0 0,-0.33333 0,-0.66667 0,-1 -0.333333,0 -0.666667,0 -1,0 z"
       style="fill:#cc1214"
       inkscape:connector-curvature="0" />
    <path
       id="path6503"
       d="m 80,108 c 0,0.33333 0,0.66667 0,1 0.666667,0 1.333333,0 2,0 0,-0.33333 0,-0.66667 0,-1 -0.666667,0 -1.333333,0 -2,0 z"
       style="fill:#cc1214"
       inkscape:connector-curvature="0" />
    <path
       id="path6501"
       d="m 85,109 c 0,0.33333 0,0.66667 0,1 0.333333,0 0.666667,0 1,0 0,-0.33333 0,-0.66667 0,-1 -0.333333,0 -0.666667,0 -1,0 z"
       style="fill:#cc1214"
       inkscape:connector-curvature="0" />
    <path
       id="path6499"
       d="m 62,119 c 0,0.33333 0,0.66667 0,1 0.333333,0 0.666667,0 1,0 0,-0.33333 0,-0.66667 0,-1 -0.333333,0 -0.666667,0 -1,0 z"
       style="fill:#cc1214"
       inkscape:connector-curvature="0" />
    <path
       id="path6497"
       d="m 60,120 c 0,0.33333 0,0.66667 0,1 0.333333,0 0.666667,0 1,0 0,-0.33333 0,-0.66667 0,-1 -0.333333,0 -0.666667,0 -1,0 z"
       style="fill:#cc1214"
       inkscape:connector-curvature="0" />
    <path
       id="path6355"
       d="m 33,9 c 0,0.3333333 0,0.6666667 0,1 0.333333,0 0.666667,0 1,0 0,-0.3333333 0,-0.6666667 0,-1 -0.333333,0 -0.666667,0 -1,0 z"
       style="fill:#f1c0c0"
       inkscape:connector-curvature="0" />
    <path
       id="path6351"
       d="m 27,15 c 0,0.333333 0,0.666667 0,1 0.333333,0 0.666667,0 1,0 0,-0.333333 0,-0.666667 0,-1 -0.333333,0 -0.666667,0 -1,0 z"
       style="fill:#f1c0c0"
       inkscape:connector-curvature="0" />
    <path
       id="path6349"
       d="m 29,15 c 0,0.333333 0,0.666667 0,1 0.333333,0 0.666667,0 1,0 0,-0.333333 0,-0.666667 0,-1 -0.333333,0 -0.666667,0 -1,0 z"
       style="fill:#f1c0c0"
       inkscape:connector-curvature="0" />
    <path
       id="path6341"
       d="m 14,28 c 0,0.333333 0,0.666667 0,1 0.333333,0 0.666667,0 1,0 0,-0.333333 0,-0.666667 0,-1 -0.333333,0 -0.666667,0 -1,0 z"
       style="fill:#f1c0c0"
       inkscape:connector-curvature="0" />
    <path
       id="path6339"
       d="m 8,34 c 0,0.333333 0,0.666667 0,1 0.3333333,0 0.6666667,0 1,0 0,-0.333333 0,-0.666667 0,-1 -0.3333333,0 -0.6666667,0 -1,0 z"
       style="fill:#f1c0c0"
       inkscape:connector-curvature="0" />
    <path
       id="path6337"
       d="m 10,34 c 0,0.333333 0,0.666667 0,1 0.333333,0 0.666667,0 1,0 0,-0.333333 0,-0.666667 0,-1 -0.333333,0 -0.666667,0 -1,0 z"
       style="fill:#f1c0c0"
       inkscape:connector-curvature="0" />
    <path
       id="path6311"
       d="m 84,103 c 0,0.33333 0,0.66667 0,1 0.333333,0 0.666667,0 1,0 0,-0.33333 0,-0.66667 0,-1 -0.333333,0 -0.666667,0 -1,0 z"
       style="fill:#f1c0c0"
       inkscape:connector-curvature="0" />
    <path
       id="path6305"
       d="m 56,125 c 0,0.33333 0,0.66667 0,1 0.333333,0 0.666667,0 1,0 0,-0.33333 0,-0.66667 0,-1 -0.333333,0 -0.666667,0 -1,0 z"
       style="fill:#f1c0c0"
       inkscape:connector-curvature="0" />
    <path
       id="path6303"
       d="m 67,126 c 0,0.33333 0,0.66667 0,1 0.333333,0 0.666667,0 1,0 0,-0.33333 0,-0.66667 0,-1 -0.333333,0 -0.666667,0 -1,0 z"
       style="fill:#f1c0c0"
       inkscape:connector-curvature="0" />
    <path
       id="path6301"
       d="m 61,128 c 0,0.33333 0,0.66667 0,1 0.333333,0 0.666667,0 1,0 0,-0.33333 0,-0.66667 0,-1 -0.333333,0 -0.666667,0 -1,0 z"
       style="fill:#f1c0c0"
       inkscape:connector-curvature="0" />
    <path
       id="path6009"
       d="m 24,5 c 0,0.6666667 0,1.3333333 0,2 -0.333333,0 -0.666667,0 -1,0 0,0.3333333 0,0.6666667 0,1 0.333333,0 0.666667,0 1,0 0,0.6666667 0,1.3333333 0,2 0.333333,0 0.666667,0 1,0 0,0.333333 0,0.666667 0,1 0.333333,0 0.666667,0 1,0 0,0.666667 0,1.333333 0,2 0.333333,0 0.666667,0 1,0 0,0.333333 0,0.666667 0,1 0.333333,0 0.666667,0 1,0 0,0.666667 0,1.333333 0,2 0.333333,0 0.666667,0 1,0 0,-0.666667 0,-1.333333 0,-2 0.333333,0 0.666667,0 1,0 0,-0.333333 0,-0.666667 0,-1 0.333333,0 0.666667,0 1,0 0,-0.666667 0,-1.333333 0,-2 0.333333,0 0.666667,0 1,0 0,-0.333333 0,-0.666667 0,-1 0.333333,0 0.666667,0 1,0 0,-1.6666667 0,-3.3333333 0,-5 -1,0 -2,0 -3,0 0,0.3333333 0,0.6666667 0,1 -0.333333,0 -0.666667,0 -1,0 0,0.3333333 0,0.6666667 0,1 -0.333333,0 -0.666667,0 -1,0 0,-0.3333333 0,-0.6666667 0,-1 -0.333333,0 -0.666667,0 -1,0 0,-0.3333333 0,-0.6666667 0,-1 -1,0 -2,0 -3,0 z"
       style="fill:#c90305"
       inkscape:connector-curvature="0" />
    <path
       id="path6007"
       d="m 5,24 c 0,0.666667 0,1.333333 0,2 -0.3333333,0 -0.6666667,0 -1,0 0,0.333333 0,0.666667 0,1 0.3333333,0 0.6666667,0 1,0 0,0.666667 0,1.333333 0,2 0.3333333,0 0.6666667,0 1,0 0,0.333333 0,0.666667 0,1 0.3333333,0 0.6666667,0 1,0 0,0.666667 0,1.333333 0,2 0.3333333,0 0.6666667,0 1,0 0,0.333333 0,0.666667 0,1 0.3333333,0 0.6666667,0 1,0 0,0.666667 0,1.333333 0,2 0.3333333,0 0.6666667,0 1,0 0,-0.666667 0,-1.333333 0,-2 0.333333,0 0.666667,0 1,0 0,-0.333333 0,-0.666667 0,-1 0.333333,0 0.666667,0 1,0 0,-0.666667 0,-1.333333 0,-2 0.333333,0 0.666667,0 1,0 0,-0.333333 0,-0.666667 0,-1 0.333333,0 0.666667,0 1,0 0,-1.666667 0,-3.333333 0,-5 -1,0 -2,0 -3,0 0,0.333333 0,0.666667 0,1 -0.333333,0 -0.666667,0 -1,0 0,0.333333 0,0.666667 0,1 -0.3333333,0 -0.6666667,0 -1,0 0,-0.333333 0,-0.666667 0,-1 -0.3333333,0 -0.6666667,0 -1,0 0,-0.333333 0,-0.666667 0,-1 -1,0 -2,0 -3,0 z"
       style="fill:#c90305"
       inkscape:connector-curvature="0" />
    <path
       id="path5997"
       d="m 80,100 c 0,0.66667 0,1.33333 0,2 -0.333333,0 -0.666667,0 -1,0 0,0.33333 0,0.66667 0,1 -0.333333,0 -0.666667,0 -1,0 0,0.66667 0,1.33333 0,2 -0.333333,0 -0.666667,0 -1,0 0,0.33333 0,0.66667 0,1 -0.333333,0 -0.666667,0 -1,0 0,1.33333 0,2.66667 0,4 1.333333,0 2.666667,0 4,0 0,-0.66667 0,-1.33333 0,-2 0.666667,0 1.333333,0 2,0 0,0.66667 0,1.33333 0,2 1,0 2,0 3,0 0,-0.33333 0,-0.66667 0,-1 0.333333,0 0.666667,0 1,0 0,-1 0,-2 0,-3 -0.333333,0 -0.666667,0 -1,0 0,-0.33333 0,-0.66667 0,-1 -0.333333,0 -0.666667,0 -1,0 0,-0.66667 0,-1.33333 0,-2 -0.333333,0 -0.666667,0 -1,0 0,-0.33333 0,-0.66667 0,-1 -0.333333,0 -0.666667,0 -1,0 0,-0.66667 0,-1.33333 0,-2 -0.666667,0 -1.333333,0 -2,0 z"
       style="fill:#c90305"
       inkscape:connector-curvature="0" />
    <path
       id="rect23686"
       d="m 61,119 c 0,0.66667 0,1.33333 0,2 -0.333333,0 -0.666667,0 -1,0 0,0.33333 0,0.66667 0,1 -0.333333,0 -0.666667,0 -1,0 0,0.33333 0,0.66667 0,1 -0.333333,0 -0.666667,0 -1,0 0,0.66667 0,1.33333 0,2 -0.333333,0 -0.666667,0 -1,0 0,1.33333 0,2.66667 0,4 1.333333,0 2.666667,0 4,0 0,-0.66667 0,-1.33333 0,-2 0.333333,0 0.666667,0 1,0 0,0.33333 0,0.66667 0,1 0.333333,0 0.666667,0 1,0 0,0.33333 0,0.66667 0,1 1,0 2,0 3,0 0,-0.33333 0,-0.66667 0,-1 0.333333,0 0.666667,0 1,0 0,-1 0,-2 0,-3 -0.333333,0 -0.666667,0 -1,0 0,-0.33333 0,-0.66667 0,-1 -0.333333,0 -0.666667,0 -1,0 0,-0.66667 0,-1.33333 0,-2 -0.333333,0 -0.666667,0 -1,0 0,-0.33333 0,-0.66667 0,-1 -0.333333,0 -0.666667,0 -1,0 0,-0.33333 0,-0.66667 0,-1 -0.333333,0 -0.666667,0 -1,0 0,-0.33333 0,-0.66667 0,-1 -0.333333,0 -0.666667,0 -1,0 z"
       style="fill:#c90305"
       inkscape:connector-curvature="0" />
  </g>
</svg>
