<?xml version="1.0" encoding="UTF-8" standalone="no"?>
<svg
   xmlns:dc="http://purl.org/dc/elements/1.1/"
   xmlns:cc="http://creativecommons.org/ns#"
   xmlns:rdf="http://www.w3.org/1999/02/22-rdf-syntax-ns#"
   xmlns:svg="http://www.w3.org/2000/svg"
   xmlns="http://www.w3.org/2000/svg"
   xmlns:sodipodi="http://sodipodi.sourceforge.net/DTD/sodipodi-0.dtd"
   xmlns:inkscape="http://www.inkscape.org/namespaces/inkscape"
   height="135px"
   version="1.1"
   width="90px"
   id="svg24208"
   sodipodi:docname="suit-clubs.svg"
   inkscape:version="0.92.2 (5c3e80d, 2017-08-06)">
  <metadata
     id="metadata24212">
    <rdf:RDF>
      <cc:Work
         rdf:about="">
        <dc:format>image/svg+xml</dc:format>
        <dc:type
           rdf:resource="http://purl.org/dc/dcmitype/StillImage" />
        <dc:title />
      </cc:Work>
    </rdf:RDF>
  </metadata>
  <sodipodi:namedview
     pagecolor="#ffffff"
     bordercolor="#666666"
     borderopacity="1"
     objecttolerance="10"
     gridtolerance="10"
     guidetolerance="10"
     inkscape:pageopacity="0"
     inkscape:pageshadow="2"
     inkscape:window-width="1920"
     inkscape:window-height="1025"
     id="namedview24210"
     showgrid="false"
     inkscape:zoom="55.940741"
     inkscape:cx="82.125133"
     inkscape:cy="29.520273"
     inkscape:window-x="-8"
     inkscape:window-y="-8"
     inkscape:window-maximized="1"
     inkscape:current-layer="svg24208" />
  <defs
     id="defs2" />
  <g
     id="g7581">
    <rect
       style="fill:#e0dfdf"
       id="rect556"
       y="3"
       x="27"
       width="1"
       height="1" />
    <rect
       style="fill:#918f8f"
       id="rect558"
       y="3"
       x="28"
       width="1"
       height="1" />
    <rect
       style="fill:#b1afaf"
       id="rect730"
       y="4"
       x="26"
       width="1"
       height="1" />
    <rect
       style="fill:#140f10"
       id="rect738"
       y="4"
       x="30"
       width="1"
       height="1" />
    <rect
       style="fill:#231f20"
       id="rect908"
       y="5"
       x="26"
       width="1"
       height="1" />
    <rect
       style="fill:#e0dfdf"
       id="rect1282"
       y="7"
       x="33"
       width="1"
       height="1" />
    <rect
       style="fill:#140f10"
       id="rect1824"
       y="10"
       x="34"
       width="1"
       height="1" />
    <rect
       style="fill:#140f10"
       id="rect1982"
       y="11"
       x="23"
       width="1"
       height="1" />
    <rect
       style="fill:#140f10"
       id="rect1992"
       y="11"
       x="28"
       width="1"
       height="1" />
    <rect
       style="fill:#231f20"
       id="rect1994"
       y="11"
       x="29"
       width="1"
       height="1" />
    <rect
       style="fill:#b1afaf"
       id="rect2162"
       y="12"
       x="23"
       width="1"
       height="1" />
    <rect
       style="fill:#231f20"
       id="rect2164"
       y="12"
       x="24"
       width="1"
       height="1" />
    <rect
       style="fill:#140f10"
       id="rect2168"
       y="12"
       x="26"
       width="1"
       height="1" />
    <rect
       style="fill:#231f20"
       id="rect2172"
       y="12"
       x="28"
       width="1"
       height="1" />
    <rect
       style="fill:#918f8f"
       id="rect2174"
       y="12"
       x="29"
       width="1"
       height="1" />
    <rect
       style="fill:#524f50"
       id="rect2176"
       y="12"
       x="30"
       width="1"
       height="1" />
    <rect
       style="fill:#e0dfdf"
       id="rect2184"
       y="12"
       x="34"
       width="1"
       height="1" />
    <rect
       style="fill:#e0dfdf"
       id="rect2346"
       y="13"
       x="25"
       width="1"
       height="1" />
    <rect
       style="fill:#918f8f"
       id="rect2528"
       y="14"
       x="26"
       width="1"
       height="1" />
    <rect
       style="fill:#e0dfdf"
       id="rect2538"
       y="14"
       x="31"
       width="1"
       height="1" />
    <rect
       style="fill:#e0dfdf"
       id="rect3932"
       y="22"
       x="8"
       width="1"
       height="1" />
    <rect
       style="fill:#918f8f"
       id="rect3934"
       y="22"
       x="9"
       width="1"
       height="1" />
    <rect
       style="fill:#b1afaf"
       id="rect4110"
       y="23"
       x="7"
       width="1"
       height="1" />
    <rect
       style="fill:#140f10"
       id="rect4118"
       y="23"
       x="11"
       width="1"
       height="1" />
    <rect
       style="fill:#231f20"
       id="rect4290"
       y="24"
       x="7"
       width="1"
       height="1" />
    <rect
       style="fill:#e0dfdf"
       id="rect4664"
       y="26"
       x="14"
       width="1"
       height="1" />
    <rect
       style="fill:#140f10"
       id="rect5206"
       y="29"
       x="15"
       width="1"
       height="1" />
    <rect
       style="fill:#140f10"
       id="rect5364"
       y="30"
       x="4"
       width="1"
       height="1" />
    <rect
       style="fill:#140f10"
       id="rect5374"
       y="30"
       x="9"
       width="1"
       height="1" />
    <rect
       style="fill:#231f20"
       id="rect5376"
       y="30"
       x="10"
       width="1"
       height="1" />
    <rect
       style="fill:#b1afaf"
       id="rect5544"
       y="31"
       x="4"
       width="1"
       height="1" />
    <rect
       style="fill:#231f20"
       id="rect5546"
       y="31"
       x="5"
       width="1"
       height="1" />
    <rect
       style="fill:#140f10"
       id="rect5550"
       y="31"
       x="7"
       width="1"
       height="1" />
    <rect
       style="fill:#231f20"
       id="rect5554"
       y="31"
       x="9"
       width="1"
       height="1" />
    <rect
       style="fill:#918f8f"
       id="rect5556"
       y="31"
       x="10"
       width="1"
       height="1" />
    <rect
       style="fill:#524f50"
       id="rect5558"
       y="31"
       x="11"
       width="1"
       height="1" />
    <rect
       style="fill:#e0dfdf"
       id="rect5566"
       y="31"
       x="15"
       width="1"
       height="1" />
    <rect
       style="fill:#e0dfdf"
       id="rect5728"
       y="32"
       x="6"
       width="1"
       height="1" />
    <rect
       style="fill:#918f8f"
       id="rect5910"
       y="33"
       x="7"
       width="1"
       height="1" />
    <rect
       style="fill:#e0dfdf"
       id="rect5920"
       y="33"
       x="12"
       width="1"
       height="1" />
    <rect
       style="fill:#524f50"
       id="rect18112"
       y="100"
       x="78"
       width="1"
       height="1" />
    <rect
       style="fill:#140f10"
       id="rect18120"
       y="100"
       x="82"
       width="1"
       height="1" />
    <rect
       style="fill:#b1afaf"
       id="rect18122"
       y="100"
       x="83"
       width="1"
       height="1" />
    <rect
       style="fill:#140f10"
       id="rect18298"
       y="101"
       x="81"
       width="1"
       height="1" />
    <rect
       style="fill:#524f50"
       id="rect18472"
       y="102"
       x="78"
       width="1"
       height="1" />
    <rect
       style="fill:#140f10"
       id="rect18476"
       y="102"
       x="80"
       width="1"
       height="1" />
    <rect
       style="fill:#231f20"
       id="rect18482"
       y="102"
       x="83"
       width="1"
       height="1" />
    <rect
       style="fill:#140f10"
       id="rect18654"
       y="103"
       x="79"
       width="1"
       height="1" />
    <rect
       style="fill:#918f8f"
       id="rect18824"
       y="104"
       x="74"
       width="1"
       height="1" />
    <rect
       style="fill:#918f8f"
       id="rect19208"
       y="106"
       x="86"
       width="1"
       height="1" />
    <rect
       style="fill:#e0dfdf"
       id="rect19366"
       y="107"
       x="75"
       width="1"
       height="1" />
    <rect
       style="fill:#524f50"
       id="rect19370"
       y="107"
       x="77"
       width="1"
       height="1" />
    <rect
       style="fill:#231f20"
       id="rect19372"
       y="107"
       x="78"
       width="1"
       height="1" />
    <rect
       style="fill:#524f50"
       id="rect19382"
       y="107"
       x="83"
       width="1"
       height="1" />
    <rect
       style="fill:#140f10"
       id="rect19920"
       y="110"
       x="82"
       width="1"
       height="1" />
    <rect
       style="fill:#e0dfdf"
       id="rect20100"
       y="111"
       x="82"
       width="1"
       height="1" />
    <rect
       style="fill:#524f50"
       id="rect21494"
       y="119"
       x="59"
       width="1"
       height="1" />
    <rect
       style="fill:#b1afaf"
       id="rect21504"
       y="119"
       x="64"
       width="1"
       height="1" />
    <rect
       style="fill:#524f50"
       id="rect21676"
       y="120"
       x="60"
       width="1"
       height="1" />
    <rect
       style="fill:#524f50"
       id="rect21854"
       y="121"
       x="59"
       width="1"
       height="1" />
    <rect
       style="fill:#b1afaf"
       id="rect21860"
       y="121"
       x="62"
       width="1"
       height="1" />
    <rect
       style="fill:#b1afaf"
       id="rect22590"
       y="125"
       x="67"
       width="1"
       height="1" />
    <rect
       style="fill:#e0dfdf"
       id="rect22748"
       y="126"
       x="56"
       width="1"
       height="1" />
    <rect
       style="fill:#140f10"
       id="rect22754"
       y="126"
       x="59"
       width="1"
       height="1" />
    <rect
       style="fill:#b1afaf"
       id="rect22944"
       y="127"
       x="64"
       width="1"
       height="1" />
    <path
       id="path6770"
       d="m 33,12 c 0,0.333333 0,0.666667 0,1 0.333333,0 0.666667,0 1,0 0,-0.333333 0,-0.666667 0,-1 -0.333333,0 -0.666667,0 -1,0 z"
       style="fill:#625f60"
       inkscape:connector-curvature="0" />
    <path
       id="path6766"
       d="m 32,15 c 0,0.333333 0,0.666667 0,1 0.333333,0 0.666667,0 1,0 0,-0.333333 0,-0.666667 0,-1 -0.333333,0 -0.666667,0 -1,0 z"
       style="fill:#625f60"
       inkscape:connector-curvature="0" />
    <path
       id="path6762"
       d="m 14,31 c 0,0.333333 0,0.666667 0,1 0.333333,0 0.666667,0 1,0 0,-0.333333 0,-0.666667 0,-1 -0.333333,0 -0.666667,0 -1,0 z"
       style="fill:#625f60"
       inkscape:connector-curvature="0" />
    <path
       id="path6760"
       d="m 13,34 c 0,0.333333 0,0.666667 0,1 0.333333,0 0.666667,0 1,0 0,-0.333333 0,-0.666667 0,-1 -0.333333,0 -0.666667,0 -1,0 z"
       style="fill:#625f60"
       inkscape:connector-curvature="0" />
    <path
       id="path6758"
       d="m 79,101 c 0,0.33333 0,0.66667 0,1 0.333333,0 0.666667,0 1,0 0,-0.33333 0,-0.66667 0,-1 -0.333333,0 -0.666667,0 -1,0 z"
       style="fill:#625f60"
       inkscape:connector-curvature="0" />
    <path
       id="path6756"
       d="m 76,102 c 0,0.33333 0,0.66667 0,1 0.333333,0 0.666667,0 1,0 0,-0.33333 0,-0.66667 0,-1 -0.333333,0 -0.666667,0 -1,0 z"
       style="fill:#625f60"
       inkscape:connector-curvature="0" />
    <path
       id="path6754"
       d="m 76,107 c 0,0.33333 0,0.66667 0,1 0.333333,0 0.666667,0 1,0 0,-0.33333 0,-0.66667 0,-1 -0.333333,0 -0.666667,0 -1,0 z"
       style="fill:#625f60"
       inkscape:connector-curvature="0" />
    <path
       id="path6752"
       d="m 78,110 c 0,0.33333 0,0.66667 0,1 0.333333,0 0.666667,0 1,0 0,-0.33333 0,-0.66667 0,-1 -0.333333,0 -0.666667,0 -1,0 z"
       style="fill:#625f60"
       inkscape:connector-curvature="0" />
    <path
       id="path6746"
       d="m 63,121 c 0,0.33333 0,0.66667 0,1 0.333333,0 0.666667,0 1,0 0,-0.33333 0,-0.66667 0,-1 -0.333333,0 -0.666667,0 -1,0 z"
       style="fill:#625f60"
       inkscape:connector-curvature="0" />
    <path
       id="path6744"
       d="m 55,123 c 0,0.33333 0,0.66667 0,1 0.333333,0 0.666667,0 1,0 0,-0.33333 0,-0.66667 0,-1 -0.333333,0 -0.666667,0 -1,0 z"
       style="fill:#625f60"
       inkscape:connector-curvature="0" />
    <path
       id="path6742"
       d="m 67,123 c 0,0.66667 0,1.33333 0,2 0.333333,0 0.666667,0 1,0 0,-0.66667 0,-1.33333 0,-2 -0.333333,0 -0.666667,0 -1,0 z"
       style="fill:#625f60"
       inkscape:connector-curvature="0" />
    <path
       id="path6740"
       d="m 57,126 c 0,0.33333 0,0.66667 0,1 0.666667,0 1.333333,0 2,0 0,-0.33333 0,-0.66667 0,-1 -0.666667,0 -1.333333,0 -2,0 z"
       style="fill:#625f60"
       inkscape:connector-curvature="0" />
    <path
       id="path6738"
       d="m 64,126 c 0,0.33333 0,0.66667 0,1 0.666667,0 1.333333,0 2,0 0,-0.33333 0,-0.66667 0,-1 -0.666667,0 -1.333333,0 -2,0 z"
       style="fill:#625f60"
       inkscape:connector-curvature="0" />
    <rect
       style="fill:#e0dfdf"
       id="rect23112"
       y="128"
       x="58"
       width="1"
       height="1" />
    <path
       id="path6266"
       d="m 26,7 c 0,0.3333333 0,0.6666667 0,1 0.333333,0 0.666667,0 1,0 0,-0.3333333 0,-0.6666667 0,-1 -0.333333,0 -0.666667,0 -1,0 z"
       style="fill:#433f40"
       inkscape:connector-curvature="0" />
    <path
       id="path6262"
       d="m 30,14 c 0,0.333333 0,0.666667 0,1 -1.666667,0 -3.333333,0 -5,0 0,0.333333 0,0.666667 0,1 2.333333,0 4.666667,0 7,0 0,-0.333333 0,-0.666667 0,-1 -0.333333,0 -0.666667,0 -1,0 0,-0.333333 0,-0.666667 0,-1 -0.333333,0 -0.666667,0 -1,0 z"
       style="fill:#433f40"
       inkscape:connector-curvature="0" />
    <path
       id="path6254"
       d="m 7,26 c 0,0.333333 0,0.666667 0,1 0.3333333,0 0.6666667,0 1,0 0,-0.333333 0,-0.666667 0,-1 -0.3333333,0 -0.6666667,0 -1,0 z"
       style="fill:#433f40"
       inkscape:connector-curvature="0" />
    <path
       id="path6252"
       d="m 11,33 c 0,0.333333 0,0.666667 0,1 -1.6666667,0 -3.3333333,0 -5,0 0,0.333333 0,0.666667 0,1 2.3333333,0 4.666667,0 7,0 0,-0.333333 0,-0.666667 0,-1 -0.333333,0 -0.666667,0 -1,0 0,-0.333333 0,-0.666667 0,-1 -0.333333,0 -0.666667,0 -1,0 z"
       style="fill:#433f40"
       inkscape:connector-curvature="0" />
    <path
       id="path6250"
       d="m 77,99 c 0,0.333333 0,0.666667 0,1 2.666667,0 5.333333,0 8,0 0,-0.333333 0,-0.666667 0,-1 -2.666667,0 -5.333333,0 -8,0 z"
       style="fill:#433f40"
       inkscape:connector-curvature="0" />
    <path
       id="path6248"
       d="m 86,104 c 0,0.33333 0,0.66667 0,1 0.333333,0 0.666667,0 1,0 0,-0.33333 0,-0.66667 0,-1 -0.333333,0 -0.666667,0 -1,0 z"
       style="fill:#433f40"
       inkscape:connector-curvature="0" />
    <path
       id="path6246"
       d="m 84,107 c 0,0.33333 0,0.66667 0,1 0.333333,0 0.666667,0 1,0 0,-0.33333 0,-0.66667 0,-1 -0.333333,0 -0.666667,0 -1,0 z"
       style="fill:#433f40"
       inkscape:connector-curvature="0" />
    <path
       id="path6244"
       d="m 80,111 c 0,0.33333 0,0.66667 0,1 0.333333,0 0.666667,0 1,0 0,-0.33333 0,-0.66667 0,-1 -0.333333,0 -0.666667,0 -1,0 z"
       style="fill:#433f40"
       inkscape:connector-curvature="0" />
    <path
       id="path6242"
       d="m 58,118 c 0,0.33333 0,0.66667 0,1 2.333333,0 4.666667,0 7,0 0,-0.33333 0,-0.66667 0,-1 -2.333333,0 -4.666667,0 -7,0 z"
       style="fill:#433f40"
       inkscape:connector-curvature="0" />
    <path
       id="path6236"
       d="m 62,120 c 0,0.33333 0,0.66667 0,1 0.333333,0 0.666667,0 1,0 0,-0.33333 0,-0.66667 0,-1 -0.333333,0 -0.666667,0 -1,0 z"
       style="fill:#433f40"
       inkscape:connector-curvature="0" />
    <path
       id="path6232"
       d="m 57,121 c 0,0.33333 0,0.66667 0,1 0.333333,0 0.666667,0 1,0 0,-0.33333 0,-0.66667 0,-1 -0.333333,0 -0.666667,0 -1,0 z"
       style="fill:#433f40"
       inkscape:connector-curvature="0" />
    <path
       id="rect23294"
       d="m 59,129 c 0,0.33333 0,0.66667 0,1 0.333333,0 0.666667,0 1,0 0,-0.33333 0,-0.66667 0,-1 -0.333333,0 -0.666667,0 -1,0 z"
       style="fill:#433f40"
       inkscape:connector-curvature="0" />
    <path
       style="fill:#332f30"
       d="m 23,8 c 0,0.3333333 0,0.6666667 0,1 0.333333,0 0.666667,0 1,0 0,-0.3333333 0,-0.6666667 0,-1 -0.333333,0 -0.666667,0 -1,0 z"
       id="path1435" />
    <path
       style="fill:#332f30"
       d="m 34,9 c 0,0.3333333 0,0.6666667 0,1 0.333333,0 0.666667,0 1,0 0,-0.3333333 0,-0.6666667 0,-1 -0.333333,0 -0.666667,0 -1,0 z"
       id="path1433" />
    <path
       style="fill:#332f30"
       d="m 29,13 c 0,0.333333 0,0.666667 0,1 0.333333,0 0.666667,0 1,0 0,-0.333333 0,-0.666667 0,-1 -0.333333,0 -0.666667,0 -1,0 z"
       id="path1431" />
    <path
       style="fill:#332f30"
       d="m 4,27 c 0,0.333333 0,0.666667 0,1 0.3333333,0 0.6666667,0 1,0 0,-0.333333 0,-0.666667 0,-1 -0.3333333,0 -0.6666667,0 -1,0 z"
       id="path1429" />
    <path
       style="fill:#332f30"
       d="m 15,28 c 0,0.333333 0,0.666667 0,1 0.333333,0 0.666667,0 1,0 0,-0.333333 0,-0.666667 0,-1 -0.333333,0 -0.666667,0 -1,0 z"
       id="path1427" />
    <path
       style="fill:#332f30"
       d="m 10,32 c 0,0.333333 0,0.666667 0,1 0.333333,0 0.666667,0 1,0 0,-0.333333 0,-0.666667 0,-1 -0.333333,0 -0.666667,0 -1,0 z"
       id="path1425" />
    <path
       style="fill:#332f30"
       d="m 84,102 c 0,0.33333 0,0.66667 0,1 0.333333,0 0.666667,0 1,0 0,-0.33333 0,-0.66667 0,-1 -0.333333,0 -0.666667,0 -1,0 z"
       id="path1423" />
    <path
       style="fill:#332f30"
       d="m 80,103 c 0,0.33333 0,0.66667 0,1 0.666667,0 1.333333,0 2,0 0,-0.33333 0,-0.66667 0,-1 -0.666667,0 -1.333333,0 -2,0 z"
       id="path1421" />
    <path
       style="fill:#332f30"
       d="m 86,105 c 0,0.33333 0,0.66667 0,1 0.333333,0 0.666667,0 1,0 0,-0.33333 0,-0.66667 0,-1 -0.333333,0 -0.666667,0 -1,0 z"
       id="path1419" />
    <path
       style="fill:#332f30"
       d="m 63,119 c 0,0.33333 0,0.66667 0,1 0.333333,0 0.666667,0 1,0 0,-0.33333 0,-0.66667 0,-1 -0.333333,0 -0.666667,0 -1,0 z"
       id="path1417" />
    <path
       style="fill:#332f30"
       d="m 65,121 c 0,0.33333 0,0.66667 0,1 0.333333,0 0.666667,0 1,0 0,-0.33333 0,-0.66667 0,-1 -0.333333,0 -0.666667,0 -1,0 z"
       id="path1415" />
    <path
       style="fill:#332f30"
       d="m 60,122 c 0,0.33333 0,0.66667 0,1 0.333333,0 0.666667,0 1,0 0,-0.33333 0,-0.66667 0,-1 -0.333333,0 -0.666667,0 -1,0 z"
       id="path1413" />
    <path
       style="fill:#332f30"
       d="m 62,122 c 0,0.33333 0,0.66667 0,1 0.333333,0 0.666667,0 1,0 0,-0.33333 0,-0.66667 0,-1 -0.333333,0 -0.666667,0 -1,0 z"
       id="path1411" />
    <path
       style="fill:#332f30"
       d="m 63,129 c 0,0.33333 0,0.66667 0,1 0.333333,0 0.666667,0 1,0 0,-0.33333 0,-0.66667 0,-1 -0.333333,0 -0.666667,0 -1,0 z"
       id="rect23302" />
    <path
       id="path6610"
       d="m 25,7 c 0,0.3333333 0,0.6666667 0,1 0.333333,0 0.666667,0 1,0 0,-0.3333333 0,-0.6666667 0,-1 -0.333333,0 -0.666667,0 -1,0 z"
       style="fill:#827f80"
       inkscape:connector-curvature="0" />
    <path
       id="path6608"
       d="m 32,7 c 0,0.3333333 0,0.6666667 0,1 0.333333,0 0.666667,0 1,0 0,-0.3333333 0,-0.6666667 0,-1 -0.333333,0 -0.666667,0 -1,0 z"
       style="fill:#827f80"
       inkscape:connector-curvature="0" />
    <path
       id="path6604"
       d="m 6,26 c 0,0.333333 0,0.666667 0,1 0.3333333,0 0.6666667,0 1,0 0,-0.333333 0,-0.666667 0,-1 -0.3333333,0 -0.6666667,0 -1,0 z"
       style="fill:#827f80"
       inkscape:connector-curvature="0" />
    <path
       id="path6602"
       d="m 13,26 c 0,0.333333 0,0.666667 0,1 0.333333,0 0.666667,0 1,0 0,-0.333333 0,-0.666667 0,-1 -0.333333,0 -0.666667,0 -1,0 z"
       style="fill:#827f80"
       inkscape:connector-curvature="0" />
    <path
       id="path6600"
       d="m 82,102 c 0,0.33333 0,0.66667 0,1 0.333333,0 0.666667,0 1,0 0,-0.33333 0,-0.66667 0,-1 -0.333333,0 -0.666667,0 -1,0 z"
       style="fill:#827f80"
       inkscape:connector-curvature="0" />
    <path
       id="path6598"
       d="m 81,111 c 0,0.33333 0,0.66667 0,1 0.333333,0 0.666667,0 1,0 0,-0.33333 0,-0.66667 0,-1 -0.333333,0 -0.666667,0 -1,0 z"
       style="fill:#827f80"
       inkscape:connector-curvature="0" />
    <rect
       style="fill:#524f50"
       id="rect23476"
       y="130"
       x="61"
       width="1"
       height="1" />
    <path
       id="path6705"
       d="m 29,3 c 0,0.3333333 0,0.6666667 0,1 0.333333,0 0.666667,0 1,0 0,-0.3333333 0,-0.6666667 0,-1 -0.333333,0 -0.666667,0 -1,0 z"
       style="fill:#a19f9f"
       inkscape:connector-curvature="0" />
    <path
       id="path6703"
       d="m 31,5 c 0,0.3333333 0,0.6666667 0,1 0.333333,0 0.666667,0 1,0 0,-0.3333333 0,-0.6666667 0,-1 -0.333333,0 -0.666667,0 -1,0 z"
       style="fill:#a19f9f"
       inkscape:connector-curvature="0" />
    <path
       id="path6701"
       d="m 24,7 c 0,0.3333333 0,0.6666667 0,1 0.333333,0 0.666667,0 1,0 0,-0.3333333 0,-0.6666667 0,-1 -0.333333,0 -0.666667,0 -1,0 z"
       style="fill:#a19f9f"
       inkscape:connector-curvature="0" />
    <path
       id="path6699"
       d="m 34,8 c 0,0.3333333 0,0.6666667 0,1 0.333333,0 0.666667,0 1,0 0,-0.3333333 0,-0.6666667 0,-1 -0.333333,0 -0.666667,0 -1,0 z"
       style="fill:#a19f9f"
       inkscape:connector-curvature="0" />
    <path
       id="path6697"
       d="m 22,10 c 0,0.333333 0,0.666667 0,1 0.333333,0 0.666667,0 1,0 0,-0.333333 0,-0.666667 0,-1 -0.333333,0 -0.666667,0 -1,0 z"
       style="fill:#a19f9f"
       inkscape:connector-curvature="0" />
    <path
       id="path6693"
       d="m 27,12 c 0,0.666667 0,1.333333 0,2 0.333333,0 0.666667,0 1,0 0,-0.666667 0,-1.333333 0,-2 -0.333333,0 -0.666667,0 -1,0 z"
       style="fill:#a19f9f"
       inkscape:connector-curvature="0" />
    <path
       id="path6689"
       d="m 10,22 c 0,0.333333 0,0.666667 0,1 0.333333,0 0.666667,0 1,0 0,-0.333333 0,-0.666667 0,-1 -0.333333,0 -0.666667,0 -1,0 z"
       style="fill:#a19f9f"
       inkscape:connector-curvature="0" />
    <path
       id="path6687"
       d="m 12,24 c 0,0.333333 0,0.666667 0,1 0.333333,0 0.666667,0 1,0 0,-0.333333 0,-0.666667 0,-1 -0.333333,0 -0.666667,0 -1,0 z"
       style="fill:#a19f9f"
       inkscape:connector-curvature="0" />
    <path
       id="path6685"
       d="m 5,26 c 0,0.333333 0,0.666667 0,1 0.3333333,0 0.6666667,0 1,0 0,-0.333333 0,-0.666667 0,-1 -0.3333333,0 -0.6666667,0 -1,0 z"
       style="fill:#a19f9f"
       inkscape:connector-curvature="0" />
    <path
       id="path6683"
       d="m 15,27 c 0,0.333333 0,0.666667 0,1 0.333333,0 0.666667,0 1,0 0,-0.333333 0,-0.666667 0,-1 -0.333333,0 -0.666667,0 -1,0 z"
       style="fill:#a19f9f"
       inkscape:connector-curvature="0" />
    <path
       id="path6681"
       d="m 3,29 c 0,0.333333 0,0.666667 0,1 0.3333333,0 0.6666667,0 1,0 0,-0.333333 0,-0.666667 0,-1 -0.3333333,0 -0.6666667,0 -1,0 z"
       style="fill:#a19f9f"
       inkscape:connector-curvature="0" />
    <path
       id="path6679"
       d="m 8,31 c 0,0.666667 0,1.333333 0,2 0.3333333,0 0.6666667,0 1,0 0,-0.666667 0,-1.333333 0,-2 -0.3333333,0 -0.6666667,0 -1,0 z"
       style="fill:#a19f9f"
       inkscape:connector-curvature="0" />
    <path
       id="path6677"
       d="m 81,102 c 0,0.33333 0,0.66667 0,1 0.333333,0 0.666667,0 1,0 0,-0.33333 0,-0.66667 0,-1 -0.333333,0 -0.666667,0 -1,0 z"
       style="fill:#a19f9f"
       inkscape:connector-curvature="0" />
    <path
       id="path6675"
       d="m 85,102 c 0,0.33333 0,0.66667 0,1 0.333333,0 0.666667,0 1,0 0,-0.33333 0,-0.66667 0,-1 -0.333333,0 -0.666667,0 -1,0 z"
       style="fill:#a19f9f"
       inkscape:connector-curvature="0" />
    <path
       id="path6673"
       d="m 86,103 c 0,0.33333 0,0.66667 0,1 0.333333,0 0.666667,0 1,0 0,-0.33333 0,-0.66667 0,-1 -0.333333,0 -0.666667,0 -1,0 z"
       style="fill:#a19f9f"
       inkscape:connector-curvature="0" />
    <path
       id="path6671"
       d="m 74,105 c 0,0.33333 0,0.66667 0,1 0.333333,0 0.666667,0 1,0 0,-0.33333 0,-0.66667 0,-1 -0.333333,0 -0.666667,0 -1,0 z"
       style="fill:#a19f9f"
       inkscape:connector-curvature="0" />
    <path
       id="path6669"
       d="m 85,107 c 0,0.33333 0,0.66667 0,1 0.333333,0 0.666667,0 1,0 0,-0.33333 0,-0.66667 0,-1 -0.333333,0 -0.666667,0 -1,0 z"
       style="fill:#a19f9f"
       inkscape:connector-curvature="0" />
    <path
       id="path6667"
       d="m 83,108 c 0,0.66667 0,1.33333 0,2 0.333333,0 0.666667,0 1,0 0,-0.66667 0,-1.33333 0,-2 -0.333333,0 -0.666667,0 -1,0 z"
       style="fill:#a19f9f"
       inkscape:connector-curvature="0" />
    <path
       id="path6665"
       d="m 79,111 c 0,0.33333 0,0.66667 0,1 0.333333,0 0.666667,0 1,0 0,-0.33333 0,-0.66667 0,-1 -0.333333,0 -0.666667,0 -1,0 z"
       style="fill:#a19f9f"
       inkscape:connector-curvature="0" />
    <path
       id="path6655"
       d="m 56,121 c 0,0.33333 0,0.66667 0,1 0.333333,0 0.666667,0 1,0 0,-0.33333 0,-0.66667 0,-1 -0.333333,0 -0.666667,0 -1,0 z"
       style="fill:#a19f9f"
       inkscape:connector-curvature="0" />
    <path
       id="path6653"
       d="m 66,121 c 0,0.33333 0,0.66667 0,1 0.333333,0 0.666667,0 1,0 0,-0.33333 0,-0.66667 0,-1 -0.333333,0 -0.666667,0 -1,0 z"
       style="fill:#a19f9f"
       inkscape:connector-curvature="0" />
    <path
       id="path6651"
       d="m 60,130 c 0,0.33333 0,0.66667 0,1 0.333333,0 0.666667,0 1,0 0,-0.33333 0,-0.66667 0,-1 -0.333333,0 -0.666667,0 -1,0 z"
       style="fill:#a19f9f"
       inkscape:connector-curvature="0" />
    <path
       id="rect23478"
       d="m 62,130 c 0,0.33333 0,0.66667 0,1 0.333333,0 0.666667,0 1,0 0,-0.33333 0,-0.66667 0,-1 -0.333333,0 -0.666667,0 -1,0 z"
       style="fill:#a19f9f"
       inkscape:connector-curvature="0" />
    <path
       id="path6313"
       d="m 31,6 c 0,0.6666667 0,1.3333333 0,2 0.333333,0 0.666667,0 1,0 0,-0.6666667 0,-1.3333333 0,-2 -0.333333,0 -0.666667,0 -1,0 z"
       style="fill:#726f70"
       inkscape:connector-curvature="0" />
    <path
       id="path6309"
       d="m 34,11 c 0,0.333333 0,0.666667 0,1 0.333333,0 0.666667,0 1,0 0,-0.333333 0,-0.666667 0,-1 -0.333333,0 -0.666667,0 -1,0 z"
       style="fill:#726f70"
       inkscape:connector-curvature="0" />
    <path
       id="path6305"
       d="m 12,25 c 0,0.666667 0,1.333333 0,2 0.333333,0 0.666667,0 1,0 0,-0.666667 0,-1.333333 0,-2 -0.333333,0 -0.666667,0 -1,0 z"
       style="fill:#726f70"
       inkscape:connector-curvature="0" />
    <path
       id="path6303"
       d="m 15,30 c 0,0.333333 0,0.666667 0,1 0.333333,0 0.666667,0 1,0 0,-0.333333 0,-0.666667 0,-1 -0.333333,0 -0.666667,0 -1,0 z"
       style="fill:#726f70"
       inkscape:connector-curvature="0" />
    <path
       id="path6301"
       d="m 76,99 c 0,0.333333 0,0.666667 0,1 0.333333,0 0.666667,0 1,0 0,-0.333333 0,-0.666667 0,-1 -0.333333,0 -0.666667,0 -1,0 z"
       style="fill:#726f70"
       inkscape:connector-curvature="0" />
    <path
       id="path6295"
       d="m 57,118 c 0,0.33333 0,0.66667 0,1 0.333333,0 0.666667,0 1,0 0,-0.33333 0,-0.66667 0,-1 -0.333333,0 -0.666667,0 -1,0 z"
       style="fill:#726f70"
       inkscape:connector-curvature="0" />
    <path
       id="path6293"
       d="m 65,118 c 0,0.33333 0,0.66667 0,1 0.333333,0 0.666667,0 1,0 0,-0.33333 0,-0.66667 0,-1 -0.333333,0 -0.666667,0 -1,0 z"
       style="fill:#726f70"
       inkscape:connector-curvature="0" />
    <path
       id="path6289"
       d="m 55,124 c 0,0.33333 0,0.66667 0,1 0.333333,0 0.666667,0 1,0 0,-0.33333 0,-0.66667 0,-1 -0.333333,0 -0.666667,0 -1,0 z"
       style="fill:#726f70"
       inkscape:connector-curvature="0" />
    <path
       id="path6460"
       d="m 24,15 c 0,0.333333 0,0.666667 0,1 0.333333,0 0.666667,0 1,0 0,-0.333333 0,-0.666667 0,-1 -0.333333,0 -0.666667,0 -1,0 z"
       style="fill:#c0bfbf"
       inkscape:connector-curvature="0" />
    <path
       id="path6452"
       d="m 5,34 c 0,0.333333 0,0.666667 0,1 0.3333333,0 0.6666667,0 1,0 0,-0.333333 0,-0.666667 0,-1 -0.3333333,0 -0.6666667,0 -1,0 z"
       style="fill:#c0bfbf"
       inkscape:connector-curvature="0" />
    <path
       id="path6450"
       d="m 77,100 c 0,0.33333 0,0.66667 0,1 0.333333,0 0.666667,0 1,0 0,-0.33333 0,-0.66667 0,-1 -0.333333,0 -0.666667,0 -1,0 z"
       style="fill:#c0bfbf"
       inkscape:connector-curvature="0" />
    <path
       id="path6448"
       d="m 75,102 c 0,0.33333 0,0.66667 0,1 0.333333,0 0.666667,0 1,0 0,-0.33333 0,-0.66667 0,-1 -0.333333,0 -0.666667,0 -1,0 z"
       style="fill:#c0bfbf"
       inkscape:connector-curvature="0" />
    <path
       id="path6444"
       d="m 67,122 c 0,0.33333 0,0.66667 0,1 0.333333,0 0.666667,0 1,0 0,-0.33333 0,-0.66667 0,-1 -0.333333,0 -0.666667,0 -1,0 z"
       style="fill:#c0bfbf"
       inkscape:connector-curvature="0" />
    <path
       id="path6440"
       d="m 66,126 c 0,0.33333 0,0.66667 0,1 0.333333,0 0.666667,0 1,0 0,-0.33333 0,-0.66667 0,-1 -0.333333,0 -0.666667,0 -1,0 z"
       style="fill:#c0bfbf"
       inkscape:connector-curvature="0" />
    <path
       id="path6438"
       d="m 64,128 c 0,0.33333 0,0.66667 0,1 0.333333,0 0.666667,0 1,0 0,-0.33333 0,-0.66667 0,-1 -0.333333,0 -0.666667,0 -1,0 z"
       style="fill:#c0bfbf"
       inkscape:connector-curvature="0" />
    <path
       id="path6527"
       d="m 22,9 c 0,0.3333333 0,0.6666667 0,1 0.333333,0 0.666667,0 1,0 0,-0.3333333 0,-0.6666667 0,-1 -0.333333,0 -0.666667,0 -1,0 z"
       style="fill:#d0cfcf"
       inkscape:connector-curvature="0" />
    <path
       id="path6521"
       d="m 3,28 c 0,0.333333 0,0.666667 0,1 0.3333333,0 0.6666667,0 1,0 0,-0.333333 0,-0.666667 0,-1 -0.3333333,0 -0.6666667,0 -1,0 z"
       style="fill:#d0cfcf"
       inkscape:connector-curvature="0" />
    <path
       id="path6519"
       d="m 79,102 c 0,0.33333 0,0.66667 0,1 0.333333,0 0.666667,0 1,0 0,-0.33333 0,-0.66667 0,-1 -0.333333,0 -0.666667,0 -1,0 z"
       style="fill:#d0cfcf"
       inkscape:connector-curvature="0" />
    <path
       id="path6515"
       d="m 58,119 c 0,0.33333 0,0.66667 0,1 0.333333,0 0.666667,0 1,0 0,-0.33333 0,-0.66667 0,-1 -0.333333,0 -0.666667,0 -1,0 z"
       style="fill:#d0cfcf"
       inkscape:connector-curvature="0" />
    <path
       id="path6513"
       d="m 60,121 c 0,0.33333 0,0.66667 0,1 0.333333,0 0.666667,0 1,0 0,-0.33333 0,-0.66667 0,-1 -0.333333,0 -0.666667,0 -1,0 z"
       style="fill:#d0cfcf"
       inkscape:connector-curvature="0" />
    <path
       id="path6511"
       d="m 55,122 c 0,0.33333 0,0.66667 0,1 0.333333,0 0.666667,0 1,0 0,-0.33333 0,-0.66667 0,-1 -0.333333,0 -0.666667,0 -1,0 z"
       style="fill:#d0cfcf"
       inkscape:connector-curvature="0" />
    <path
       id="path6507"
       d="m 55,125 c 0,0.33333 0,0.66667 0,1 0.333333,0 0.666667,0 1,0 0,-0.33333 0,-0.66667 0,-1 -0.333333,0 -0.666667,0 -1,0 z"
       style="fill:#d0cfcf"
       inkscape:connector-curvature="0" />
    <path
       id="path6505"
       d="m 58,127 c 0,0.33333 0,0.66667 0,1 0.333333,0 0.666667,0 1,0 0,-0.33333 0,-0.66667 0,-1 -0.333333,0 -0.666667,0 -1,0 z"
       style="fill:#d0cfcf"
       inkscape:connector-curvature="0" />
    <path
       id="path6158"
       d="m 27,4 c 0,0.6666667 0,1.3333333 0,2 -0.333333,0 -0.666667,0 -1,0 0,0.3333333 0,0.6666667 0,1 0.333333,0 0.666667,0 1,0 0,0.3333333 0,0.6666667 0,1 -1,0 -2,0 -3,0 0,0.3333333 0,0.6666667 0,1 -0.333333,0 -0.666667,0 -1,0 0,0.6666667 0,1.333333 0,2 0.333333,0 0.666667,0 1,0 0,0.333333 0,0.666667 0,1 0.333333,0 0.666667,0 1,0 0,0.333333 0,0.666667 0,1 0.333333,0 0.666667,0 1,0 0,-0.333333 0,-0.666667 0,-1 0.666667,0 1.333333,0 2,0 0,-0.333333 0,-0.666667 0,-1 0.666667,0 1.333333,0 2,0 0,0.333333 0,0.666667 0,1 0.333333,0 0.666667,0 1,0 0,0.333333 0,0.666667 0,1 0.666667,0 1.333333,0 2,0 0,-0.333333 0,-0.666667 0,-1 0.333333,0 0.666667,0 1,0 0,-1.333333 0,-2.6666667 0,-4 -1,0 -2,0 -3,0 0,-1 0,-2 0,-3 -0.333333,0 -0.666667,0 -1,0 0,-0.3333333 0,-0.6666667 0,-1 -1,0 -2,0 -3,0 z"
       style="fill:#050001"
       inkscape:connector-curvature="0" />
    <path
       id="path6156"
       d="m 28,13 c 0,0.333333 0,0.666667 0,1 -0.333333,0 -0.666667,0 -1,0 0,0.333333 0,0.666667 0,1 1,0 2,0 3,0 0,-0.333333 0,-0.666667 0,-1 -0.333333,0 -0.666667,0 -1,0 0,-0.333333 0,-0.666667 0,-1 -0.333333,0 -0.666667,0 -1,0 z"
       style="fill:#050001"
       inkscape:connector-curvature="0" />
    <path
       id="path6154"
       d="m 8,23 c 0,0.666667 0,1.333333 0,2 -0.3333333,0 -0.6666667,0 -1,0 0,0.333333 0,0.666667 0,1 0.3333333,0 0.6666667,0 1,0 0,0.333333 0,0.666667 0,1 -1,0 -2,0 -3,0 0,0.333333 0,0.666667 0,1 -0.3333333,0 -0.6666667,0 -1,0 0,0.666667 0,1.333333 0,2 0.3333333,0 0.6666667,0 1,0 0,0.333333 0,0.666667 0,1 0.3333333,0 0.6666667,0 1,0 0,0.333333 0,0.666667 0,1 0.3333333,0 0.6666667,0 1,0 0,-0.333333 0,-0.666667 0,-1 0.6666667,0 1.3333333,0 2,0 0,-0.333333 0,-0.666667 0,-1 0.6666667,0 1.333333,0 2,0 0,0.333333 0,0.666667 0,1 0.333333,0 0.666667,0 1,0 0,0.333333 0,0.666667 0,1 0.666667,0 1.333333,0 2,0 0,-0.333333 0,-0.666667 0,-1 0.333333,0 0.666667,0 1,0 0,-1.333333 0,-2.666667 0,-4 -1,0 -2,0 -3,0 0,-1 0,-2 0,-3 -0.333333,0 -0.666667,0 -1,0 0,-0.333333 0,-0.666667 0,-1 -1,0 -2,0 -3,0 z"
       style="fill:#050001"
       inkscape:connector-curvature="0" />
    <path
       id="path6152"
       d="m 9,32 c 0,0.333333 0,0.666667 0,1 -0.3333333,0 -0.6666667,0 -1,0 0,0.333333 0,0.666667 0,1 1,0 2,0 3,0 0,-0.333333 0,-0.666667 0,-1 -0.333333,0 -0.666667,0 -1,0 0,-0.333333 0,-0.666667 0,-1 -0.3333333,0 -0.6666667,0 -1,0 z"
       style="fill:#050001"
       inkscape:connector-curvature="0" />
    <path
       id="path6150"
       d="m 79,100 c 0,0.33333 0,0.66667 0,1 0.333333,0 0.666667,0 1,0 0,0.33333 0,0.66667 0,1 0.333333,0 0.666667,0 1,0 0,-0.33333 0,-0.66667 0,-1 0.333333,0 0.666667,0 1,0 0,-0.33333 0,-0.66667 0,-1 -1,0 -2,0 -3,0 z"
       style="fill:#050001"
       inkscape:connector-curvature="0" />
    <path
       id="path6148"
       d="m 77,102 c 0,0.33333 0,0.66667 0,1 -0.666667,0 -1.333333,0 -2,0 0,1.33333 0,2.66667 0,4 1.333333,0 2.666667,0 4,0 0,0.33333 0,0.66667 0,1 -0.333333,0 -0.666667,0 -1,0 0,0.66667 0,1.33333 0,2 0.333333,0 0.666667,0 1,0 0,0.33333 0,0.66667 0,1 1,0 2,0 3,0 0,-0.33333 0,-0.66667 0,-1 0.333333,0 0.666667,0 1,0 0,-1 0,-2 0,-3 1,0 2,0 3,0 0,-1.33333 0,-2.66667 0,-4 -1.333333,0 -2.666667,0 -4,0 0,0.33333 0,0.66667 0,1 -1,0 -2,0 -3,0 0,-0.33333 0,-0.66667 0,-1 -0.333333,0 -0.666667,0 -1,0 0,-0.33333 0,-0.66667 0,-1 -0.333333,0 -0.666667,0 -1,0 z"
       style="fill:#050001"
       inkscape:connector-curvature="0" />
    <path
       id="rect23686"
       d="m 60,119 c 0,0.33333 0,0.66667 0,1 0.333333,0 0.666667,0 1,0 0,1 0,2 0,3 -0.333333,0 -0.666667,0 -1,0 0,-0.33333 0,-0.66667 0,-1 -0.333333,0 -0.666667,0 -1,0 0,-0.33333 0,-0.66667 0,-1 -0.333333,0 -0.666667,0 -1,0 0,0.33333 0,0.66667 0,1 -0.666667,0 -1.333333,0 -2,0 0,1.33333 0,2.66667 0,4 1.333333,0 2.666667,0 4,0 0,0.33333 0,0.66667 0,1 -0.333333,0 -0.666667,0 -1,0 0,0.66667 0,1.33333 0,2 0.333333,0 0.666667,0 1,0 0,0.33333 0,0.66667 0,1 1,0 2,0 3,0 0,-0.33333 0,-0.66667 0,-1 0.333333,0 0.666667,0 1,0 0,-1 0,-2 0,-3 1,0 2,0 3,0 0,-1.33333 0,-2.66667 0,-4 -0.666667,0 -1.333333,0 -2,0 0,-0.33333 0,-0.66667 0,-1 -0.333333,0 -0.666667,0 -1,0 0,0.33333 0,0.66667 0,1 -0.333333,0 -0.666667,0 -1,0 0,0.33333 0,0.66667 0,1 -0.333333,0 -0.666667,0 -1,0 0,-1 0,-2 0,-3 0.333333,0 0.666667,0 1,0 0,-0.33333 0,-0.66667 0,-1 -1,0 -2,0 -3,0 z"
       style="fill:#050001"
       inkscape:connector-curvature="0" />
    <path
       id="path6398"
       d="m 31,4 c 0,0.3333333 0,0.6666667 0,1 0.333333,0 0.666667,0 1,0 0,-0.3333333 0,-0.6666667 0,-1 -0.333333,0 -0.666667,0 -1,0 z"
       style="fill:#efefef"
       inkscape:connector-curvature="0" />
    <path
       id="path6396"
       d="m 22,11 c 0,0.333333 0,0.666667 0,1 0.333333,0 0.666667,0 1,0 0,-0.333333 0,-0.666667 0,-1 -0.333333,0 -0.666667,0 -1,0 z"
       style="fill:#efefef"
       inkscape:connector-curvature="0" />
    <path
       id="path6390"
       d="m 31,13 c 0,0.333333 0,0.666667 0,1 0.666667,0 1.333333,0 2,0 0,-0.333333 0,-0.666667 0,-1 -0.666667,0 -1.333333,0 -2,0 z"
       style="fill:#efefef"
       inkscape:connector-curvature="0" />
    <path
       id="path6386"
       d="m 12,23 c 0,0.333333 0,0.666667 0,1 0.333333,0 0.666667,0 1,0 0,-0.333333 0,-0.666667 0,-1 -0.333333,0 -0.666667,0 -1,0 z"
       style="fill:#efefef"
       inkscape:connector-curvature="0" />
    <path
       id="path6384"
       d="m 3,30 c 0,0.333333 0,0.666667 0,1 0.3333333,0 0.6666667,0 1,0 0,-0.333333 0,-0.666667 0,-1 -0.3333333,0 -0.6666667,0 -1,0 z"
       style="fill:#efefef"
       inkscape:connector-curvature="0" />
    <path
       id="path6382"
       d="m 12,32 c 0,0.333333 0,0.666667 0,1 0.666667,0 1.333333,0 2,0 0,-0.333333 0,-0.666667 0,-1 -0.666667,0 -1.333333,0 -2,0 z"
       style="fill:#efefef"
       inkscape:connector-curvature="0" />
    <path
       id="path6380"
       d="m 84,100 c 0,0.33333 0,0.66667 0,1 0.333333,0 0.666667,0 1,0 0,-0.33333 0,-0.66667 0,-1 -0.333333,0 -0.666667,0 -1,0 z"
       style="fill:#efefef"
       inkscape:connector-curvature="0" />
    <path
       id="path6378"
       d="m 82,101 c 0,0.33333 0,0.66667 0,1 0.333333,0 0.666667,0 1,0 0,-0.33333 0,-0.66667 0,-1 -0.333333,0 -0.666667,0 -1,0 z"
       style="fill:#efefef"
       inkscape:connector-curvature="0" />
    <path
       id="path6376"
       d="m 74,103 c 0,0.33333 0,0.66667 0,1 0.333333,0 0.666667,0 1,0 0,-0.33333 0,-0.66667 0,-1 -0.333333,0 -0.666667,0 -1,0 z"
       style="fill:#efefef"
       inkscape:connector-curvature="0" />
    <path
       id="path6374"
       d="m 74,106 c 0,0.33333 0,0.66667 0,1 0.333333,0 0.666667,0 1,0 0,-0.33333 0,-0.66667 0,-1 -0.333333,0 -0.666667,0 -1,0 z"
       style="fill:#efefef"
       inkscape:connector-curvature="0" />
    <path
       id="path6372"
       d="m 77,108 c 0,0.66667 0,1.33333 0,2 0.333333,0 0.666667,0 1,0 0,-0.66667 0,-1.33333 0,-2 -0.333333,0 -0.666667,0 -1,0 z"
       style="fill:#efefef"
       inkscape:connector-curvature="0" />
    <path
       id="path6370"
       d="m 78,111 c 0,0.33333 0,0.66667 0,1 0.333333,0 0.666667,0 1,0 0,-0.33333 0,-0.66667 0,-1 -0.333333,0 -0.666667,0 -1,0 z"
       style="fill:#efefef"
       inkscape:connector-curvature="0" />
    <path
       id="path6366"
       d="m 63,120 c 0,0.33333 0,0.66667 0,1 0.333333,0 0.666667,0 1,0 0,-0.33333 0,-0.66667 0,-1 -0.333333,0 -0.666667,0 -1,0 z"
       style="fill:#efefef"
       inkscape:connector-curvature="0" />
    <path
       id="path6358"
       d="m 59,130 c 0,0.33333 0,0.66667 0,1 0.333333,0 0.666667,0 1,0 0,-0.33333 0,-0.66667 0,-1 -0.333333,0 -0.666667,0 -1,0 z"
       style="fill:#efefef"
       inkscape:connector-curvature="0" />
    <path
       id="path6356"
       d="m 63,130 c 0,0.33333 0,0.66667 0,1 0.333333,0 0.666667,0 1,0 0,-0.33333 0,-0.66667 0,-1 -0.333333,0 -0.666667,0 -1,0 z"
       style="fill:#efefef"
       inkscape:connector-curvature="0" />
  </g>
</svg>
