<?xml version="1.0" encoding="UTF-8" standalone="no"?>
<svg
   xmlns:dc="http://purl.org/dc/elements/1.1/"
   xmlns:cc="http://creativecommons.org/ns#"
   xmlns:rdf="http://www.w3.org/1999/02/22-rdf-syntax-ns#"
   xmlns:svg="http://www.w3.org/2000/svg"
   xmlns="http://www.w3.org/2000/svg"
   xmlns:sodipodi="http://sodipodi.sourceforge.net/DTD/sodipodi-0.dtd"
   xmlns:inkscape="http://www.inkscape.org/namespaces/inkscape"
   height="135px"
   version="1.1"
   width="90px"
   id="svg24208"
   sodipodi:docname="suit-diamonds.svg"
   inkscape:version="0.92.2 (5c3e80d, 2017-08-06)">
  <metadata
     id="metadata24212">
    <rdf:RDF>
      <cc:Work
         rdf:about="">
        <dc:format>image/svg+xml</dc:format>
        <dc:type
           rdf:resource="http://purl.org/dc/dcmitype/StillImage" />
        <dc:title />
      </cc:Work>
    </rdf:RDF>
  </metadata>
  <sodipodi:namedview
     pagecolor="#ffffff"
     bordercolor="#666666"
     borderopacity="1"
     objecttolerance="10"
     gridtolerance="10"
     guidetolerance="10"
     inkscape:pageopacity="0"
     inkscape:pageshadow="2"
     inkscape:window-width="1920"
     inkscape:window-height="1025"
     id="namedview24210"
     showgrid="false"
     inkscape:zoom="19.778039"
     inkscape:cx="75.729654"
     inkscape:cy="11.388475"
     inkscape:window-x="-8"
     inkscape:window-y="-8"
     inkscape:window-maximized="1"
     inkscape:current-layer="svg24208" />
  <defs
     id="defs2" />
  <g
     id="g3517">
    <rect
       id="rect558"
       y="3"
       x="28"
       width="1"
       height="1"
       style="fill:#eeb0b1" />
    <rect
       id="rect732"
       y="4"
       x="27"
       width="1"
       height="1"
       style="fill:#e48182" />
    <rect
       id="rect736"
       y="4"
       x="29"
       width="1"
       height="1"
       style="fill:#f8dfe0" />
    <rect
       id="rect908"
       y="5"
       x="26"
       width="1"
       height="1"
       style="fill:#f5d0d0" />
    <rect
       id="rect914"
       y="5"
       x="29"
       width="1"
       height="1"
       style="fill:#d64143" />
    <rect
       id="rect1088"
       y="6"
       x="26"
       width="1"
       height="1"
       style="fill:#d33133" />
    <rect
       id="rect1096"
       y="6"
       x="30"
       width="1"
       height="1"
       style="fill:#e48182" />
    <rect
       id="rect1266"
       y="7"
       x="25"
       width="1"
       height="1"
       style="fill:#dd6162" />
    <rect
       id="rect1444"
       y="8"
       x="24"
       width="1"
       height="1"
       style="fill:#eba0a1" />
    <rect
       id="rect1460"
       y="8"
       x="32"
       width="1"
       height="1"
       style="fill:#f8dfe0" />
    <rect
       id="rect1622"
       y="9"
       x="23"
       width="1"
       height="1"
       style="fill:#f8dfe0" />
    <rect
       id="rect1640"
       y="9"
       x="32"
       width="1"
       height="1"
       style="fill:#d33133" />
    <rect
       id="rect1802"
       y="10"
       x="23"
       width="1"
       height="1"
       style="fill:#fcefef" />
    <rect
       id="rect1804"
       y="10"
       x="24"
       width="1"
       height="1"
       style="fill:#d33133" />
    <rect
       id="rect1820"
       y="10"
       x="32"
       width="1"
       height="1"
       style="fill:#e48182" />
    <rect
       id="rect1984"
       y="11"
       x="24"
       width="1"
       height="1"
       style="fill:#fcefef" />
    <rect
       id="rect1998"
       y="11"
       x="31"
       width="1"
       height="1"
       style="fill:#da5152" />
    <rect
       id="rect2178"
       y="12"
       x="31"
       width="1"
       height="1"
       style="fill:#fcefef" />
    <rect
       id="rect2348"
       y="13"
       x="26"
       width="1"
       height="1"
       style="fill:#e48182" />
    <rect
       id="rect2356"
       y="13"
       x="30"
       width="1"
       height="1"
       style="fill:#f5d0d0" />
    <rect
       id="rect2530"
       y="14"
       x="27"
       width="1"
       height="1"
       style="fill:#d33133" />
    <rect
       id="rect2534"
       y="14"
       x="29"
       width="1"
       height="1"
       style="fill:#e48182" />
    <rect
       id="rect2710"
       y="15"
       x="27"
       width="1"
       height="1"
       style="fill:#f5d0d0" />
    <rect
       id="rect2712"
       y="15"
       x="28"
       width="1"
       height="1"
       style="fill:#d33133" />
    <rect
       id="rect3936"
       y="22"
       x="10"
       width="1"
       height="1"
       style="fill:#eeb0b1" />
    <rect
       id="rect4114"
       y="23"
       x="9"
       width="1"
       height="1"
       style="fill:#e48182" />
    <rect
       id="rect4118"
       y="23"
       x="11"
       width="1"
       height="1"
       style="fill:#f8dfe0" />
    <rect
       id="rect4292"
       y="24"
       x="8"
       width="1"
       height="1"
       style="fill:#f5d0d0" />
    <rect
       id="rect4298"
       y="24"
       x="11"
       width="1"
       height="1"
       style="fill:#d64143" />
    <rect
       id="rect4472"
       y="25"
       x="8"
       width="1"
       height="1"
       style="fill:#d33133" />
    <rect
       id="rect4480"
       y="25"
       x="12"
       width="1"
       height="1"
       style="fill:#e48182" />
    <rect
       id="rect4650"
       y="26"
       x="7"
       width="1"
       height="1"
       style="fill:#dd6162" />
    <rect
       id="rect4828"
       y="27"
       x="6"
       width="1"
       height="1"
       style="fill:#eba0a1" />
    <rect
       id="rect4844"
       y="27"
       x="14"
       width="1"
       height="1"
       style="fill:#f8dfe0" />
    <rect
       id="rect5006"
       y="28"
       x="5"
       width="1"
       height="1"
       style="fill:#f8dfe0" />
    <rect
       id="rect5024"
       y="28"
       x="14"
       width="1"
       height="1"
       style="fill:#d33133" />
    <rect
       id="rect5186"
       y="29"
       x="5"
       width="1"
       height="1"
       style="fill:#fcefef" />
    <rect
       id="rect5188"
       y="29"
       x="6"
       width="1"
       height="1"
       style="fill:#d33133" />
    <rect
       id="rect5204"
       y="29"
       x="14"
       width="1"
       height="1"
       style="fill:#e48182" />
    <rect
       id="rect5368"
       y="30"
       x="6"
       width="1"
       height="1"
       style="fill:#fcefef" />
    <rect
       id="rect5382"
       y="30"
       x="13"
       width="1"
       height="1"
       style="fill:#da5152" />
    <rect
       id="rect5562"
       y="31"
       x="13"
       width="1"
       height="1"
       style="fill:#fcefef" />
    <rect
       id="rect5732"
       y="32"
       x="8"
       width="1"
       height="1"
       style="fill:#e48182" />
    <rect
       id="rect5740"
       y="32"
       x="12"
       width="1"
       height="1"
       style="fill:#f5d0d0" />
    <rect
       id="rect5914"
       y="33"
       x="9"
       width="1"
       height="1"
       style="fill:#d33133" />
    <rect
       id="rect5918"
       y="33"
       x="11"
       width="1"
       height="1"
       style="fill:#e48182" />
    <rect
       id="rect6094"
       y="34"
       x="9"
       width="1"
       height="1"
       style="fill:#f5d0d0" />
    <rect
       id="rect6096"
       y="34"
       x="10"
       width="1"
       height="1"
       style="fill:#d33133" />
    <rect
       id="rect17936"
       y="99"
       x="80"
       width="1"
       height="1"
       style="fill:#e48182" />
    <rect
       id="rect18112"
       y="100"
       x="78"
       width="1"
       height="1"
       style="fill:#fcefef" />
    <rect
       id="rect18118"
       y="100"
       x="81"
       width="1"
       height="1"
       style="fill:#f8dfe0" />
    <rect
       id="rect18292"
       y="101"
       x="78"
       width="1"
       height="1"
       style="fill:#e17172" />
    <rect
       id="rect18298"
       y="101"
       x="81"
       width="1"
       height="1"
       style="fill:#d33133" />
    <rect
       id="rect18470"
       y="102"
       x="77"
       width="1"
       height="1"
       style="fill:#eeb0b1" />
    <rect
       id="rect18480"
       y="102"
       x="82"
       width="1"
       height="1"
       style="fill:#e48182" />
    <rect
       id="rect18648"
       y="103"
       x="76"
       width="1"
       height="1"
       style="fill:#f8dfe0" />
    <rect
       id="rect18662"
       y="103"
       x="83"
       width="1"
       height="1"
       style="fill:#eeb0b1" />
    <rect
       id="rect18826"
       y="104"
       x="75"
       width="1"
       height="1"
       style="fill:#fcefef" />
    <rect
       id="rect18828"
       y="104"
       x="76"
       width="1"
       height="1"
       style="fill:#d33133" />
    <rect
       id="rect18844"
       y="104"
       x="84"
       width="1"
       height="1"
       style="fill:#f5d0d0" />
    <rect
       id="rect19006"
       y="105"
       x="75"
       width="1"
       height="1"
       style="fill:#e79091" />
    <rect
       id="rect19024"
       y="105"
       x="84"
       width="1"
       height="1"
       style="fill:#dd6162" />
    <rect
       id="rect19188"
       y="106"
       x="76"
       width="1"
       height="1"
       style="fill:#d33133" />
    <rect
       id="rect19204"
       y="106"
       x="84"
       width="1"
       height="1"
       style="fill:#f8dfe0" />
    <rect
       id="rect19368"
       y="107"
       x="76"
       width="1"
       height="1"
       style="fill:#fcefef" />
    <rect
       id="rect19550"
       y="108"
       x="77"
       width="1"
       height="1"
       style="fill:#f5d0d0" />
    <rect
       id="rect19560"
       y="108"
       x="82"
       width="1"
       height="1"
       style="fill:#e79091" />
    <rect
       id="rect19732"
       y="109"
       x="78"
       width="1"
       height="1"
       style="fill:#e48182" />
    <rect
       id="rect19738"
       y="109"
       x="81"
       width="1"
       height="1"
       style="fill:#d64143" />
    <rect
       id="rect19914"
       y="110"
       x="79"
       width="1"
       height="1"
       style="fill:#d33133" />
    <rect
       id="rect19918"
       y="110"
       x="81"
       width="1"
       height="1"
       style="fill:#f8dfe0" />
    <rect
       id="rect20094"
       y="111"
       x="79"
       width="1"
       height="1"
       style="fill:#f5d0d0" />
    <rect
       id="rect20096"
       y="111"
       x="80"
       width="1"
       height="1"
       style="fill:#eba0a1" />
    <rect
       id="rect21318"
       y="118"
       x="61"
       width="1"
       height="1"
       style="fill:#e79091" />
    <rect
       id="rect21320"
       y="118"
       x="62"
       width="1"
       height="1"
       style="fill:#eba0a1" />
    <rect
       id="rect21496"
       y="119"
       x="60"
       width="1"
       height="1"
       style="fill:#f8dfe0" />
    <rect
       id="rect21502"
       y="119"
       x="63"
       width="1"
       height="1"
       style="fill:#fcefef" />
    <rect
       id="rect21676"
       y="120"
       x="60"
       width="1"
       height="1"
       style="fill:#d64143" />
    <rect
       id="rect21682"
       y="120"
       x="63"
       width="1"
       height="1"
       style="fill:#da5152" />
    <rect
       id="rect21854"
       y="121"
       x="59"
       width="1"
       height="1"
       style="fill:#e48182" />
    <rect
       id="rect21864"
       y="121"
       x="64"
       width="1"
       height="1"
       style="fill:#e79091" />
    <rect
       id="rect22046"
       y="122"
       x="65"
       width="1"
       height="1"
       style="fill:#f5d0d0" />
    <rect
       id="rect22210"
       y="123"
       x="57"
       width="1"
       height="1"
       style="fill:#f8dfe0" />
    <rect
       id="rect22228"
       y="123"
       x="66"
       width="1"
       height="1"
       style="fill:#fcefef" />
    <rect
       id="rect22390"
       y="124"
       x="57"
       width="1"
       height="1"
       style="fill:#e17172" />
    <rect
       id="rect22408"
       y="124"
       x="66"
       width="1"
       height="1"
       style="fill:#e48182" />
    <rect
       id="rect22570"
       y="125"
       x="57"
       width="1"
       height="1"
       style="fill:#fcefef" />
    <rect
       id="rect22572"
       y="125"
       x="58"
       width="1"
       height="1"
       style="fill:#d33133" />
    <rect
       id="rect22586"
       y="125"
       x="65"
       width="1"
       height="1"
       style="fill:#d33133" />
    <rect
       id="rect22588"
       y="125"
       x="66"
       width="1"
       height="1"
       style="fill:#fcefef" />
    <rect
       id="rect22752"
       y="126"
       x="58"
       width="1"
       height="1"
       style="fill:#f8dfe0" />
    <path
       style="fill:#cc1214"
       d="m 31,8 c 0,0.3333333 0,0.6666667 0,1 0.333333,0 0.666667,0 1,0 0,-0.3333333 0,-0.6666667 0,-1 -0.333333,0 -0.666667,0 -1,0 z"
       id="path1006" />
    <path
       style="fill:#cc1214"
       d="m 25,11 c 0,0.333333 0,0.666667 0,1 0.333333,0 0.666667,0 1,0 0,-0.333333 0,-0.666667 0,-1 -0.333333,0 -0.666667,0 -1,0 z"
       id="path1004" />
    <path
       style="fill:#cc1214"
       d="m 13,27 c 0,0.333333 0,0.666667 0,1 0.333333,0 0.666667,0 1,0 0,-0.333333 0,-0.666667 0,-1 -0.333333,0 -0.666667,0 -1,0 z"
       id="path1002" />
    <path
       style="fill:#cc1214"
       d="m 7,30 c 0,0.333333 0,0.666667 0,1 0.3333333,0 0.6666667,0 1,0 0,-0.333333 0,-0.666667 0,-1 -0.3333333,0 -0.6666667,0 -1,0 z"
       id="path1000" />
    <path
       style="fill:#cc1214"
       d="m 80,100 c 0,0.33333 0,0.66667 0,1 0.333333,0 0.666667,0 1,0 0,-0.33333 0,-0.66667 0,-1 -0.333333,0 -0.666667,0 -1,0 z"
       id="path998" />
    <path
       style="fill:#cc1214"
       d="m 77,103 c 0,0.33333 0,0.66667 0,1 0.333333,0 0.666667,0 1,0 0,-0.33333 0,-0.66667 0,-1 -0.333333,0 -0.666667,0 -1,0 z"
       id="path996" />
    <path
       style="fill:#cc1214"
       d="m 83,104 c 0,0.33333 0,0.66667 0,1 0.333333,0 0.666667,0 1,0 0,-0.33333 0,-0.66667 0,-1 -0.333333,0 -0.666667,0 -1,0 z"
       id="path994" />
    <path
       style="fill:#cc1214"
       d="m 83,106 c 0,0.33333 0,0.66667 0,1 0.333333,0 0.666667,0 1,0 0,-0.33333 0,-0.66667 0,-1 -0.333333,0 -0.666667,0 -1,0 z"
       id="path992" />
    <path
       style="fill:#cc1214"
       d="m 80,110 c 0,0.33333 0,0.66667 0,1 0.333333,0 0.666667,0 1,0 0,-0.33333 0,-0.66667 0,-1 -0.333333,0 -0.666667,0 -1,0 z"
       id="path990" />
    <path
       style="fill:#cc1214"
       d="m 61,119 c 0,0.33333 0,0.66667 0,1 0.666667,0 1.333333,0 2,0 0,-0.33333 0,-0.66667 0,-1 -0.666667,0 -1.333333,0 -2,0 z"
       id="path988" />
    <path
       style="fill:#cc1214"
       d="m 58,123 c 0,0.33333 0,0.66667 0,1 0.333333,0 0.666667,0 1,0 0,-0.33333 0,-0.66667 0,-1 -0.333333,0 -0.666667,0 -1,0 z"
       id="path986" />
    <path
       style="fill:#cc1214"
       d="m 65,123 c 0,0.33333 0,0.66667 0,1 0.333333,0 0.666667,0 1,0 0,-0.33333 0,-0.66667 0,-1 -0.333333,0 -0.666667,0 -1,0 z"
       id="path984" />
    <path
       style="fill:#cc1214"
       d="m 59,126 c 0,0.33333 0,0.66667 0,1 0.333333,0 0.666667,0 1,0 0,-0.33333 0,-0.66667 0,-1 -0.333333,0 -0.666667,0 -1,0 z"
       id="path982" />
    <path
       style="fill:#cc1214"
       d="m 64,126 c 0,0.33333 0,0.66667 0,1 0.333333,0 0.666667,0 1,0 0,-0.33333 0,-0.66667 0,-1 -0.333333,0 -0.666667,0 -1,0 z"
       id="rect22764" />
    <rect
       id="rect22766"
       y="126"
       x="65"
       width="1"
       height="1"
       style="fill:#f8dfe0" />
    <rect
       id="rect22934"
       y="127"
       x="59"
       width="1"
       height="1"
       style="fill:#eeb0b1" />
    <rect
       id="rect22944"
       y="127"
       x="64"
       width="1"
       height="1"
       style="fill:#eeb0b1" />
    <rect
       id="rect23116"
       y="128"
       x="60"
       width="1"
       height="1"
       style="fill:#e17172" />
    <rect
       id="rect23122"
       y="128"
       x="63"
       width="1"
       height="1"
       style="fill:#e17172" />
    <rect
       id="rect23296"
       y="129"
       x="60"
       width="1"
       height="1"
       style="fill:#fcefef" />
    <path
       style="fill:#d02223"
       d="m 30,12 c 0,0.333333 0,0.666667 0,1 0.333333,0 0.666667,0 1,0 0,-0.333333 0,-0.666667 0,-1 -0.333333,0 -0.666667,0 -1,0 z"
       id="path960" />
    <path
       style="fill:#d02223"
       d="m 12,31 c 0,0.333333 0,0.666667 0,1 0.333333,0 0.666667,0 1,0 0,-0.333333 0,-0.666667 0,-1 -0.333333,0 -0.666667,0 -1,0 z"
       id="path958" />
    <path
       style="fill:#d02223"
       d="m 79,100 c 0,0.33333 0,0.66667 0,1 0.333333,0 0.666667,0 1,0 0,-0.33333 0,-0.66667 0,-1 -0.333333,0 -0.666667,0 -1,0 z"
       id="path956" />
    <path
       style="fill:#d02223"
       d="m 77,107 c 0,0.33333 0,0.66667 0,1 0.333333,0 0.666667,0 1,0 0,-0.33333 0,-0.66667 0,-1 -0.333333,0 -0.666667,0 -1,0 z"
       id="path954" />
    <path
       style="fill:#d02223"
       d="m 61,129 c 0,0.33333 0,0.66667 0,1 0.666667,0 1.333333,0 2,0 0,-0.33333 0,-0.66667 0,-1 -0.666667,0 -1.333333,0 -2,0 z"
       id="rect23300" />
    <rect
       id="rect23302"
       y="129"
       x="63"
       width="1"
       height="1"
       style="fill:#fcefef" />
    <path
       id="path2371"
       d="m 31,7 c 0,0.3333333 0,0.6666667 0,1 0.333333,0 0.666667,0 1,0 0,-0.3333333 0,-0.6666667 0,-1 -0.333333,0 -0.666667,0 -1,0 z"
       style="fill:#f1c0c0"
       inkscape:connector-curvature="0" />
    <path
       id="path2367"
       d="m 25,12 c 0,0.333333 0,0.666667 0,1 0.333333,0 0.666667,0 1,0 0,-0.333333 0,-0.666667 0,-1 -0.333333,0 -0.666667,0 -1,0 z"
       style="fill:#f1c0c0"
       inkscape:connector-curvature="0" />
    <path
       id="path2359"
       d="m 13,26 c 0,0.333333 0,0.666667 0,1 0.333333,0 0.666667,0 1,0 0,-0.333333 0,-0.666667 0,-1 -0.333333,0 -0.666667,0 -1,0 z"
       style="fill:#f1c0c0"
       inkscape:connector-curvature="0" />
    <path
       id="path2357"
       d="m 7,31 c 0,0.333333 0,0.666667 0,1 0.3333333,0 0.6666667,0 1,0 0,-0.333333 0,-0.666667 0,-1 -0.3333333,0 -0.6666667,0 -1,0 z"
       style="fill:#f1c0c0"
       inkscape:connector-curvature="0" />
    <path
       id="path2355"
       d="m 79,99 c 0,0.333333 0,0.666667 0,1 0.333333,0 0.666667,0 1,0 0,-0.333333 0,-0.666667 0,-1 -0.333333,0 -0.666667,0 -1,0 z"
       style="fill:#f1c0c0"
       inkscape:connector-curvature="0" />
    <path
       id="path2353"
       d="m 83,107 c 0,0.33333 0,0.66667 0,1 0.333333,0 0.666667,0 1,0 0,-0.33333 0,-0.66667 0,-1 -0.333333,0 -0.666667,0 -1,0 z"
       style="fill:#f1c0c0"
       inkscape:connector-curvature="0" />
    <path
       id="path2349"
       d="m 58,122 c 0,0.33333 0,0.66667 0,1 0.333333,0 0.666667,0 1,0 0,-0.33333 0,-0.66667 0,-1 -0.333333,0 -0.666667,0 -1,0 z"
       style="fill:#f1c0c0"
       inkscape:connector-curvature="0" />
    <path
       id="path2345"
       d="m 61,130 c 0,0.33333 0,0.66667 0,1 0.666667,0 1.333333,0 2,0 0,-0.33333 0,-0.66667 0,-1 -0.666667,0 -1.333333,0 -2,0 z"
       style="fill:#f1c0c0"
       inkscape:connector-curvature="0" />
    <path
       id="path2307"
       d="m 28,4 c 0,0.3333333 0,0.6666667 0,1 -0.333333,0 -0.666667,0 -1,0 0,0.6666667 0,1.3333333 0,2 -0.333333,0 -0.666667,0 -1,0 0,0.3333333 0,0.6666667 0,1 -0.333333,0 -0.666667,0 -1,0 0,0.3333333 0,0.6666667 0,1 -0.333333,0 -0.666667,0 -1,0 0,0.3333333 0,0.6666667 0,1 0.333333,0 0.666667,0 1,0 0,0.333333 0,0.666667 0,1 0.333333,0 0.666667,0 1,0 0,0.666667 0,1.333333 0,2 0.333333,0 0.666667,0 1,0 0,0.333333 0,0.666667 0,1 0.333333,0 0.666667,0 1,0 0,0.333333 0,0.666667 0,1 0.333333,0 0.666667,0 1,0 0,-0.333333 0,-0.666667 0,-1 0.333333,0 0.666667,0 1,0 0,-0.666667 0,-1.333333 0,-2 0.333333,0 0.666667,0 1,0 0,-0.333333 0,-0.666667 0,-1 0.333333,0 0.666667,0 1,0 0,-0.666667 0,-1.3333333 0,-2 -0.333333,0 -0.666667,0 -1,0 0,-0.6666667 0,-1.3333333 0,-2 -0.333333,0 -0.666667,0 -1,0 0,-0.3333333 0,-0.6666667 0,-1 -0.333333,0 -0.666667,0 -1,0 0,-0.6666667 0,-1.3333333 0,-2 -0.333333,0 -0.666667,0 -1,0 z"
       style="fill:#c90305"
       inkscape:connector-curvature="0" />
    <path
       id="path2305"
       d="m 10,23 c 0,0.333333 0,0.666667 0,1 -0.3333333,0 -0.6666667,0 -1,0 0,0.666667 0,1.333333 0,2 -0.3333333,0 -0.6666667,0 -1,0 0,0.333333 0,0.666667 0,1 -0.3333333,0 -0.6666667,0 -1,0 0,0.333333 0,0.666667 0,1 -0.3333333,0 -0.6666667,0 -1,0 0,0.333333 0,0.666667 0,1 0.3333333,0 0.6666667,0 1,0 0,0.333333 0,0.666667 0,1 0.3333333,0 0.6666667,0 1,0 0,0.666667 0,1.333333 0,2 0.3333333,0 0.6666667,0 1,0 0,0.333333 0,0.666667 0,1 0.3333333,0 0.6666667,0 1,0 0,0.333333 0,0.666667 0,1 0.333333,0 0.666667,0 1,0 0,-0.333333 0,-0.666667 0,-1 0.333333,0 0.666667,0 1,0 0,-0.666667 0,-1.333333 0,-2 0.333333,0 0.666667,0 1,0 0,-0.333333 0,-0.666667 0,-1 0.333333,0 0.666667,0 1,0 0,-0.666667 0,-1.333333 0,-2 -0.333333,0 -0.666667,0 -1,0 0,-0.666667 0,-1.333333 0,-2 -0.333333,0 -0.666667,0 -1,0 0,-0.333333 0,-0.666667 0,-1 -0.333333,0 -0.666667,0 -1,0 0,-0.666667 0,-1.333333 0,-2 -0.333333,0 -0.666667,0 -1,0 z"
       style="fill:#c90305"
       inkscape:connector-curvature="0" />
    <path
       id="path2303"
       d="m 79,101 c 0,0.33333 0,0.66667 0,1 -0.333333,0 -0.666667,0 -1,0 0,0.66667 0,1.33333 0,2 -0.333333,0 -0.666667,0 -1,0 0,0.33333 0,0.66667 0,1 -0.333333,0 -0.666667,0 -1,0 0,0.33333 0,0.66667 0,1 0.333333,0 0.666667,0 1,0 0,0.33333 0,0.66667 0,1 0.333333,0 0.666667,0 1,0 0,0.66667 0,1.33333 0,2 0.333333,0 0.666667,0 1,0 0,0.33333 0,0.66667 0,1 0.666667,0 1.333333,0 2,0 0,-0.33333 0,-0.66667 0,-1 0.333333,0 0.666667,0 1,0 0,-0.33333 0,-0.66667 0,-1 0.333333,0 0.666667,0 1,0 0,-0.66667 0,-1.33333 0,-2 0.333333,0 0.666667,0 1,0 0,-0.33333 0,-0.66667 0,-1 -0.333333,0 -0.666667,0 -1,0 0,-0.66667 0,-1.33333 0,-2 -0.333333,0 -0.666667,0 -1,0 0,-0.33333 0,-0.66667 0,-1 -0.333333,0 -0.666667,0 -1,0 0,-0.33333 0,-0.66667 0,-1 -0.666667,0 -1.333333,0 -2,0 z"
       style="fill:#c90305"
       inkscape:connector-curvature="0" />
    <path
       id="rect23686"
       d="m 61,120 c 0,0.33333 0,0.66667 0,1 -0.333333,0 -0.666667,0 -1,0 0,0.33333 0,0.66667 0,1 -0.333333,0 -0.666667,0 -1,0 0,0.66667 0,1.33333 0,2 -0.333333,0 -0.666667,0 -1,0 0,0.33333 0,0.66667 0,1 0.333333,0 0.666667,0 1,0 0,0.33333 0,0.66667 0,1 0.333333,0 0.666667,0 1,0 0,0.66667 0,1.33333 0,2 0.333333,0 0.666667,0 1,0 0,0.33333 0,0.66667 0,1 0.666667,0 1.333333,0 2,0 0,-0.33333 0,-0.66667 0,-1 0.333333,0 0.666667,0 1,0 0,-0.66667 0,-1.33333 0,-2 0.333333,0 0.666667,0 1,0 0,-0.33333 0,-0.66667 0,-1 0.333333,0 0.666667,0 1,0 0,-0.33333 0,-0.66667 0,-1 -0.333333,0 -0.666667,0 -1,0 0,-0.66667 0,-1.33333 0,-2 -0.333333,0 -0.666667,0 -1,0 0,-0.33333 0,-0.66667 0,-1 -0.333333,0 -0.666667,0 -1,0 0,-0.33333 0,-0.66667 0,-1 -0.666667,0 -1.333333,0 -2,0 z"
       style="fill:#c90305"
       inkscape:connector-curvature="0" />
  </g>
</svg>
