<?xml version="1.0" encoding="UTF-8" standalone="no"?>
<svg
   xmlns:dc="http://purl.org/dc/elements/1.1/"
   xmlns:cc="http://creativecommons.org/ns#"
   xmlns:rdf="http://www.w3.org/1999/02/22-rdf-syntax-ns#"
   xmlns:svg="http://www.w3.org/2000/svg"
   xmlns="http://www.w3.org/2000/svg"
   xmlns:sodipodi="http://sodipodi.sourceforge.net/DTD/sodipodi-0.dtd"
   xmlns:inkscape="http://www.inkscape.org/namespaces/inkscape"
   height="135px"
   version="1.1"
   width="90px"
   id="svg24208"
   sodipodi:docname="suit-spades.svg"
   inkscape:version="0.92.2 (5c3e80d, 2017-08-06)">
  <metadata
     id="metadata24212">
    <rdf:RDF>
      <cc:Work
         rdf:about="">
        <dc:format>image/svg+xml</dc:format>
        <dc:type
           rdf:resource="http://purl.org/dc/dcmitype/StillImage" />
        <dc:title />
      </cc:Work>
    </rdf:RDF>
  </metadata>
  <sodipodi:namedview
     pagecolor="#ffffff"
     bordercolor="#666666"
     borderopacity="1"
     objecttolerance="10"
     gridtolerance="10"
     guidetolerance="10"
     inkscape:pageopacity="0"
     inkscape:pageshadow="2"
     inkscape:window-width="1920"
     inkscape:window-height="1025"
     id="namedview24210"
     showgrid="false"
     inkscape:zoom="39.556077"
     inkscape:cx="77.053064"
     inkscape:cy="33.245524"
     inkscape:window-x="-8"
     inkscape:window-y="-8"
     inkscape:window-maximized="1"
     inkscape:current-layer="svg24208" />
  <defs
     id="defs2" />
  <g
     id="g5891">
    <rect
       style="fill:#140f10"
       id="rect734"
       y="4"
       x="28"
       width="1"
       height="1" />
    <rect
       style="fill:#625f60"
       id="rect910"
       y="5"
       x="27"
       width="1"
       height="1" />
    <rect
       style="fill:#a19f9f"
       id="rect916"
       y="5"
       x="30"
       width="1"
       height="1" />
    <rect
       style="fill:#918f8f"
       id="rect1088"
       y="6"
       x="26"
       width="1"
       height="1" />
    <rect
       style="fill:#a19f9f"
       id="rect1266"
       y="7"
       x="25"
       width="1"
       height="1" />
    <rect
       style="fill:#140f10"
       id="rect1278"
       y="7"
       x="31"
       width="1"
       height="1" />
    <rect
       style="fill:#a19f9f"
       id="rect1444"
       y="8"
       x="24"
       width="1"
       height="1" />
    <rect
       style="fill:#140f10"
       id="rect1460"
       y="8"
       x="32"
       width="1"
       height="1" />
    <rect
       style="fill:#231f20"
       id="rect1624"
       y="9"
       x="24"
       width="1"
       height="1" />
    <rect
       style="fill:#625f60"
       id="rect1642"
       y="9"
       x="33"
       width="1"
       height="1" />
    <rect
       style="fill:#140f10"
       id="rect1984"
       y="11"
       x="24"
       width="1"
       height="1" />
    <rect
       style="fill:#b1afaf"
       id="rect2164"
       y="12"
       x="24"
       width="1"
       height="1" />
    <rect
       style="fill:#332f30"
       id="rect2166"
       y="12"
       x="25"
       width="1"
       height="1" />
    <rect
       style="fill:#332f30"
       id="rect2172"
       y="12"
       x="28"
       width="1"
       height="1" />
    <rect
       style="fill:#231f20"
       id="rect2176"
       y="12"
       x="30"
       width="1"
       height="1" />
    <rect
       style="fill:#140f10"
       id="rect2354"
       y="13"
       x="29"
       width="1"
       height="1" />
    <rect
       style="fill:#efefef"
       id="rect2356"
       y="13"
       x="30"
       width="1"
       height="1" />
    <rect
       style="fill:#918f8f"
       id="rect2528"
       y="14"
       x="26"
       width="1"
       height="1" />
    <rect
       style="fill:#140f10"
       id="rect2530"
       y="14"
       x="27"
       width="1"
       height="1" />
    <rect
       style="fill:#231f20"
       id="rect2536"
       y="14"
       x="30"
       width="1"
       height="1" />
    <rect
       style="fill:#e0dfdf"
       id="rect2722"
       y="15"
       x="33"
       width="1"
       height="1" />
    <rect
       style="fill:#140f10"
       id="rect4114"
       y="23"
       x="9"
       width="1"
       height="1" />
    <rect
       style="fill:#625f60"
       id="rect4292"
       y="24"
       x="8"
       width="1"
       height="1" />
    <rect
       style="fill:#a19f9f"
       id="rect4298"
       y="24"
       x="11"
       width="1"
       height="1" />
    <rect
       style="fill:#918f8f"
       id="rect4470"
       y="25"
       x="7"
       width="1"
       height="1" />
    <rect
       style="fill:#a19f9f"
       id="rect4648"
       y="26"
       x="6"
       width="1"
       height="1" />
    <rect
       style="fill:#140f10"
       id="rect4660"
       y="26"
       x="12"
       width="1"
       height="1" />
    <rect
       style="fill:#a19f9f"
       id="rect4826"
       y="27"
       x="5"
       width="1"
       height="1" />
    <rect
       style="fill:#140f10"
       id="rect4842"
       y="27"
       x="13"
       width="1"
       height="1" />
    <rect
       style="fill:#231f20"
       id="rect5006"
       y="28"
       x="5"
       width="1"
       height="1" />
    <rect
       style="fill:#625f60"
       id="rect5024"
       y="28"
       x="14"
       width="1"
       height="1" />
    <rect
       style="fill:#140f10"
       id="rect5366"
       y="30"
       x="5"
       width="1"
       height="1" />
    <rect
       style="fill:#b1afaf"
       id="rect5546"
       y="31"
       x="5"
       width="1"
       height="1" />
    <rect
       style="fill:#332f30"
       id="rect5548"
       y="31"
       x="6"
       width="1"
       height="1" />
    <rect
       style="fill:#332f30"
       id="rect5554"
       y="31"
       x="9"
       width="1"
       height="1" />
    <rect
       style="fill:#231f20"
       id="rect5558"
       y="31"
       x="11"
       width="1"
       height="1" />
    <rect
       style="fill:#140f10"
       id="rect5736"
       y="32"
       x="10"
       width="1"
       height="1" />
    <rect
       style="fill:#efefef"
       id="rect5738"
       y="32"
       x="11"
       width="1"
       height="1" />
    <rect
       style="fill:#918f8f"
       id="rect5910"
       y="33"
       x="7"
       width="1"
       height="1" />
    <rect
       style="fill:#140f10"
       id="rect5912"
       y="33"
       x="8"
       width="1"
       height="1" />
    <rect
       style="fill:#231f20"
       id="rect5918"
       y="33"
       x="11"
       width="1"
       height="1" />
    <rect
       style="fill:#e0dfdf"
       id="rect6104"
       y="34"
       x="14"
       width="1"
       height="1" />
    <rect
       style="fill:#726f70"
       id="rect17928"
       y="99"
       x="76"
       width="1"
       height="1" />
    <rect
       style="fill:#726f70"
       id="rect17944"
       y="99"
       x="84"
       width="1"
       height="1" />
    <rect
       style="fill:#b1afaf"
       id="rect18110"
       y="100"
       x="77"
       width="1"
       height="1" />
    <rect
       style="fill:#332f30"
       id="rect18112"
       y="100"
       x="78"
       width="1"
       height="1" />
    <rect
       style="fill:#231f20"
       id="rect18120"
       y="100"
       x="82"
       width="1"
       height="1" />
    <rect
       style="fill:#b1afaf"
       id="rect18122"
       y="100"
       x="83"
       width="1"
       height="1" />
    <rect
       style="fill:#efefef"
       id="rect18124"
       y="100"
       x="84"
       width="1"
       height="1" />
    <rect
       style="fill:#332f30"
       id="rect18298"
       y="101"
       x="81"
       width="1"
       height="1" />
    <rect
       style="fill:#efefef"
       id="rect18300"
       y="101"
       x="82"
       width="1"
       height="1" />
    <rect
       style="fill:#b1afaf"
       id="rect18468"
       y="102"
       x="76"
       width="1"
       height="1" />
    <rect
       style="fill:#a19f9f"
       id="rect18474"
       y="102"
       x="79"
       width="1"
       height="1" />
    <rect
       style="fill:#726f70"
       id="rect18478"
       y="102"
       x="81"
       width="1"
       height="1" />
    <rect
       style="fill:#a19f9f"
       id="rect18484"
       y="102"
       x="84"
       width="1"
       height="1" />
    <rect
       style="fill:#e0dfdf"
       id="rect18646"
       y="103"
       x="75"
       width="1"
       height="1" />
    <rect
       style="fill:#b1afaf"
       id="rect18666"
       y="103"
       x="85"
       width="1"
       height="1" />
    <rect
       style="fill:#a19f9f"
       id="rect19026"
       y="105"
       x="85"
       width="1"
       height="1" />
    <rect
       style="fill:#332f30"
       id="rect19188"
       y="106"
       x="76"
       width="1"
       height="1" />
    <rect
       style="fill:#140f10"
       id="rect19204"
       y="106"
       x="84"
       width="1"
       height="1" />
    <rect
       style="fill:#efefef"
       id="rect19206"
       y="106"
       x="85"
       width="1"
       height="1" />
    <rect
       style="fill:#efefef"
       id="rect19368"
       y="107"
       x="76"
       width="1"
       height="1" />
    <rect
       style="fill:#332f30"
       id="rect19370"
       y="107"
       x="77"
       width="1"
       height="1" />
    <rect
       style="fill:#140f10"
       id="rect19382"
       y="107"
       x="83"
       width="1"
       height="1" />
    <rect
       style="fill:#efefef"
       id="rect19550"
       y="108"
       x="77"
       width="1"
       height="1" />
    <rect
       style="fill:#140f10"
       id="rect19552"
       y="108"
       x="78"
       width="1"
       height="1" />
    <rect
       style="fill:#140f10"
       id="rect19560"
       y="108"
       x="82"
       width="1"
       height="1" />
    <rect
       style="fill:#140f10"
       id="rect19734"
       y="109"
       x="79"
       width="1"
       height="1" />
    <rect
       style="fill:#140f10"
       id="rect19738"
       y="109"
       x="81"
       width="1"
       height="1" />
    <rect
       style="fill:#a19f9f"
       id="rect19914"
       y="110"
       x="79"
       width="1"
       height="1" />
    <rect
       style="fill:#231f20"
       id="rect20096"
       y="111"
       x="80"
       width="1"
       height="1" />
    <rect
       style="fill:#efefef"
       id="rect20098"
       y="111"
       x="81"
       width="1"
       height="1" />
    <rect
       style="fill:#efefef"
       id="rect20276"
       y="112"
       x="80"
       width="1"
       height="1" />
    <rect
       style="fill:#726f70"
       id="rect21310"
       y="118"
       x="57"
       width="1"
       height="1" />
    <rect
       style="fill:#726f70"
       id="rect21326"
       y="118"
       x="65"
       width="1"
       height="1" />
    <rect
       style="fill:#b1afaf"
       id="rect21492"
       y="119"
       x="58"
       width="1"
       height="1" />
    <rect
       style="fill:#332f30"
       id="rect21494"
       y="119"
       x="59"
       width="1"
       height="1" />
    <rect
       style="fill:#efefef"
       id="rect21674"
       y="120"
       x="59"
       width="1"
       height="1" />
    <rect
       style="fill:#332f30"
       id="rect21676"
       y="120"
       x="60"
       width="1"
       height="1" />
    <rect
       style="fill:#a19f9f"
       id="rect21850"
       y="121"
       x="57"
       width="1"
       height="1" />
    <rect
       style="fill:#a19f9f"
       id="rect21860"
       y="121"
       x="62"
       width="1"
       height="1" />
    <path
       id="path5468"
       d="m 27,12 c 0,0.333333 0,0.666667 0,1 0.333333,0 0.666667,0 1,0 0,-0.333333 0,-0.666667 0,-1 -0.333333,0 -0.666667,0 -1,0 z"
       style="fill:#433f40" />
    <path
       id="path5462"
       d="m 26,15 c 0,0.333333 0,0.666667 0,1 2,0 4,0 6,0 0,-0.333333 0,-0.666667 0,-1 -2,0 -4,0 -6,0 z"
       style="fill:#433f40" />
    <path
       id="path5458"
       d="m 8,31 c 0,0.333333 0,0.666667 0,1 0.3333333,0 0.6666667,0 1,0 0,-0.333333 0,-0.666667 0,-1 -0.3333333,0 -0.6666667,0 -1,0 z"
       style="fill:#433f40" />
    <path
       id="path5456"
       d="m 7,34 c 0,0.333333 0,0.666667 0,1 2,0 4,0 6,0 0,-0.333333 0,-0.666667 0,-1 -2,0 -4,0 -6,0 z"
       style="fill:#433f40" />
    <path
       id="path5454"
       d="m 77,99 c 0,0.333333 0,0.666667 0,1 2.333333,0 4.666667,0 7,0 0,-0.333333 0,-0.666667 0,-1 -2.333333,0 -4.666667,0 -7,0 z"
       style="fill:#433f40" />
    <path
       id="path5452"
       d="m 79,101 c 0,0.33333 0,0.66667 0,1 0.333333,0 0.666667,0 1,0 0,-0.33333 0,-0.66667 0,-1 -0.333333,0 -0.666667,0 -1,0 z"
       style="fill:#433f40" />
    <path
       id="path5450"
       d="m 79,102 c -0.333333,0 -0.666667,0 -1,0 0,0.33333 0,0.66667 0,1 0.333333,0 0.666667,0 1,0 0,-0.33333 0,-0.66667 0,-1 z"
       style="fill:#433f40" />
    <path
       id="path5448"
       d="m 58,118 c 0,0.33333 0,0.66667 0,1 1.666667,0 3.333333,0 5,0 0,0.33333 0,0.66667 0,1 0.333333,0 0.666667,0 1,0 0,-0.33333 0,-0.66667 0,-1 0.333333,0 0.666667,0 1,0 0,-0.33333 0,-0.66667 0,-1 -2.333333,0 -4.666667,0 -7,0 z"
       style="fill:#433f40" />
    <path
       id="path5440"
       d="m 58,121 c 0,0.33333 0,0.66667 0,1 0.666667,0 1.333333,0 2,0 0,-0.33333 0,-0.66667 0,-1 -0.666667,0 -1.333333,0 -2,0 z"
       style="fill:#433f40" />
    <path
       id="rect21862"
       d="m 63,121 c 0,0.33333 0,0.66667 0,1 0.333333,0 0.666667,0 1,0 0,-0.33333 0,-0.66667 0,-1 -0.333333,0 -0.666667,0 -1,0 z"
       style="fill:#433f40" />
    <rect
       style="fill:#a19f9f"
       id="rect21866"
       y="121"
       x="65"
       width="1"
       height="1" />
    <rect
       style="fill:#b1afaf"
       id="rect22028"
       y="122"
       x="56"
       width="1"
       height="1" />
    <path
       style="fill:#524f50"
       d="m 29,4 c 0,0.3333333 0,0.6666667 0,1 0.333333,0 0.666667,0 1,0 0,-0.3333333 0,-0.6666667 0,-1 -0.333333,0 -0.666667,0 -1,0 z"
       id="path1039" />
    <path
       style="fill:#524f50"
       d="m 33,11 c 0,0.333333 0,0.666667 0,1 0.333333,0 0.666667,0 1,0 0,-0.333333 0,-0.666667 0,-1 -0.333333,0 -0.666667,0 -1,0 z"
       id="path1037" />
    <path
       style="fill:#524f50"
       d="m 33,12 c -0.333333,0 -0.666667,0 -1,0 0,0.333333 0,0.666667 0,1 0.333333,0 0.666667,0 1,0 0,-0.333333 0,-0.666667 0,-1 z"
       id="path1035" />
    <path
       style="fill:#524f50"
       d="m 29,12 c 0,0.333333 0,0.666667 0,1 0.333333,0 0.666667,0 1,0 0,-0.333333 0,-0.666667 0,-1 -0.333333,0 -0.666667,0 -1,0 z"
       id="path1033" />
    <path
       style="fill:#524f50"
       d="m 25,15 c 0,0.333333 0,0.666667 0,1 0.333333,0 0.666667,0 1,0 0,-0.333333 0,-0.666667 0,-1 -0.333333,0 -0.666667,0 -1,0 z"
       id="path1031" />
    <path
       style="fill:#524f50"
       d="m 32,15 c 0,0.333333 0,0.666667 0,1 0.333333,0 0.666667,0 1,0 0,-0.333333 0,-0.666667 0,-1 -0.333333,0 -0.666667,0 -1,0 z"
       id="path1029" />
    <path
       style="fill:#524f50"
       d="m 10,23 c 0,0.333333 0,0.666667 0,1 0.333333,0 0.666667,0 1,0 0,-0.333333 0,-0.666667 0,-1 -0.333333,0 -0.666667,0 -1,0 z"
       id="path1027" />
    <path
       style="fill:#524f50"
       d="m 14,30 c 0,0.333333 0,0.666667 0,1 0.333333,0 0.666667,0 1,0 0,-0.333333 0,-0.666667 0,-1 -0.333333,0 -0.666667,0 -1,0 z"
       id="path1025" />
    <path
       style="fill:#524f50"
       d="m 14,31 c -0.333333,0 -0.666667,0 -1,0 0,0.333333 0,0.666667 0,1 0.333333,0 0.666667,0 1,0 0,-0.333333 0,-0.666667 0,-1 z"
       id="path1023" />
    <path
       style="fill:#524f50"
       d="m 10,31 c 0,0.333333 0,0.666667 0,1 0.333333,0 0.666667,0 1,0 0,-0.333333 0,-0.666667 0,-1 -0.333333,0 -0.666667,0 -1,0 z"
       id="path1021" />
    <path
       style="fill:#524f50"
       d="m 6,34 c 0,0.333333 0,0.666667 0,1 0.3333333,0 0.6666667,0 1,0 0,-0.333333 0,-0.666667 0,-1 -0.3333333,0 -0.6666667,0 -1,0 z"
       id="path1019" />
    <path
       style="fill:#524f50"
       d="m 13,34 c 0,0.333333 0,0.666667 0,1 0.333333,0 0.666667,0 1,0 0,-0.333333 0,-0.666667 0,-1 -0.333333,0 -0.666667,0 -1,0 z"
       id="path1017" />
    <path
       style="fill:#524f50"
       d="m 77,102 c 0,0.33333 0,0.66667 0,1 0.333333,0 0.666667,0 1,0 0,-0.33333 0,-0.66667 0,-1 -0.333333,0 -0.666667,0 -1,0 z"
       id="path1015" />
    <path
       style="fill:#524f50"
       d="m 82,102 c 0,0.33333 0,0.66667 0,1 0.666667,0 1.333333,0 2,0 0,-0.33333 0,-0.66667 0,-1 -0.666667,0 -1.333333,0 -2,0 z"
       id="path1013" />
    <path
       style="fill:#524f50"
       d="m 85,104 c 0,0.33333 0,0.66667 0,1 0.333333,0 0.666667,0 1,0 0,-0.33333 0,-0.66667 0,-1 -0.333333,0 -0.666667,0 -1,0 z"
       id="path1011" />
    <path
       style="fill:#524f50"
       d="m 62,120 c 0,0.33333 0,0.66667 0,1 0.333333,0 0.666667,0 1,0 0,-0.33333 0,-0.66667 0,-1 -0.333333,0 -0.666667,0 -1,0 z"
       id="path1009" />
    <path
       style="fill:#524f50"
       d="m 64,121 c 0,0.33333 0,0.66667 0,1 0.333333,0 0.666667,0 1,0 0,-0.33333 0,-0.66667 0,-1 -0.333333,0 -0.666667,0 -1,0 z"
       id="path1007" />
    <path
       style="fill:#524f50"
       d="m 56,123 c 0,0.33333 0,0.66667 0,1 0.333333,0 0.666667,0 1,0 0,-0.33333 0,-0.66667 0,-1 -0.333333,0 -0.666667,0 -1,0 z"
       id="rect22208" />
    <rect
       style="fill:#a19f9f"
       id="rect22388"
       y="124"
       x="56"
       width="1"
       height="1" />
    <rect
       style="fill:#efefef"
       id="rect22568"
       y="125"
       x="56"
       width="1"
       height="1" />
    <rect
       style="fill:#140f10"
       id="rect22570"
       y="125"
       x="57"
       width="1"
       height="1" />
    <rect
       style="fill:#332f30"
       id="rect22586"
       y="125"
       x="65"
       width="1"
       height="1" />
    <rect
       style="fill:#140f10"
       id="rect22752"
       y="126"
       x="58"
       width="1"
       height="1" />
    <rect
       style="fill:#332f30"
       id="rect22764"
       y="126"
       x="64"
       width="1"
       height="1" />
    <rect
       style="fill:#efefef"
       id="rect22766"
       y="126"
       x="65"
       width="1"
       height="1" />
    <rect
       style="fill:#140f10"
       id="rect22934"
       y="127"
       x="59"
       width="1"
       height="1" />
    <rect
       style="fill:#332f30"
       id="rect22942"
       y="127"
       x="63"
       width="1"
       height="1" />
    <rect
       style="fill:#efefef"
       id="rect22944"
       y="127"
       x="64"
       width="1"
       height="1" />
    <rect
       style="fill:#140f10"
       id="rect23116"
       y="128"
       x="60"
       width="1"
       height="1" />
    <rect
       style="fill:#140f10"
       id="rect23120"
       y="128"
       x="62"
       width="1"
       height="1" />
    <rect
       style="fill:#efefef"
       id="rect23122"
       y="128"
       x="63"
       width="1"
       height="1" />
    <rect
       style="fill:#918f8f"
       id="rect23296"
       y="129"
       x="60"
       width="1"
       height="1" />
    <rect
       style="fill:#a19f9f"
       id="rect23300"
       y="129"
       x="62"
       width="1"
       height="1" />
    <path
       id="path5547"
       d="m 28,3 c 0,0.3333333 0,0.6666667 0,1 0.333333,0 0.666667,0 1,0 0,-0.3333333 0,-0.6666667 0,-1 -0.333333,0 -0.666667,0 -1,0 z"
       style="fill:#827f80" />
    <path
       id="path5541"
       d="m 9,22 c 0,0.333333 0,0.666667 0,1 0.3333333,0 0.6666667,0 1,0 0,-0.333333 0,-0.666667 0,-1 -0.3333333,0 -0.6666667,0 -1,0 z"
       style="fill:#827f80" />
    <path
       id="path5539"
       d="m 75,104 c 0,0.33333 0,0.66667 0,1 0.333333,0 0.666667,0 1,0 0,-0.33333 0,-0.66667 0,-1 -0.333333,0 -0.666667,0 -1,0 z"
       style="fill:#827f80" />
    <path
       id="path5537"
       d="m 81,110 c 0,0.33333 0,0.66667 0,1 0.333333,0 0.666667,0 1,0 0,-0.33333 0,-0.66667 0,-1 -0.333333,0 -0.666667,0 -1,0 z"
       style="fill:#827f80" />
    <path
       id="path5525"
       d="m 60,121 c 0,0.33333 0,0.66667 0,1 0.333333,0 0.666667,0 1,0 0,-0.33333 0,-0.66667 0,-1 -0.333333,0 -0.666667,0 -1,0 z"
       style="fill:#827f80" />
    <path
       id="path5519"
       d="m 66,123 c 0,0.33333 0,0.66667 0,1 0.333333,0 0.666667,0 1,0 0,-0.33333 0,-0.66667 0,-1 -0.333333,0 -0.666667,0 -1,0 z"
       style="fill:#827f80" />
    <rect
       style="fill:#efefef"
       id="rect23474"
       y="130"
       x="60"
       width="1"
       height="1" />
    <rect
       style="fill:#332f30"
       id="rect23476"
       y="130"
       x="61"
       width="1"
       height="1" />
    <path
       id="path5616"
       d="m 29,3 c 0,0.3333333 0,0.6666667 0,1 0.333333,0 0.666667,0 1,0 0,-0.3333333 0,-0.6666667 0,-1 -0.333333,0 -0.666667,0 -1,0 z"
       style="fill:#c0bfbf" />
    <path
       id="path5608"
       d="m 27,13 c 0,0.333333 0,0.666667 0,1 0.333333,0 0.666667,0 1,0 0,-0.333333 0,-0.666667 0,-1 -0.333333,0 -0.666667,0 -1,0 z"
       style="fill:#c0bfbf" />
    <path
       id="path5606"
       d="m 31,14 c 0,0.333333 0,0.666667 0,1 0.333333,0 0.666667,0 1,0 0,-0.333333 0,-0.666667 0,-1 -0.333333,0 -0.666667,0 -1,0 z"
       style="fill:#c0bfbf" />
    <path
       id="path5604"
       d="m 24,15 c 0,0.333333 0,0.666667 0,1 0.333333,0 0.666667,0 1,0 0,-0.333333 0,-0.666667 0,-1 -0.333333,0 -0.666667,0 -1,0 z"
       style="fill:#c0bfbf" />
    <path
       id="path5596"
       d="m 10,22 c 0,0.333333 0,0.666667 0,1 0.333333,0 0.666667,0 1,0 0,-0.333333 0,-0.666667 0,-1 -0.333333,0 -0.666667,0 -1,0 z"
       style="fill:#c0bfbf" />
    <path
       id="path5594"
       d="m 8,32 c 0,0.333333 0,0.666667 0,1 0.3333333,0 0.6666667,0 1,0 0,-0.333333 0,-0.666667 0,-1 -0.3333333,0 -0.6666667,0 -1,0 z"
       style="fill:#c0bfbf" />
    <path
       id="path5592"
       d="m 12,33 c 0,0.333333 0,0.666667 0,1 0.333333,0 0.666667,0 1,0 0,-0.333333 0,-0.666667 0,-1 -0.333333,0 -0.666667,0 -1,0 z"
       style="fill:#c0bfbf" />
    <path
       id="path5590"
       d="m 5,34 c 0,0.333333 0,0.666667 0,1 0.3333333,0 0.6666667,0 1,0 0,-0.333333 0,-0.666667 0,-1 -0.3333333,0 -0.6666667,0 -1,0 z"
       style="fill:#c0bfbf" />
    <path
       id="path5588"
       d="m 75,105 c 0,0.33333 0,0.66667 0,1 0.333333,0 0.666667,0 1,0 0,-0.33333 0,-0.66667 0,-1 -0.333333,0 -0.666667,0 -1,0 z"
       style="fill:#c0bfbf" />
    <path
       id="path5582"
       d="m 66,124 c 0,0.33333 0,0.66667 0,1 0.333333,0 0.666667,0 1,0 0,-0.33333 0,-0.66667 0,-1 -0.333333,0 -0.666667,0 -1,0 z"
       style="fill:#c0bfbf" />
    <rect
       style="fill:#efefef"
       id="rect23652"
       y="131"
       x="61"
       width="1"
       height="1" />
    <path
       id="path5712"
       d="m 31,6 c 0,0.3333333 0,0.6666667 0,1 0.333333,0 0.666667,0 1,0 0,-0.3333333 0,-0.6666667 0,-1 -0.333333,0 -0.666667,0 -1,0 z"
       style="fill:#d0cfcf" />
    <path
       id="path5710"
       d="m 32,7 c 0,0.3333333 0,0.6666667 0,1 0.333333,0 0.666667,0 1,0 0,-0.3333333 0,-0.6666667 0,-1 -0.333333,0 -0.666667,0 -1,0 z"
       style="fill:#d0cfcf" />
    <path
       id="path5708"
       d="m 33,8 c 0,0.3333333 0,0.6666667 0,1 0.333333,0 0.666667,0 1,0 0,-0.3333333 0,-0.6666667 0,-1 -0.333333,0 -0.666667,0 -1,0 z"
       style="fill:#d0cfcf" />
    <path
       id="path5702"
       d="m 23,10 c 0,0.333333 0,0.666667 0,1 0.333333,0 0.666667,0 1,0 0,-0.333333 0,-0.666667 0,-1 -0.333333,0 -0.666667,0 -1,0 z"
       style="fill:#d0cfcf" />
    <path
       id="path5700"
       d="m 33,12 c 0,0.333333 0,0.666667 0,1 0.333333,0 0.666667,0 1,0 0,-0.333333 0,-0.666667 0,-1 -0.333333,0 -0.666667,0 -1,0 z"
       style="fill:#d0cfcf" />
    <path
       id="path5696"
       d="m 12,25 c 0,0.333333 0,0.666667 0,1 0.333333,0 0.666667,0 1,0 0,-0.333333 0,-0.666667 0,-1 -0.333333,0 -0.666667,0 -1,0 z"
       style="fill:#d0cfcf" />
    <path
       id="path5694"
       d="m 13,26 c 0,0.333333 0,0.666667 0,1 0.333333,0 0.666667,0 1,0 0,-0.333333 0,-0.666667 0,-1 -0.333333,0 -0.666667,0 -1,0 z"
       style="fill:#d0cfcf" />
    <path
       id="path5692"
       d="m 14,27 c 0,0.333333 0,0.666667 0,1 0.333333,0 0.666667,0 1,0 0,-0.333333 0,-0.666667 0,-1 -0.333333,0 -0.666667,0 -1,0 z"
       style="fill:#d0cfcf" />
    <path
       id="path5690"
       d="m 4,29 c 0,0.333333 0,0.666667 0,1 0.3333333,0 0.6666667,0 1,0 0,-0.333333 0,-0.666667 0,-1 -0.3333333,0 -0.6666667,0 -1,0 z"
       style="fill:#d0cfcf" />
    <path
       id="path5688"
       d="m 14,31 c 0,0.333333 0,0.666667 0,1 0.333333,0 0.666667,0 1,0 0,-0.333333 0,-0.666667 0,-1 -0.333333,0 -0.666667,0 -1,0 z"
       style="fill:#d0cfcf" />
    <path
       id="path5686"
       d="m 84,107 c 0,0.33333 0,0.66667 0,1 0.333333,0 0.666667,0 1,0 0,-0.33333 0,-0.66667 0,-1 -0.333333,0 -0.666667,0 -1,0 z"
       style="fill:#d0cfcf" />
    <path
       id="path5684"
       d="m 84,108 c -0.333333,0 -0.666667,0 -1,0 0,0.33333 0,0.66667 0,1 0.333333,0 0.666667,0 1,0 0,-0.33333 0,-0.66667 0,-1 z"
       style="fill:#d0cfcf" />
    <path
       id="path5682"
       d="m 83,109 c -0.333333,0 -0.666667,0 -1,0 0,0.33333 0,0.66667 0,1 0.333333,0 0.666667,0 1,0 0,-0.33333 0,-0.66667 0,-1 z"
       style="fill:#d0cfcf" />
    <path
       id="path5680"
       d="m 78,109 c 0,0.33333 0,0.66667 0,1 0.333333,0 0.666667,0 1,0 0,-0.33333 0,-0.66667 0,-1 -0.333333,0 -0.666667,0 -1,0 z"
       style="fill:#d0cfcf" />
    <path
       id="path5676"
       d="m 64,119 c 0,0.33333 0,0.66667 0,1 0.333333,0 0.666667,0 1,0 0,-0.33333 0,-0.66667 0,-1 -0.333333,0 -0.666667,0 -1,0 z"
       style="fill:#d0cfcf" />
    <path
       id="path5674"
       d="m 66,122 c 0,0.33333 0,0.66667 0,1 0.333333,0 0.666667,0 1,0 0,-0.33333 0,-0.66667 0,-1 -0.333333,0 -0.666667,0 -1,0 z"
       style="fill:#d0cfcf" />
    <path
       id="path5670"
       d="m 57,126 c 0,0.33333 0,0.66667 0,1 0.333333,0 0.666667,0 1,0 0,-0.33333 0,-0.66667 0,-1 -0.333333,0 -0.666667,0 -1,0 z"
       style="fill:#d0cfcf" />
    <path
       id="path5668"
       d="m 58,127 c 0,0.33333 0,0.66667 0,1 0.333333,0 0.666667,0 1,0 0,-0.33333 0,-0.66667 0,-1 -0.333333,0 -0.666667,0 -1,0 z"
       style="fill:#d0cfcf" />
    <path
       id="path5666"
       d="m 59,128 c 0,0.33333 0,0.66667 0,1 0.333333,0 0.666667,0 1,0 0,-0.33333 0,-0.66667 0,-1 -0.333333,0 -0.666667,0 -1,0 z"
       style="fill:#d0cfcf" />
    <path
       id="path5371"
       d="m 28,5 c 0,0.3333333 0,0.6666667 0,1 -0.333333,0 -0.666667,0 -1,0 0,0.3333333 0,0.6666667 0,1 -0.333333,0 -0.666667,0 -1,0 0,0.3333333 0,0.6666667 0,1 -0.333333,0 -0.666667,0 -1,0 0,0.6666667 0,1.3333333 0,2 -0.333333,0 -0.666667,0 -1,0 0,0.333333 0,0.666667 0,1 0.333333,0 0.666667,0 1,0 0,0.333333 0,0.666667 0,1 0.333333,0 0.666667,0 1,0 0,0.333333 0,0.666667 0,1 0.333333,0 0.666667,0 1,0 0,-0.333333 0,-0.666667 0,-1 1.333333,0 2.666667,0 4,0 0,0.333333 0,0.666667 0,1 0.333333,0 0.666667,0 1,0 0,-0.333333 0,-0.666667 0,-1 0.333333,0 0.666667,0 1,0 0,-0.333333 0,-0.666667 0,-1 0.333333,0 0.666667,0 1,0 0,-0.333333 0,-0.666667 0,-1 -0.333333,0 -0.666667,0 -1,0 0,-0.3333333 0,-0.6666667 0,-1 -0.333333,0 -0.666667,0 -1,0 0,-0.3333333 0,-0.6666667 0,-1 -0.333333,0 -0.666667,0 -1,0 0,-0.6666667 0,-1.3333333 0,-2 -0.333333,0 -0.666667,0 -1,0 0,-0.3333333 0,-0.6666667 0,-1 -0.666667,0 -1.333333,0 -2,0 z"
       style="fill:#050001" />
    <path
       id="path5369"
       d="m 28,13 c 0,0.666667 0,1.333333 0,2 0.666667,0 1.333333,0 2,0 0,-0.333333 0,-0.666667 0,-1 -0.333333,0 -0.666667,0 -1,0 0,-0.333333 0,-0.666667 0,-1 -0.333333,0 -0.666667,0 -1,0 z"
       style="fill:#050001" />
    <path
       id="path5367"
       d="m 9,24 c 0,0.333333 0,0.666667 0,1 -0.3333333,0 -0.6666667,0 -1,0 0,0.333333 0,0.666667 0,1 -0.3333333,0 -0.6666667,0 -1,0 0,0.333333 0,0.666667 0,1 -0.3333333,0 -0.6666667,0 -1,0 0,0.666667 0,1.333333 0,2 -0.3333333,0 -0.6666667,0 -1,0 0,0.333333 0,0.666667 0,1 0.3333333,0 0.6666667,0 1,0 0,0.333333 0,0.666667 0,1 0.3333333,0 0.6666667,0 1,0 0,0.333333 0,0.666667 0,1 0.3333333,0 0.6666667,0 1,0 0,-0.333333 0,-0.666667 0,-1 1.3333333,0 2.666667,0 4,0 0,0.333333 0,0.666667 0,1 0.333333,0 0.666667,0 1,0 0,-0.333333 0,-0.666667 0,-1 0.333333,0 0.666667,0 1,0 0,-0.333333 0,-0.666667 0,-1 0.333333,0 0.666667,0 1,0 0,-0.333333 0,-0.666667 0,-1 -0.333333,0 -0.666667,0 -1,0 0,-0.333333 0,-0.666667 0,-1 -0.333333,0 -0.666667,0 -1,0 0,-0.333333 0,-0.666667 0,-1 -0.333333,0 -0.666667,0 -1,0 0,-0.666667 0,-1.333333 0,-2 -0.333333,0 -0.666667,0 -1,0 0,-0.333333 0,-0.666667 0,-1 -0.666667,0 -1.3333333,0 -2,0 z"
       style="fill:#050001" />
    <path
       id="path5365"
       d="m 9,32 c 0,0.666667 0,1.333333 0,2 0.6666667,0 1.333333,0 2,0 0,-0.333333 0,-0.666667 0,-1 -0.333333,0 -0.666667,0 -1,0 0,-0.333333 0,-0.666667 0,-1 -0.3333333,0 -0.6666667,0 -1,0 z"
       style="fill:#050001" />
    <path
       id="path5363"
       d="m 79,100 c 0,0.33333 0,0.66667 0,1 0.333333,0 0.666667,0 1,0 0,0.66667 0,1.33333 0,2 -1.333333,0 -2.666667,0 -4,0 0,1 0,2 0,3 0.333333,0 0.666667,0 1,0 0,0.33333 0,0.66667 0,1 0.333333,0 0.666667,0 1,0 0,0.33333 0,0.66667 0,1 0.333333,0 0.666667,0 1,0 0,0.33333 0,0.66667 0,1 0.333333,0 0.666667,0 1,0 0,0.66667 0,1.33333 0,2 0.333333,0 0.666667,0 1,0 0,-0.66667 0,-1.33333 0,-2 0.333333,0 0.666667,0 1,0 0,-0.33333 0,-0.66667 0,-1 0.333333,0 0.666667,0 1,0 0,-0.33333 0,-0.66667 0,-1 0.333333,0 0.666667,0 1,0 0,-0.33333 0,-0.66667 0,-1 0.333333,0 0.666667,0 1,0 0,-1 0,-2 0,-3 -1.333333,0 -2.666667,0 -4,0 0,-0.66667 0,-1.33333 0,-2 0.333333,0 0.666667,0 1,0 0,-0.33333 0,-0.66667 0,-1 -1,0 -2,0 -3,0 z"
       style="fill:#050001" />
    <path
       id="rect23686"
       d="m 60,119 c 0,0.33333 0,0.66667 0,1 0.333333,0 0.666667,0 1,0 0,0.66667 0,1.33333 0,2 -1.333333,0 -2.666667,0 -4,0 0,1 0,2 0,3 0.333333,0 0.666667,0 1,0 0,0.33333 0,0.66667 0,1 0.333333,0 0.666667,0 1,0 0,0.33333 0,0.66667 0,1 0.333333,0 0.666667,0 1,0 0,0.33333 0,0.66667 0,1 0.333333,0 0.666667,0 1,0 0,0.66667 0,1.33333 0,2 0.333333,0 0.666667,0 1,0 0,-0.66667 0,-1.33333 0,-2 0.333333,0 0.666667,0 1,0 0,-0.33333 0,-0.66667 0,-1 0.333333,0 0.666667,0 1,0 0,-0.33333 0,-0.66667 0,-1 0.333333,0 0.666667,0 1,0 0,-0.33333 0,-0.66667 0,-1 0.333333,0 0.666667,0 1,0 0,-1 0,-2 0,-3 -1.333333,0 -2.666667,0 -4,0 0,-0.66667 0,-1.33333 0,-2 0.333333,0 0.666667,0 1,0 0,-0.33333 0,-0.66667 0,-1 -1,0 -2,0 -3,0 z"
       style="fill:#050001" />
  </g>
</svg>
